<svg width="31" height="24" viewBox="0 0 31 24" fill="none" xmlns="http://www.w3.org/2000/svg">
<g id="Group 86">
<g id="Group">
<g id="Group_2">
<path id="Vector" d="M30.2001 12.2999C29.1001 18.3999 23.8001 22.5999 17.9001 22.5999C17.1001 22.5999 16.4001 22.4999 15.6001 22.3999C16.9001 21.0999 17.9001 19.5999 18.6001 18.0999C18.6001 17.9999 18.7001 17.8999 18.7001 17.7999C19.0001 17.1999 19.2001 16.5999 19.4001 15.9999C19.5001 15.7999 19.5001 15.4999 19.6001 15.2999C20.4001 14.5999 21.2001 13.9999 22.1001 13.4999C24.6001 12.2999 27.4001 11.7999 30.2001 12.2999Z" fill="#00674F" stroke="white" stroke-width="1.5" stroke-miterlimit="10" stroke-linecap="round" stroke-linejoin="round"/>
<path id="Vector_2" d="M15.6 22.3999C14.8 22.4999 14.1 22.5999 13.3 22.5999C7.30002 22.5999 2.1 18.3999 1 12.2999C3.9 11.7999 6.7 12.2999 9 13.4999C9.9 13.9999 10.8 14.5999 11.5 15.2999C11.6 15.4999 11.6 15.7999 11.7 15.9999C11.9 16.5999 12.1 17.1999 12.3 17.7999C12.3 17.8999 12.4 17.9999 12.4 18.0999C13.3 19.5999 14.3 21.0999 15.6 22.3999Z" fill="#00674F" stroke="white" stroke-width="1.5" stroke-miterlimit="10" stroke-linecap="round" stroke-linejoin="round"/>
</g>
<path id="Vector_3" d="M20.0002 11.7C20.0002 12.9 19.9002 14.1 19.6002 15.3C19.5002 15.5 19.5002 15.8 19.4002 16C19.2002 16.6 19.0002 17.2 18.7002 17.8C18.7002 17.9 18.6002 18 18.6002 18.1C17.9002 19.7 16.8002 21.1 15.6002 22.4C14.3002 21.1 13.3002 19.6 12.6002 18.1C12.6002 18 12.5002 17.9 12.5002 17.8C12.2002 17.2 12.0002 16.6 11.9002 16C11.8002 15.8 11.8002 15.5 11.7002 15.3C11.0002 12.5 11.2002 9.50002 12.1002 6.80002C12.8002 4.70002 14.0002 2.7 15.7002 1C17.4002 2.7 18.6002 4.70002 19.3002 6.80002C19.8002 8.40002 20.0002 10 20.0002 11.7Z" fill="#00674F" stroke="white" stroke-width="1.5" stroke-miterlimit="10" stroke-linecap="round" stroke-linejoin="round"/>
</g>
<g id="Group_3">
<path id="Vector_4" d="M25.2003 5.2998C25.2003 8.3998 24.1003 11.2998 22.2003 13.4998C21.3003 13.9998 20.4003 14.5998 19.7003 15.2998C20.0003 14.0998 20.1003 12.8998 20.1003 11.6998C20.1003 9.9998 19.8003 8.3998 19.3003 6.7998C21.0003 5.7998 23.0003 5.2998 25.2003 5.2998Z" stroke="white" stroke-width="1.5" stroke-miterlimit="10" stroke-linecap="round" stroke-linejoin="round"/>
<path id="Vector_5" d="M11.6001 15.2998C10.8001 14.5998 10.0001 13.9998 9.1001 13.4998C7.2001 11.2998 6.1001 8.3998 6.1001 5.2998C8.2001 5.2998 10.3001 5.7998 12.0001 6.7998C11.0001 9.4998 10.9001 12.4998 11.6001 15.2998Z" stroke="white" stroke-width="1.5" stroke-miterlimit="10" stroke-linecap="round" stroke-linejoin="round"/>
</g>
</g>
</svg>
