<svg width="362" height="280" viewBox="0 0 362 280" fill="none" xmlns="http://www.w3.org/2000/svg">
<g filter="url(#filter0_dd_1212_4311)">
<g clip-path="url(#clip0_1212_4311)">
<rect x="18.5" y="10.5" width="325" height="243" rx="9.5" fill="#00674F" stroke="#00674F"/>
<path opacity="0.2" fill-rule="evenodd" clip-rule="evenodd" d="M-156 44L-122 64C-90 84 -22 124 44 154C110 184 178 204 244 180C310 154 378 84 444 60C510 34 578 54 644 64C710 74 778 74 810 74H844V254H810C778 254 710 254 644 254C578 254 510 254 444 254C378 254 310 254 244 254C178 254 110 254 44 254C-22 254 -90 254 -122 254H-156V44Z" fill="#C2A353"/>
<path opacity="0.2" fill-rule="evenodd" clip-rule="evenodd" d="M-86 149L-69 159C-53 169 -19 189 14 204C47 219 81 229 114 217C147 204 181 169 214 157C247 144 281 154 314 159C347 164 381 164 397 164H414V254H397C381 254 347 254 314 254C281 254 247 254 214 254C181 254 147 254 114 254C81 254 47 254 14 254C-19 254 -53 254 -69 254H-86V149Z" fill="#C2A353"/>
<path d="M85.4453 96H83.8438V87.7031H83.7891L80.3906 95.9141H79.0938L75.6875 87.7031H75.6328V96H74.0391V84.7266H76.0625L79.7109 93.625H79.7734L83.4141 84.7266H85.4453V96ZM87.695 96V87.7812H89.3825V96H87.695ZM88.5387 86.5781C87.9997 86.5781 87.5622 86.1484 87.5622 85.6172C87.5622 85.0781 87.9997 84.6484 88.5387 84.6484C89.0856 84.6484 89.5231 85.0781 89.5231 85.6172C89.5231 86.1484 89.0856 86.5781 88.5387 86.5781ZM91.2806 90.1094C91.2806 88.6406 92.5775 87.6328 94.4994 87.6328C96.3275 87.6328 97.6087 88.6562 97.6634 90.1172H96.0775C95.9994 89.375 95.3978 88.9141 94.4525 88.9141C93.5384 88.9141 92.9291 89.3594 92.9291 90.0078C92.9291 90.5156 93.3353 90.8594 94.1869 91.0703L95.5697 91.3906C97.2259 91.7891 97.8509 92.4141 97.8509 93.625C97.8509 95.125 96.4525 96.1562 94.4369 96.1562C92.4916 96.1562 91.2025 95.1484 91.0697 93.6406H92.7416C92.8744 94.4297 93.4837 94.8672 94.515 94.8672C95.5306 94.8672 96.1556 94.4453 96.1556 93.7812C96.1556 93.2578 95.8431 92.9688 94.9837 92.75L93.515 92.3906C92.0306 92.0312 91.2806 91.2578 91.2806 90.1094ZM99.5381 96V87.7812H101.226V96H99.5381ZM100.382 86.5781C99.8428 86.5781 99.4053 86.1484 99.4053 85.6172C99.4053 85.0781 99.8428 84.6484 100.382 84.6484C100.929 84.6484 101.366 85.0781 101.366 85.6172C101.366 86.1484 100.929 86.5781 100.382 86.5781ZM107.045 84.7266H111.022C114.373 84.7266 116.358 86.7891 116.358 90.3438C116.358 93.9062 114.381 96 111.022 96H107.045V84.7266ZM108.795 86.2344V94.4844H110.858C113.248 94.4844 114.569 93.0234 114.569 90.3594C114.569 87.7031 113.241 86.2344 110.858 86.2344H108.795ZM118.147 96V87.7812H119.756V89.1797H119.795C120.068 88.2188 120.803 87.6484 121.772 87.6484C122.014 87.6484 122.225 87.6875 122.35 87.7109V89.2812C122.217 89.2266 121.92 89.1875 121.592 89.1875C120.506 89.1875 119.834 89.9141 119.834 91.0781V96H118.147ZM124.17 96.0859C123.599 96.0859 123.146 95.6328 123.146 95.0625C123.146 94.4922 123.599 94.0391 124.17 94.0391C124.74 94.0391 125.193 94.4922 125.193 95.0625C125.193 95.6328 124.74 96.0859 124.17 96.0859ZM132.06 96H130.357V84.7266H131.943L137.786 93.0391H137.849V84.7266H139.552V96H137.974L132.13 87.6953H132.06V96ZM141.809 96V87.7812H143.497V96H141.809ZM142.653 86.5781C142.114 86.5781 141.677 86.1484 141.677 85.6172C141.677 85.0781 142.114 84.6484 142.653 84.6484C143.2 84.6484 143.637 85.0781 143.637 85.6172C143.637 86.1484 143.2 86.5781 142.653 86.5781ZM152.598 90.6094H150.989C150.817 89.7344 150.161 89.0391 149.059 89.0391C147.754 89.0391 146.895 90.125 146.895 91.8906C146.895 93.6953 147.762 94.7422 149.075 94.7422C150.114 94.7422 150.793 94.1719 150.989 93.2188H152.614C152.434 94.9688 151.036 96.1562 149.059 96.1562C146.707 96.1562 145.176 94.5469 145.176 91.8906C145.176 89.2812 146.707 87.6328 149.043 87.6328C151.161 87.6328 152.45 88.9922 152.598 90.6094ZM154.192 96V84.7266H155.863V89.1562H155.902C156.356 88.1953 157.254 87.6406 158.504 87.6406C160.309 87.6406 161.387 88.8438 161.387 90.7031V96H159.692V91.0312C159.692 89.8203 159.082 89.0938 157.895 89.0938C156.645 89.0938 155.879 89.9531 155.879 91.25V96H154.192ZM171.636 96H167.113V84.7266H171.613C173.613 84.7266 174.925 85.8359 174.925 87.5391C174.925 88.7344 174.043 89.8047 172.918 89.9922V90.0547C174.449 90.2266 175.48 91.3125 175.48 92.8125C175.48 94.7969 174.035 96 171.636 96ZM168.863 86.1562V89.5234H170.824C172.339 89.5234 173.175 88.8984 173.175 87.7812C173.175 86.7344 172.457 86.1562 171.191 86.1562H168.863ZM168.863 94.5703H171.277C172.855 94.5703 173.691 93.9219 173.691 92.7031C173.691 91.4844 172.832 90.8594 171.175 90.8594H168.863V94.5703ZM180.542 88.9922C179.363 88.9922 178.534 89.8906 178.448 91.1328H182.558C182.519 89.875 181.722 88.9922 180.542 88.9922ZM182.55 93.5859H184.152C183.917 95.0859 182.495 96.1562 180.613 96.1562C178.198 96.1562 176.738 94.5234 176.738 91.9297C176.738 89.3516 178.222 87.6328 180.542 87.6328C182.823 87.6328 184.245 89.2422 184.245 91.7344V92.3125H178.441V92.4141C178.441 93.8438 179.3 94.7891 180.652 94.7891C181.613 94.7891 182.323 94.3047 182.55 93.5859ZM188.753 94.8047C189.933 94.8047 190.854 93.9922 190.854 92.9219V92.2734L188.831 92.3984C187.823 92.4688 187.253 92.9141 187.253 93.6172C187.253 94.3359 187.847 94.8047 188.753 94.8047ZM188.284 96.1406C186.675 96.1406 185.55 95.1406 185.55 93.6641C185.55 92.2266 186.651 91.3438 188.604 91.2344L190.854 91.1016V90.4688C190.854 89.5547 190.237 89.0078 189.206 89.0078C188.229 89.0078 187.62 89.4766 187.472 90.2109H185.878C185.972 88.7266 187.237 87.6328 189.268 87.6328C191.261 87.6328 192.534 88.6875 192.534 90.3359V96H190.917V94.6484H190.878C190.401 95.5625 189.362 96.1406 188.284 96.1406ZM201.542 87.7812V96H199.924V94.6094H199.885C199.432 95.5938 198.596 96.1484 197.338 96.1484C195.549 96.1484 194.456 94.9844 194.456 93.1016V87.7812H196.143V92.7734C196.143 94.0234 196.737 94.6953 197.901 94.6953C199.12 94.6953 199.854 93.8516 199.854 92.5703V87.7812H201.542ZM204.026 85.8359H205.721V87.7812H207.283V89.1172H205.721V93.6484C205.721 94.3594 206.033 94.6797 206.721 94.6797C206.893 94.6797 207.166 94.6641 207.276 94.6406V95.9766C207.088 96.0234 206.713 96.0547 206.338 96.0547C204.674 96.0547 204.026 95.4219 204.026 93.8359V89.1172H202.83V87.7812H204.026V85.8359ZM209.807 99.0625C209.674 99.0625 209.244 99.0469 209.119 99.0234V97.6562C209.244 97.6875 209.525 97.6875 209.666 97.6875C210.455 97.6875 210.869 97.3594 211.127 96.5156C211.127 96.5 211.275 96.0156 211.275 96.0078L208.307 87.7812H210.135L212.221 94.4688H212.244L214.33 87.7812H216.111L213.025 96.4297C212.322 98.4219 211.518 99.0625 209.807 99.0625ZM228.54 96L227.509 92.9531H223.212L222.181 96H220.361L224.431 84.7266H226.322L230.392 96H228.54ZM225.337 86.6016L223.658 91.5469H227.064L225.384 86.6016H225.337ZM234.97 88.9922C233.79 88.9922 232.962 89.8906 232.876 91.1328H236.985C236.946 89.875 236.149 88.9922 234.97 88.9922ZM236.977 93.5859H238.579C238.345 95.0859 236.923 96.1562 235.04 96.1562C232.626 96.1562 231.165 94.5234 231.165 91.9297C231.165 89.3516 232.649 87.6328 234.97 87.6328C237.251 87.6328 238.673 89.2422 238.673 91.7344V92.3125H232.868V92.4141C232.868 93.8438 233.727 94.7891 235.079 94.7891C236.04 94.7891 236.751 94.3047 236.977 93.5859ZM240.157 90.1094C240.157 88.6406 241.454 87.6328 243.376 87.6328C245.204 87.6328 246.485 88.6562 246.54 90.1172H244.954C244.876 89.375 244.274 88.9141 243.329 88.9141C242.415 88.9141 241.805 89.3594 241.805 90.0078C241.805 90.5156 242.212 90.8594 243.063 91.0703L244.446 91.3906C246.102 91.7891 246.727 92.4141 246.727 93.625C246.727 95.125 245.329 96.1562 243.313 96.1562C241.368 96.1562 240.079 95.1484 239.946 93.6406H241.618C241.751 94.4297 242.36 94.8672 243.391 94.8672C244.407 94.8672 245.032 94.4453 245.032 93.7812C245.032 93.2578 244.719 92.9688 243.86 92.75L242.391 92.3906C240.907 92.0312 240.157 91.2578 240.157 90.1094ZM248.852 85.8359H250.547V87.7812H252.11V89.1172H250.547V93.6484C250.547 94.3594 250.86 94.6797 251.547 94.6797C251.719 94.6797 251.992 94.6641 252.102 94.6406V95.9766C251.914 96.0234 251.539 96.0547 251.164 96.0547C249.5 96.0547 248.852 95.4219 248.852 93.8359V89.1172H247.657V87.7812H248.852V85.8359ZM253.883 96V84.7266H255.555V89.1562H255.594C256.047 88.1953 256.945 87.6406 258.195 87.6406C260 87.6406 261.078 88.8438 261.078 90.7031V96H259.383V91.0312C259.383 89.8203 258.773 89.0938 257.586 89.0938C256.336 89.0938 255.57 89.9531 255.57 91.25V96H253.883ZM266.468 88.9922C265.289 88.9922 264.461 89.8906 264.375 91.1328H268.484C268.445 89.875 267.648 88.9922 266.468 88.9922ZM268.476 93.5859H270.078C269.843 95.0859 268.422 96.1562 266.539 96.1562C264.125 96.1562 262.664 94.5234 262.664 91.9297C262.664 89.3516 264.148 87.6328 266.468 87.6328C268.75 87.6328 270.172 89.2422 270.172 91.7344V92.3125H264.367V92.4141C264.367 93.8438 265.226 94.7891 266.578 94.7891C267.539 94.7891 268.25 94.3047 268.476 93.5859ZM272.296 85.8359H273.992V87.7812H275.554V89.1172H273.992V93.6484C273.992 94.3594 274.304 94.6797 274.992 94.6797C275.163 94.6797 275.437 94.6641 275.546 94.6406V95.9766C275.359 96.0234 274.984 96.0547 274.609 96.0547C272.945 96.0547 272.296 95.4219 272.296 93.8359V89.1172H271.101V87.7812H272.296V85.8359ZM277.319 96V87.7812H279.007V96H277.319ZM278.163 86.5781C277.624 86.5781 277.187 86.1484 277.187 85.6172C277.187 85.0781 277.624 84.6484 278.163 84.6484C278.71 84.6484 279.148 85.0781 279.148 85.6172C279.148 86.1484 278.71 86.5781 278.163 86.5781ZM288.108 90.6094H286.499C286.327 89.7344 285.671 89.0391 284.569 89.0391C283.264 89.0391 282.405 90.125 282.405 91.8906C282.405 93.6953 283.272 94.7422 284.585 94.7422C285.624 94.7422 286.303 94.1719 286.499 93.2188H288.124C287.944 94.9688 286.546 96.1562 284.569 96.1562C282.217 96.1562 280.686 94.5469 280.686 91.8906C280.686 89.2812 282.217 87.6328 284.553 87.6328C286.671 87.6328 287.96 88.9922 288.108 90.6094Z" fill="white"/>
<path d="M48.1523 129H47.168V122.484H47.127L44.4316 128.941H43.541L40.8457 122.484H40.8047V129H39.8203V120.545H41.0449L43.9629 127.6H44.0098L46.9277 120.545H48.1523V129ZM49.9275 129V122.906H50.947V129H49.9275ZM50.4373 121.881C50.0916 121.881 49.8045 121.594 49.8045 121.248C49.8045 120.896 50.0916 120.615 50.4373 120.615C50.7888 120.615 51.0759 120.896 51.0759 121.248C51.0759 121.594 50.7888 121.881 50.4373 121.881ZM52.4585 124.588C52.4585 123.545 53.3902 122.801 54.732 122.801C55.9917 122.801 56.9175 123.551 56.9644 124.582H55.9917C55.9214 123.996 55.4468 123.633 54.6968 123.633C53.9527 123.633 53.4605 124.002 53.4605 124.535C53.4605 124.957 53.7827 125.238 54.4741 125.414L55.4175 125.643C56.648 125.953 57.0933 126.398 57.0933 127.295C57.0933 128.355 56.0913 129.105 54.6675 129.105C53.3316 129.105 52.3999 128.379 52.2945 127.301H53.314C53.4253 127.934 53.9058 128.273 54.732 128.273C55.5581 128.273 56.0679 127.922 56.0679 127.371C56.0679 126.938 55.8159 126.703 55.1304 126.521L54.0581 126.246C52.9859 125.971 52.4585 125.42 52.4585 124.588ZM58.4466 129V122.906H59.4661V129H58.4466ZM58.9563 121.881C58.6106 121.881 58.3235 121.594 58.3235 121.248C58.3235 120.896 58.6106 120.615 58.9563 120.615C59.3079 120.615 59.595 120.896 59.595 121.248C59.595 121.594 59.3079 121.881 58.9563 121.881ZM66.9356 125.613L69.6309 122.906H70.8672L68.2247 125.537L70.9493 129H69.7657L67.504 126.164L66.9356 126.703V129H65.9161V120.545H66.9356V125.613ZM73.9373 128.238C74.8983 128.238 75.6365 127.564 75.6365 126.686V126.188L74.0076 126.287C73.1873 126.34 72.7186 126.703 72.7186 127.277C72.7186 127.857 73.2049 128.238 73.9373 128.238ZM73.7088 129.105C72.4959 129.105 71.6815 128.373 71.6815 127.277C71.6815 126.234 72.4842 125.578 73.8904 125.496L75.6365 125.396V124.887C75.6365 124.143 75.1444 123.697 74.3006 123.697C73.5154 123.697 73.0233 124.066 72.8944 124.664H71.91C71.9803 123.609 72.8826 122.801 74.324 122.801C75.7537 122.801 76.6561 123.574 76.6561 124.787V129H75.6893V127.951H75.6658C75.3026 128.648 74.5291 129.105 73.7088 129.105ZM78.191 129V122.906H79.1519V123.879H79.1754C79.4625 123.234 80.0836 122.801 80.9039 122.801C81.7359 122.801 82.3511 123.223 82.6148 123.961H82.6383C82.9781 123.234 83.6929 122.801 84.5484 122.801C85.7554 122.801 86.5347 123.586 86.5347 124.793V129H85.5152V125.027C85.5152 124.195 85.0523 123.703 84.2496 123.703C83.441 123.703 82.8726 124.301 82.8726 125.127V129H81.8531V124.916C81.8531 124.184 81.3609 123.703 80.6051 123.703C79.7965 123.703 79.2105 124.336 79.2105 125.18V129H78.191ZM88.1283 129V122.906H89.1478V129H88.1283ZM88.638 121.881C88.2923 121.881 88.0052 121.594 88.0052 121.248C88.0052 120.896 88.2923 120.615 88.638 120.615C88.9896 120.615 89.2767 120.896 89.2767 121.248C89.2767 121.594 88.9896 121.881 88.638 121.881ZM97.5548 128.238C98.5157 128.238 99.254 127.564 99.254 126.686V126.188L97.6251 126.287C96.8048 126.34 96.336 126.703 96.336 127.277C96.336 127.857 96.8224 128.238 97.5548 128.238ZM97.3263 129.105C96.1134 129.105 95.2989 128.373 95.2989 127.277C95.2989 126.234 96.1017 125.578 97.5079 125.496L99.254 125.396V124.887C99.254 124.143 98.7618 123.697 97.9181 123.697C97.1329 123.697 96.6407 124.066 96.5118 124.664H95.5275C95.5978 123.609 96.5001 122.801 97.9415 122.801C99.3712 122.801 100.274 123.574 100.274 124.787V129H99.3068V127.951H99.2833C98.92 128.648 98.1466 129.105 97.3263 129.105ZM104.117 129.105C102.564 129.105 101.51 127.863 101.51 125.953C101.51 124.043 102.558 122.801 104.094 122.801C104.967 122.801 105.67 123.229 106.033 123.896H106.057V120.545H107.076V129H106.103V127.969H106.086C105.693 128.672 104.996 129.105 104.117 129.105ZM104.31 123.697C103.232 123.697 102.553 124.576 102.553 125.953C102.553 127.336 103.232 128.209 104.31 128.209C105.359 128.209 106.062 127.318 106.062 125.953C106.062 124.594 105.359 123.697 104.31 123.697ZM110.703 128.238C111.664 128.238 112.402 127.564 112.402 126.686V126.188L110.773 126.287C109.953 126.34 109.484 126.703 109.484 127.277C109.484 127.857 109.97 128.238 110.703 128.238ZM110.474 129.105C109.261 129.105 108.447 128.373 108.447 127.277C108.447 126.234 109.25 125.578 110.656 125.496L112.402 125.396V124.887C112.402 124.143 111.91 123.697 111.066 123.697C110.281 123.697 109.789 124.066 109.66 124.664H108.675C108.746 123.609 109.648 122.801 111.089 122.801C112.519 122.801 113.422 123.574 113.422 124.787V129H112.455V127.951H112.431C112.068 128.648 111.295 129.105 110.474 129.105ZM115.009 129V120.545H116.029V129H115.009ZM119.655 128.238C120.616 128.238 121.355 127.564 121.355 126.686V126.188L119.726 126.287C118.905 126.34 118.437 126.703 118.437 127.277C118.437 127.857 118.923 128.238 119.655 128.238ZM119.427 129.105C118.214 129.105 117.4 128.373 117.4 127.277C117.4 126.234 118.202 125.578 119.609 125.496L121.355 125.396V124.887C121.355 124.143 120.862 123.697 120.019 123.697C119.234 123.697 118.741 124.066 118.612 124.664H117.628C117.698 123.609 118.601 122.801 120.042 122.801C121.472 122.801 122.374 123.574 122.374 124.787V129H121.407V127.951H121.384C121.021 128.648 120.247 129.105 119.427 129.105ZM123.962 129V120.545H124.981V123.879H125.005C125.345 123.199 126.013 122.801 126.938 122.801C128.274 122.801 129.083 123.703 129.083 125.062V129H128.063V125.25C128.063 124.283 127.577 123.703 126.622 123.703C125.608 123.703 124.981 124.395 124.981 125.449V129H123.962ZM135.398 129V122.906H136.359V123.879H136.383C136.67 123.234 137.291 122.801 138.111 122.801C138.943 122.801 139.558 123.223 139.822 123.961H139.845C140.185 123.234 140.9 122.801 141.756 122.801C142.963 122.801 143.742 123.586 143.742 124.793V129H142.722V125.027C142.722 124.195 142.259 123.703 141.457 123.703C140.648 123.703 140.08 124.301 140.08 125.127V129H139.06V124.916C139.06 124.184 138.568 123.703 137.812 123.703C137.004 123.703 136.418 124.336 136.418 125.18V129H135.398ZM147.726 123.686C146.771 123.686 146.103 124.418 146.039 125.432H149.349C149.326 124.412 148.687 123.686 147.726 123.686ZM149.326 127.254H150.328C150.152 128.32 149.121 129.105 147.79 129.105C146.044 129.105 144.984 127.893 144.984 125.977C144.984 124.084 146.062 122.801 147.744 122.801C149.39 122.801 150.404 123.996 150.404 125.842V126.229H146.033V126.287C146.033 127.453 146.718 128.221 147.814 128.221C148.587 128.221 149.156 127.828 149.326 127.254ZM151.675 129V122.906H152.636V123.879H152.659C152.946 123.234 153.568 122.801 154.388 122.801C155.22 122.801 155.835 123.223 156.099 123.961H156.122C156.462 123.234 157.177 122.801 158.032 122.801C159.239 122.801 160.019 123.586 160.019 124.793V129H158.999V125.027C158.999 124.195 158.536 123.703 157.734 123.703C156.925 123.703 156.357 124.301 156.357 125.127V129H155.337V124.916C155.337 124.184 154.845 123.703 154.089 123.703C153.28 123.703 152.695 124.336 152.695 125.18V129H151.675ZM164.589 129.105C163.698 129.105 163.001 128.672 162.608 127.969H162.585V129H161.612V120.545H162.632V123.926H162.655C163.036 123.229 163.745 122.801 164.606 122.801C166.142 122.801 167.179 124.043 167.179 125.953C167.179 127.869 166.147 129.105 164.589 129.105ZM164.39 123.697C163.358 123.697 162.626 124.6 162.626 125.953C162.626 127.312 163.358 128.209 164.39 128.209C165.468 128.209 166.136 127.348 166.136 125.953C166.136 124.57 165.468 123.697 164.39 123.697ZM170.466 128.238C171.426 128.238 172.165 127.564 172.165 126.686V126.188L170.536 126.287C169.716 126.34 169.247 126.703 169.247 127.277C169.247 127.857 169.733 128.238 170.466 128.238ZM170.237 129.105C169.024 129.105 168.21 128.373 168.21 127.277C168.21 126.234 169.012 125.578 170.419 125.496L172.165 125.396V124.887C172.165 124.143 171.673 123.697 170.829 123.697C170.044 123.697 169.551 124.066 169.423 124.664H168.438C168.509 123.609 169.411 122.801 170.852 122.801C172.282 122.801 173.184 123.574 173.184 124.787V129H172.217V127.951H172.194C171.831 128.648 171.057 129.105 170.237 129.105ZM174.719 129V122.906H175.68V123.879H175.704C176.043 123.223 176.694 122.801 177.637 122.801C178.973 122.801 179.747 123.662 179.747 125.045V129H178.727V125.227C178.727 124.242 178.264 123.703 177.327 123.703C176.366 123.703 175.739 124.383 175.739 125.414V129H174.719ZM181.615 121.436H182.635V122.906H183.819V123.744H182.635V127.365C182.635 127.922 182.869 128.174 183.391 128.174C183.508 128.174 183.742 128.156 183.813 128.145V129C183.69 129.029 183.408 129.047 183.168 129.047C182.049 129.047 181.615 128.59 181.615 127.418V123.744H180.707V122.906H181.615V121.436ZM190.152 122.906V129H189.186V128.01H189.162C188.799 128.713 188.166 129.105 187.229 129.105C185.898 129.105 185.119 128.244 185.119 126.861V122.906H186.139V126.68C186.139 127.67 186.602 128.203 187.545 128.203C188.535 128.203 189.133 127.523 189.133 126.486V122.906H190.152ZM196.391 124.588C196.391 123.545 197.323 122.801 198.665 122.801C199.925 122.801 200.85 123.551 200.897 124.582H199.925C199.854 123.996 199.38 123.633 198.63 123.633C197.886 123.633 197.393 124.002 197.393 124.535C197.393 124.957 197.716 125.238 198.407 125.414L199.35 125.643C200.581 125.953 201.026 126.398 201.026 127.295C201.026 128.355 200.024 129.105 198.6 129.105C197.264 129.105 196.333 128.379 196.227 127.301H197.247C197.358 127.934 197.839 128.273 198.665 128.273C199.491 128.273 200.001 127.922 200.001 127.371C200.001 126.938 199.749 126.703 199.063 126.521L197.991 126.246C196.919 125.971 196.391 125.42 196.391 124.588ZM204.77 123.686C203.815 123.686 203.147 124.418 203.083 125.432H206.393C206.37 124.412 205.731 123.686 204.77 123.686ZM206.37 127.254H207.372C207.196 128.32 206.165 129.105 204.835 129.105C203.088 129.105 202.028 127.893 202.028 125.977C202.028 124.084 203.106 122.801 204.788 122.801C206.434 122.801 207.448 123.996 207.448 125.842V126.229H203.077V126.287C203.077 127.453 203.762 128.221 204.858 128.221C205.631 128.221 206.2 127.828 206.37 127.254ZM209.047 121.436H210.067V122.906H211.25V123.744H210.067V127.365C210.067 127.922 210.301 128.174 210.823 128.174C210.94 128.174 211.174 128.156 211.244 128.145V129C211.121 129.029 210.84 129.047 210.6 129.047C209.481 129.047 209.047 128.59 209.047 127.418V123.744H208.139V122.906H209.047V121.436ZM212.633 129V122.906H213.652V129H212.633ZM213.143 121.881C212.797 121.881 212.51 121.594 212.51 121.248C212.51 120.896 212.797 120.615 213.143 120.615C213.494 120.615 213.781 120.896 213.781 121.248C213.781 121.594 213.494 121.881 213.143 121.881ZM217.279 128.238C218.24 128.238 218.978 127.564 218.978 126.686V126.188L217.349 126.287C216.529 126.34 216.06 126.703 216.06 127.277C216.06 127.857 216.547 128.238 217.279 128.238ZM217.051 129.105C215.838 129.105 215.023 128.373 215.023 127.277C215.023 126.234 215.826 125.578 217.232 125.496L218.978 125.396V124.887C218.978 124.143 218.486 123.697 217.642 123.697C216.857 123.697 216.365 124.066 216.236 124.664H215.252C215.322 123.609 216.224 122.801 217.666 122.801C219.096 122.801 219.998 123.574 219.998 124.787V129H219.031V127.951H219.008C218.644 128.648 217.871 129.105 217.051 129.105ZM224.492 122.801C226.045 122.801 227.099 124.043 227.099 125.953C227.099 127.863 226.05 129.105 224.515 129.105C223.642 129.105 222.939 128.678 222.576 128.01H222.552V131.033H221.533V122.906H222.5V123.938H222.523C222.898 123.252 223.607 122.801 224.492 122.801ZM224.293 128.209C225.377 128.209 226.056 127.336 226.056 125.953C226.056 124.576 225.377 123.697 224.293 123.697C223.25 123.697 222.546 124.6 222.546 125.953C222.546 127.312 223.25 128.209 224.293 128.209ZM236.11 122.801C237.662 122.801 238.717 124.043 238.717 125.953C238.717 127.863 237.668 129.105 236.133 129.105C235.26 129.105 234.557 128.678 234.194 128.01H234.17V131.033H233.151V122.906H234.118V123.938H234.141C234.516 123.252 235.225 122.801 236.11 122.801ZM235.911 128.209C236.994 128.209 237.674 127.336 237.674 125.953C237.674 124.576 236.994 123.697 235.911 123.697C234.868 123.697 234.164 124.6 234.164 125.953C234.164 127.312 234.868 128.209 235.911 128.209ZM241.998 128.238C242.959 128.238 243.697 127.564 243.697 126.686V126.188L242.068 126.287C241.248 126.34 240.779 126.703 240.779 127.277C240.779 127.857 241.266 128.238 241.998 128.238ZM241.77 129.105C240.557 129.105 239.742 128.373 239.742 127.277C239.742 126.234 240.545 125.578 241.951 125.496L243.697 125.396V124.887C243.697 124.143 243.205 123.697 242.361 123.697C241.576 123.697 241.084 124.066 240.955 124.664H239.971C240.041 123.609 240.943 122.801 242.385 122.801C243.815 122.801 244.717 123.574 244.717 124.787V129H243.75V127.951H243.727C243.363 128.648 242.59 129.105 241.77 129.105ZM246.146 124.588C246.146 123.545 247.078 122.801 248.42 122.801C249.68 122.801 250.605 123.551 250.652 124.582H249.68C249.609 123.996 249.135 123.633 248.385 123.633C247.641 123.633 247.148 124.002 247.148 124.535C247.148 124.957 247.471 125.238 248.162 125.414L249.105 125.643C250.336 125.953 250.781 126.398 250.781 127.295C250.781 128.355 249.779 129.105 248.355 129.105C247.019 129.105 246.088 128.379 245.982 127.301H247.002C247.113 127.934 247.594 128.273 248.42 128.273C249.246 128.273 249.756 127.922 249.756 127.371C249.756 126.938 249.504 126.703 248.818 126.521L247.746 126.246C246.674 125.971 246.146 125.42 246.146 124.588ZM252.134 129V122.906H253.154V129H252.134ZM252.644 121.881C252.298 121.881 252.011 121.594 252.011 121.248C252.011 120.896 252.298 120.615 252.644 120.615C252.996 120.615 253.283 120.896 253.283 121.248C253.283 121.594 252.996 121.881 252.644 121.881ZM257.214 123.686C256.259 123.686 255.591 124.418 255.527 125.432H258.837C258.814 124.412 258.175 123.686 257.214 123.686ZM258.814 127.254H259.816C259.64 128.32 258.609 129.105 257.279 129.105C255.533 129.105 254.472 127.893 254.472 125.977C254.472 124.084 255.55 122.801 257.232 122.801C258.878 122.801 259.892 123.996 259.892 125.842V126.229H255.521V126.287C255.521 127.453 256.206 128.221 257.302 128.221C258.076 128.221 258.644 127.828 258.814 127.254ZM261.163 129V122.906H262.124V123.879H262.148C262.487 123.223 263.138 122.801 264.081 122.801C265.417 122.801 266.191 123.662 266.191 125.045V129H265.171V125.227C265.171 124.242 264.708 123.703 263.771 123.703C262.81 123.703 262.183 124.383 262.183 125.414V129H261.163ZM272.512 129V122.906H273.473V123.879H273.496C273.783 123.234 274.404 122.801 275.225 122.801C276.057 122.801 276.672 123.223 276.935 123.961H276.959C277.299 123.234 278.014 122.801 278.869 122.801C280.076 122.801 280.855 123.586 280.855 124.793V129H279.836V125.027C279.836 124.195 279.373 123.703 278.57 123.703C277.762 123.703 277.193 124.301 277.193 125.127V129H276.174V124.916C276.174 124.184 275.682 123.703 274.926 123.703C274.117 123.703 273.531 124.336 273.531 125.18V129H272.512ZM284.84 123.686C283.884 123.686 283.216 124.418 283.152 125.432H286.463C286.439 124.412 285.8 123.686 284.84 123.686ZM286.439 127.254H287.441C287.265 128.32 286.234 129.105 284.904 129.105C283.158 129.105 282.097 127.893 282.097 125.977C282.097 124.084 283.175 122.801 284.857 122.801C286.504 122.801 287.517 123.996 287.517 125.842V126.229H283.146V126.287C283.146 127.453 283.832 128.221 284.927 128.221C285.701 128.221 286.269 127.828 286.439 127.254ZM288.789 129V122.906H289.749V123.879H289.773C290.113 123.223 290.763 122.801 291.706 122.801C293.042 122.801 293.816 123.662 293.816 125.045V129H292.796V125.227C292.796 124.242 292.333 123.703 291.396 123.703C290.435 123.703 289.808 124.383 289.808 125.414V129H288.789ZM300.419 124.904H299.423C299.277 124.242 298.761 123.697 297.864 123.697C296.81 123.697 296.095 124.57 296.095 125.953C296.095 127.371 296.822 128.209 297.876 128.209C298.708 128.209 299.253 127.77 299.429 127.037H300.431C300.273 128.25 299.253 129.105 297.87 129.105C296.183 129.105 295.058 127.916 295.058 125.953C295.058 124.031 296.177 122.801 297.859 122.801C299.382 122.801 300.29 123.809 300.419 124.904ZM303.618 128.238C304.579 128.238 305.317 127.564 305.317 126.686V126.188L303.688 126.287C302.868 126.34 302.399 126.703 302.399 127.277C302.399 127.857 302.886 128.238 303.618 128.238ZM303.39 129.105C302.177 129.105 301.362 128.373 301.362 127.277C301.362 126.234 302.165 125.578 303.571 125.496L305.317 125.396V124.887C305.317 124.143 304.825 123.697 303.981 123.697C303.196 123.697 302.704 124.066 302.575 124.664H301.591C301.661 123.609 302.563 122.801 304.005 122.801C305.435 122.801 306.337 123.574 306.337 124.787V129H305.37V127.951H305.347C304.983 128.648 304.21 129.105 303.39 129.105ZM310.831 122.801C312.384 122.801 313.438 124.043 313.438 125.953C313.438 127.863 312.389 129.105 310.854 129.105C309.981 129.105 309.278 128.678 308.915 128.01H308.891V131.033H307.872V122.906H308.839V123.938H308.862C309.237 123.252 309.946 122.801 310.831 122.801ZM310.632 128.209C311.716 128.209 312.395 127.336 312.395 125.953C312.395 124.576 311.716 123.697 310.632 123.697C309.589 123.697 308.885 124.6 308.885 125.953C308.885 127.312 309.589 128.209 310.632 128.209ZM316.719 128.238C317.68 128.238 318.418 127.564 318.418 126.686V126.188L316.79 126.287C315.969 126.34 315.5 126.703 315.5 127.277C315.5 127.857 315.987 128.238 316.719 128.238ZM316.491 129.105C315.278 129.105 314.463 128.373 314.463 127.277C314.463 126.234 315.266 125.578 316.672 125.496L318.418 125.396V124.887C318.418 124.143 317.926 123.697 317.083 123.697C316.297 123.697 315.805 124.066 315.676 124.664H314.692C314.762 123.609 315.665 122.801 317.106 122.801C318.536 122.801 319.438 123.574 319.438 124.787V129H318.471V127.951H318.448C318.084 128.648 317.311 129.105 316.491 129.105ZM321.026 129V122.906H322.045V129H321.026ZM321.535 121.881C321.19 121.881 320.903 121.594 320.903 121.248C320.903 120.896 321.19 120.615 321.535 120.615C321.887 120.615 322.174 120.896 322.174 121.248C322.174 121.594 321.887 121.881 321.535 121.881ZM40.7344 145.613L43.4297 142.906H44.666L42.0234 145.537L44.748 149H43.5645L41.3027 146.164L40.7344 146.703V149H39.7148V140.545H40.7344V145.613ZM47.8767 143.686C46.9216 143.686 46.2537 144.418 46.1892 145.432H49.4998C49.4763 144.412 48.8377 143.686 47.8767 143.686ZM49.4763 147.254H50.4783C50.3025 148.32 49.2712 149.105 47.9412 149.105C46.1951 149.105 45.1345 147.893 45.1345 145.977C45.1345 144.084 46.2127 142.801 47.8943 142.801C49.5408 142.801 50.5545 143.996 50.5545 145.842V146.229H46.1834V146.287C46.1834 147.453 46.8689 148.221 47.9646 148.221C48.738 148.221 49.3064 147.828 49.4763 147.254ZM54.7847 142.801C56.3374 142.801 57.3921 144.043 57.3921 145.953C57.3921 147.863 56.3433 149.105 54.8081 149.105C53.9351 149.105 53.232 148.678 52.8687 148.01H52.8452V151.033H51.8257V142.906H52.7925V143.938H52.8159C53.1909 143.252 53.8999 142.801 54.7847 142.801ZM54.5855 148.209C55.6695 148.209 56.3491 147.336 56.3491 145.953C56.3491 144.576 55.6695 143.697 54.5855 143.697C53.5425 143.697 52.8394 144.6 52.8394 145.953C52.8394 147.312 53.5425 148.209 54.5855 148.209ZM61.1067 143.686C60.1516 143.686 59.4837 144.418 59.4192 145.432H62.7298C62.7063 144.412 62.0677 143.686 61.1067 143.686ZM62.7063 147.254H63.7083C63.5325 148.32 62.5012 149.105 61.1712 149.105C59.4251 149.105 58.3645 147.893 58.3645 145.977C58.3645 144.084 59.4427 142.801 61.1243 142.801C62.7708 142.801 63.7845 143.996 63.7845 145.842V146.229H59.4134V146.287C59.4134 147.453 60.0989 148.221 61.1946 148.221C61.968 148.221 62.5364 147.828 62.7063 147.254ZM65.0557 149V142.906H66.0166V143.902H66.0401C66.2393 143.229 66.8018 142.801 67.5166 142.801C67.6924 142.801 67.8448 142.83 67.9268 142.842V143.832C67.8448 143.803 67.628 143.773 67.3819 143.773C66.5909 143.773 66.0752 144.342 66.0752 145.203V149H65.0557ZM73.7684 144.904H72.7723C72.6258 144.242 72.1102 143.697 71.2137 143.697C70.159 143.697 69.4441 144.57 69.4441 145.953C69.4441 147.371 70.1707 148.209 71.2254 148.209C72.0574 148.209 72.6023 147.77 72.7781 147.037H73.7801C73.6219 148.25 72.6023 149.105 71.2195 149.105C69.532 149.105 68.407 147.916 68.407 145.953C68.407 144.031 69.5262 142.801 71.2078 142.801C72.7313 142.801 73.6395 143.809 73.7684 144.904ZM76.9673 148.238C77.9283 148.238 78.6666 147.564 78.6666 146.686V146.188L77.0377 146.287C76.2173 146.34 75.7486 146.703 75.7486 147.277C75.7486 147.857 76.2349 148.238 76.9673 148.238ZM76.7388 149.105C75.5259 149.105 74.7115 148.373 74.7115 147.277C74.7115 146.234 75.5142 145.578 76.9205 145.496L78.6666 145.396V144.887C78.6666 144.143 78.1744 143.697 77.3306 143.697C76.5455 143.697 76.0533 144.066 75.9244 144.664H74.94C75.0103 143.609 75.9127 142.801 77.3541 142.801C78.7837 142.801 79.6861 143.574 79.6861 144.787V149H78.7193V147.951H78.6959C78.3326 148.648 77.5591 149.105 76.7388 149.105ZM81.7249 151.279C81.6019 151.279 81.3968 151.268 81.2855 151.244V150.389C81.3968 150.412 81.555 150.418 81.6839 150.418C82.2523 150.418 82.5687 150.143 82.803 149.434L82.9437 149.006L80.6937 142.906H81.7835L83.471 147.98H83.4886L85.1761 142.906H86.2484L83.8519 149.428C83.3304 150.852 82.8265 151.279 81.7249 151.279ZM89.1895 148.238C90.1505 148.238 90.8887 147.564 90.8887 146.686V146.188L89.2598 146.287C88.4395 146.34 87.9708 146.703 87.9708 147.277C87.9708 147.857 88.4571 148.238 89.1895 148.238ZM88.961 149.105C87.7481 149.105 86.9337 148.373 86.9337 147.277C86.9337 146.234 87.7364 145.578 89.1427 145.496L90.8887 145.396V144.887C90.8887 144.143 90.3966 143.697 89.5528 143.697C88.7677 143.697 88.2755 144.066 88.1466 144.664H87.1622C87.2325 143.609 88.1348 142.801 89.5762 142.801C91.0059 142.801 91.9083 143.574 91.9083 144.787V149H90.9415V147.951H90.918C90.5548 148.648 89.7813 149.105 88.961 149.105ZM95.453 148.238C96.4139 148.238 97.1522 147.564 97.1522 146.686V146.188L95.5233 146.287C94.703 146.34 94.2342 146.703 94.2342 147.277C94.2342 147.857 94.7205 148.238 95.453 148.238ZM95.2245 149.105C94.0116 149.105 93.1971 148.373 93.1971 147.277C93.1971 146.234 93.9998 145.578 95.4061 145.496L97.1522 145.396V144.887C97.1522 144.143 96.66 143.697 95.8162 143.697C95.0311 143.697 94.5389 144.066 94.41 144.664H93.4256C93.4959 143.609 94.3983 142.801 95.8397 142.801C97.2694 142.801 98.1717 143.574 98.1717 144.787V149H97.2049V147.951H97.1815C96.8182 148.648 96.0448 149.105 95.2245 149.105ZM99.7066 149V142.906H100.668V143.879H100.691C101.031 143.223 101.681 142.801 102.625 142.801C103.961 142.801 104.734 143.662 104.734 145.045V149H103.714V145.227C103.714 144.242 103.252 143.703 102.314 143.703C101.353 143.703 100.726 144.383 100.726 145.414V149H99.7066ZM112.11 149.105C110.557 149.105 109.502 147.863 109.502 145.953C109.502 144.043 110.551 142.801 112.086 142.801C112.96 142.801 113.663 143.229 114.026 143.896H114.049V140.545H115.069V149H114.096V147.969H114.079C113.686 148.672 112.989 149.105 112.11 149.105ZM112.303 143.697C111.225 143.697 110.545 144.576 110.545 145.953C110.545 147.336 111.225 148.209 112.303 148.209C113.352 148.209 114.055 147.318 114.055 145.953C114.055 144.594 113.352 143.697 112.303 143.697ZM116.739 149V142.906H117.758V149H116.739ZM117.248 141.881C116.903 141.881 116.616 141.594 116.616 141.248C116.616 140.896 116.903 140.615 117.248 140.615C117.6 140.615 117.887 140.896 117.887 141.248C117.887 141.594 117.6 141.881 117.248 141.881ZM119.375 149V142.906H120.336V143.902H120.359C120.559 143.229 121.121 142.801 121.836 142.801C122.012 142.801 122.164 142.83 122.246 142.842V143.832C122.164 143.803 121.947 143.773 121.701 143.773C120.91 143.773 120.395 144.342 120.395 145.203V149H119.375ZM123.371 149V142.906H124.39V149H123.371ZM123.881 141.881C123.535 141.881 123.248 141.594 123.248 141.248C123.248 140.896 123.535 140.615 123.881 140.615C124.232 140.615 124.519 140.896 124.519 141.248C124.519 141.594 124.232 141.881 123.881 141.881ZM131.843 149.105C130.29 149.105 129.235 147.863 129.235 145.953C129.235 144.043 130.284 142.801 131.819 142.801C132.692 142.801 133.395 143.229 133.759 143.896H133.782V140.545H134.802V149H133.829V147.969H133.811C133.419 148.672 132.721 149.105 131.843 149.105ZM132.036 143.697C130.958 143.697 130.278 144.576 130.278 145.953C130.278 147.336 130.958 148.209 132.036 148.209C133.085 148.209 133.788 147.318 133.788 145.953C133.788 144.594 133.085 143.697 132.036 143.697ZM138.428 148.238C139.389 148.238 140.127 147.564 140.127 146.686V146.188L138.499 146.287C137.678 146.34 137.209 146.703 137.209 147.277C137.209 147.857 137.696 148.238 138.428 148.238ZM138.2 149.105C136.987 149.105 136.172 148.373 136.172 147.277C136.172 146.234 136.975 145.578 138.381 145.496L140.127 145.396V144.887C140.127 144.143 139.635 143.697 138.792 143.697C138.006 143.697 137.514 144.066 137.385 144.664H136.401C136.471 143.609 137.374 142.801 138.815 142.801C140.245 142.801 141.147 143.574 141.147 144.787V149H140.18V147.951H140.157C139.793 148.648 139.02 149.105 138.2 149.105ZM142.682 149V142.906H143.643V143.879H143.666C144.006 143.223 144.657 142.801 145.6 142.801C146.936 142.801 147.709 143.662 147.709 145.045V149H146.69V145.227C146.69 144.242 146.227 143.703 145.289 143.703C144.328 143.703 143.701 144.383 143.701 145.414V149H142.682ZM153.849 145.613L156.544 142.906H157.78L155.138 145.537L157.862 149H156.679L154.417 146.164L153.849 146.703V149H152.829V140.545H153.849V145.613ZM160.991 143.686C160.036 143.686 159.368 144.418 159.304 145.432H162.614C162.591 144.412 161.952 143.686 160.991 143.686ZM162.591 147.254H163.593C163.417 148.32 162.386 149.105 161.056 149.105C159.31 149.105 158.249 147.893 158.249 145.977C158.249 144.084 159.327 142.801 161.009 142.801C162.655 142.801 163.669 143.996 163.669 145.842V146.229H159.298V146.287C159.298 147.453 159.983 148.221 161.079 148.221C161.852 148.221 162.421 147.828 162.591 147.254ZM170.003 144.904H169.007C168.86 144.242 168.344 143.697 167.448 143.697C166.393 143.697 165.678 144.57 165.678 145.953C165.678 147.371 166.405 148.209 167.46 148.209C168.292 148.209 168.837 147.77 169.012 147.037H170.014C169.856 148.25 168.837 149.105 167.454 149.105C165.766 149.105 164.641 147.916 164.641 145.953C164.641 144.031 165.76 142.801 167.442 142.801C168.966 142.801 169.874 143.809 170.003 144.904ZM173.202 148.238C174.163 148.238 174.901 147.564 174.901 146.686V146.188L173.272 146.287C172.452 146.34 171.983 146.703 171.983 147.277C171.983 147.857 172.469 148.238 173.202 148.238ZM172.973 149.105C171.76 149.105 170.946 148.373 170.946 147.277C170.946 146.234 171.749 145.578 173.155 145.496L174.901 145.396V144.887C174.901 144.143 174.409 143.697 173.565 143.697C172.78 143.697 172.288 144.066 172.159 144.664H171.174C171.245 143.609 172.147 142.801 173.588 142.801C175.018 142.801 175.92 143.574 175.92 144.787V149H174.954V147.951H174.93C174.567 148.648 173.793 149.105 172.973 149.105ZM177.455 149V142.906H178.416V143.879H178.44C178.78 143.223 179.43 142.801 180.373 142.801C181.709 142.801 182.483 143.662 182.483 145.045V149H181.463V145.227C181.463 144.242 181 143.703 180.063 143.703C179.102 143.703 178.475 144.383 178.475 145.414V149H177.455ZM184.352 141.436H185.371V142.906H186.555V143.744H185.371V147.365C185.371 147.922 185.605 148.174 186.127 148.174C186.244 148.174 186.479 148.156 186.549 148.145V149C186.426 149.029 186.145 149.047 185.904 149.047C184.785 149.047 184.352 148.59 184.352 147.418V143.744H183.443V142.906H184.352V141.436ZM187.937 149V142.906H188.957V149H187.937ZM188.447 141.881C188.101 141.881 187.814 141.594 187.814 141.248C187.814 140.896 188.101 140.615 188.447 140.615C188.799 140.615 189.086 140.896 189.086 141.248C189.086 141.594 188.799 141.881 188.447 141.881ZM191.646 145.613L194.341 142.906H195.578L192.935 145.537L195.66 149H194.476L192.214 146.164L191.646 146.703V149H190.626V140.545H191.646V145.613ZM198.648 148.238C199.609 148.238 200.347 147.564 200.347 146.686V146.188L198.718 146.287C197.898 146.34 197.429 146.703 197.429 147.277C197.429 147.857 197.915 148.238 198.648 148.238ZM198.419 149.105C197.206 149.105 196.392 148.373 196.392 147.277C196.392 146.234 197.195 145.578 198.601 145.496L200.347 145.396V144.887C200.347 144.143 199.855 143.697 199.011 143.697C198.226 143.697 197.734 144.066 197.605 144.664H196.62C196.691 143.609 197.593 142.801 199.034 142.801C200.464 142.801 201.366 143.574 201.366 144.787V149H200.4V147.951H200.376C200.013 148.648 199.24 149.105 198.419 149.105ZM202.901 149V142.906H203.862V143.879H203.886C204.226 143.223 204.876 142.801 205.819 142.801C207.155 142.801 207.929 143.662 207.929 145.045V149H206.909V145.227C206.909 144.242 206.446 143.703 205.509 143.703C204.548 143.703 203.921 144.383 203.921 145.414V149H202.901ZM215.006 148.238C215.967 148.238 216.705 147.564 216.705 146.686V146.188L215.076 146.287C214.256 146.34 213.787 146.703 213.787 147.277C213.787 147.857 214.273 148.238 215.006 148.238ZM214.777 149.105C213.564 149.105 212.75 148.373 212.75 147.277C212.75 146.234 213.553 145.578 214.959 145.496L216.705 145.396V144.887C216.705 144.143 216.213 143.697 215.369 143.697C214.584 143.697 214.092 144.066 213.963 144.664H212.978C213.049 143.609 213.951 142.801 215.393 142.801C216.822 142.801 217.725 143.574 217.725 144.787V149H216.758V147.951H216.734C216.371 148.648 215.598 149.105 214.777 149.105ZM219.312 149V140.545H220.332V149H219.312ZM223.958 148.238C224.919 148.238 225.658 147.564 225.658 146.686V146.188L224.029 146.287C223.208 146.34 222.74 146.703 222.74 147.277C222.74 147.857 223.226 148.238 223.958 148.238ZM223.73 149.105C222.517 149.105 221.703 148.373 221.703 147.277C221.703 146.234 222.505 145.578 223.912 145.496L225.658 145.396V144.887C225.658 144.143 225.166 143.697 224.322 143.697C223.537 143.697 223.044 144.066 222.916 144.664H221.931C222.001 143.609 222.904 142.801 224.345 142.801C225.775 142.801 226.677 143.574 226.677 144.787V149H225.71V147.951H225.687C225.324 148.648 224.55 149.105 223.73 149.105ZM228.212 149V142.906H229.173V143.879H229.197C229.484 143.234 230.105 142.801 230.925 142.801C231.757 142.801 232.372 143.223 232.636 143.961H232.659C232.999 143.234 233.714 142.801 234.57 142.801C235.777 142.801 236.556 143.586 236.556 144.793V149H235.536V145.027C235.536 144.195 235.073 143.703 234.271 143.703C233.462 143.703 232.894 144.301 232.894 145.127V149H231.874V144.916C231.874 144.184 231.382 143.703 230.626 143.703C229.818 143.703 229.232 144.336 229.232 145.18V149H228.212ZM238.149 149V142.906H239.169V149H238.149ZM238.659 141.881C238.313 141.881 238.026 141.594 238.026 141.248C238.026 140.896 238.313 140.615 238.659 140.615C239.011 140.615 239.298 140.896 239.298 141.248C239.298 141.594 239.011 141.881 238.659 141.881ZM244.312 149V142.906H245.273V143.879H245.297C245.584 143.234 246.205 142.801 247.025 142.801C247.857 142.801 248.473 143.223 248.736 143.961H248.76C249.1 143.234 249.814 142.801 250.67 142.801C251.877 142.801 252.656 143.586 252.656 144.793V149H251.637V145.027C251.637 144.195 251.174 143.703 250.371 143.703C249.562 143.703 248.994 144.301 248.994 145.127V149H247.975V144.916C247.975 144.184 247.482 143.703 246.727 143.703C245.918 143.703 245.332 144.336 245.332 145.18V149H244.312ZM256.64 143.686C255.685 143.686 255.017 144.418 254.953 145.432H258.263C258.24 144.412 257.601 143.686 256.64 143.686ZM258.24 147.254H259.242C259.066 148.32 258.035 149.105 256.705 149.105C254.959 149.105 253.898 147.893 253.898 145.977C253.898 144.084 254.976 142.801 256.658 142.801C258.304 142.801 259.318 143.996 259.318 145.842V146.229H254.947V146.287C254.947 147.453 255.633 148.221 256.728 148.221C257.502 148.221 258.07 147.828 258.24 147.254ZM260.589 149V142.906H261.55V143.902H261.574C261.773 143.229 262.335 142.801 263.05 142.801C263.226 142.801 263.378 142.83 263.46 142.842V143.832C263.378 143.803 263.162 143.773 262.915 143.773C262.124 143.773 261.609 144.342 261.609 145.203V149H260.589ZM266.683 143.686C265.728 143.686 265.06 144.418 264.995 145.432H268.306C268.282 144.412 267.644 143.686 266.683 143.686ZM268.282 147.254H269.284C269.109 148.32 268.077 149.105 266.747 149.105C265.001 149.105 263.941 147.893 263.941 145.977C263.941 144.084 265.019 142.801 266.7 142.801C268.347 142.801 269.361 143.996 269.361 145.842V146.229H264.989V146.287C264.989 147.453 265.675 148.221 266.771 148.221C267.544 148.221 268.113 147.828 268.282 147.254ZM271.704 145.613L274.399 142.906H275.636L272.993 145.537L275.718 149H274.534L272.272 146.164L271.704 146.703V149H270.685V140.545H271.704V145.613ZM278.706 148.238C279.667 148.238 280.405 147.564 280.405 146.686V146.188L278.776 146.287C277.956 146.34 277.487 146.703 277.487 147.277C277.487 147.857 277.973 148.238 278.706 148.238ZM278.477 149.105C277.264 149.105 276.45 148.373 276.45 147.277C276.45 146.234 277.253 145.578 278.659 145.496L280.405 145.396V144.887C280.405 144.143 279.913 143.697 279.069 143.697C278.284 143.697 277.792 144.066 277.663 144.664H276.678C276.749 143.609 277.651 142.801 279.093 142.801C280.522 142.801 281.425 143.574 281.425 144.787V149H280.458V147.951H280.434C280.071 148.648 279.298 149.105 278.477 149.105ZM286.486 149V142.906H287.447V143.879H287.47C287.757 143.234 288.379 142.801 289.199 142.801C290.031 142.801 290.646 143.223 290.91 143.961H290.933C291.273 143.234 291.988 142.801 292.843 142.801C294.05 142.801 294.83 143.586 294.83 144.793V149H293.81V145.027C293.81 144.195 293.347 143.703 292.545 143.703C291.736 143.703 291.168 144.301 291.168 145.127V149H290.148V144.916C290.148 144.184 289.656 143.703 288.9 143.703C288.091 143.703 287.506 144.336 287.506 145.18V149H286.486ZM298.814 143.686C297.859 143.686 297.191 144.418 297.126 145.432H300.437C300.414 144.412 299.775 143.686 298.814 143.686ZM300.414 147.254H301.415C301.24 148.32 300.208 149.105 298.878 149.105C297.132 149.105 296.072 147.893 296.072 145.977C296.072 144.084 297.15 142.801 298.831 142.801C300.478 142.801 301.492 143.996 301.492 145.842V146.229H297.121V146.287C297.121 147.453 297.806 148.221 298.902 148.221C299.675 148.221 300.244 147.828 300.414 147.254ZM302.816 149V140.545H303.835V149H302.816ZM307.462 148.238C308.423 148.238 309.161 147.564 309.161 146.686V146.188L307.532 146.287C306.712 146.34 306.243 146.703 306.243 147.277C306.243 147.857 306.729 148.238 307.462 148.238ZM307.233 149.105C306.02 149.105 305.206 148.373 305.206 147.277C305.206 146.234 306.009 145.578 307.415 145.496L309.161 145.396V144.887C309.161 144.143 308.669 143.697 307.825 143.697C307.04 143.697 306.548 144.066 306.419 144.664H305.435C305.505 143.609 306.407 142.801 307.849 142.801C309.278 142.801 310.181 143.574 310.181 144.787V149H309.214V147.951H309.19C308.827 148.648 308.054 149.105 307.233 149.105ZM311.768 149V140.545H312.788V149H311.768ZM319.409 142.906V149H318.442V148.01H318.418C318.055 148.713 317.422 149.105 316.485 149.105C315.155 149.105 314.375 148.244 314.375 146.861V142.906H315.395V146.68C315.395 147.67 315.858 148.203 316.801 148.203C317.791 148.203 318.389 147.523 318.389 146.486V142.906H319.409ZM321.026 149V142.906H322.045V149H321.026ZM321.535 141.881C321.19 141.881 320.903 141.594 320.903 141.248C320.903 140.896 321.19 140.615 321.535 140.615C321.887 140.615 322.174 140.896 322.174 141.248C322.174 141.594 321.887 141.881 321.535 141.881ZM42.6211 162.801C44.1738 162.801 45.2285 164.043 45.2285 165.953C45.2285 167.863 44.1797 169.105 42.6445 169.105C41.7715 169.105 41.0684 168.678 40.7051 168.01H40.6816V171.033H39.6621V162.906H40.6289V163.938H40.6523C41.0273 163.252 41.7363 162.801 42.6211 162.801ZM42.4219 168.209C43.5059 168.209 44.1855 167.336 44.1855 165.953C44.1855 164.576 43.5059 163.697 42.4219 163.697C41.3789 163.697 40.6758 164.6 40.6758 165.953C40.6758 167.312 41.3789 168.209 42.4219 168.209ZM48.9431 163.686C47.988 163.686 47.3201 164.418 47.2556 165.432H50.5662C50.5427 164.412 49.9041 163.686 48.9431 163.686ZM50.5427 167.254H51.5447C51.3689 168.32 50.3377 169.105 49.0076 169.105C47.2615 169.105 46.2009 167.893 46.2009 165.977C46.2009 164.084 47.2791 162.801 48.9607 162.801C50.6072 162.801 51.6209 163.996 51.6209 165.842V166.229H47.2498V166.287C47.2498 167.453 47.9353 168.221 49.031 168.221C49.8045 168.221 50.3728 167.828 50.5427 167.254ZM52.8921 169V162.906H53.853V163.902H53.8765C54.0757 163.229 54.6382 162.801 55.353 162.801C55.5288 162.801 55.6812 162.83 55.7632 162.842V163.832C55.6812 163.803 55.4644 163.773 55.2183 163.773C54.4273 163.773 53.9116 164.342 53.9116 165.203V169H52.8921ZM58.7278 168.238C59.6887 168.238 60.427 167.564 60.427 166.686V166.188L58.7981 166.287C57.9778 166.34 57.5091 166.703 57.5091 167.277C57.5091 167.857 57.9954 168.238 58.7278 168.238ZM58.4993 169.105C57.2864 169.105 56.472 168.373 56.472 167.277C56.472 166.234 57.2747 165.578 58.6809 165.496L60.427 165.396V164.887C60.427 164.143 59.9348 163.697 59.0911 163.697C58.3059 163.697 57.8137 164.066 57.6848 164.664H56.7005C56.7708 163.609 57.6731 162.801 59.1145 162.801C60.5442 162.801 61.4466 163.574 61.4466 164.787V169H60.4798V167.951H60.4563C60.093 168.648 59.3196 169.105 58.4993 169.105ZM70.7334 162.906L69.0342 169H67.9971L66.6202 164.283H66.5967L65.2256 169H64.1885L62.4834 162.906H63.4971L64.7159 167.863H64.7393L66.1162 162.906H67.1006L68.4834 167.863H68.5069L69.7256 162.906H70.7334ZM73.7039 168.238C74.6648 168.238 75.4031 167.564 75.4031 166.686V166.188L73.7742 166.287C72.9539 166.34 72.4852 166.703 72.4852 167.277C72.4852 167.857 72.9715 168.238 73.7039 168.238ZM73.4754 169.105C72.2625 169.105 71.448 168.373 71.448 167.277C71.448 166.234 72.2508 165.578 73.657 165.496L75.4031 165.396V164.887C75.4031 164.143 74.9109 163.697 74.0672 163.697C73.282 163.697 72.7898 164.066 72.6609 164.664H71.6766C71.7469 163.609 72.6492 162.801 74.0906 162.801C75.5203 162.801 76.4227 163.574 76.4227 164.787V169H75.4559V167.951H75.4324C75.0691 168.648 74.2957 169.105 73.4754 169.105ZM78.2857 161.436H79.3052V162.906H80.4888V163.744H79.3052V167.365C79.3052 167.922 79.5396 168.174 80.0611 168.174C80.1783 168.174 80.4127 168.156 80.483 168.145V169C80.3599 169.029 80.0787 169.047 79.8384 169.047C78.7193 169.047 78.2857 168.59 78.2857 167.418V163.744H77.3775V162.906H78.2857V161.436ZM83.7113 168.238C84.6722 168.238 85.4105 167.564 85.4105 166.686V166.188L83.7816 166.287C82.9613 166.34 82.4925 166.703 82.4925 167.277C82.4925 167.857 82.9788 168.238 83.7113 168.238ZM83.4827 169.105C82.2698 169.105 81.4554 168.373 81.4554 167.277C81.4554 166.234 82.2581 165.578 83.6644 165.496L85.4105 165.396V164.887C85.4105 164.143 84.9183 163.697 84.0745 163.697C83.2894 163.697 82.7972 164.066 82.6683 164.664H81.6839C81.7542 163.609 82.6566 162.801 84.098 162.801C85.5277 162.801 86.43 163.574 86.43 164.787V169H85.4632V167.951H85.4398C85.0765 168.648 84.303 169.105 83.4827 169.105ZM87.9649 169V162.906H88.9259V163.879H88.9493C89.2891 163.223 89.9395 162.801 90.8829 162.801C92.2188 162.801 92.9923 163.662 92.9923 165.045V169H91.9727V165.227C91.9727 164.242 91.5098 163.703 90.5723 163.703C89.6114 163.703 88.9845 164.383 88.9845 165.414V169H87.9649ZM98.1376 171.279C98.0146 171.279 97.8095 171.268 97.6982 171.244V170.389C97.8095 170.412 97.9677 170.418 98.0966 170.418C98.665 170.418 98.9814 170.143 99.2158 169.434L99.3564 169.006L97.1064 162.906H98.1962L99.8837 167.98H99.9013L101.589 162.906H102.661L100.265 169.428C99.7431 170.852 99.2392 171.279 98.1376 171.279ZM105.602 168.238C106.563 168.238 107.301 167.564 107.301 166.686V166.188L105.673 166.287C104.852 166.34 104.383 166.703 104.383 167.277C104.383 167.857 104.87 168.238 105.602 168.238ZM105.374 169.105C104.161 169.105 103.346 168.373 103.346 167.277C103.346 166.234 104.149 165.578 105.555 165.496L107.301 165.396V164.887C107.301 164.143 106.809 163.697 105.966 163.697C105.18 163.697 104.688 164.066 104.559 164.664H103.575C103.645 163.609 104.548 162.801 105.989 162.801C107.419 162.801 108.321 163.574 108.321 164.787V169H107.354V167.951H107.331C106.967 168.648 106.194 169.105 105.374 169.105ZM109.856 169V162.906H110.817V163.879H110.84C111.18 163.223 111.831 162.801 112.774 162.801C114.11 162.801 114.883 163.662 114.883 165.045V169H113.864V165.227C113.864 164.242 113.401 163.703 112.463 163.703C111.502 163.703 110.875 164.383 110.875 165.414V169H109.856ZM118.903 168.15C119.963 168.15 120.672 167.271 120.672 165.93C120.672 164.588 119.963 163.697 118.903 163.697C117.854 163.697 117.168 164.564 117.168 165.93C117.168 167.295 117.854 168.15 118.903 168.15ZM118.938 171.297C117.596 171.297 116.535 170.541 116.365 169.504H117.414C117.613 170.061 118.217 170.43 118.979 170.43C120.033 170.43 120.672 169.82 120.672 168.912V167.951H120.649C120.274 168.613 119.553 169.047 118.697 169.047C117.145 169.047 116.125 167.822 116.125 165.93C116.125 164.02 117.145 162.801 118.721 162.801C119.582 162.801 120.297 163.223 120.701 163.932H120.719V162.906H121.692V168.877C121.692 170.33 120.619 171.297 118.938 171.297ZM126.415 169V162.906H127.435V169H126.415ZM126.925 161.881C126.579 161.881 126.292 161.594 126.292 161.248C126.292 160.896 126.579 160.615 126.925 160.615C127.276 160.615 127.564 160.896 127.564 161.248C127.564 161.594 127.276 161.881 126.925 161.881ZM129.052 169V162.906H130.013V163.879H130.036C130.376 163.223 131.026 162.801 131.97 162.801C133.305 162.801 134.079 163.662 134.079 165.045V169H133.059V165.227C133.059 164.242 132.597 163.703 131.659 163.703C130.698 163.703 130.071 164.383 130.071 165.414V169H129.052ZM138.145 169.105C136.458 169.105 135.321 167.893 135.321 165.953C135.321 164.008 136.458 162.801 138.145 162.801C139.827 162.801 140.963 164.008 140.963 165.953C140.963 167.893 139.827 169.105 138.145 169.105ZM138.145 168.209C139.223 168.209 139.926 167.389 139.926 165.953C139.926 164.518 139.223 163.697 138.145 163.697C137.067 163.697 136.358 164.518 136.358 165.953C136.358 167.389 137.067 168.209 138.145 168.209ZM147.057 162.906L144.819 169H143.776L141.532 162.906H142.604L144.285 167.916H144.309L145.996 162.906H147.057ZM149.992 168.238C150.953 168.238 151.692 167.564 151.692 166.686V166.188L150.063 166.287C149.242 166.34 148.774 166.703 148.774 167.277C148.774 167.857 149.26 168.238 149.992 168.238ZM149.764 169.105C148.551 169.105 147.736 168.373 147.736 167.277C147.736 166.234 148.539 165.578 149.945 165.496L151.692 165.396V164.887C151.692 164.143 151.199 163.697 150.356 163.697C149.57 163.697 149.078 164.066 148.949 164.664H147.965C148.035 163.609 148.938 162.801 150.379 162.801C151.809 162.801 152.711 163.574 152.711 164.787V169H151.744V167.951H151.721C151.358 168.648 150.584 169.105 149.764 169.105ZM154.574 161.436H155.594V162.906H156.777V163.744H155.594V167.365C155.594 167.922 155.828 168.174 156.349 168.174C156.467 168.174 156.701 168.156 156.771 168.145V169C156.648 169.029 156.367 169.047 156.127 169.047C155.008 169.047 154.574 168.59 154.574 167.418V163.744H153.666V162.906H154.574V161.436ZM158.16 169V162.906H159.179V169H158.16ZM158.67 161.881C158.324 161.881 158.037 161.594 158.037 161.248C158.037 160.896 158.324 160.615 158.67 160.615C159.021 160.615 159.308 160.896 159.308 161.248C159.308 161.594 159.021 161.881 158.67 161.881ZM161.124 169V163.744H160.275V162.906H161.124V162.227C161.124 161.055 161.669 160.498 162.794 160.498C163.023 160.498 163.269 160.521 163.415 160.545V161.371C163.292 161.354 163.122 161.336 162.953 161.336C162.402 161.336 162.138 161.629 162.138 162.232V162.906H163.386V163.744H162.144V169H161.124ZM170.09 169.105C168.537 169.105 167.483 167.863 167.483 165.953C167.483 164.043 168.531 162.801 170.067 162.801C170.94 162.801 171.643 163.229 172.006 163.896H172.03V160.545H173.049V169H172.076V167.969H172.059C171.666 168.672 170.969 169.105 170.09 169.105ZM170.283 163.697C169.205 163.697 168.526 164.576 168.526 165.953C168.526 167.336 169.205 168.209 170.283 168.209C171.332 168.209 172.035 167.318 172.035 165.953C172.035 164.594 171.332 163.697 170.283 163.697ZM176.676 168.238C177.637 168.238 178.375 167.564 178.375 166.686V166.188L176.746 166.287C175.926 166.34 175.457 166.703 175.457 167.277C175.457 167.857 175.943 168.238 176.676 168.238ZM176.447 169.105C175.234 169.105 174.42 168.373 174.42 167.277C174.42 166.234 175.223 165.578 176.629 165.496L178.375 165.396V164.887C178.375 164.143 177.883 163.697 177.039 163.697C176.254 163.697 175.762 164.066 175.633 164.664H174.648C174.719 163.609 175.621 162.801 177.062 162.801C178.492 162.801 179.395 163.574 179.395 164.787V169H178.428V167.951H178.404C178.041 168.648 177.268 169.105 176.447 169.105ZM180.929 169V162.906H181.89V163.879H181.914C182.254 163.223 182.904 162.801 183.847 162.801C185.183 162.801 185.957 163.662 185.957 165.045V169H184.937V165.227C184.937 164.242 184.474 163.703 183.537 163.703C182.576 163.703 181.949 164.383 181.949 165.414V169H180.929ZM192.608 168.238C193.569 168.238 194.307 167.564 194.307 166.686V166.188L192.678 166.287C191.858 166.34 191.389 166.703 191.389 167.277C191.389 167.857 191.876 168.238 192.608 168.238ZM192.38 169.105C191.167 169.105 190.352 168.373 190.352 167.277C190.352 166.234 191.155 165.578 192.561 165.496L194.307 165.396V164.887C194.307 164.143 193.815 163.697 192.971 163.697C192.186 163.697 191.694 164.066 191.565 164.664H190.581C190.651 163.609 191.553 162.801 192.995 162.801C194.424 162.801 195.327 163.574 195.327 164.787V169H194.36V167.951H194.337C193.973 168.648 193.2 169.105 192.38 169.105ZM196.862 169V162.906H197.823V163.879H197.846C198.133 163.234 198.754 162.801 199.575 162.801C200.407 162.801 201.022 163.223 201.286 163.961H201.309C201.649 163.234 202.364 162.801 203.219 162.801C204.426 162.801 205.205 163.586 205.205 164.793V169H204.186V165.027C204.186 164.195 203.723 163.703 202.92 163.703C202.112 163.703 201.543 164.301 201.543 165.127V169H200.524V164.916C200.524 164.184 200.032 163.703 199.276 163.703C198.467 163.703 197.881 164.336 197.881 165.18V169H196.862ZM208.756 168.238C209.717 168.238 210.455 167.564 210.455 166.686V166.188L208.826 166.287C208.006 166.34 207.537 166.703 207.537 167.277C207.537 167.857 208.024 168.238 208.756 168.238ZM208.527 169.105C207.315 169.105 206.5 168.373 206.5 167.277C206.5 166.234 207.303 165.578 208.709 165.496L210.455 165.396V164.887C210.455 164.143 209.963 163.697 209.119 163.697C208.334 163.697 207.842 164.066 207.713 164.664H206.729C206.799 163.609 207.701 162.801 209.143 162.801C210.572 162.801 211.475 163.574 211.475 164.787V169H210.508V167.951H210.484C210.121 168.648 209.348 169.105 208.527 169.105ZM213.01 169V162.906H213.971V163.879H213.994C214.334 163.223 214.984 162.801 215.928 162.801C217.264 162.801 218.037 163.662 218.037 165.045V169H217.017V165.227C217.017 164.242 216.555 163.703 215.617 163.703C214.656 163.703 214.029 164.383 214.029 165.414V169H213.01ZM220.439 169.059C220.064 169.059 219.771 168.766 219.771 168.391C219.771 168.016 220.064 167.723 220.439 167.723C220.814 167.723 221.107 168.016 221.107 168.391C221.107 168.766 220.814 169.059 220.439 169.059ZM226.592 169H225.538V160.545H226.592V164.67H226.651L230.383 160.545H231.713L228.239 164.289L232.024 169H230.676L227.506 165.039L226.592 166.047V169ZM234.836 168.238C235.797 168.238 236.535 167.564 236.535 166.686V166.188L234.907 166.287C234.086 166.34 233.617 166.703 233.617 167.277C233.617 167.857 234.104 168.238 234.836 168.238ZM234.608 169.105C233.395 169.105 232.58 168.373 232.58 167.277C232.58 166.234 233.383 165.578 234.789 165.496L236.535 165.396V164.887C236.535 164.143 236.043 163.697 235.199 163.697C234.414 163.697 233.922 164.066 233.793 164.664H232.809C232.879 163.609 233.782 162.801 235.223 162.801C236.653 162.801 237.555 163.574 237.555 164.787V169H236.588V167.951H236.565C236.201 168.648 235.428 169.105 234.608 169.105ZM239.09 169V162.906H240.051V163.879H240.074C240.361 163.234 240.982 162.801 241.803 162.801C242.635 162.801 243.25 163.223 243.514 163.961H243.537C243.877 163.234 244.592 162.801 245.447 162.801C246.654 162.801 247.434 163.586 247.434 164.793V169H246.414V165.027C246.414 164.195 245.951 163.703 245.148 163.703C244.34 163.703 243.772 164.301 243.772 165.127V169H242.752V164.916C242.752 164.184 242.26 163.703 241.504 163.703C240.695 163.703 240.109 164.336 240.109 165.18V169H239.09ZM249.027 169V162.906H250.047V169H249.027ZM249.537 161.881C249.191 161.881 248.904 161.594 248.904 161.248C248.904 160.896 249.191 160.615 249.537 160.615C249.888 160.615 250.176 160.896 250.176 161.248C250.176 161.594 249.888 161.881 249.537 161.881ZM257.794 169.105C256.903 169.105 256.206 168.672 255.813 167.969H255.79V169H254.817V160.545H255.837V163.926H255.86C256.241 163.229 256.95 162.801 257.811 162.801C259.346 162.801 260.383 164.043 260.383 165.953C260.383 167.869 259.352 169.105 257.794 169.105ZM257.594 163.697C256.563 163.697 255.831 164.6 255.831 165.953C255.831 167.312 256.563 168.209 257.594 168.209C258.673 168.209 259.34 167.348 259.34 165.953C259.34 164.57 258.673 163.697 257.594 163.697ZM264.104 163.686C263.149 163.686 262.481 164.418 262.416 165.432H265.727C265.704 164.412 265.065 163.686 264.104 163.686ZM265.704 167.254H266.705C266.53 168.32 265.498 169.105 264.168 169.105C262.422 169.105 261.362 167.893 261.362 165.977C261.362 164.084 262.44 162.801 264.121 162.801C265.768 162.801 266.782 163.996 266.782 165.842V166.229H262.411V166.287C262.411 167.453 263.096 168.221 264.192 168.221C264.965 168.221 265.534 167.828 265.704 167.254ZM268.053 169V162.906H269.014V163.902H269.037C269.236 163.229 269.799 162.801 270.514 162.801C270.69 162.801 270.842 162.83 270.924 162.842V163.832C270.842 163.803 270.625 163.773 270.379 163.773C269.588 163.773 269.072 164.342 269.072 165.203V169H268.053ZM273.068 165.613L275.764 162.906H277L274.357 165.537L277.082 169H275.898L273.637 166.164L273.068 166.703V169H272.049V160.545H273.068V165.613ZM280.293 169.105C278.605 169.105 277.468 167.893 277.468 165.953C277.468 164.008 278.605 162.801 280.293 162.801C281.974 162.801 283.111 164.008 283.111 165.953C283.111 167.893 281.974 169.105 280.293 169.105ZM280.293 168.209C281.371 168.209 282.074 167.389 282.074 165.953C282.074 164.518 281.371 163.697 280.293 163.697C279.215 163.697 278.506 164.518 278.506 165.953C278.506 167.389 279.215 168.209 280.293 168.209ZM284.382 169V162.906H285.343V163.879H285.367C285.654 163.234 286.275 162.801 287.095 162.801C287.927 162.801 288.542 163.223 288.806 163.961H288.83C289.169 163.234 289.884 162.801 290.74 162.801C291.947 162.801 292.726 163.586 292.726 164.793V169H291.706V165.027C291.706 164.195 291.244 163.703 290.441 163.703C289.632 163.703 289.064 164.301 289.064 165.127V169H288.044V164.916C288.044 164.184 287.552 163.703 286.796 163.703C285.988 163.703 285.402 164.336 285.402 165.18V169H284.382ZM294.32 169V162.906H295.339V169H294.32ZM294.829 161.881C294.484 161.881 294.196 161.594 294.196 161.248C294.196 160.896 294.484 160.615 294.829 160.615C295.181 160.615 295.468 160.896 295.468 161.248C295.468 161.594 295.181 161.881 294.829 161.881ZM297.284 161.436H298.304V162.906H299.487V163.744H298.304V167.365C298.304 167.922 298.538 168.174 299.06 168.174C299.177 168.174 299.411 168.156 299.481 168.145V169C299.358 169.029 299.077 169.047 298.837 169.047C297.718 169.047 297.284 168.59 297.284 167.418V163.744H296.376V162.906H297.284V161.436ZM300.817 169V162.906H301.778V163.879H301.801C302.089 163.234 302.71 162.801 303.53 162.801C304.362 162.801 304.977 163.223 305.241 163.961H305.264C305.604 163.234 306.319 162.801 307.175 162.801C308.382 162.801 309.161 163.586 309.161 164.793V169H308.141V165.027C308.141 164.195 307.678 163.703 306.876 163.703C306.067 163.703 305.499 164.301 305.499 165.127V169H304.479V164.916C304.479 164.184 303.987 163.703 303.231 163.703C302.423 163.703 301.837 164.336 301.837 165.18V169H300.817ZM313.145 163.686C312.19 163.686 311.522 164.418 311.457 165.432H314.768C314.745 164.412 314.106 163.686 313.145 163.686ZM314.745 167.254H315.747C315.571 168.32 314.54 169.105 313.209 169.105C311.463 169.105 310.403 167.893 310.403 165.977C310.403 164.084 311.481 162.801 313.163 162.801C314.809 162.801 315.823 163.996 315.823 165.842V166.229H311.452V166.287C311.452 167.453 312.137 168.221 313.233 168.221C314.006 168.221 314.575 167.828 314.745 167.254ZM317.094 169V162.906H318.055V163.879H318.078C318.418 163.223 319.069 162.801 320.012 162.801C321.348 162.801 322.121 163.662 322.121 165.045V169H321.102V165.227C321.102 164.242 320.639 163.703 319.701 163.703C318.74 163.703 318.114 164.383 318.114 165.414V169H317.094ZM44.666 182.906V189H43.6992V188.01H43.6758C43.3125 188.713 42.6797 189.105 41.7422 189.105C40.4121 189.105 39.6328 188.244 39.6328 186.861V182.906H40.6523V186.68C40.6523 187.67 41.1152 188.203 42.0586 188.203C43.0488 188.203 43.6465 187.523 43.6465 186.486V182.906H44.666ZM46.2302 189V182.906H47.1912V183.879H47.2146C47.5545 183.223 48.2048 182.801 49.1482 182.801C50.4841 182.801 51.2576 183.662 51.2576 185.045V189H50.238V185.227C50.238 184.242 49.7752 183.703 48.8377 183.703C47.8767 183.703 47.2498 184.383 47.2498 185.414V189H46.2302ZM53.1265 181.436H54.146V182.906H55.3296V183.744H54.146V187.365C54.146 187.922 54.3804 188.174 54.9019 188.174C55.0191 188.174 55.2534 188.156 55.3237 188.145V189C55.2007 189.029 54.9195 189.047 54.6792 189.047C53.5601 189.047 53.1265 188.59 53.1265 187.418V183.744H52.2183V182.906H53.1265V181.436ZM61.6634 182.906V189H60.6966V188.01H60.6731C60.3098 188.713 59.677 189.105 58.7395 189.105C57.4095 189.105 56.6302 188.244 56.6302 186.861V182.906H57.6497V186.68C57.6497 187.67 58.1126 188.203 59.0559 188.203C60.0462 188.203 60.6438 187.523 60.6438 186.486V182.906H61.6634ZM64.2998 185.613L66.9952 182.906H68.2315L65.5889 185.537L68.3135 189H67.1299L64.8682 186.164L64.2998 186.703V189H63.2803V180.545H64.2998V185.613ZM73.1015 189V182.906H74.0625V183.879H74.0859C74.373 183.234 74.9941 182.801 75.8144 182.801C76.6465 182.801 77.2617 183.223 77.5254 183.961H77.5488C77.8886 183.234 78.6035 182.801 79.459 182.801C80.666 182.801 81.4453 183.586 81.4453 184.793V189H80.4258V185.027C80.4258 184.195 79.9629 183.703 79.1601 183.703C78.3515 183.703 77.7832 184.301 77.7832 185.127V189H76.7636V184.916C76.7636 184.184 76.2715 183.703 75.5156 183.703C74.707 183.703 74.1211 184.336 74.1211 185.18V189H73.1015ZM85.4294 183.686C84.4743 183.686 83.8064 184.418 83.7419 185.432H87.0525C87.029 184.412 86.3904 183.686 85.4294 183.686ZM87.029 187.254H88.031C87.8552 188.32 86.824 189.105 85.4939 189.105C83.7478 189.105 82.6872 187.893 82.6872 185.977C82.6872 184.084 83.7654 182.801 85.447 182.801C87.0935 182.801 88.1072 183.996 88.1072 185.842V186.229H83.7361V186.287C83.7361 187.453 84.4216 188.221 85.5173 188.221C86.2908 188.221 86.8591 187.828 87.029 187.254ZM89.3784 189V182.906H90.3393V183.879H90.3628C90.7026 183.223 91.353 182.801 92.2964 182.801C93.6323 182.801 94.4058 183.662 94.4058 185.045V189H93.3862V185.227C93.3862 184.242 92.9233 183.703 91.9858 183.703C91.0249 183.703 90.3979 184.383 90.3979 185.414V189H89.3784ZM97.0188 182.906V189.299C97.0188 190.535 96.4329 191.098 95.1321 191.098C95.1145 191.098 94.9504 191.098 94.9387 191.092V190.242C94.9504 190.242 95.0911 190.242 95.0969 190.242C95.759 190.242 95.9993 189.99 95.9993 189.311V182.906H97.0188ZM96.509 181.881C96.1633 181.881 95.8762 181.594 95.8762 181.248C95.8762 180.896 96.1633 180.615 96.509 180.615C96.8606 180.615 97.1477 180.896 97.1477 181.248C97.1477 181.594 96.8606 181.881 96.509 181.881ZM100.646 188.238C101.606 188.238 102.345 187.564 102.345 186.686V186.188L100.716 186.287C99.8955 186.34 99.4268 186.703 99.4268 187.277C99.4268 187.857 99.9131 188.238 100.646 188.238ZM100.417 189.105C99.2041 189.105 98.3897 188.373 98.3897 187.277C98.3897 186.234 99.1924 185.578 100.599 185.496L102.345 185.396V184.887C102.345 184.143 101.853 183.697 101.009 183.697C100.224 183.697 99.7315 184.066 99.6026 184.664H98.6182C98.6885 183.609 99.5908 182.801 101.032 182.801C102.462 182.801 103.364 183.574 103.364 184.787V189H102.397V187.951H102.374C102.011 188.648 101.237 189.105 100.417 189.105ZM107.208 189.105C105.655 189.105 104.6 187.863 104.6 185.953C104.6 184.043 105.649 182.801 107.184 182.801C108.057 182.801 108.761 183.229 109.124 183.896H109.147V180.545H110.167V189H109.194V187.969H109.177C108.784 188.672 108.087 189.105 107.208 189.105ZM107.401 183.697C106.323 183.697 105.643 184.576 105.643 185.953C105.643 187.336 106.323 188.209 107.401 188.209C108.45 188.209 109.153 187.318 109.153 185.953C109.153 184.594 108.45 183.697 107.401 183.697ZM111.836 189V182.906H112.856V189H111.836ZM112.346 181.881C112.001 181.881 111.713 181.594 111.713 181.248C111.713 180.896 112.001 180.615 112.346 180.615C112.698 180.615 112.985 180.896 112.985 181.248C112.985 181.594 112.698 181.881 112.346 181.881ZM119.355 185.613L122.05 182.906H123.287L120.644 185.537L123.369 189H122.185L119.923 186.164L119.355 186.703V189H118.335V180.545H119.355V185.613ZM124.4 189V180.545H125.419V189H124.4ZM127.089 189V182.906H128.108V189H127.089ZM127.599 181.881C127.253 181.881 126.966 181.594 126.966 181.248C126.966 180.896 127.253 180.615 127.599 180.615C127.95 180.615 128.237 180.896 128.237 181.248C128.237 181.594 127.95 181.881 127.599 181.881ZM129.725 189V182.906H130.686V183.879H130.71C131.05 183.223 131.7 182.801 132.643 182.801C133.979 182.801 134.753 183.662 134.753 185.045V189H133.733V185.227C133.733 184.242 133.27 183.703 132.333 183.703C131.372 183.703 130.745 184.383 130.745 185.414V189H129.725ZM136.346 189V182.906H137.366V189H136.346ZM136.856 181.881C136.51 181.881 136.223 181.594 136.223 181.248C136.223 180.896 136.51 180.615 136.856 180.615C137.208 180.615 137.495 180.896 137.495 181.248C137.495 181.594 137.208 181.881 136.856 181.881ZM140.055 185.613L142.75 182.906H143.987L141.344 185.537L144.069 189H142.885L140.623 186.164L140.055 186.703V189H139.035V180.545H140.055V185.613ZM149.929 185.613L152.624 182.906H153.861L151.218 185.537L153.943 189H152.759L150.497 186.164L149.929 186.703V189H148.909V180.545H149.929V185.613ZM157.071 183.686C156.116 183.686 155.448 184.418 155.384 185.432H158.694C158.671 184.412 158.032 183.686 157.071 183.686ZM158.671 187.254H159.673C159.497 188.32 158.466 189.105 157.136 189.105C155.39 189.105 154.329 187.893 154.329 185.977C154.329 184.084 155.407 182.801 157.089 182.801C158.735 182.801 159.749 183.996 159.749 185.842V186.229H155.378V186.287C155.378 187.453 156.063 188.221 157.159 188.221C157.933 188.221 158.501 187.828 158.671 187.254ZM166.083 184.904H165.087C164.94 184.242 164.425 183.697 163.528 183.697C162.473 183.697 161.759 184.57 161.759 185.953C161.759 187.371 162.485 188.209 163.54 188.209C164.372 188.209 164.917 187.77 165.092 187.037H166.094C165.936 188.25 164.917 189.105 163.534 189.105C161.846 189.105 160.721 187.916 160.721 185.953C160.721 184.031 161.841 182.801 163.522 182.801C165.046 182.801 165.954 183.809 166.083 184.904ZM169.282 188.238C170.243 188.238 170.981 187.564 170.981 186.686V186.188L169.352 186.287C168.532 186.34 168.063 186.703 168.063 187.277C168.063 187.857 168.549 188.238 169.282 188.238ZM169.053 189.105C167.84 189.105 167.026 188.373 167.026 187.277C167.026 186.234 167.829 185.578 169.235 185.496L170.981 185.396V184.887C170.981 184.143 170.489 183.697 169.645 183.697C168.86 183.697 168.368 184.066 168.239 184.664H167.254C167.325 183.609 168.227 182.801 169.668 182.801C171.098 182.801 172 183.574 172 184.787V189H171.034V187.951H171.01C170.647 188.648 169.874 189.105 169.053 189.105ZM173.535 189V182.906H174.496V183.879H174.52C174.86 183.223 175.51 182.801 176.453 182.801C177.789 182.801 178.563 183.662 178.563 185.045V189H177.543V185.227C177.543 184.242 177.08 183.703 176.143 183.703C175.182 183.703 174.555 184.383 174.555 185.414V189H173.535ZM180.432 181.436H181.451V182.906H182.635V183.744H181.451V187.365C181.451 187.922 181.686 188.174 182.207 188.174C182.324 188.174 182.559 188.156 182.629 188.145V189C182.506 189.029 182.225 189.047 181.984 189.047C180.865 189.047 180.432 188.59 180.432 187.418V183.744H179.523V182.906H180.432V181.436ZM184.017 189V182.906H185.037V189H184.017ZM184.527 181.881C184.181 181.881 183.894 181.594 183.894 181.248C183.894 180.896 184.181 180.615 184.527 180.615C184.879 180.615 185.166 180.896 185.166 181.248C185.166 181.594 184.879 181.881 184.527 181.881ZM187.726 185.613L190.421 182.906H191.658L189.015 185.537L191.74 189H190.556L188.294 186.164L187.726 186.703V189H186.707V180.545H187.726V185.613ZM194.728 188.238C195.689 188.238 196.427 187.564 196.427 186.686V186.188L194.798 186.287C193.978 186.34 193.509 186.703 193.509 187.277C193.509 187.857 193.995 188.238 194.728 188.238ZM194.499 189.105C193.286 189.105 192.472 188.373 192.472 187.277C192.472 186.234 193.275 185.578 194.681 185.496L196.427 185.396V184.887C196.427 184.143 195.935 183.697 195.091 183.697C194.306 183.697 193.814 184.066 193.685 184.664H192.7C192.771 183.609 193.673 182.801 195.115 182.801C196.544 182.801 197.447 183.574 197.447 184.787V189H196.48V187.951H196.456C196.093 188.648 195.32 189.105 194.499 189.105ZM198.981 189V182.906H199.942V183.879H199.966C200.306 183.223 200.956 182.801 201.899 182.801C203.235 182.801 204.009 183.662 204.009 185.045V189H202.989V185.227C202.989 184.242 202.526 183.703 201.589 183.703C200.628 183.703 200.001 184.383 200.001 185.414V189H198.981ZM212.318 182.801C213.871 182.801 214.926 184.043 214.926 185.953C214.926 187.863 213.877 189.105 212.342 189.105C211.469 189.105 210.766 188.678 210.402 188.01H210.379V191.033H209.359V182.906H210.326V183.938H210.35C210.725 183.252 211.434 182.801 212.318 182.801ZM212.119 188.209C213.203 188.209 213.883 187.336 213.883 185.953C213.883 184.576 213.203 183.697 212.119 183.697C211.076 183.697 210.373 184.6 210.373 185.953C210.373 187.312 211.076 188.209 212.119 188.209ZM216.25 189V182.906H217.269V189H216.25ZM216.759 181.881C216.414 181.881 216.127 181.594 216.127 181.248C216.127 180.896 216.414 180.615 216.759 180.615C217.111 180.615 217.398 180.896 217.398 181.248C217.398 181.594 217.111 181.881 216.759 181.881ZM218.939 189V180.545H219.958V189H218.939ZM221.628 189V182.906H222.648V189H221.628ZM222.138 181.881C221.792 181.881 221.505 181.594 221.505 181.248C221.505 180.896 221.792 180.615 222.138 180.615C222.489 180.615 222.777 180.896 222.777 181.248C222.777 181.594 222.489 181.881 222.138 181.881ZM224.317 189V180.545H225.337V183.879H225.36C225.7 183.199 226.368 182.801 227.294 182.801C228.63 182.801 229.438 183.703 229.438 185.062V189H228.419V185.25C228.419 184.283 227.933 183.703 226.978 183.703C225.964 183.703 225.337 184.395 225.337 185.449V189H224.317ZM232.983 188.238C233.944 188.238 234.682 187.564 234.682 186.686V186.188L233.053 186.287C232.233 186.34 231.764 186.703 231.764 187.277C231.764 187.857 232.251 188.238 232.983 188.238ZM232.755 189.105C231.542 189.105 230.727 188.373 230.727 187.277C230.727 186.234 231.53 185.578 232.936 185.496L234.682 185.396V184.887C234.682 184.143 234.19 183.697 233.346 183.697C232.561 183.697 232.069 184.066 231.94 184.664H230.956C231.026 183.609 231.928 182.801 233.37 182.801C234.8 182.801 235.702 183.574 235.702 184.787V189H234.735V187.951H234.712C234.348 188.648 233.575 189.105 232.755 189.105ZM237.237 189V182.906H238.198V183.879H238.221C238.561 183.223 239.211 182.801 240.155 182.801C241.491 182.801 242.264 183.662 242.264 185.045V189H241.245V185.227C241.245 184.242 240.782 183.703 239.844 183.703C238.883 183.703 238.256 184.383 238.256 185.414V189H237.237ZM252.619 182.906V189H251.652V188.01H251.628C251.265 188.713 250.632 189.105 249.695 189.105C248.365 189.105 247.585 188.244 247.585 186.861V182.906H248.605V186.68C248.605 187.67 249.068 188.203 250.011 188.203C251.001 188.203 251.599 187.523 251.599 186.486V182.906H252.619ZM254.511 181.436H255.53V182.906H256.714V183.744H255.53V187.365C255.53 187.922 255.765 188.174 256.286 188.174C256.404 188.174 256.638 188.156 256.708 188.145V189C256.585 189.029 256.304 189.047 256.064 189.047C254.945 189.047 254.511 188.59 254.511 187.418V183.744H253.603V182.906H254.511V181.436ZM259.937 188.238C260.897 188.238 261.636 187.564 261.636 186.686V186.188L260.007 186.287C259.187 186.34 258.718 186.703 258.718 187.277C258.718 187.857 259.204 188.238 259.937 188.238ZM259.708 189.105C258.495 189.105 257.681 188.373 257.681 187.277C257.681 186.234 258.483 185.578 259.89 185.496L261.636 185.396V184.887C261.636 184.143 261.144 183.697 260.3 183.697C259.515 183.697 259.022 184.066 258.894 184.664H257.909C257.979 183.609 258.882 182.801 260.323 182.801C261.753 182.801 262.655 183.574 262.655 184.787V189H261.688V187.951H261.665C261.302 188.648 260.528 189.105 259.708 189.105ZM264.19 189V182.906H265.151V183.879H265.175C265.462 183.234 266.083 182.801 266.903 182.801C267.735 182.801 268.35 183.223 268.614 183.961H268.637C268.977 183.234 269.692 182.801 270.548 182.801C271.755 182.801 272.534 183.586 272.534 184.793V189H271.514V185.027C271.514 184.195 271.052 183.703 270.249 183.703C269.44 183.703 268.872 184.301 268.872 185.127V189H267.852V184.916C267.852 184.184 267.36 183.703 266.604 183.703C265.796 183.703 265.21 184.336 265.21 185.18V189H264.19ZM276.084 188.238C277.045 188.238 277.784 187.564 277.784 186.686V186.188L276.155 186.287C275.334 186.34 274.866 186.703 274.866 187.277C274.866 187.857 275.352 188.238 276.084 188.238ZM275.856 189.105C274.643 189.105 273.829 188.373 273.829 187.277C273.829 186.234 274.631 185.578 276.038 185.496L277.784 185.396V184.887C277.784 184.143 277.292 183.697 276.448 183.697C275.663 183.697 275.17 184.066 275.042 184.664H274.057C274.127 183.609 275.03 182.801 276.471 182.801C277.901 182.801 278.803 183.574 278.803 184.787V189H277.836V187.951H277.813C277.45 188.648 276.676 189.105 275.856 189.105ZM286.456 189.105C284.904 189.105 283.849 187.863 283.849 185.953C283.849 184.043 284.898 182.801 286.433 182.801C287.306 182.801 288.009 183.229 288.372 183.896H288.396V180.545H289.415V189H288.443V187.969H288.425C288.033 188.672 287.335 189.105 286.456 189.105ZM286.65 183.697C285.572 183.697 284.892 184.576 284.892 185.953C284.892 187.336 285.572 188.209 286.65 188.209C287.699 188.209 288.402 187.318 288.402 185.953C288.402 184.594 287.699 183.697 286.65 183.697ZM293.476 183.686C292.521 183.686 291.853 184.418 291.788 185.432H295.099C295.075 184.412 294.437 183.686 293.476 183.686ZM295.075 187.254H296.077C295.902 188.32 294.87 189.105 293.54 189.105C291.794 189.105 290.734 187.893 290.734 185.977C290.734 184.084 291.812 182.801 293.493 182.801C295.14 182.801 296.154 183.996 296.154 185.842V186.229H291.782V186.287C291.782 187.453 292.468 188.221 293.564 188.221C294.337 188.221 294.905 187.828 295.075 187.254ZM297.425 189V182.906H298.386V183.879H298.409C298.749 183.223 299.399 182.801 300.343 182.801C301.679 182.801 302.452 183.662 302.452 185.045V189H301.433V185.227C301.433 184.242 300.97 183.703 300.032 183.703C299.071 183.703 298.444 184.383 298.444 185.414V189H297.425ZM306.471 188.15C307.532 188.15 308.241 187.271 308.241 185.93C308.241 184.588 307.532 183.697 306.471 183.697C305.423 183.697 304.737 184.564 304.737 185.93C304.737 187.295 305.423 188.15 306.471 188.15ZM306.507 191.297C305.165 191.297 304.104 190.541 303.934 189.504H304.983C305.182 190.061 305.786 190.43 306.548 190.43C307.602 190.43 308.241 189.82 308.241 188.912V187.951H308.217C307.842 188.613 307.122 189.047 306.266 189.047C304.714 189.047 303.694 187.822 303.694 185.93C303.694 184.02 304.714 182.801 306.29 182.801C307.151 182.801 307.866 183.223 308.27 183.932H308.288V182.906H309.26V188.877C309.26 190.33 308.188 191.297 306.507 191.297ZM312.84 188.238C313.801 188.238 314.54 187.564 314.54 186.686V186.188L312.911 186.287C312.09 186.34 311.622 186.703 311.622 187.277C311.622 187.857 312.108 188.238 312.84 188.238ZM312.612 189.105C311.399 189.105 310.584 188.373 310.584 187.277C310.584 186.234 311.387 185.578 312.793 185.496L314.54 185.396V184.887C314.54 184.143 314.047 183.697 313.204 183.697C312.418 183.697 311.926 184.066 311.797 184.664H310.813C310.883 183.609 311.786 182.801 313.227 182.801C314.657 182.801 315.559 183.574 315.559 184.787V189H314.592V187.951H314.569C314.206 188.648 313.432 189.105 312.612 189.105ZM317.094 189V182.906H318.055V183.879H318.078C318.418 183.223 319.069 182.801 320.012 182.801C321.348 182.801 322.121 183.662 322.121 185.045V189H321.102V185.227C321.102 184.242 320.639 183.703 319.701 183.703C318.74 183.703 318.113 184.383 318.113 185.414V189H317.094ZM39.6621 209V202.906H40.623V203.879H40.6465C40.9336 203.234 41.5547 202.801 42.375 202.801C43.207 202.801 43.8223 203.223 44.0859 203.961H44.1094C44.4492 203.234 45.1641 202.801 46.0195 202.801C47.2266 202.801 48.0059 203.586 48.0059 204.793V209H46.9863V205.027C46.9863 204.195 46.5234 203.703 45.7207 203.703C44.9121 203.703 44.3438 204.301 44.3438 205.127V209H43.3242V204.916C43.3242 204.184 42.832 203.703 42.0762 203.703C41.2676 203.703 40.6816 204.336 40.6816 205.18V209H39.6621ZM51.99 203.686C51.0349 203.686 50.367 204.418 50.3025 205.432H53.613C53.5896 204.412 52.9509 203.686 51.99 203.686ZM53.5896 207.254H54.5916C54.4158 208.32 53.3845 209.105 52.0545 209.105C50.3084 209.105 49.2478 207.893 49.2478 205.977C49.2478 204.084 50.3259 202.801 52.0076 202.801C53.6541 202.801 54.6677 203.996 54.6677 205.842V206.229H50.2966V206.287C50.2966 207.453 50.9822 208.221 52.0779 208.221C52.8513 208.221 53.4197 207.828 53.5896 207.254ZM55.939 209V202.906H56.8999V203.879H56.9234C57.2632 203.223 57.9136 202.801 58.857 202.801C60.1929 202.801 60.9663 203.662 60.9663 205.045V209H59.9468V205.227C59.9468 204.242 59.4839 203.703 58.5464 203.703C57.5855 203.703 56.9585 204.383 56.9585 205.414V209H55.939ZM63.011 211.279C62.888 211.279 62.6829 211.268 62.5716 211.244V210.389C62.6829 210.412 62.8411 210.418 62.97 210.418C63.5384 210.418 63.8548 210.143 64.0891 209.434L64.2298 209.006L61.9798 202.906H63.0696L64.7571 207.98H64.7747L66.4622 202.906H67.5345L65.138 209.428C64.6165 210.852 64.1126 211.279 63.011 211.279ZM70.8506 203.686C69.8955 203.686 69.2276 204.418 69.1631 205.432H72.4737C72.4502 204.412 71.8116 203.686 70.8506 203.686ZM72.4502 207.254H73.4522C73.2764 208.32 72.2452 209.105 70.9151 209.105C69.169 209.105 68.1084 207.893 68.1084 205.977C68.1084 204.084 69.1866 202.801 70.8682 202.801C72.5147 202.801 73.5284 203.996 73.5284 205.842V206.229H69.1573V206.287C69.1573 207.453 69.8428 208.221 70.9385 208.221C71.712 208.221 72.2803 207.828 72.4502 207.254ZM77.1082 209.105C75.5555 209.105 74.5008 207.863 74.5008 205.953C74.5008 204.043 75.5496 202.801 77.0848 202.801C77.9578 202.801 78.6609 203.229 79.0242 203.896H79.0477V200.545H80.0672V209H79.0945V207.969H79.077C78.6844 208.672 77.9871 209.105 77.1082 209.105ZM77.3016 203.697C76.2234 203.697 75.5438 204.576 75.5438 205.953C75.5438 207.336 76.2234 208.209 77.3016 208.209C78.3504 208.209 79.0535 207.318 79.0535 205.953C79.0535 204.594 78.3504 203.697 77.3016 203.697ZM81.7369 209V202.906H82.7564V209H81.7369ZM82.2466 201.881C81.9009 201.881 81.6138 201.594 81.6138 201.248C81.6138 200.896 81.9009 200.615 82.2466 200.615C82.5982 200.615 82.8853 200.896 82.8853 201.248C82.8853 201.594 82.5982 201.881 82.2466 201.881ZM86.3831 208.238C87.3441 208.238 88.0823 207.564 88.0823 206.686V206.188L86.4534 206.287C85.6331 206.34 85.1644 206.703 85.1644 207.277C85.1644 207.857 85.6507 208.238 86.3831 208.238ZM86.1546 209.105C84.9417 209.105 84.1273 208.373 84.1273 207.277C84.1273 206.234 84.93 205.578 86.3363 205.496L88.0823 205.396V204.887C88.0823 204.143 87.5902 203.697 86.7464 203.697C85.9613 203.697 85.4691 204.066 85.3402 204.664H84.3558C84.4261 203.609 85.3284 202.801 86.7698 202.801C88.1995 202.801 89.1019 203.574 89.1019 204.787V209H88.1351V207.951H88.1116C87.7484 208.648 86.9749 209.105 86.1546 209.105ZM91.7091 205.613L94.4044 202.906H95.6407L92.9981 205.537L95.7227 209H94.5391L92.2774 206.164L91.7091 206.703V209H90.6895V200.545H91.7091V205.613ZM98.7108 208.238C99.6717 208.238 100.41 207.564 100.41 206.686V206.188L98.7811 206.287C97.9608 206.34 97.492 206.703 97.492 207.277C97.492 207.857 97.9784 208.238 98.7108 208.238ZM98.4823 209.105C97.2694 209.105 96.4549 208.373 96.4549 207.277C96.4549 206.234 97.2577 205.578 98.6639 205.496L100.41 205.396V204.887C100.41 204.143 99.9178 203.697 99.0741 203.697C98.2889 203.697 97.7967 204.066 97.6678 204.664H96.6834C96.7537 203.609 97.6561 202.801 99.0975 202.801C100.527 202.801 101.43 203.574 101.43 204.787V209H100.463V207.951H100.439C100.076 208.648 99.3026 209.105 98.4823 209.105ZM102.964 209V202.906H103.925V203.879H103.949C104.289 203.223 104.939 202.801 105.882 202.801C107.218 202.801 107.992 203.662 107.992 205.045V209H106.972V205.227C106.972 204.242 106.509 203.703 105.572 203.703C104.611 203.703 103.984 204.383 103.984 205.414V209H102.964ZM116.641 209V200.545H117.66V209H116.641ZM121.287 208.238C122.248 208.238 122.986 207.564 122.986 206.686V206.188L121.357 206.287C120.537 206.34 120.068 206.703 120.068 207.277C120.068 207.857 120.555 208.238 121.287 208.238ZM121.059 209.105C119.846 209.105 119.031 208.373 119.031 207.277C119.031 206.234 119.834 205.578 121.24 205.496L122.986 205.396V204.887C122.986 204.143 122.494 203.697 121.65 203.697C120.865 203.697 120.373 204.066 120.244 204.664H119.26C119.33 203.609 120.232 202.801 121.674 202.801C123.104 202.801 124.006 203.574 124.006 204.787V209H123.039V207.951H123.016C122.652 208.648 121.879 209.105 121.059 209.105ZM126.045 211.279C125.922 211.279 125.717 211.268 125.605 211.244V210.389C125.717 210.412 125.875 210.418 126.004 210.418C126.572 210.418 126.888 210.143 127.123 209.434L127.263 209.006L125.013 202.906H126.103L127.791 207.98H127.808L129.496 202.906H130.568L128.172 209.428C127.65 210.852 127.146 211.279 126.045 211.279ZM133.509 208.238C134.47 208.238 135.209 207.564 135.209 206.686V206.188L133.58 206.287C132.759 206.34 132.291 206.703 132.291 207.277C132.291 207.857 132.777 208.238 133.509 208.238ZM133.281 209.105C132.068 209.105 131.253 208.373 131.253 207.277C131.253 206.234 132.056 205.578 133.462 205.496L135.209 205.396V204.887C135.209 204.143 134.716 203.697 133.873 203.697C133.087 203.697 132.595 204.066 132.466 204.664H131.482C131.552 203.609 132.455 202.801 133.896 202.801C135.326 202.801 136.228 203.574 136.228 204.787V209H135.261V207.951H135.238C134.875 208.648 134.101 209.105 133.281 209.105ZM137.763 209V202.906H138.724V203.879H138.747C139.087 203.223 139.738 202.801 140.681 202.801C142.017 202.801 142.79 203.662 142.79 205.045V209H141.771V205.227C141.771 204.242 141.308 203.703 140.37 203.703C139.41 203.703 138.783 204.383 138.783 205.414V209H137.763ZM146.341 208.238C147.302 208.238 148.04 207.564 148.04 206.686V206.188L146.411 206.287C145.591 206.34 145.122 206.703 145.122 207.277C145.122 207.857 145.608 208.238 146.341 208.238ZM146.112 209.105C144.9 209.105 144.085 208.373 144.085 207.277C144.085 206.234 144.888 205.578 146.294 205.496L148.04 205.396V204.887C148.04 204.143 147.548 203.697 146.704 203.697C145.919 203.697 145.427 204.066 145.298 204.664H144.314C144.384 203.609 145.286 202.801 146.728 202.801C148.157 202.801 149.06 203.574 149.06 204.787V209H148.093V207.951H148.069C147.706 208.648 146.933 209.105 146.112 209.105ZM150.595 209V202.906H151.556V203.879H151.579C151.919 203.223 152.569 202.801 153.513 202.801C154.848 202.801 155.622 203.662 155.622 205.045V209H154.602V205.227C154.602 204.242 154.14 203.703 153.202 203.703C152.241 203.703 151.614 204.383 151.614 205.414V209H150.595ZM164.722 211.279C164.599 211.279 164.394 211.268 164.283 211.244V210.389C164.394 210.412 164.552 210.418 164.681 210.418C165.25 210.418 165.566 210.143 165.8 209.434L165.941 209.006L163.691 202.906H164.781L166.468 207.98H166.486L168.173 202.906H169.246L166.849 209.428C166.328 210.852 165.824 211.279 164.722 211.279ZM172.187 208.238C173.148 208.238 173.886 207.564 173.886 206.686V206.188L172.257 206.287C171.437 206.34 170.968 206.703 170.968 207.277C170.968 207.857 171.454 208.238 172.187 208.238ZM171.958 209.105C170.745 209.105 169.931 208.373 169.931 207.277C169.931 206.234 170.734 205.578 172.14 205.496L173.886 205.396V204.887C173.886 204.143 173.394 203.697 172.55 203.697C171.765 203.697 171.273 204.066 171.144 204.664H170.159C170.23 203.609 171.132 202.801 172.574 202.801C174.003 202.801 174.906 203.574 174.906 204.787V209H173.939V207.951H173.915C173.552 208.648 172.779 209.105 171.958 209.105ZM176.44 209V202.906H177.401V203.879H177.425C177.765 203.223 178.415 202.801 179.358 202.801C180.694 202.801 181.468 203.662 181.468 205.045V209H180.448V205.227C180.448 204.242 179.985 203.703 179.048 203.703C178.087 203.703 177.46 204.383 177.46 205.414V209H176.44ZM185.487 208.15C186.548 208.15 187.257 207.271 187.257 205.93C187.257 204.588 186.548 203.697 185.487 203.697C184.438 203.697 183.753 204.564 183.753 205.93C183.753 207.295 184.438 208.15 185.487 208.15ZM185.522 211.297C184.18 211.297 183.12 210.541 182.95 209.504H183.999C184.198 210.061 184.802 210.43 185.563 210.43C186.618 210.43 187.257 209.82 187.257 208.912V207.951H187.233C186.858 208.613 186.138 209.047 185.282 209.047C183.729 209.047 182.71 207.822 182.71 205.93C182.71 204.02 183.729 202.801 185.305 202.801C186.167 202.801 186.882 203.223 187.286 203.932H187.304V202.906H188.276V208.877C188.276 210.33 187.204 211.297 185.522 211.297ZM201.906 202.906V209H200.939V208.01H200.916C200.552 208.713 199.919 209.105 198.982 209.105C197.652 209.105 196.873 208.244 196.873 206.861V202.906H197.892V206.68C197.892 207.67 198.355 208.203 199.298 208.203C200.289 208.203 200.886 207.523 200.886 206.486V202.906H201.906ZM203.47 209V202.906H204.431V203.879H204.454C204.794 203.223 205.445 202.801 206.388 202.801C207.724 202.801 208.497 203.662 208.497 205.045V209H207.478V205.227C207.478 204.242 207.015 203.703 206.077 203.703C205.116 203.703 204.49 204.383 204.49 205.414V209H203.47ZM212.517 208.15C213.577 208.15 214.286 207.271 214.286 205.93C214.286 204.588 213.577 203.697 212.517 203.697C211.468 203.697 210.782 204.564 210.782 205.93C210.782 207.295 211.468 208.15 212.517 208.15ZM212.552 211.297C211.21 211.297 210.149 210.541 209.98 209.504H211.028C211.228 210.061 211.831 210.43 212.593 210.43C213.647 210.43 214.286 209.82 214.286 208.912V207.951H214.263C213.888 208.613 213.167 209.047 212.312 209.047C210.759 209.047 209.739 207.822 209.739 205.93C209.739 204.02 210.759 202.801 212.335 202.801C213.196 202.801 213.911 203.223 214.315 203.932H214.333V202.906H215.306V208.877C215.306 210.33 214.233 211.297 212.552 211.297ZM219.354 208.15C220.415 208.15 221.124 207.271 221.124 205.93C221.124 204.588 220.415 203.697 219.354 203.697C218.305 203.697 217.62 204.564 217.62 205.93C217.62 207.295 218.305 208.15 219.354 208.15ZM219.389 211.297C218.048 211.297 216.987 210.541 216.817 209.504H217.866C218.065 210.061 218.669 210.43 219.43 210.43C220.485 210.43 221.124 209.82 221.124 208.912V207.951H221.1C220.725 208.613 220.005 209.047 219.149 209.047C217.596 209.047 216.577 207.822 216.577 205.93C216.577 204.02 217.596 202.801 219.173 202.801C220.034 202.801 220.749 203.223 221.153 203.932H221.171V202.906H222.143V208.877C222.143 210.33 221.071 211.297 219.389 211.297ZM228.717 202.906V209H227.751V208.01H227.727C227.364 208.713 226.731 209.105 225.794 209.105C224.463 209.105 223.684 208.244 223.684 206.861V202.906H224.704V206.68C224.704 207.67 225.167 208.203 226.11 208.203C227.1 208.203 227.698 207.523 227.698 206.486V202.906H228.717ZM230.334 209V200.545H231.354V209H230.334ZM242.335 209.105C240.782 209.105 239.728 207.863 239.728 205.953C239.728 204.043 240.776 202.801 242.312 202.801C243.185 202.801 243.888 203.229 244.251 203.896H244.274V200.545H245.294V209H244.321V207.969H244.304C243.911 208.672 243.214 209.105 242.335 209.105ZM242.528 203.697C241.45 203.697 240.771 204.576 240.771 205.953C240.771 207.336 241.45 208.209 242.528 208.209C243.577 208.209 244.28 207.318 244.28 205.953C244.28 204.594 243.577 203.697 242.528 203.697ZM248.921 208.238C249.882 208.238 250.62 207.564 250.62 206.686V206.188L248.991 206.287C248.171 206.34 247.702 206.703 247.702 207.277C247.702 207.857 248.188 208.238 248.921 208.238ZM248.692 209.105C247.479 209.105 246.665 208.373 246.665 207.277C246.665 206.234 247.468 205.578 248.874 205.496L250.62 205.396V204.887C250.62 204.143 250.128 203.697 249.284 203.697C248.499 203.697 248.007 204.066 247.878 204.664H246.893C246.964 203.609 247.866 202.801 249.307 202.801C250.737 202.801 251.639 203.574 251.639 204.787V209H250.673V207.951H250.649C250.286 208.648 249.512 209.105 248.692 209.105ZM253.174 209V202.906H254.135V203.879H254.159C254.499 203.223 255.149 202.801 256.092 202.801C257.428 202.801 258.202 203.662 258.202 205.045V209H257.182V205.227C257.182 204.242 256.719 203.703 255.782 203.703C254.821 203.703 254.194 204.383 254.194 205.414V209H253.174ZM266.851 209V200.545H267.87V203.879H267.894C268.234 203.199 268.902 202.801 269.827 202.801C271.163 202.801 271.972 203.703 271.972 205.062V209H270.952V205.25C270.952 204.283 270.466 203.703 269.511 203.703C268.497 203.703 267.87 204.395 267.87 205.449V209H266.851ZM275.517 208.238C276.478 208.238 277.216 207.564 277.216 206.686V206.188L275.587 206.287C274.767 206.34 274.298 206.703 274.298 207.277C274.298 207.857 274.784 208.238 275.517 208.238ZM275.288 209.105C274.075 209.105 273.261 208.373 273.261 207.277C273.261 206.234 274.063 205.578 275.47 205.496L277.216 205.396V204.887C277.216 204.143 276.724 203.697 275.88 203.697C275.095 203.697 274.603 204.066 274.474 204.664H273.489C273.56 203.609 274.462 202.801 275.903 202.801C277.333 202.801 278.235 203.574 278.235 204.787V209H277.269V207.951H277.245C276.882 208.648 276.108 209.105 275.288 209.105ZM279.665 204.588C279.665 203.545 280.596 202.801 281.938 202.801C283.198 202.801 284.124 203.551 284.171 204.582H283.198C283.128 203.996 282.653 203.633 281.903 203.633C281.159 203.633 280.667 204.002 280.667 204.535C280.667 204.957 280.989 205.238 281.68 205.414L282.624 205.643C283.854 205.953 284.3 206.398 284.3 207.295C284.3 208.355 283.298 209.105 281.874 209.105C280.538 209.105 279.606 208.379 279.501 207.301H280.52C280.632 207.934 281.112 208.273 281.938 208.273C282.764 208.273 283.274 207.922 283.274 207.371C283.274 206.938 283.022 206.703 282.337 206.521L281.264 206.246C280.192 205.971 279.665 205.42 279.665 204.588ZM285.653 209V202.906H286.672V209H285.653ZM286.163 201.881C285.817 201.881 285.53 201.594 285.53 201.248C285.53 200.896 285.817 200.615 286.163 200.615C286.514 200.615 286.801 200.896 286.801 201.248C286.801 201.594 286.514 201.881 286.163 201.881ZM288.342 209V200.545H289.362V209H288.342ZM298.538 211.279C298.415 211.279 298.21 211.268 298.099 211.244V210.389C298.21 210.412 298.368 210.418 298.497 210.418C299.065 210.418 299.382 210.143 299.616 209.434L299.757 209.006L297.507 202.906H298.597L300.284 207.98H300.302L301.989 202.906H303.061L300.665 209.428C300.143 210.852 299.64 211.279 298.538 211.279ZM306.003 208.238C306.964 208.238 307.702 207.564 307.702 206.686V206.188L306.073 206.287C305.253 206.34 304.784 206.703 304.784 207.277C304.784 207.857 305.27 208.238 306.003 208.238ZM305.774 209.105C304.561 209.105 303.747 208.373 303.747 207.277C303.747 206.234 304.55 205.578 305.956 205.496L307.702 205.396V204.887C307.702 204.143 307.21 203.697 306.366 203.697C305.581 203.697 305.089 204.066 304.96 204.664H303.975C304.046 203.609 304.948 202.801 306.389 202.801C307.819 202.801 308.721 203.574 308.721 204.787V209H307.755V207.951H307.731C307.368 208.648 306.594 209.105 305.774 209.105ZM310.256 209V202.906H311.217V203.879H311.241C311.581 203.223 312.231 202.801 313.174 202.801C314.51 202.801 315.284 203.662 315.284 205.045V209H314.264V205.227C314.264 204.242 313.801 203.703 312.864 203.703C311.903 203.703 311.276 204.383 311.276 205.414V209H310.256ZM319.303 208.15C320.364 208.15 321.073 207.271 321.073 205.93C321.073 204.588 320.364 203.697 319.303 203.697C318.254 203.697 317.569 204.564 317.569 205.93C317.569 207.295 318.254 208.15 319.303 208.15ZM319.338 211.297C317.996 211.297 316.936 210.541 316.766 209.504H317.815C318.014 210.061 318.617 210.43 319.379 210.43C320.434 210.43 321.073 209.82 321.073 208.912V207.951H321.049C320.674 208.613 319.953 209.047 319.098 209.047C317.545 209.047 316.526 207.822 316.526 205.93C316.526 204.02 317.545 202.801 319.121 202.801C319.983 202.801 320.698 203.223 321.102 203.932H321.119V202.906H322.092V208.877C322.092 210.33 321.02 211.297 319.338 211.297ZM39.6621 229V222.906H40.623V223.879H40.6465C40.9863 223.223 41.6367 222.801 42.5801 222.801C43.916 222.801 44.6895 223.662 44.6895 225.045V229H43.6699V225.227C43.6699 224.242 43.207 223.703 42.2695 223.703C41.3086 223.703 40.6816 224.383 40.6816 225.414V229H39.6621ZM46.7341 231.279C46.6111 231.279 46.406 231.268 46.2947 231.244V230.389C46.406 230.412 46.5642 230.418 46.6931 230.418C47.2615 230.418 47.5779 230.143 47.8123 229.434L47.9529 229.006L45.7029 222.906H46.7927L48.4802 227.98H48.4978L50.1853 222.906H51.2576L48.8611 229.428C48.3396 230.852 47.8357 231.279 46.7341 231.279ZM54.1987 228.238C55.1597 228.238 55.898 227.564 55.898 226.686V226.188L54.2691 226.287C53.4487 226.34 52.98 226.703 52.98 227.277C52.98 227.857 53.4663 228.238 54.1987 228.238ZM53.9702 229.105C52.7573 229.105 51.9429 228.373 51.9429 227.277C51.9429 226.234 52.7456 225.578 54.1519 225.496L55.898 225.396V224.887C55.898 224.143 55.4058 223.697 54.562 223.697C53.7769 223.697 53.2847 224.066 53.1558 224.664H52.1714C52.2417 223.609 53.1441 222.801 54.5855 222.801C56.0152 222.801 56.9175 223.574 56.9175 224.787V229H55.9507V227.951H55.9273C55.564 228.648 54.7905 229.105 53.9702 229.105ZM58.7805 221.436H59.8001V222.906H60.9837V223.744H59.8001V227.365C59.8001 227.922 60.0345 228.174 60.5559 228.174C60.6731 228.174 60.9075 228.156 60.9778 228.145V229C60.8548 229.029 60.5735 229.047 60.3333 229.047C59.2141 229.047 58.7805 228.59 58.7805 227.418V223.744H57.8723V222.906H58.7805V221.436ZM64.2061 228.238C65.167 228.238 65.9053 227.564 65.9053 226.686V226.188L64.2764 226.287C63.4561 226.34 62.9873 226.703 62.9873 227.277C62.9873 227.857 63.4737 228.238 64.2061 228.238ZM63.9776 229.105C62.7647 229.105 61.9502 228.373 61.9502 227.277C61.9502 226.234 62.753 225.578 64.1592 225.496L65.9053 225.396V224.887C65.9053 224.143 65.4131 223.697 64.5694 223.697C63.7842 223.697 63.292 224.066 63.1631 224.664H62.1787C62.2491 223.609 63.1514 222.801 64.5928 222.801C66.0225 222.801 66.9248 223.574 66.9248 224.787V229H65.958V227.951H65.9346C65.5713 228.648 64.7979 229.105 63.9776 229.105ZM69.3211 229.059C68.9461 229.059 68.6531 228.766 68.6531 228.391C68.6531 228.016 68.9461 227.723 69.3211 227.723C69.6961 227.723 69.9891 228.016 69.9891 228.391C69.9891 228.766 69.6961 229.059 69.3211 229.059Z" fill="white"/>
<g filter="url(#filter1_d_1212_4311)">
<rect x="156" y="28" width="50" height="50" rx="17" fill="#00674F"/>
</g>
<path d="M165 58H197.6" stroke="white" stroke-width="1.5" stroke-miterlimit="10" stroke-linecap="round" stroke-linejoin="round"/>
<path d="M165 60.9004H197.6" stroke="white" stroke-width="1.5" stroke-miterlimit="10" stroke-linecap="round" stroke-linejoin="round"/>
<path d="M176.3 48.2002V50.4002" stroke="white" stroke-width="1.5" stroke-miterlimit="10" stroke-linecap="round" stroke-linejoin="round"/>
<path d="M176.3 53V55.2" stroke="white" stroke-width="1.5" stroke-miterlimit="10" stroke-linecap="round" stroke-linejoin="round"/>
<path d="M179.8 51.7002H177.7" stroke="white" stroke-width="1.5" stroke-miterlimit="10" stroke-linecap="round" stroke-linejoin="round"/>
<path d="M175 51.7002H172.9" stroke="white" stroke-width="1.5" stroke-miterlimit="10" stroke-linecap="round" stroke-linejoin="round"/>
<path d="M192.3 48.2002V50.4002" stroke="white" stroke-width="1.5" stroke-miterlimit="10" stroke-linecap="round" stroke-linejoin="round"/>
<path d="M192.3 53V55.2" stroke="white" stroke-width="1.5" stroke-miterlimit="10" stroke-linecap="round" stroke-linejoin="round"/>
<path d="M195.8 51.7002H193.6" stroke="white" stroke-width="1.5" stroke-miterlimit="10" stroke-linecap="round" stroke-linejoin="round"/>
<path d="M191 51.7002H188.8" stroke="white" stroke-width="1.5" stroke-miterlimit="10" stroke-linecap="round" stroke-linejoin="round"/>
<path d="M184.5 45V46.2" stroke="white" stroke-width="1.5" stroke-miterlimit="10" stroke-linecap="round" stroke-linejoin="round"/>
<path d="M184.5 47.5996V48.7996" stroke="white" stroke-width="1.5" stroke-miterlimit="10" stroke-linecap="round" stroke-linejoin="round"/>
<path d="M186.4 46.9004H185.2" stroke="white" stroke-width="1.5" stroke-miterlimit="10" stroke-linecap="round" stroke-linejoin="round"/>
<path d="M183.8 46.9004H182.6" stroke="white" stroke-width="1.5" stroke-miterlimit="10" stroke-linecap="round" stroke-linejoin="round"/>
<path d="M168.6 45V46.2" stroke="white" stroke-width="1.5" stroke-miterlimit="10" stroke-linecap="round" stroke-linejoin="round"/>
<path d="M168.6 47.5996V48.7996" stroke="white" stroke-width="1.5" stroke-miterlimit="10" stroke-linecap="round" stroke-linejoin="round"/>
<path d="M170.5 46.9004H169.3" stroke="white" stroke-width="1.5" stroke-miterlimit="10" stroke-linecap="round" stroke-linejoin="round"/>
<path d="M167.9 46.9004H166.7" stroke="white" stroke-width="1.5" stroke-miterlimit="10" stroke-linecap="round" stroke-linejoin="round"/>
</g>
</g>
<defs>
<filter id="filter0_dd_1212_4311" x="0" y="0" width="362" height="280" filterUnits="userSpaceOnUse" color-interpolation-filters="sRGB">
<feFlood flood-opacity="0" result="BackgroundImageFix"/>
<feColorMatrix in="SourceAlpha" type="matrix" values="0 0 0 0 0 0 0 0 0 0 0 0 0 0 0 0 0 0 127 0" result="hardAlpha"/>
<feOffset dy="4"/>
<feGaussianBlur stdDeviation="2"/>
<feColorMatrix type="matrix" values="0 0 0 0 0 0 0 0 0 0 0 0 0 0 0 0 0 0 0.3 0"/>
<feBlend mode="normal" in2="BackgroundImageFix" result="effect1_dropShadow_1212_4311"/>
<feColorMatrix in="SourceAlpha" type="matrix" values="0 0 0 0 0 0 0 0 0 0 0 0 0 0 0 0 0 0 127 0" result="hardAlpha"/>
<feMorphology radius="6" operator="dilate" in="SourceAlpha" result="effect2_dropShadow_1212_4311"/>
<feOffset dy="8"/>
<feGaussianBlur stdDeviation="6"/>
<feColorMatrix type="matrix" values="0 0 0 0 0 0 0 0 0 0 0 0 0 0 0 0 0 0 0.15 0"/>
<feBlend mode="normal" in2="effect1_dropShadow_1212_4311" result="effect2_dropShadow_1212_4311"/>
<feBlend mode="normal" in="SourceGraphic" in2="effect2_dropShadow_1212_4311" result="shape"/>
</filter>
<filter id="filter1_d_1212_4311" x="148" y="22" width="66" height="66" filterUnits="userSpaceOnUse" color-interpolation-filters="sRGB">
<feFlood flood-opacity="0" result="BackgroundImageFix"/>
<feColorMatrix in="SourceAlpha" type="matrix" values="0 0 0 0 0 0 0 0 0 0 0 0 0 0 0 0 0 0 127 0" result="hardAlpha"/>
<feOffset dy="2"/>
<feGaussianBlur stdDeviation="4"/>
<feComposite in2="hardAlpha" operator="out"/>
<feColorMatrix type="matrix" values="0 0 0 0 0.0117647 0 0 0 0 0.0509804 0 0 0 0 0.270588 0 0 0 0.03 0"/>
<feBlend mode="normal" in2="BackgroundImageFix" result="effect1_dropShadow_1212_4311"/>
<feBlend mode="normal" in="SourceGraphic" in2="effect1_dropShadow_1212_4311" result="shape"/>
</filter>
<clipPath id="clip0_1212_4311">
<rect x="18" y="10" width="326" height="244" rx="10" fill="white"/>
</clipPath>
</defs>
</svg>
