<svg width="540" height="376" viewBox="0 0 540 376" fill="none" xmlns="http://www.w3.org/2000/svg">
<g filter="url(#filter0_dd_1294_9051)">
<g clip-path="url(#clip0_1294_9051)">
<rect x="18.5" y="10.5" width="503" height="339" rx="9.5" fill="#00674F" stroke="#00674F"/>
<path opacity="0.2" fill-rule="evenodd" clip-rule="evenodd" d="M-314 -45L-246 -5C-182 35 -46 115 86 175C218 235 354 275 486 227C618 175 754 35 886 -13C1018 -65 1154 -25 1286 -5C1418 15 1554 15 1618 15H1686V375H1618C1554 375 1418 375 1286 375C1154 375 1018 375 886 375C754 375 618 375 486 375C354 375 218 375 86 375C-46 375 -182 375 -246 375H-314V-45Z" fill="#C2A353"/>
<path opacity="0.2" fill-rule="evenodd" clip-rule="evenodd" d="M-174 165L-140 185C-108 205 -40 245 26 275C92 305 160 325 226 301C292 275 360 205 426 181C492 155 560 175 626 185C692 195 760 195 792 195H826V375H792C760 375 692 375 626 375C560 375 492 375 426 375C360 375 292 375 226 375C160 375 92 375 26 375C-40 375 -108 375 -140 375H-174V165Z" fill="#C2A353"/>
<path d="M154.386 166H152.745V155.141H152.677L148.184 165.902H146.7L142.208 155.141H142.139V166H140.499V151.908H142.54L147.403 163.666H147.481L152.345 151.908H154.386V166ZM157.344 166V155.844H159.043V166H157.344ZM158.194 154.135C157.618 154.135 157.139 153.656 157.139 153.08C157.139 152.494 157.618 152.025 158.194 152.025C158.78 152.025 159.258 152.494 159.258 153.08C159.258 153.656 158.78 154.135 158.194 154.135ZM161.562 158.646C161.562 156.908 163.115 155.668 165.352 155.668C167.451 155.668 168.994 156.918 169.072 158.637H167.451C167.334 157.66 166.543 157.055 165.293 157.055C164.053 157.055 163.232 157.67 163.232 158.559C163.232 159.262 163.77 159.73 164.922 160.023L166.494 160.404C168.545 160.922 169.287 161.664 169.287 163.158C169.287 164.926 167.617 166.176 165.244 166.176C163.018 166.176 161.465 164.965 161.289 163.168H162.988C163.174 164.223 163.975 164.789 165.352 164.789C166.729 164.789 167.578 164.203 167.578 163.285C167.578 162.562 167.158 162.172 166.016 161.869L164.229 161.41C162.441 160.951 161.562 160.033 161.562 158.646ZM171.543 166V155.844H173.242V166H171.543ZM172.392 154.135C171.816 154.135 171.337 153.656 171.337 153.08C171.337 152.494 171.816 152.025 172.392 152.025C172.978 152.025 173.457 152.494 173.457 153.08C173.457 153.656 172.978 154.135 172.392 154.135ZM180.702 151.908H185.438C189.618 151.908 192.089 154.516 192.089 158.949C192.089 163.393 189.628 166 185.438 166H180.702V151.908ZM182.46 153.49V164.418H185.321C188.514 164.418 190.292 162.465 190.292 158.969C190.292 155.443 188.524 153.49 185.321 153.49H182.46ZM194.412 166V155.844H196.014V157.504H196.053C196.385 156.381 197.323 155.668 198.514 155.668C198.807 155.668 199.061 155.717 199.198 155.736V157.387C199.061 157.338 198.7 157.289 198.289 157.289C196.971 157.289 196.112 158.236 196.112 159.672V166H194.412ZM201.443 166.098C200.818 166.098 200.33 165.609 200.33 164.984C200.33 164.359 200.818 163.871 201.443 163.871C202.068 163.871 202.557 164.359 202.557 164.984C202.557 165.609 202.068 166.098 201.443 166.098ZM211.013 166H209.275V151.908H210.984L218.698 162.973H218.786V151.908H220.525V166H218.816L211.101 154.975H211.013V166ZM223.483 166V155.844H225.182V166H223.483ZM224.333 154.135C223.757 154.135 223.278 153.656 223.278 153.08C223.278 152.494 223.757 152.025 224.333 152.025C224.919 152.025 225.397 152.494 225.397 153.08C225.397 153.656 224.919 154.135 224.333 154.135ZM236.315 159.174H234.655C234.411 158.07 233.551 157.162 232.057 157.162C230.299 157.162 229.108 158.617 229.108 160.922C229.108 163.285 230.319 164.682 232.077 164.682C233.463 164.682 234.371 163.949 234.664 162.729H236.334C236.071 164.75 234.371 166.176 232.067 166.176C229.254 166.176 227.379 164.193 227.379 160.922C227.379 157.719 229.245 155.668 232.047 155.668C234.586 155.668 236.1 157.348 236.315 159.174ZM238.385 166V151.908H240.084V157.465H240.123C240.689 156.332 241.803 155.668 243.346 155.668C245.572 155.668 246.92 157.172 246.92 159.438V166H245.221V159.75C245.221 158.139 244.41 157.172 242.818 157.172C241.129 157.172 240.084 158.324 240.084 160.082V166H238.385ZM259.566 166H254.243V151.908H259.585C261.997 151.908 263.628 153.314 263.628 155.424C263.628 156.889 262.554 158.256 261.196 158.5V158.578C263.111 158.822 264.341 160.17 264.341 162.045C264.341 164.525 262.564 166 259.566 166ZM256.001 153.461V157.982H258.638C260.718 157.982 261.851 157.152 261.851 155.629C261.851 154.232 260.894 153.461 259.185 153.461H256.001ZM256.001 164.447H259.302C261.421 164.447 262.534 163.588 262.534 161.957C262.534 160.326 261.382 159.496 259.136 159.496H256.001V164.447ZM270.542 157.143C268.95 157.143 267.837 158.363 267.729 160.053H273.247C273.208 158.354 272.143 157.143 270.542 157.143ZM273.208 163.09H274.878C274.585 164.867 272.866 166.176 270.649 166.176C267.739 166.176 265.971 164.154 265.971 160.961C265.971 157.807 267.768 155.668 270.571 155.668C273.315 155.668 275.005 157.66 275.005 160.736V161.381H267.72V161.479C267.72 163.422 268.862 164.701 270.688 164.701C271.977 164.701 272.925 164.047 273.208 163.09ZM280.473 164.73C282.075 164.73 283.305 163.607 283.305 162.143V161.312L280.59 161.479C279.223 161.566 278.442 162.172 278.442 163.129C278.442 164.096 279.252 164.73 280.473 164.73ZM280.092 166.176C278.071 166.176 276.713 164.955 276.713 163.129C276.713 161.391 278.051 160.297 280.395 160.16L283.305 159.994V159.145C283.305 157.904 282.485 157.162 281.079 157.162C279.77 157.162 278.95 157.777 278.735 158.773H277.094C277.211 157.016 278.715 155.668 281.118 155.668C283.5 155.668 285.004 156.957 285.004 158.979V166H283.393V164.252H283.354C282.748 165.414 281.459 166.176 280.092 166.176ZM295.902 155.844V166H294.291V164.35H294.252C293.646 165.521 292.592 166.176 291.029 166.176C288.812 166.176 287.514 164.74 287.514 162.436V155.844H289.213V162.133C289.213 163.783 289.984 164.672 291.557 164.672C293.207 164.672 294.203 163.539 294.203 161.811V155.844H295.902ZM299.056 153.393H300.755V155.844H302.728V157.24H300.755V163.275C300.755 164.203 301.146 164.623 302.015 164.623C302.211 164.623 302.601 164.594 302.718 164.574V166C302.513 166.049 302.045 166.078 301.644 166.078C299.779 166.078 299.056 165.316 299.056 163.363V157.24H297.543V155.844H299.056V153.393ZM305.784 169.799C305.579 169.799 305.238 169.779 305.052 169.74V168.314C305.238 168.354 305.501 168.363 305.716 168.363C306.663 168.363 307.191 167.904 307.581 166.723L307.816 166.01L304.066 155.844H305.882L308.695 164.301H308.724L311.536 155.844H313.323L309.329 166.713C308.46 169.086 307.62 169.799 305.784 169.799ZM328.996 166L327.58 161.967H321.975L320.559 166H318.713L323.909 151.908H325.647L330.842 166H328.996ZM324.748 154.047L322.493 160.473H327.063L324.807 154.047H324.748ZM336.467 157.143C334.875 157.143 333.762 158.363 333.654 160.053H339.172C339.133 158.354 338.068 157.143 336.467 157.143ZM339.133 163.09H340.803C340.51 164.867 338.791 166.176 336.574 166.176C333.664 166.176 331.896 164.154 331.896 160.961C331.896 157.807 333.693 155.668 336.496 155.668C339.24 155.668 340.93 157.66 340.93 160.736V161.381H333.645V161.479C333.645 163.422 334.787 164.701 336.613 164.701C337.902 164.701 338.85 164.047 339.133 163.09ZM342.873 158.646C342.873 156.908 344.425 155.668 346.662 155.668C348.761 155.668 350.304 156.918 350.382 158.637H348.761C348.644 157.66 347.853 157.055 346.603 157.055C345.363 157.055 344.543 157.67 344.543 158.559C344.543 159.262 345.08 159.73 346.232 160.023L347.804 160.404C349.855 160.922 350.597 161.664 350.597 163.158C350.597 164.926 348.927 166.176 346.554 166.176C344.328 166.176 342.775 164.965 342.599 163.168H344.298C344.484 164.223 345.285 164.789 346.662 164.789C348.039 164.789 348.888 164.203 348.888 163.285C348.888 162.562 348.468 162.172 347.326 161.869L345.539 161.41C343.752 160.951 342.873 160.033 342.873 158.646ZM353.312 153.393H355.011V155.844H356.984V157.24H355.011V163.275C355.011 164.203 355.402 164.623 356.271 164.623C356.466 164.623 356.857 164.594 356.974 164.574V166C356.769 166.049 356.3 166.078 355.9 166.078C354.034 166.078 353.312 165.316 353.312 163.363V157.24H351.798V155.844H353.312V153.393ZM359.288 166V151.908H360.987V157.465H361.026C361.593 156.332 362.706 155.668 364.249 155.668C366.475 155.668 367.823 157.172 367.823 159.438V166H366.124V159.75C366.124 158.139 365.313 157.172 363.721 157.172C362.032 157.172 360.987 158.324 360.987 160.082V166H359.288ZM374.454 157.143C372.862 157.143 371.748 158.363 371.641 160.053H377.159C377.12 158.354 376.055 157.143 374.454 157.143ZM377.12 163.09H378.789C378.496 164.867 376.778 166.176 374.561 166.176C371.651 166.176 369.883 164.154 369.883 160.961C369.883 157.807 371.68 155.668 374.483 155.668C377.227 155.668 378.916 157.66 378.916 160.736V161.381H371.631V161.479C371.631 163.422 372.774 164.701 374.6 164.701C375.889 164.701 376.836 164.047 377.12 163.09ZM381.582 153.393H383.281V155.844H385.254V157.24H383.281V163.275C383.281 164.203 383.672 164.623 384.541 164.623C384.736 164.623 385.127 164.594 385.244 164.574V166C385.039 166.049 384.57 166.078 384.17 166.078C382.305 166.078 381.582 165.316 381.582 163.363V157.24H380.068V155.844H381.582V153.393ZM387.558 166V155.844H389.257V166H387.558ZM388.408 154.135C387.832 154.135 387.353 153.656 387.353 153.08C387.353 152.494 387.832 152.025 388.408 152.025C388.994 152.025 389.472 152.494 389.472 153.08C389.472 153.656 388.994 154.135 388.408 154.135ZM400.39 159.174H398.73C398.486 158.07 397.626 157.162 396.132 157.162C394.374 157.162 393.183 158.617 393.183 160.922C393.183 163.285 394.394 164.682 396.152 164.682C397.538 164.682 398.446 163.949 398.739 162.729H400.409C400.146 164.75 398.446 166.176 396.142 166.176C393.329 166.176 391.454 164.193 391.454 160.922C391.454 157.719 393.32 155.668 396.122 155.668C398.661 155.668 400.175 157.348 400.39 159.174Z" fill="white"/>
<path d="M61.2031 207H59.8906V198.312H59.8359L56.2422 206.922H55.0547L51.4609 198.312H51.4062V207H50.0938V195.727H51.7266L55.6172 205.133H55.6797L59.5703 195.727H61.2031V207ZM63.57 207V198.875H64.9294V207H63.57ZM64.2497 197.508C63.7887 197.508 63.4059 197.125 63.4059 196.664C63.4059 196.195 63.7887 195.82 64.2497 195.82C64.7184 195.82 65.1012 196.195 65.1012 196.664C65.1012 197.125 64.7184 197.508 64.2497 197.508ZM66.9447 201.117C66.9447 199.727 68.1869 198.734 69.9759 198.734C71.6556 198.734 72.89 199.734 72.9525 201.109H71.6556C71.5619 200.328 70.9291 199.844 69.9291 199.844C68.9369 199.844 68.2806 200.336 68.2806 201.047C68.2806 201.609 68.7103 201.984 69.6322 202.219L70.89 202.523C72.5306 202.938 73.1244 203.531 73.1244 204.727C73.1244 206.141 71.7884 207.141 69.89 207.141C68.1087 207.141 66.8666 206.172 66.7259 204.734H68.0853C68.2337 205.578 68.8744 206.031 69.9759 206.031C71.0775 206.031 71.7572 205.562 71.7572 204.828C71.7572 204.25 71.4212 203.938 70.5072 203.695L69.0775 203.328C67.6478 202.961 66.9447 202.227 66.9447 201.117ZM74.9287 207V198.875H76.2881V207H74.9287ZM75.6084 197.508C75.1475 197.508 74.7647 197.125 74.7647 196.664C74.7647 196.195 75.1475 195.82 75.6084 195.82C76.0772 195.82 76.46 196.195 76.46 196.664C76.46 197.125 76.0772 197.508 75.6084 197.508ZM96.9697 202.484L100.563 198.875H102.212L98.6884 202.383L102.321 207H100.743L97.7275 203.219L96.9697 203.938V207H95.6103V195.727H96.9697V202.484ZM106.305 205.984C107.587 205.984 108.571 205.086 108.571 203.914V203.25L106.399 203.383C105.305 203.453 104.68 203.938 104.68 204.703C104.68 205.477 105.329 205.984 106.305 205.984ZM106.001 207.141C104.383 207.141 103.298 206.164 103.298 204.703C103.298 203.312 104.368 202.438 106.243 202.328L108.571 202.195V201.516C108.571 200.523 107.915 199.93 106.79 199.93C105.743 199.93 105.087 200.422 104.915 201.219H103.602C103.696 199.812 104.899 198.734 106.821 198.734C108.727 198.734 109.93 199.766 109.93 201.383V207H108.641V205.602H108.61C108.126 206.531 107.094 207.141 106.001 207.141ZM111.977 207V198.875H113.258V200.172H113.289C113.672 199.312 114.5 198.734 115.594 198.734C116.703 198.734 117.524 199.297 117.875 200.281H117.907C118.36 199.312 119.313 198.734 120.453 198.734C122.063 198.734 123.102 199.781 123.102 201.391V207H121.743V201.703C121.743 200.594 121.125 199.938 120.055 199.938C118.977 199.938 118.219 200.734 118.219 201.836V207H116.86V201.555C116.86 200.578 116.203 199.938 115.196 199.938C114.118 199.938 113.336 200.781 113.336 201.906V207H111.977ZM125.227 207V198.875H126.586V207H125.227ZM125.906 197.508C125.445 197.508 125.062 197.125 125.062 196.664C125.062 196.195 125.445 195.82 125.906 195.82C126.375 195.82 126.758 196.195 126.758 196.664C126.758 197.125 126.375 197.508 125.906 197.508ZM148.518 205.984C149.799 205.984 150.783 205.086 150.783 203.914V203.25L148.611 203.383C147.518 203.453 146.893 203.938 146.893 204.703C146.893 205.477 147.541 205.984 148.518 205.984ZM148.213 207.141C146.596 207.141 145.51 206.164 145.51 204.703C145.51 203.312 146.58 202.438 148.455 202.328L150.783 202.195V201.516C150.783 200.523 150.127 199.93 149.002 199.93C147.955 199.93 147.299 200.422 147.127 201.219H145.814C145.908 199.812 147.111 198.734 149.033 198.734C150.939 198.734 152.143 199.766 152.143 201.383V207H150.853V205.602H150.822C150.338 206.531 149.307 207.141 148.213 207.141ZM157.267 207.141C155.197 207.141 153.791 205.484 153.791 202.938C153.791 200.391 155.189 198.734 157.236 198.734C158.4 198.734 159.338 199.305 159.822 200.195H159.853V195.727H161.213V207H159.916V205.625H159.892C159.369 206.562 158.439 207.141 157.267 207.141ZM157.525 199.93C156.088 199.93 155.181 201.102 155.181 202.938C155.181 204.781 156.088 205.945 157.525 205.945C158.923 205.945 159.861 204.758 159.861 202.938C159.861 201.125 158.923 199.93 157.525 199.93ZM166.048 205.984C167.329 205.984 168.314 205.086 168.314 203.914V203.25L166.142 203.383C165.048 203.453 164.423 203.938 164.423 204.703C164.423 205.477 165.072 205.984 166.048 205.984ZM165.743 207.141C164.126 207.141 163.04 206.164 163.04 204.703C163.04 203.312 164.111 202.438 165.986 202.328L168.314 202.195V201.516C168.314 200.523 167.658 199.93 166.533 199.93C165.486 199.93 164.829 200.422 164.658 201.219H163.345C163.439 199.812 164.642 198.734 166.564 198.734C168.47 198.734 169.673 199.766 169.673 201.383V207H168.384V205.602H168.353C167.868 206.531 166.837 207.141 165.743 207.141ZM171.79 207V195.727H173.149V207H171.79ZM177.985 205.984C179.266 205.984 180.251 205.086 180.251 203.914V203.25L178.079 203.383C176.985 203.453 176.36 203.938 176.36 204.703C176.36 205.477 177.008 205.984 177.985 205.984ZM177.68 207.141C176.063 207.141 174.977 206.164 174.977 204.703C174.977 203.312 176.048 202.438 177.923 202.328L180.251 202.195V201.516C180.251 200.523 179.594 199.93 178.469 199.93C177.423 199.93 176.766 200.422 176.594 201.219H175.282C175.376 199.812 176.579 198.734 178.501 198.734C180.407 198.734 181.61 199.766 181.61 201.383V207H180.321V205.602H180.29C179.805 206.531 178.774 207.141 177.68 207.141ZM183.727 207V195.727H185.086V200.172H185.118C185.571 199.266 186.461 198.734 187.696 198.734C189.477 198.734 190.555 199.938 190.555 201.75V207H189.196V202C189.196 200.711 188.547 199.938 187.274 199.938C185.922 199.938 185.086 200.859 185.086 202.266V207H183.727ZM209.698 207V198.875H210.979V200.172H211.01C211.393 199.312 212.221 198.734 213.315 198.734C214.424 198.734 215.244 199.297 215.596 200.281H215.627C216.08 199.312 217.033 198.734 218.174 198.734C219.783 198.734 220.823 199.781 220.823 201.391V207H219.463V201.703C219.463 200.594 218.846 199.938 217.776 199.938C216.698 199.938 215.94 200.734 215.94 201.836V207H214.58V201.555C214.58 200.578 213.924 199.938 212.916 199.938C211.838 199.938 211.057 200.781 211.057 201.906V207H209.698ZM226.135 199.914C224.861 199.914 223.971 200.891 223.885 202.242H228.299C228.268 200.883 227.416 199.914 226.135 199.914ZM228.268 204.672H229.603C229.369 206.094 227.994 207.141 226.221 207.141C223.893 207.141 222.478 205.523 222.478 202.969C222.478 200.445 223.916 198.734 226.158 198.734C228.353 198.734 229.705 200.328 229.705 202.789V203.305H223.877V203.383C223.877 204.938 224.791 205.961 226.252 205.961C227.283 205.961 228.041 205.438 228.268 204.672ZM231.4 207V198.875H232.681V200.172H232.713C233.095 199.312 233.923 198.734 235.017 198.734C236.127 198.734 236.947 199.297 237.298 200.281H237.33C237.783 199.312 238.736 198.734 239.877 198.734C241.486 198.734 242.525 199.781 242.525 201.391V207H241.166V201.703C241.166 200.594 240.548 199.938 239.478 199.938C238.4 199.938 237.642 200.734 237.642 201.836V207H236.283V201.555C236.283 200.578 235.627 199.938 234.619 199.938C233.541 199.938 232.759 200.781 232.759 201.906V207H231.4ZM248.618 207.141C247.431 207.141 246.501 206.562 245.978 205.625H245.947V207H244.65V195.727H246.009V200.234H246.04C246.548 199.305 247.493 198.734 248.642 198.734C250.689 198.734 252.072 200.391 252.072 202.938C252.072 205.492 250.697 207.141 248.618 207.141ZM248.353 199.93C246.978 199.93 246.001 201.133 246.001 202.938C246.001 204.75 246.978 205.945 248.353 205.945C249.79 205.945 250.681 204.797 250.681 202.938C250.681 201.094 249.79 199.93 248.353 199.93ZM256.454 205.984C257.735 205.984 258.72 205.086 258.72 203.914V203.25L256.548 203.383C255.454 203.453 254.829 203.938 254.829 204.703C254.829 205.477 255.478 205.984 256.454 205.984ZM256.149 207.141C254.532 207.141 253.446 206.164 253.446 204.703C253.446 203.312 254.517 202.438 256.392 202.328L258.72 202.195V201.516C258.72 200.523 258.063 199.93 256.938 199.93C255.892 199.93 255.235 200.422 255.063 201.219H253.751C253.845 199.812 255.048 198.734 256.97 198.734C258.876 198.734 260.079 199.766 260.079 201.383V207H258.79V205.602H258.759C258.274 206.531 257.243 207.141 256.149 207.141ZM262.126 207V198.875H263.407V200.172H263.438C263.891 199.297 264.758 198.734 266.016 198.734C267.798 198.734 268.829 199.883 268.829 201.727V207H267.469V201.969C267.469 200.656 266.852 199.938 265.602 199.938C264.321 199.938 263.485 200.844 263.485 202.219V207H262.126ZM271.321 196.914H272.68V198.875H274.258V199.992H272.68V204.82C272.68 205.562 272.993 205.898 273.688 205.898C273.844 205.898 274.157 205.875 274.25 205.859V207C274.086 207.039 273.711 207.062 273.391 207.062C271.899 207.062 271.321 206.453 271.321 204.891V199.992H270.11V198.875H271.321V196.914ZM282.703 198.875V207H281.414V205.68H281.383C280.898 206.617 280.055 207.141 278.805 207.141C277.031 207.141 275.992 205.992 275.992 204.148V198.875H277.352V203.906C277.352 205.227 277.969 205.938 279.227 205.938C280.547 205.938 281.344 205.031 281.344 203.648V198.875H282.703ZM301.744 201.117C301.744 199.727 302.986 198.734 304.775 198.734C306.455 198.734 307.689 199.734 307.752 201.109H306.455C306.361 200.328 305.728 199.844 304.728 199.844C303.736 199.844 303.08 200.336 303.08 201.047C303.08 201.609 303.51 201.984 304.432 202.219L305.689 202.523C307.33 202.938 307.924 203.531 307.924 204.727C307.924 206.141 306.588 207.141 304.689 207.141C302.908 207.141 301.666 206.172 301.525 204.734H302.885C303.033 205.578 303.674 206.031 304.775 206.031C305.877 206.031 306.557 205.562 306.557 204.828C306.557 204.25 306.221 203.938 305.307 203.695L303.877 203.328C302.447 202.961 301.744 202.227 301.744 201.117ZM312.916 199.914C311.642 199.914 310.752 200.891 310.666 202.242H315.08C315.048 200.883 314.197 199.914 312.916 199.914ZM315.048 204.672H316.384C316.15 206.094 314.775 207.141 313.002 207.141C310.673 207.141 309.259 205.523 309.259 202.969C309.259 200.445 310.697 198.734 312.939 198.734C315.134 198.734 316.486 200.328 316.486 202.789V203.305H310.658V203.383C310.658 204.938 311.572 205.961 313.033 205.961C314.064 205.961 314.822 205.438 315.048 204.672ZM318.618 196.914H319.978V198.875H321.556V199.992H319.978V204.82C319.978 205.562 320.29 205.898 320.986 205.898C321.142 205.898 321.454 205.875 321.548 205.859V207C321.384 207.039 321.009 207.062 320.689 207.062C319.197 207.062 318.618 206.453 318.618 204.891V199.992H317.408V198.875H318.618V196.914ZM323.399 207V198.875H324.759V207H323.399ZM324.079 197.508C323.618 197.508 323.235 197.125 323.235 196.664C323.235 196.195 323.618 195.82 324.079 195.82C324.548 195.82 324.931 196.195 324.931 196.664C324.931 197.125 324.548 197.508 324.079 197.508ZM329.594 205.984C330.876 205.984 331.86 205.086 331.86 203.914V203.25L329.688 203.383C328.594 203.453 327.969 203.938 327.969 204.703C327.969 205.477 328.618 205.984 329.594 205.984ZM329.29 207.141C327.673 207.141 326.587 206.164 326.587 204.703C326.587 203.312 327.657 202.438 329.532 202.328L331.86 202.195V201.516C331.86 200.523 331.204 199.93 330.079 199.93C329.032 199.93 328.376 200.422 328.204 201.219H326.891C326.985 199.812 328.188 198.734 330.11 198.734C332.016 198.734 333.219 199.766 333.219 201.383V207H331.93V205.602H331.899C331.415 206.531 330.383 207.141 329.29 207.141ZM339.211 198.734C341.282 198.734 342.688 200.391 342.688 202.938C342.688 205.484 341.289 207.141 339.242 207.141C338.078 207.141 337.141 206.57 336.657 205.68H336.625V209.711H335.266V198.875H336.555V200.25H336.586C337.086 199.336 338.032 198.734 339.211 198.734ZM338.946 205.945C340.391 205.945 341.297 204.781 341.297 202.938C341.297 201.102 340.391 199.93 338.946 199.93C337.555 199.93 336.617 201.133 336.617 202.938C336.617 204.75 337.555 205.945 338.946 205.945ZM365.424 198.734C367.494 198.734 368.901 200.391 368.901 202.938C368.901 205.484 367.502 207.141 365.455 207.141C364.291 207.141 363.354 206.57 362.869 205.68H362.838V209.711H361.479V198.875H362.768V200.25H362.799C363.299 199.336 364.244 198.734 365.424 198.734ZM365.158 205.945C366.604 205.945 367.51 204.781 367.51 202.938C367.51 201.102 366.604 199.93 365.158 199.93C363.768 199.93 362.83 201.133 362.83 202.938C362.83 204.75 363.768 205.945 365.158 205.945ZM373.275 205.984C374.557 205.984 375.541 205.086 375.541 203.914V203.25L373.369 203.383C372.275 203.453 371.65 203.938 371.65 204.703C371.65 205.477 372.299 205.984 373.275 205.984ZM372.971 207.141C371.353 207.141 370.268 206.164 370.268 204.703C370.268 203.312 371.338 202.438 373.213 202.328L375.541 202.195V201.516C375.541 200.523 374.885 199.93 373.76 199.93C372.713 199.93 372.057 200.422 371.885 201.219H370.572C370.666 199.812 371.869 198.734 373.791 198.734C375.697 198.734 376.9 199.766 376.9 201.383V207H375.611V205.602H375.58C375.096 206.531 374.064 207.141 372.971 207.141ZM378.806 201.117C378.806 199.727 380.048 198.734 381.838 198.734C383.517 198.734 384.752 199.734 384.814 201.109H383.517C383.423 200.328 382.791 199.844 381.791 199.844C380.798 199.844 380.142 200.336 380.142 201.047C380.142 201.609 380.572 201.984 381.494 202.219L382.752 202.523C384.392 202.938 384.986 203.531 384.986 204.727C384.986 206.141 383.65 207.141 381.752 207.141C379.97 207.141 378.728 206.172 378.588 204.734H379.947C380.095 205.578 380.736 206.031 381.838 206.031C382.939 206.031 383.619 205.562 383.619 204.828C383.619 204.25 383.283 203.938 382.369 203.695L380.939 203.328C379.509 202.961 378.806 202.227 378.806 201.117ZM386.79 207V198.875H388.15V207H386.79ZM387.47 197.508C387.009 197.508 386.626 197.125 386.626 196.664C386.626 196.195 387.009 195.82 387.47 195.82C387.939 195.82 388.322 196.195 388.322 196.664C388.322 197.125 387.939 197.508 387.47 197.508ZM393.563 199.914C392.29 199.914 391.399 200.891 391.313 202.242H395.728C395.696 200.883 394.845 199.914 393.563 199.914ZM395.696 204.672H397.032C396.798 206.094 395.423 207.141 393.649 207.141C391.321 207.141 389.907 205.523 389.907 202.969C389.907 200.445 391.345 198.734 393.587 198.734C395.782 198.734 397.134 200.328 397.134 202.789V203.305H391.306V203.383C391.306 204.938 392.22 205.961 393.681 205.961C394.712 205.961 395.47 205.438 395.696 204.672ZM398.829 207V198.875H400.11V200.172H400.141C400.594 199.297 401.462 198.734 402.719 198.734C404.501 198.734 405.532 199.883 405.532 201.727V207H404.173V201.969C404.173 200.656 403.555 199.938 402.305 199.938C401.024 199.938 400.188 200.844 400.188 202.219V207H398.829ZM424.682 207V198.875H425.963V200.172H425.995C426.378 199.312 427.206 198.734 428.299 198.734C429.409 198.734 430.229 199.297 430.581 200.281H430.612C431.065 199.312 432.018 198.734 433.159 198.734C434.768 198.734 435.807 199.781 435.807 201.391V207H434.448V201.703C434.448 200.594 433.831 199.938 432.76 199.938C431.682 199.938 430.924 200.734 430.924 201.836V207H429.565V201.555C429.565 200.578 428.909 199.938 427.901 199.938C426.823 199.938 426.042 200.781 426.042 201.906V207H424.682ZM441.119 199.914C439.846 199.914 438.955 200.891 438.869 202.242H443.283C443.252 200.883 442.401 199.914 441.119 199.914ZM443.252 204.672H444.588C444.354 206.094 442.979 207.141 441.205 207.141C438.877 207.141 437.463 205.523 437.463 202.969C437.463 200.445 438.901 198.734 441.143 198.734C443.338 198.734 444.69 200.328 444.69 202.789V203.305H438.862V203.383C438.862 204.938 439.776 205.961 441.237 205.961C442.268 205.961 443.026 205.438 443.252 204.672ZM446.385 207V198.875H447.666V200.172H447.697C448.15 199.297 449.018 198.734 450.275 198.734C452.057 198.734 453.088 199.883 453.088 201.727V207H451.728V201.969C451.728 200.656 451.111 199.938 449.861 199.938C448.58 199.938 447.744 200.844 447.744 202.219V207H446.385ZM461.892 201.539H460.564C460.369 200.656 459.681 199.93 458.486 199.93C457.08 199.93 456.127 201.094 456.127 202.938C456.127 204.828 457.095 205.945 458.502 205.945C459.611 205.945 460.338 205.359 460.572 204.383H461.908C461.697 206 460.338 207.141 458.494 207.141C456.244 207.141 454.744 205.555 454.744 202.938C454.744 200.375 456.236 198.734 458.478 198.734C460.509 198.734 461.72 200.078 461.892 201.539ZM466.158 205.984C467.439 205.984 468.423 205.086 468.423 203.914V203.25L466.251 203.383C465.158 203.453 464.533 203.938 464.533 204.703C464.533 205.477 465.181 205.984 466.158 205.984ZM465.853 207.141C464.236 207.141 463.15 206.164 463.15 204.703C463.15 203.312 464.22 202.438 466.095 202.328L468.423 202.195V201.516C468.423 200.523 467.767 199.93 466.642 199.93C465.595 199.93 464.939 200.422 464.767 201.219H463.454C463.548 199.812 464.751 198.734 466.673 198.734C468.579 198.734 469.783 199.766 469.783 201.383V207H468.493V205.602H468.462C467.978 206.531 466.947 207.141 465.853 207.141ZM475.774 198.734C477.845 198.734 479.251 200.391 479.251 202.938C479.251 205.484 477.853 207.141 475.806 207.141C474.642 207.141 473.704 206.57 473.22 205.68H473.188V209.711H471.829V198.875H473.118V200.25H473.149C473.649 199.336 474.595 198.734 475.774 198.734ZM475.509 205.945C476.954 205.945 477.86 204.781 477.86 202.938C477.86 201.102 476.954 199.93 475.509 199.93C474.118 199.93 473.181 201.133 473.181 202.938C473.181 204.75 474.118 205.945 475.509 205.945ZM483.626 205.984C484.907 205.984 485.891 205.086 485.891 203.914V203.25L483.719 203.383C482.626 203.453 482.001 203.938 482.001 204.703C482.001 205.477 482.649 205.984 483.626 205.984ZM483.321 207.141C481.704 207.141 480.618 206.164 480.618 204.703C480.618 203.312 481.688 202.438 483.563 202.328L485.891 202.195V201.516C485.891 200.523 485.235 199.93 484.11 199.93C483.063 199.93 482.407 200.422 482.235 201.219H480.923C481.016 199.812 482.219 198.734 484.141 198.734C486.048 198.734 487.251 199.766 487.251 201.383V207H485.962V205.602H485.93C485.446 206.531 484.415 207.141 483.321 207.141ZM489.368 207V198.875H490.727V207H489.368ZM490.047 197.508C489.586 197.508 489.203 197.125 489.203 196.664C489.203 196.195 489.586 195.82 490.047 195.82C490.516 195.82 490.899 196.195 490.899 196.664C490.899 197.125 490.516 197.508 490.047 197.508ZM51.3125 222.484L54.9062 218.875H56.5547L53.0312 222.383L56.6641 227H55.0859L52.0703 223.219L51.3125 223.938V227H49.9531V215.727H51.3125V222.484ZM60.8356 219.914C59.5622 219.914 58.6716 220.891 58.5856 222.242H62.9997C62.9684 220.883 62.1169 219.914 60.8356 219.914ZM62.9684 224.672H64.3044C64.07 226.094 62.695 227.141 60.9216 227.141C58.5934 227.141 57.1794 225.523 57.1794 222.969C57.1794 220.445 58.6169 218.734 60.8591 218.734C63.0544 218.734 64.4059 220.328 64.4059 222.789V223.305H58.5778V223.383C58.5778 224.938 59.4919 225.961 60.9528 225.961C61.9841 225.961 62.7419 225.438 62.9684 224.672ZM70.0462 218.734C72.1166 218.734 73.5228 220.391 73.5228 222.938C73.5228 225.484 72.1244 227.141 70.0775 227.141C68.9134 227.141 67.9759 226.57 67.4916 225.68H67.4603V229.711H66.1009V218.875H67.39V220.25H67.4212C67.9212 219.336 68.8666 218.734 70.0462 218.734ZM69.7806 225.945C71.2259 225.945 72.1322 224.781 72.1322 222.938C72.1322 221.102 71.2259 219.93 69.7806 219.93C68.39 219.93 67.4525 221.133 67.4525 222.938C67.4525 224.75 68.39 225.945 69.7806 225.945ZM78.4756 219.914C77.2022 219.914 76.3116 220.891 76.2256 222.242H80.6397C80.6084 220.883 79.7569 219.914 78.4756 219.914ZM80.6084 224.672H81.9444C81.71 226.094 80.335 227.141 78.5616 227.141C76.2334 227.141 74.8194 225.523 74.8194 222.969C74.8194 220.445 76.2569 218.734 78.4991 218.734C80.6944 218.734 82.0459 220.328 82.0459 222.789V223.305H76.2178V223.383C76.2178 224.938 77.1319 225.961 78.5928 225.961C79.6241 225.961 80.3819 225.438 80.6084 224.672ZM83.7409 227V218.875H85.0222V220.203H85.0534C85.3191 219.305 86.0691 218.734 87.0222 218.734C87.2566 218.734 87.4597 218.773 87.5691 218.789V220.109C87.4597 220.07 87.1706 220.031 86.8425 220.031C85.7878 220.031 85.1003 220.789 85.1003 221.938V227H83.7409ZM95.3578 221.539H94.0297C93.8344 220.656 93.1469 219.93 91.9516 219.93C90.5453 219.93 89.5922 221.094 89.5922 222.938C89.5922 224.828 90.5609 225.945 91.9672 225.945C93.0766 225.945 93.8031 225.359 94.0375 224.383H95.3734C95.1625 226 93.8031 227.141 91.9594 227.141C89.7094 227.141 88.2094 225.555 88.2094 222.938C88.2094 220.375 89.7016 218.734 91.9437 218.734C93.975 218.734 95.1859 220.078 95.3578 221.539ZM99.6231 225.984C100.904 225.984 101.889 225.086 101.889 223.914V223.25L99.7169 223.383C98.6231 223.453 97.9981 223.938 97.9981 224.703C97.9981 225.477 98.6466 225.984 99.6231 225.984ZM99.3184 227.141C97.7012 227.141 96.6153 226.164 96.6153 224.703C96.6153 223.312 97.6856 222.438 99.5606 222.328L101.889 222.195V221.516C101.889 220.523 101.232 219.93 100.107 219.93C99.0606 219.93 98.4044 220.422 98.2325 221.219H96.92C97.0137 219.812 98.2169 218.734 100.139 218.734C102.045 218.734 103.248 219.766 103.248 221.383V227H101.959V225.602H101.928C101.443 226.531 100.412 227.141 99.3184 227.141ZM105.967 230.039C105.803 230.039 105.529 230.023 105.381 229.992V228.852C105.529 228.883 105.74 228.891 105.912 228.891C106.67 228.891 107.092 228.523 107.404 227.578L107.592 227.008L104.592 218.875H106.045L108.295 225.641H108.318L110.568 218.875H111.998L108.803 227.57C108.107 229.469 107.435 230.039 105.967 230.039ZM115.919 225.984C117.201 225.984 118.185 225.086 118.185 223.914V223.25L116.013 223.383C114.919 223.453 114.294 223.938 114.294 224.703C114.294 225.477 114.943 225.984 115.919 225.984ZM115.615 227.141C113.998 227.141 112.912 226.164 112.912 224.703C112.912 223.312 113.982 222.438 115.857 222.328L118.185 222.195V221.516C118.185 220.523 117.529 219.93 116.404 219.93C115.357 219.93 114.701 220.422 114.529 221.219H113.216C113.31 219.812 114.513 218.734 116.435 218.734C118.341 218.734 119.544 219.766 119.544 221.383V227H118.255V225.602H118.224C117.74 226.531 116.708 227.141 115.615 227.141ZM124.271 225.984C125.552 225.984 126.536 225.086 126.536 223.914V223.25L124.364 223.383C123.271 223.453 122.646 223.938 122.646 224.703C122.646 225.477 123.294 225.984 124.271 225.984ZM123.966 227.141C122.349 227.141 121.263 226.164 121.263 224.703C121.263 223.312 122.333 222.438 124.208 222.328L126.536 222.195V221.516C126.536 220.523 125.88 219.93 124.755 219.93C123.708 219.93 123.052 220.422 122.88 221.219H121.567C121.661 219.812 122.864 218.734 124.786 218.734C126.692 218.734 127.896 219.766 127.896 221.383V227H126.607V225.602H126.575C126.091 226.531 125.06 227.141 123.966 227.141ZM129.942 227V218.875H131.223V220.172H131.255C131.708 219.297 132.575 218.734 133.833 218.734C135.614 218.734 136.645 219.883 136.645 221.727V227H135.286V221.969C135.286 220.656 134.669 219.938 133.419 219.938C132.137 219.938 131.302 220.844 131.302 222.219V227H129.942ZM157.202 227.141C155.132 227.141 153.726 225.484 153.726 222.938C153.726 220.391 155.124 218.734 157.171 218.734C158.335 218.734 159.272 219.305 159.757 220.195H159.788V215.727H161.147V227H159.851V225.625H159.827C159.304 226.562 158.374 227.141 157.202 227.141ZM157.46 219.93C156.022 219.93 155.116 221.102 155.116 222.938C155.116 224.781 156.022 225.945 157.46 225.945C158.858 225.945 159.796 224.758 159.796 222.938C159.796 221.125 158.858 219.93 157.46 219.93ZM163.374 227V218.875H164.733V227H163.374ZM164.053 217.508C163.592 217.508 163.21 217.125 163.21 216.664C163.21 216.195 163.592 215.82 164.053 215.82C164.522 215.82 164.905 216.195 164.905 216.664C164.905 217.125 164.522 217.508 164.053 217.508ZM166.889 227V218.875H168.17V220.203H168.201C168.467 219.305 169.217 218.734 170.17 218.734C170.405 218.734 170.608 218.773 170.717 218.789V220.109C170.608 220.07 170.319 220.031 169.991 220.031C168.936 220.031 168.248 220.789 168.248 221.938V227H166.889ZM172.217 227V218.875H173.576V227H172.217ZM172.896 217.508C172.436 217.508 172.053 217.125 172.053 216.664C172.053 216.195 172.436 215.82 172.896 215.82C173.365 215.82 173.748 216.195 173.748 216.664C173.748 217.125 173.365 217.508 172.896 217.508ZM194.234 227.141C192.164 227.141 190.758 225.484 190.758 222.938C190.758 220.391 192.156 218.734 194.203 218.734C195.367 218.734 196.305 219.305 196.789 220.195H196.82V215.727H198.18V227H196.883V225.625H196.859C196.336 226.562 195.406 227.141 194.234 227.141ZM194.492 219.93C193.055 219.93 192.149 221.102 192.149 222.938C192.149 224.781 193.055 225.945 194.492 225.945C195.891 225.945 196.828 224.758 196.828 222.938C196.828 221.125 195.891 219.93 194.492 219.93ZM203.015 225.984C204.297 225.984 205.281 225.086 205.281 223.914V223.25L203.109 223.383C202.015 223.453 201.39 223.938 201.39 224.703C201.39 225.477 202.039 225.984 203.015 225.984ZM202.711 227.141C201.094 227.141 200.008 226.164 200.008 224.703C200.008 223.312 201.078 222.438 202.953 222.328L205.281 222.195V221.516C205.281 220.523 204.625 219.93 203.5 219.93C202.453 219.93 201.797 220.422 201.625 221.219H200.312C200.406 219.812 201.609 218.734 203.531 218.734C205.437 218.734 206.64 219.766 206.64 221.383V227H205.351V225.602H205.32C204.836 226.531 203.804 227.141 202.711 227.141ZM208.687 227V218.875H209.968V220.172H209.999C210.453 219.297 211.32 218.734 212.578 218.734C214.359 218.734 215.39 219.883 215.39 221.727V227H214.031V221.969C214.031 220.656 213.414 219.938 212.164 219.938C210.882 219.938 210.046 220.844 210.046 222.219V227H208.687ZM234.298 222.484L237.892 218.875H239.541L236.017 222.383L239.65 227H238.072L235.056 223.219L234.298 223.938V227H232.939V215.727H234.298V222.484ZM243.822 219.914C242.548 219.914 241.657 220.891 241.572 222.242H245.986C245.954 220.883 245.103 219.914 243.822 219.914ZM245.954 224.672H247.29C247.056 226.094 245.681 227.141 243.907 227.141C241.579 227.141 240.165 225.523 240.165 222.969C240.165 220.445 241.603 218.734 243.845 218.734C246.04 218.734 247.392 220.328 247.392 222.789V223.305H241.564V223.383C241.564 224.938 242.478 225.961 243.939 225.961C244.97 225.961 245.728 225.438 245.954 224.672ZM255.837 221.539H254.509C254.313 220.656 253.626 219.93 252.431 219.93C251.024 219.93 250.071 221.094 250.071 222.938C250.071 224.828 251.04 225.945 252.446 225.945C253.556 225.945 254.282 225.359 254.517 224.383H255.852C255.642 226 254.282 227.141 252.438 227.141C250.188 227.141 248.688 225.555 248.688 222.938C248.688 220.375 250.181 218.734 252.423 218.734C254.454 218.734 255.665 220.078 255.837 221.539ZM260.102 225.984C261.383 225.984 262.368 225.086 262.368 223.914V223.25L260.196 223.383C259.102 223.453 258.477 223.938 258.477 224.703C258.477 225.477 259.126 225.984 260.102 225.984ZM259.797 227.141C258.18 227.141 257.094 226.164 257.094 224.703C257.094 223.312 258.165 222.438 260.04 222.328L262.368 222.195V221.516C262.368 220.523 261.712 219.93 260.587 219.93C259.54 219.93 258.883 220.422 258.712 221.219H257.399C257.493 219.812 258.696 218.734 260.618 218.734C262.524 218.734 263.727 219.766 263.727 221.383V227H262.438V225.602H262.407C261.922 226.531 260.891 227.141 259.797 227.141ZM265.774 227V218.875H267.055V220.172H267.086C267.539 219.297 268.407 218.734 269.664 218.734C271.446 218.734 272.477 219.883 272.477 221.727V227H271.117V221.969C271.117 220.656 270.5 219.938 269.25 219.938C267.969 219.938 267.133 220.844 267.133 222.219V227H265.774ZM274.969 216.914H276.328V218.875H277.906V219.992H276.328V224.82C276.328 225.562 276.641 225.898 277.336 225.898C277.492 225.898 277.805 225.875 277.898 225.859V227C277.734 227.039 277.359 227.062 277.039 227.062C275.547 227.062 274.969 226.453 274.969 224.891V219.992H273.758V218.875H274.969V216.914ZM279.75 227V218.875H281.109V227H279.75ZM280.429 217.508C279.968 217.508 279.586 217.125 279.586 216.664C279.586 216.195 279.968 215.82 280.429 215.82C280.898 215.82 281.281 216.195 281.281 216.664C281.281 217.125 280.898 217.508 280.429 217.508ZM284.695 222.484L288.288 218.875H289.937L286.413 222.383L290.046 227H288.468L285.452 223.219L284.695 223.938V227H283.335V215.727H284.695V222.484ZM294.03 225.984C295.312 225.984 296.296 225.086 296.296 223.914V223.25L294.124 223.383C293.03 223.453 292.405 223.938 292.405 224.703C292.405 225.477 293.054 225.984 294.03 225.984ZM293.726 227.141C292.108 227.141 291.022 226.164 291.022 224.703C291.022 223.312 292.093 222.438 293.968 222.328L296.296 222.195V221.516C296.296 220.523 295.64 219.93 294.515 219.93C293.468 219.93 292.812 220.422 292.64 221.219H291.327C291.421 219.812 292.624 218.734 294.546 218.734C296.452 218.734 297.655 219.766 297.655 221.383V227H296.366V225.602H296.335C295.851 226.531 294.819 227.141 293.726 227.141ZM299.702 227V218.875H300.983V220.172H301.014C301.467 219.297 302.335 218.734 303.592 218.734C305.374 218.734 306.405 219.883 306.405 221.727V227H305.046V221.969C305.046 220.656 304.428 219.938 303.178 219.938C301.897 219.938 301.061 220.844 301.061 222.219V227H299.702ZM326.563 225.984C327.845 225.984 328.829 225.086 328.829 223.914V223.25L326.657 223.383C325.563 223.453 324.938 223.938 324.938 224.703C324.938 225.477 325.587 225.984 326.563 225.984ZM326.259 227.141C324.641 227.141 323.556 226.164 323.556 224.703C323.556 223.312 324.626 222.438 326.501 222.328L328.829 222.195V221.516C328.829 220.523 328.173 219.93 327.048 219.93C326.001 219.93 325.345 220.422 325.173 221.219H323.86C323.954 219.812 325.157 218.734 327.079 218.734C328.985 218.734 330.188 219.766 330.188 221.383V227H328.899V225.602H328.868C328.384 226.531 327.352 227.141 326.259 227.141ZM332.305 227V215.727H333.665V227H332.305ZM338.5 225.984C339.781 225.984 340.766 225.086 340.766 223.914V223.25L338.594 223.383C337.5 223.453 336.875 223.938 336.875 224.703C336.875 225.477 337.524 225.984 338.5 225.984ZM338.196 227.141C336.578 227.141 335.492 226.164 335.492 224.703C335.492 223.312 336.563 222.438 338.438 222.328L340.766 222.195V221.516C340.766 220.523 340.11 219.93 338.985 219.93C337.938 219.93 337.281 220.422 337.11 221.219H335.797C335.891 219.812 337.094 218.734 339.016 218.734C340.922 218.734 342.125 219.766 342.125 221.383V227H340.836V225.602H340.805C340.321 226.531 339.289 227.141 338.196 227.141ZM344.172 227V218.875H345.453V220.172H345.484C345.867 219.312 346.695 218.734 347.789 218.734C348.898 218.734 349.719 219.297 350.07 220.281H350.101C350.555 219.312 351.508 218.734 352.648 218.734C354.258 218.734 355.297 219.781 355.297 221.391V227H353.937V221.703C353.937 220.594 353.32 219.938 352.25 219.938C351.172 219.938 350.414 220.734 350.414 221.836V227H349.055V221.555C349.055 220.578 348.398 219.938 347.391 219.938C346.312 219.938 345.531 220.781 345.531 221.906V227H344.172ZM357.421 227V218.875H358.781V227H357.421ZM358.101 217.508C357.64 217.508 357.257 217.125 357.257 216.664C357.257 216.195 357.64 215.82 358.101 215.82C358.57 215.82 358.953 216.195 358.953 216.664C358.953 217.125 358.57 217.508 358.101 217.508ZM376.361 227V218.875H377.642V220.172H377.674C378.056 219.312 378.884 218.734 379.978 218.734C381.088 218.734 381.908 219.297 382.259 220.281H382.291C382.744 219.312 383.697 218.734 384.838 218.734C386.447 218.734 387.486 219.781 387.486 221.391V227H386.127V221.703C386.127 220.594 385.509 219.938 384.439 219.938C383.361 219.938 382.603 220.734 382.603 221.836V227H381.244V221.555C381.244 220.578 380.588 219.938 379.58 219.938C378.502 219.938 377.72 220.781 377.72 221.906V227H376.361ZM392.798 219.914C391.525 219.914 390.634 220.891 390.548 222.242H394.962C394.931 220.883 394.079 219.914 392.798 219.914ZM394.931 224.672H396.267C396.033 226.094 394.658 227.141 392.884 227.141C390.556 227.141 389.142 225.523 389.142 222.969C389.142 220.445 390.579 218.734 392.822 218.734C395.017 218.734 396.369 220.328 396.369 222.789V223.305H390.54V223.383C390.54 224.938 391.454 225.961 392.915 225.961C393.947 225.961 394.704 225.438 394.931 224.672ZM398.064 227V218.875H399.345V220.203H399.376C399.642 219.305 400.392 218.734 401.345 218.734C401.579 218.734 401.782 218.773 401.892 218.789V220.109C401.782 220.07 401.493 220.031 401.165 220.031C400.11 220.031 399.423 220.789 399.423 221.938V227H398.064ZM406.188 219.914C404.915 219.914 404.024 220.891 403.938 222.242H408.352C408.321 220.883 407.469 219.914 406.188 219.914ZM408.321 224.672H409.657C409.423 226.094 408.048 227.141 406.274 227.141C403.946 227.141 402.532 225.523 402.532 222.969C402.532 220.445 403.969 218.734 406.212 218.734C408.407 218.734 409.759 220.328 409.759 222.789V223.305H403.93V223.383C403.93 224.938 404.844 225.961 406.305 225.961C407.337 225.961 408.094 225.438 408.321 224.672ZM412.883 222.484L416.477 218.875H418.125L414.602 222.383L418.235 227H416.657L413.641 223.219L412.883 223.938V227H411.524V215.727H412.883V222.484ZM422.219 225.984C423.5 225.984 424.484 225.086 424.484 223.914V223.25L422.313 223.383C421.219 223.453 420.594 223.938 420.594 224.703C420.594 225.477 421.242 225.984 422.219 225.984ZM421.914 227.141C420.297 227.141 419.211 226.164 419.211 224.703C419.211 223.312 420.281 222.438 422.156 222.328L424.484 222.195V221.516C424.484 220.523 423.828 219.93 422.703 219.93C421.656 219.93 421 220.422 420.828 221.219H419.516C419.609 219.812 420.813 218.734 422.734 218.734C424.641 218.734 425.844 219.766 425.844 221.383V227H424.555V225.602H424.524C424.039 226.531 423.008 227.141 421.914 227.141ZM443.315 227V218.875H444.596V220.172H444.627C445.01 219.312 445.838 218.734 446.932 218.734C448.041 218.734 448.862 219.297 449.213 220.281H449.244C449.697 219.312 450.651 218.734 451.791 218.734C453.401 218.734 454.44 219.781 454.44 221.391V227H453.08V221.703C453.08 220.594 452.463 219.938 451.393 219.938C450.315 219.938 449.557 220.734 449.557 221.836V227H448.197V221.555C448.197 220.578 447.541 219.938 446.533 219.938C445.455 219.938 444.674 220.781 444.674 221.906V227H443.315ZM459.752 219.914C458.478 219.914 457.588 220.891 457.502 222.242H461.916C461.885 220.883 461.033 219.914 459.752 219.914ZM461.885 224.672H463.221C462.986 226.094 461.611 227.141 459.838 227.141C457.51 227.141 456.096 225.523 456.096 222.969C456.096 220.445 457.533 218.734 459.775 218.734C461.971 218.734 463.322 220.328 463.322 222.789V223.305H457.494V223.383C457.494 224.938 458.408 225.961 459.869 225.961C460.9 225.961 461.658 225.438 461.885 224.672ZM465.087 227V215.727H466.447V227H465.087ZM471.282 225.984C472.564 225.984 473.548 225.086 473.548 223.914V223.25L471.376 223.383C470.282 223.453 469.657 223.938 469.657 224.703C469.657 225.477 470.306 225.984 471.282 225.984ZM470.978 227.141C469.361 227.141 468.275 226.164 468.275 224.703C468.275 223.312 469.345 222.438 471.22 222.328L473.548 222.195V221.516C473.548 220.523 472.892 219.93 471.767 219.93C470.72 219.93 470.064 220.422 469.892 221.219H468.579C468.673 219.812 469.876 218.734 471.798 218.734C473.704 218.734 474.907 219.766 474.907 221.383V227H473.618V225.602H473.587C473.103 226.531 472.072 227.141 470.978 227.141ZM477.024 227V215.727H478.384V227H477.024ZM487.212 218.875V227H485.922V225.68H485.891C485.407 226.617 484.563 227.141 483.313 227.141C481.54 227.141 480.501 225.992 480.501 224.148V218.875H481.86V223.906C481.86 225.227 482.477 225.938 483.735 225.938C485.055 225.938 485.852 225.031 485.852 223.648V218.875H487.212ZM489.367 227V218.875H490.727V227H489.367ZM490.047 217.508C489.586 217.508 489.203 217.125 489.203 216.664C489.203 216.195 489.586 215.82 490.047 215.82C490.516 215.82 490.899 216.195 490.899 216.664C490.899 217.125 490.516 217.508 490.047 217.508ZM53.8281 238.734C55.8984 238.734 57.3047 240.391 57.3047 242.938C57.3047 245.484 55.9062 247.141 53.8594 247.141C52.6953 247.141 51.7578 246.57 51.2734 245.68H51.2422V249.711H49.8828V238.875H51.1719V240.25H51.2031C51.7031 239.336 52.6484 238.734 53.8281 238.734ZM53.5625 245.945C55.0078 245.945 55.9141 244.781 55.9141 242.938C55.9141 241.102 55.0078 239.93 53.5625 239.93C52.1719 239.93 51.2344 241.133 51.2344 242.938C51.2344 244.75 52.1719 245.945 53.5625 245.945ZM62.2575 239.914C60.9841 239.914 60.0934 240.891 60.0075 242.242H64.4216C64.3903 240.883 63.5387 239.914 62.2575 239.914ZM64.3903 244.672H65.7262C65.4919 246.094 64.1169 247.141 62.3434 247.141C60.0153 247.141 58.6012 245.523 58.6012 242.969C58.6012 240.445 60.0387 238.734 62.2809 238.734C64.4762 238.734 65.8278 240.328 65.8278 242.789V243.305H59.9997V243.383C59.9997 244.938 60.9137 245.961 62.3747 245.961C63.4059 245.961 64.1637 245.438 64.3903 244.672ZM67.5228 247V238.875H68.8041V240.203H68.8353C69.1009 239.305 69.8509 238.734 70.8041 238.734C71.0384 238.734 71.2416 238.773 71.3509 238.789V240.109C71.2416 240.07 70.9525 240.031 70.6244 240.031C69.5697 240.031 68.8822 240.789 68.8822 241.938V247H67.5228ZM75.3037 245.984C76.585 245.984 77.5694 245.086 77.5694 243.914V243.25L75.3975 243.383C74.3037 243.453 73.6787 243.938 73.6787 244.703C73.6787 245.477 74.3272 245.984 75.3037 245.984ZM74.9991 247.141C73.3819 247.141 72.2959 246.164 72.2959 244.703C72.2959 243.312 73.3662 242.438 75.2412 242.328L77.5694 242.195V241.516C77.5694 240.523 76.9131 239.93 75.7881 239.93C74.7412 239.93 74.085 240.422 73.9131 241.219H72.6006C72.6944 239.812 73.8975 238.734 75.8194 238.734C77.7256 238.734 78.9287 239.766 78.9287 241.383V247H77.6397V245.602H77.6084C77.1241 246.531 76.0928 247.141 74.9991 247.141ZM91.3113 238.875L89.0456 247H87.6628L85.8269 240.711H85.7956L83.9675 247H82.5847L80.3113 238.875H81.6628L83.2878 245.484H83.3191L85.155 238.875H86.4675L88.3113 245.484H88.3425L89.9675 238.875H91.3113ZM95.2719 245.984C96.5531 245.984 97.5375 245.086 97.5375 243.914V243.25L95.3656 243.383C94.2719 243.453 93.6469 243.938 93.6469 244.703C93.6469 245.477 94.2953 245.984 95.2719 245.984ZM94.9672 247.141C93.35 247.141 92.2641 246.164 92.2641 244.703C92.2641 243.312 93.3344 242.438 95.2094 242.328L97.5375 242.195V241.516C97.5375 240.523 96.8812 239.93 95.7562 239.93C94.7094 239.93 94.0531 240.422 93.8812 241.219H92.5687C92.6625 239.812 93.8656 238.734 95.7875 238.734C97.6937 238.734 98.8969 239.766 98.8969 241.383V247H97.6078V245.602H97.5766C97.0922 246.531 96.0609 247.141 94.9672 247.141ZM101.381 236.914H102.74V238.875H104.318V239.992H102.74V244.82C102.74 245.562 103.053 245.898 103.748 245.898C103.904 245.898 104.217 245.875 104.311 245.859V247C104.147 247.039 103.772 247.062 103.451 247.062C101.959 247.062 101.381 246.453 101.381 244.891V239.992H100.17V238.875H101.381V236.914ZM108.615 245.984C109.896 245.984 110.881 245.086 110.881 243.914V243.25L108.709 243.383C107.615 243.453 106.99 243.938 106.99 244.703C106.99 245.477 107.638 245.984 108.615 245.984ZM108.31 247.141C106.693 247.141 105.607 246.164 105.607 244.703C105.607 243.312 106.678 242.438 108.553 242.328L110.881 242.195V241.516C110.881 240.523 110.224 239.93 109.099 239.93C108.053 239.93 107.396 240.422 107.224 241.219H105.912C106.006 239.812 107.209 238.734 109.131 238.734C111.037 238.734 112.24 239.766 112.24 241.383V247H110.951V245.602H110.92C110.435 246.531 109.404 247.141 108.31 247.141ZM114.287 247V238.875H115.568V240.172H115.599C116.052 239.297 116.919 238.734 118.177 238.734C119.958 238.734 120.99 239.883 120.99 241.727V247H119.63V241.969C119.63 240.656 119.013 239.938 117.763 239.938C116.482 239.938 115.646 240.844 115.646 242.219V247H114.287ZM130.806 250.039C130.642 250.039 130.369 250.023 130.22 249.992V248.852C130.369 248.883 130.58 248.891 130.752 248.891C131.509 248.891 131.931 248.523 132.244 247.578L132.431 247.008L129.431 238.875H130.884L133.134 245.641H133.158L135.408 238.875H136.838L133.642 247.57C132.947 249.469 132.275 250.039 130.806 250.039ZM140.759 245.984C142.04 245.984 143.025 245.086 143.025 243.914V243.25L140.853 243.383C139.759 243.453 139.134 243.938 139.134 244.703C139.134 245.477 139.783 245.984 140.759 245.984ZM140.454 247.141C138.837 247.141 137.751 246.164 137.751 244.703C137.751 243.312 138.822 242.438 140.697 242.328L143.025 242.195V241.516C143.025 240.523 142.368 239.93 141.243 239.93C140.197 239.93 139.54 240.422 139.368 241.219H138.056C138.15 239.812 139.353 238.734 141.275 238.734C143.181 238.734 144.384 239.766 144.384 241.383V247H143.095V245.602H143.064C142.579 246.531 141.548 247.141 140.454 247.141ZM146.431 247V238.875H147.712V240.172H147.743C148.196 239.297 149.063 238.734 150.321 238.734C152.103 238.734 153.134 239.883 153.134 241.727V247H151.774V241.969C151.774 240.656 151.157 239.938 149.907 239.938C148.626 239.938 147.79 240.844 147.79 242.219V247H146.431ZM158.493 245.867C159.907 245.867 160.852 244.695 160.852 242.906C160.852 241.117 159.907 239.93 158.493 239.93C157.094 239.93 156.18 241.086 156.18 242.906C156.18 244.727 157.094 245.867 158.493 245.867ZM158.54 250.062C156.751 250.062 155.337 249.055 155.11 247.672H156.508C156.774 248.414 157.579 248.906 158.594 248.906C160.001 248.906 160.852 248.094 160.852 246.883V245.602H160.821C160.321 246.484 159.36 247.062 158.219 247.062C156.149 247.062 154.79 245.43 154.79 242.906C154.79 240.359 156.149 238.734 158.251 238.734C159.399 238.734 160.352 239.297 160.891 240.242H160.915V238.875H162.212V246.836C162.212 248.773 160.782 250.062 158.54 250.062ZM171.466 247V238.875H172.825V247H171.466ZM172.145 237.508C171.684 237.508 171.302 237.125 171.302 236.664C171.302 236.195 171.684 235.82 172.145 235.82C172.614 235.82 172.997 236.195 172.997 236.664C172.997 237.125 172.614 237.508 172.145 237.508ZM174.981 247V238.875H176.262V240.172H176.294C176.747 239.297 177.614 238.734 178.872 238.734C180.653 238.734 181.684 239.883 181.684 241.727V247H180.325V241.969C180.325 240.656 179.708 239.938 178.458 239.938C177.176 239.938 176.34 240.844 176.34 242.219V247H174.981ZM187.106 247.141C184.856 247.141 183.34 245.523 183.34 242.938C183.34 240.344 184.856 238.734 187.106 238.734C189.348 238.734 190.864 240.344 190.864 242.938C190.864 245.523 189.348 247.141 187.106 247.141ZM187.106 245.945C188.543 245.945 189.481 244.852 189.481 242.938C189.481 241.023 188.543 239.93 187.106 239.93C185.668 239.93 184.723 241.023 184.723 242.938C184.723 244.852 185.668 245.945 187.106 245.945ZM198.988 238.875L196.004 247H194.613L191.621 238.875H193.051L195.293 245.555H195.324L197.574 238.875H198.988ZM202.902 245.984C204.183 245.984 205.168 245.086 205.168 243.914V243.25L202.996 243.383C201.902 243.453 201.277 243.938 201.277 244.703C201.277 245.477 201.925 245.984 202.902 245.984ZM202.597 247.141C200.98 247.141 199.894 246.164 199.894 244.703C199.894 243.312 200.964 242.438 202.839 242.328L205.168 242.195V241.516C205.168 240.523 204.511 239.93 203.386 239.93C202.339 239.93 201.683 240.422 201.511 241.219H200.199C200.293 239.812 201.496 238.734 203.418 238.734C205.324 238.734 206.527 239.766 206.527 241.383V247H205.238V245.602H205.207C204.722 246.531 203.691 247.141 202.597 247.141ZM209.011 236.914H210.37V238.875H211.949V239.992H210.37V244.82C210.37 245.562 210.683 245.898 211.378 245.898C211.534 245.898 211.847 245.875 211.941 245.859V247C211.777 247.039 211.402 247.062 211.081 247.062C209.589 247.062 209.011 246.453 209.011 244.891V239.992H207.8V238.875H209.011V236.914ZM213.792 247V238.875H215.151V247H213.792ZM214.472 237.508C214.011 237.508 213.628 237.125 213.628 236.664C213.628 236.195 214.011 235.82 214.472 235.82C214.94 235.82 215.323 236.195 215.323 236.664C215.323 237.125 214.94 237.508 214.472 237.508ZM217.745 247V239.992H216.612V238.875H217.745V237.969C217.745 236.406 218.471 235.664 219.971 235.664C220.276 235.664 220.604 235.695 220.799 235.727V236.828C220.635 236.805 220.409 236.781 220.182 236.781C219.448 236.781 219.096 237.172 219.096 237.977V238.875H220.76V239.992H219.104V247H217.745ZM232.655 247.141C230.585 247.141 229.179 245.484 229.179 242.938C229.179 240.391 230.577 238.734 232.624 238.734C233.788 238.734 234.725 239.305 235.21 240.195H235.241V235.727H236.6V247H235.304V245.625H235.28C234.757 246.562 233.827 247.141 232.655 247.141ZM232.913 239.93C231.475 239.93 230.569 241.102 230.569 242.938C230.569 244.781 231.475 245.945 232.913 245.945C234.311 245.945 235.249 244.758 235.249 242.938C235.249 241.125 234.311 239.93 232.913 239.93ZM241.436 245.984C242.717 245.984 243.702 245.086 243.702 243.914V243.25L241.53 243.383C240.436 243.453 239.811 243.938 239.811 244.703C239.811 245.477 240.46 245.984 241.436 245.984ZM241.131 247.141C239.514 247.141 238.428 246.164 238.428 244.703C238.428 243.312 239.499 242.438 241.374 242.328L243.702 242.195V241.516C243.702 240.523 243.045 239.93 241.92 239.93C240.874 239.93 240.217 240.422 240.045 241.219H238.733C238.827 239.812 240.03 238.734 241.952 238.734C243.858 238.734 245.061 239.766 245.061 241.383V247H243.772V245.602H243.741C243.256 246.531 242.225 247.141 241.131 247.141ZM247.108 247V238.875H248.389V240.172H248.42C248.873 239.297 249.74 238.734 250.998 238.734C252.78 238.734 253.811 239.883 253.811 241.727V247H252.451V241.969C252.451 240.656 251.834 239.938 250.584 239.938C249.303 239.938 248.467 240.844 248.467 242.219V247H247.108ZM265.635 245.984C266.916 245.984 267.901 245.086 267.901 243.914V243.25L265.729 243.383C264.635 243.453 264.01 243.938 264.01 244.703C264.01 245.477 264.659 245.984 265.635 245.984ZM265.33 247.141C263.713 247.141 262.627 246.164 262.627 244.703C262.627 243.312 263.698 242.438 265.573 242.328L267.901 242.195V241.516C267.901 240.523 267.245 239.93 266.12 239.93C265.073 239.93 264.416 240.422 264.245 241.219H262.932C263.026 239.812 264.229 238.734 266.151 238.734C268.057 238.734 269.26 239.766 269.26 241.383V247H267.971V245.602H267.94C267.455 246.531 266.424 247.141 265.33 247.141ZM271.307 247V238.875H272.588V240.172H272.619C273.002 239.312 273.83 238.734 274.924 238.734C276.033 238.734 276.854 239.297 277.205 240.281H277.236C277.69 239.312 278.643 238.734 279.783 238.734C281.393 238.734 282.432 239.781 282.432 241.391V247H281.072V241.703C281.072 240.594 280.455 239.938 279.385 239.938C278.307 239.938 277.549 240.734 277.549 241.836V247H276.19V241.555C276.19 240.578 275.533 239.938 274.525 239.938C273.447 239.938 272.666 240.781 272.666 241.906V247H271.307ZM287.166 245.984C288.447 245.984 289.431 245.086 289.431 243.914V243.25L287.26 243.383C286.166 243.453 285.541 243.938 285.541 244.703C285.541 245.477 286.189 245.984 287.166 245.984ZM286.861 247.141C285.244 247.141 284.158 246.164 284.158 244.703C284.158 243.312 285.228 242.438 287.103 242.328L289.431 242.195V241.516C289.431 240.523 288.775 239.93 287.65 239.93C286.603 239.93 285.947 240.422 285.775 241.219H284.463C284.556 239.812 285.76 238.734 287.681 238.734C289.588 238.734 290.791 239.766 290.791 241.383V247H289.502V245.602H289.47C288.986 246.531 287.955 247.141 286.861 247.141ZM292.837 247V238.875H294.119V240.172H294.15C294.603 239.297 295.47 238.734 296.728 238.734C298.509 238.734 299.54 239.883 299.54 241.727V247H298.181V241.969C298.181 240.656 297.564 239.938 296.314 239.938C295.033 239.938 294.197 240.844 294.197 242.219V247H292.837ZM302.743 247.078C302.243 247.078 301.853 246.688 301.853 246.188C301.853 245.688 302.243 245.297 302.743 245.297C303.243 245.297 303.634 245.688 303.634 246.188C303.634 246.688 303.243 247.078 302.743 247.078ZM313.904 247H312.497V235.727H313.904V241.227H313.982L318.958 235.727H320.732L316.099 240.719L321.146 247H319.349L315.122 241.719L313.904 243.062V247ZM324.896 245.984C326.177 245.984 327.161 245.086 327.161 243.914V243.25L324.989 243.383C323.896 243.453 323.271 243.938 323.271 244.703C323.271 245.477 323.919 245.984 324.896 245.984ZM324.591 247.141C322.974 247.141 321.888 246.164 321.888 244.703C321.888 243.312 322.958 242.438 324.833 242.328L327.161 242.195V241.516C327.161 240.523 326.505 239.93 325.38 239.93C324.333 239.93 323.677 240.422 323.505 241.219H322.192C322.286 239.812 323.489 238.734 325.411 238.734C327.317 238.734 328.521 239.766 328.521 241.383V247H327.231V245.602H327.2C326.716 246.531 325.685 247.141 324.591 247.141ZM330.567 247V238.875H331.848V240.172H331.88C332.262 239.312 333.091 238.734 334.184 238.734C335.294 238.734 336.114 239.297 336.466 240.281H336.497C336.95 239.312 337.903 238.734 339.044 238.734C340.653 238.734 341.692 239.781 341.692 241.391V247H340.333V241.703C340.333 240.594 339.716 239.938 338.645 239.938C337.567 239.938 336.809 240.734 336.809 241.836V247H335.45V241.555C335.45 240.578 334.794 239.938 333.786 239.938C332.708 239.938 331.926 240.781 331.926 241.906V247H330.567ZM343.817 247V238.875H345.176V247H343.817ZM344.496 237.508C344.036 237.508 343.653 237.125 343.653 236.664C343.653 236.195 344.036 235.82 344.496 235.82C344.965 235.82 345.348 236.195 345.348 236.664C345.348 237.125 344.965 237.508 344.496 237.508ZM358.462 247.141C357.274 247.141 356.344 246.562 355.821 245.625H355.79V247H354.493V235.727H355.852V240.234H355.883C356.391 239.305 357.337 238.734 358.485 238.734C360.532 238.734 361.915 240.391 361.915 242.938C361.915 245.492 360.54 247.141 358.462 247.141ZM358.196 239.93C356.821 239.93 355.844 241.133 355.844 242.938C355.844 244.75 356.821 245.945 358.196 245.945C359.633 245.945 360.524 244.797 360.524 242.938C360.524 241.094 359.633 239.93 358.196 239.93ZM366.875 239.914C365.602 239.914 364.711 240.891 364.625 242.242H369.039C369.008 240.883 368.156 239.914 366.875 239.914ZM369.008 244.672H370.344C370.11 246.094 368.735 247.141 366.961 247.141C364.633 247.141 363.219 245.523 363.219 242.969C363.219 240.445 364.656 238.734 366.899 238.734C369.094 238.734 370.446 240.328 370.446 242.789V243.305H364.617V243.383C364.617 244.938 365.531 245.961 366.992 245.961C368.024 245.961 368.781 245.438 369.008 244.672ZM372.141 247V238.875H373.422V240.203H373.453C373.719 239.305 374.469 238.734 375.422 238.734C375.656 238.734 375.859 238.773 375.969 238.789V240.109C375.859 240.07 375.57 240.031 375.242 240.031C374.187 240.031 373.5 240.789 373.5 241.938V247H372.141ZM378.828 242.484L382.422 238.875H384.07L380.547 242.383L384.179 247H382.601L379.586 243.219L378.828 243.938V247H377.468V235.727H378.828V242.484ZM388.46 247.141C386.21 247.141 384.695 245.523 384.695 242.938C384.695 240.344 386.21 238.734 388.46 238.734C390.702 238.734 392.218 240.344 392.218 242.938C392.218 245.523 390.702 247.141 388.46 247.141ZM388.46 245.945C389.898 245.945 390.835 244.852 390.835 242.938C390.835 241.023 389.898 239.93 388.46 239.93C387.023 239.93 386.077 241.023 386.077 242.938C386.077 244.852 387.023 245.945 388.46 245.945ZM393.913 247V238.875H395.194V240.172H395.226C395.608 239.312 396.436 238.734 397.53 238.734C398.64 238.734 399.46 239.297 399.811 240.281H399.843C400.296 239.312 401.249 238.734 402.39 238.734C403.999 238.734 405.038 239.781 405.038 241.391V247H403.679V241.703C403.679 240.594 403.061 239.938 401.991 239.938C400.913 239.938 400.155 240.734 400.155 241.836V247H398.796V241.555C398.796 240.578 398.14 239.938 397.132 239.938C396.054 239.938 395.272 240.781 395.272 241.906V247H393.913ZM407.163 247V238.875H408.522V247H407.163ZM407.842 237.508C407.382 237.508 406.999 237.125 406.999 236.664C406.999 236.195 407.382 235.82 407.842 235.82C408.311 235.82 408.694 236.195 408.694 236.664C408.694 237.125 408.311 237.508 407.842 237.508ZM411.116 236.914H412.475V238.875H414.053V239.992H412.475V244.82C412.475 245.562 412.787 245.898 413.483 245.898C413.639 245.898 413.952 245.875 414.045 245.859V247C413.881 247.039 413.506 247.062 413.186 247.062C411.694 247.062 411.116 246.453 411.116 244.891V239.992H409.905V238.875H411.116V236.914ZM415.826 247V238.875H417.107V240.172H417.139C417.522 239.312 418.35 238.734 419.443 238.734C420.553 238.734 421.373 239.297 421.725 240.281H421.756C422.209 239.312 423.162 238.734 424.303 238.734C425.912 238.734 426.951 239.781 426.951 241.391V247H425.592V241.703C425.592 240.594 424.975 239.938 423.904 239.938C422.826 239.938 422.068 240.734 422.068 241.836V247H420.709V241.555C420.709 240.578 420.053 239.938 419.045 239.938C417.967 239.938 417.186 240.781 417.186 241.906V247H415.826ZM432.263 239.914C430.99 239.914 430.099 240.891 430.013 242.242H434.427C434.396 240.883 433.545 239.914 432.263 239.914ZM434.396 244.672H435.732C435.498 246.094 434.123 247.141 432.349 247.141C430.021 247.141 428.607 245.523 428.607 242.969C428.607 240.445 430.045 238.734 432.287 238.734C434.482 238.734 435.834 240.328 435.834 242.789V243.305H430.006V243.383C430.006 244.938 430.92 245.961 432.381 245.961C433.412 245.961 434.17 245.438 434.396 244.672ZM437.529 247V238.875H438.81V240.172H438.841C439.294 239.297 440.161 238.734 441.419 238.734C443.201 238.734 444.232 239.883 444.232 241.727V247H442.872V241.969C442.872 240.656 442.255 239.938 441.005 239.938C439.724 239.938 438.888 240.844 438.888 242.219V247H437.529ZM460.048 238.875V247H458.759V245.68H458.728C458.244 246.617 457.4 247.141 456.15 247.141C454.377 247.141 453.337 245.992 453.337 244.148V238.875H454.697V243.906C454.697 245.227 455.314 245.938 456.572 245.938C457.892 245.938 458.689 245.031 458.689 243.648V238.875H460.048ZM462.134 247V238.875H463.415V240.172H463.447C463.9 239.297 464.767 238.734 466.025 238.734C467.806 238.734 468.837 239.883 468.837 241.727V247H467.478V241.969C467.478 240.656 466.861 239.938 465.611 239.938C464.329 239.938 463.493 240.844 463.493 242.219V247H462.134ZM471.329 236.914H472.688V238.875H474.267V239.992H472.688V244.82C472.688 245.562 473.001 245.898 473.696 245.898C473.852 245.898 474.165 245.875 474.259 245.859V247C474.095 247.039 473.72 247.062 473.399 247.062C471.907 247.062 471.329 246.453 471.329 244.891V239.992H470.118V238.875H471.329V236.914ZM482.712 238.875V247H481.422V245.68H481.391C480.907 246.617 480.063 247.141 478.813 247.141C477.04 247.141 476.001 245.992 476.001 244.148V238.875H477.36V243.906C477.36 245.227 477.977 245.938 479.235 245.938C480.555 245.938 481.352 245.031 481.352 243.648V238.875H482.712ZM486.227 242.484L489.821 238.875H491.469L487.946 242.383L491.578 247H490L486.985 243.219L486.227 243.938V247H484.867V235.727H486.227V242.484ZM49.8828 267V258.875H51.1641V260.172H51.1953C51.5781 259.312 52.4062 258.734 53.5 258.734C54.6094 258.734 55.4297 259.297 55.7812 260.281H55.8125C56.2656 259.312 57.2188 258.734 58.3594 258.734C59.9688 258.734 61.0078 259.781 61.0078 261.391V267H59.6484V261.703C59.6484 260.594 59.0312 259.938 57.9609 259.938C56.8828 259.938 56.125 260.734 56.125 261.836V267H54.7656V261.555C54.7656 260.578 54.1094 259.938 53.1016 259.938C52.0234 259.938 51.2422 260.781 51.2422 261.906V267H49.8828ZM66.32 259.914C65.0466 259.914 64.1559 260.891 64.07 262.242H68.4841C68.4528 260.883 67.6012 259.914 66.32 259.914ZM68.4528 264.672H69.7887C69.5544 266.094 68.1794 267.141 66.4059 267.141C64.0778 267.141 62.6637 265.523 62.6637 262.969C62.6637 260.445 64.1012 258.734 66.3434 258.734C68.5387 258.734 69.8903 260.328 69.8903 262.789V263.305H64.0622V263.383C64.0622 264.938 64.9762 265.961 66.4372 265.961C67.4684 265.961 68.2262 265.438 68.4528 264.672ZM71.5853 267V258.875H72.8666V260.172H72.8978C73.3509 259.297 74.2181 258.734 75.4759 258.734C77.2572 258.734 78.2884 259.883 78.2884 261.727V267H76.9291V261.969C76.9291 260.656 76.3119 259.938 75.0619 259.938C73.7806 259.938 72.9447 260.844 72.9447 262.219V267H71.5853ZM81.7725 258.875V267.398C81.7725 269.047 80.9912 269.797 79.2569 269.797C79.2334 269.797 79.0147 269.797 78.9991 269.789V268.656C79.0147 268.656 79.2022 268.656 79.21 268.656C80.0928 268.656 80.4131 268.32 80.4131 267.414V258.875H81.7725ZM81.0928 257.508C80.6319 257.508 80.2491 257.125 80.2491 256.664C80.2491 256.195 80.6319 255.82 81.0928 255.82C81.5616 255.82 81.9444 256.195 81.9444 256.664C81.9444 257.125 81.5616 257.508 81.0928 257.508ZM86.6081 265.984C87.8894 265.984 88.8737 265.086 88.8737 263.914V263.25L86.7019 263.383C85.6081 263.453 84.9831 263.938 84.9831 264.703C84.9831 265.477 85.6316 265.984 86.6081 265.984ZM86.3034 267.141C84.6862 267.141 83.6003 266.164 83.6003 264.703C83.6003 263.312 84.6706 262.438 86.5456 262.328L88.8737 262.195V261.516C88.8737 260.523 88.2175 259.93 87.0925 259.93C86.0456 259.93 85.3894 260.422 85.2175 261.219H83.905C83.9987 259.812 85.2019 258.734 87.1237 258.734C89.03 258.734 90.2331 259.766 90.2331 261.383V267H88.9441V265.602H88.9128C88.4284 266.531 87.3972 267.141 86.3034 267.141ZM95.3578 267.141C93.2875 267.141 91.8812 265.484 91.8812 262.938C91.8812 260.391 93.2797 258.734 95.3266 258.734C96.4906 258.734 97.4281 259.305 97.9125 260.195H97.9437V255.727H99.3031V267H98.0062V265.625H97.9828C97.4594 266.562 96.5297 267.141 95.3578 267.141ZM95.6156 259.93C94.1781 259.93 93.2719 261.102 93.2719 262.938C93.2719 264.781 94.1781 265.945 95.6156 265.945C97.0141 265.945 97.9516 264.758 97.9516 262.938C97.9516 261.125 97.0141 259.93 95.6156 259.93ZM101.529 267V258.875H102.889V267H101.529ZM102.209 257.508C101.748 257.508 101.365 257.125 101.365 256.664C101.365 256.195 101.748 255.82 102.209 255.82C102.678 255.82 103.061 256.195 103.061 256.664C103.061 257.125 102.678 257.508 102.209 257.508ZM113.334 262.484L116.928 258.875H118.576L115.053 262.383L118.685 267H117.107L114.092 263.219L113.334 263.938V267H111.974V255.727H113.334V262.484ZM120.06 267V255.727H121.419V267H120.06ZM123.646 267V258.875H125.005V267H123.646ZM124.325 257.508C123.864 257.508 123.482 257.125 123.482 256.664C123.482 256.195 123.864 255.82 124.325 255.82C124.794 255.82 125.177 256.195 125.177 256.664C125.177 257.125 124.794 257.508 124.325 257.508ZM127.161 267V258.875H128.442V260.172H128.474C128.927 259.297 129.794 258.734 131.052 258.734C132.833 258.734 133.864 259.883 133.864 261.727V267H132.505V261.969C132.505 260.656 131.888 259.938 130.638 259.938C129.356 259.938 128.52 260.844 128.52 262.219V267H127.161ZM135.989 267V258.875H137.348V267H135.989ZM136.669 257.508C136.208 257.508 135.825 257.125 135.825 256.664C135.825 256.195 136.208 255.82 136.669 255.82C137.137 255.82 137.52 256.195 137.52 256.664C137.52 257.125 137.137 257.508 136.669 257.508ZM140.934 262.484L144.528 258.875H146.176L142.653 262.383L146.285 267H144.707L141.692 263.219L140.934 263.938V267H139.574V255.727H140.934V262.484ZM155.879 262.484L159.473 258.875H161.121L157.598 262.383L161.231 267H159.652L156.637 263.219L155.879 263.938V267H154.52V255.727H155.879V262.484ZM165.402 259.914C164.129 259.914 163.238 260.891 163.152 262.242H167.566C167.535 260.883 166.683 259.914 165.402 259.914ZM167.535 264.672H168.871C168.636 266.094 167.261 267.141 165.488 267.141C163.16 267.141 161.746 265.523 161.746 262.969C161.746 260.445 163.183 258.734 165.426 258.734C167.621 258.734 168.972 260.328 168.972 262.789V263.305H163.144V263.383C163.144 264.938 164.058 265.961 165.519 265.961C166.551 265.961 167.308 265.438 167.535 264.672ZM177.417 261.539H176.089C175.894 260.656 175.206 259.93 174.011 259.93C172.605 259.93 171.652 261.094 171.652 262.938C171.652 264.828 172.621 265.945 174.027 265.945C175.136 265.945 175.863 265.359 176.097 264.383H177.433C177.222 266 175.863 267.141 174.019 267.141C171.769 267.141 170.269 265.555 170.269 262.938C170.269 260.375 171.761 258.734 174.003 258.734C176.035 258.734 177.246 260.078 177.417 261.539ZM181.683 265.984C182.964 265.984 183.948 265.086 183.948 263.914V263.25L181.776 263.383C180.683 263.453 180.058 263.938 180.058 264.703C180.058 265.477 180.706 265.984 181.683 265.984ZM181.378 267.141C179.761 267.141 178.675 266.164 178.675 264.703C178.675 263.312 179.745 262.438 181.62 262.328L183.948 262.195V261.516C183.948 260.523 183.292 259.93 182.167 259.93C181.12 259.93 180.464 260.422 180.292 261.219H178.98C179.073 259.812 180.276 258.734 182.198 258.734C184.105 258.734 185.308 259.766 185.308 261.383V267H184.019V265.602H183.987C183.503 266.531 182.472 267.141 181.378 267.141ZM187.354 267V258.875H188.636V260.172H188.667C189.12 259.297 189.987 258.734 191.245 258.734C193.026 258.734 194.057 259.883 194.057 261.727V267H192.698V261.969C192.698 260.656 192.081 259.938 190.831 259.938C189.55 259.938 188.714 260.844 188.714 262.219V267H187.354ZM196.549 256.914H197.909V258.875H199.487V259.992H197.909V264.82C197.909 265.562 198.221 265.898 198.916 265.898C199.073 265.898 199.385 265.875 199.479 265.859V267C199.315 267.039 198.94 267.062 198.62 267.062C197.127 267.062 196.549 266.453 196.549 264.891V259.992H195.338V258.875H196.549V256.914ZM201.33 267V258.875H202.69V267H201.33ZM202.01 257.508C201.549 257.508 201.166 257.125 201.166 256.664C201.166 256.195 201.549 255.82 202.01 255.82C202.479 255.82 202.861 256.195 202.861 256.664C202.861 257.125 202.479 257.508 202.01 257.508ZM206.275 262.484L209.869 258.875H211.517L207.994 262.383L211.627 267H210.049L207.033 263.219L206.275 263.938V267H204.916V255.727H206.275V262.484ZM215.611 265.984C216.892 265.984 217.876 265.086 217.876 263.914V263.25L215.705 263.383C214.611 263.453 213.986 263.938 213.986 264.703C213.986 265.477 214.634 265.984 215.611 265.984ZM215.306 267.141C213.689 267.141 212.603 266.164 212.603 264.703C212.603 263.312 213.673 262.438 215.548 262.328L217.876 262.195V261.516C217.876 260.523 217.22 259.93 216.095 259.93C215.048 259.93 214.392 260.422 214.22 261.219H212.908C213.001 259.812 214.205 258.734 216.126 258.734C218.033 258.734 219.236 259.766 219.236 261.383V267H217.947V265.602H217.916C217.431 266.531 216.4 267.141 215.306 267.141ZM221.282 267V258.875H222.564V260.172H222.595C223.048 259.297 223.915 258.734 225.173 258.734C226.954 258.734 227.986 259.883 227.986 261.727V267H226.626V261.969C226.626 260.656 226.009 259.938 224.759 259.938C223.478 259.938 222.642 260.844 222.642 262.219V267H221.282ZM240.845 258.734C242.915 258.734 244.321 260.391 244.321 262.938C244.321 265.484 242.923 267.141 240.876 267.141C239.712 267.141 238.774 266.57 238.29 265.68H238.259V269.711H236.899V258.875H238.188V260.25H238.22C238.72 259.336 239.665 258.734 240.845 258.734ZM240.579 265.945C242.024 265.945 242.931 264.781 242.931 262.938C242.931 261.102 242.024 259.93 240.579 259.93C239.188 259.93 238.251 261.133 238.251 262.938C238.251 264.75 239.188 265.945 240.579 265.945ZM246.087 267V258.875H247.446V267H246.087ZM246.766 257.508C246.305 257.508 245.923 257.125 245.923 256.664C245.923 256.195 246.305 255.82 246.766 255.82C247.235 255.82 247.618 256.195 247.618 256.664C247.618 257.125 247.235 257.508 246.766 257.508ZM249.672 267V255.727H251.032V267H249.672ZM253.258 267V258.875H254.617V267H253.258ZM253.938 257.508C253.477 257.508 253.094 257.125 253.094 256.664C253.094 256.195 253.477 255.82 253.938 255.82C254.406 255.82 254.789 256.195 254.789 256.664C254.789 257.125 254.406 257.508 253.938 257.508ZM256.843 267V255.727H258.203V260.172H258.234C258.687 259.266 259.578 258.734 260.812 258.734C262.593 258.734 263.672 259.938 263.672 261.75V267H262.312V262C262.312 260.711 261.664 259.938 260.39 259.938C259.039 259.938 258.203 260.859 258.203 262.266V267H256.843ZM268.398 265.984C269.679 265.984 270.663 265.086 270.663 263.914V263.25L268.492 263.383C267.398 263.453 266.773 263.938 266.773 264.703C266.773 265.477 267.421 265.984 268.398 265.984ZM268.093 267.141C266.476 267.141 265.39 266.164 265.39 264.703C265.39 263.312 266.46 262.438 268.335 262.328L270.663 262.195V261.516C270.663 260.523 270.007 259.93 268.882 259.93C267.835 259.93 267.179 260.422 267.007 261.219H265.695C265.788 259.812 266.992 258.734 268.913 258.734C270.82 258.734 272.023 259.766 272.023 261.383V267H270.734V265.602H270.702C270.218 266.531 269.187 267.141 268.093 267.141ZM274.069 267V258.875H275.351V260.172H275.382C275.835 259.297 276.702 258.734 277.96 258.734C279.741 258.734 280.773 259.883 280.773 261.727V267H279.413V261.969C279.413 260.656 278.796 259.938 277.546 259.938C276.265 259.938 275.429 260.844 275.429 262.219V267H274.069ZM296.358 258.875V267H295.069V265.68H295.038C294.554 266.617 293.71 267.141 292.46 267.141C290.686 267.141 289.647 265.992 289.647 264.148V258.875H291.007V263.906C291.007 265.227 291.624 265.938 292.882 265.938C294.202 265.938 294.999 265.031 294.999 263.648V258.875H296.358ZM298.881 256.914H300.241V258.875H301.819V259.992H300.241V264.82C300.241 265.562 300.553 265.898 301.249 265.898C301.405 265.898 301.717 265.875 301.811 265.859V267C301.647 267.039 301.272 267.062 300.952 267.062C299.459 267.062 298.881 266.453 298.881 264.891V259.992H297.67V258.875H298.881V256.914ZM306.115 265.984C307.397 265.984 308.381 265.086 308.381 263.914V263.25L306.209 263.383C305.115 263.453 304.49 263.938 304.49 264.703C304.49 265.477 305.139 265.984 306.115 265.984ZM305.811 267.141C304.194 267.141 303.108 266.164 303.108 264.703C303.108 263.312 304.178 262.438 306.053 262.328L308.381 262.195V261.516C308.381 260.523 307.725 259.93 306.6 259.93C305.553 259.93 304.897 260.422 304.725 261.219H303.412C303.506 259.812 304.709 258.734 306.631 258.734C308.537 258.734 309.74 259.766 309.74 261.383V267H308.451V265.602H308.42C307.936 266.531 306.904 267.141 305.811 267.141ZM311.787 267V258.875H313.068V260.172H313.099C313.482 259.312 314.31 258.734 315.404 258.734C316.514 258.734 317.334 259.297 317.685 260.281H317.717C318.17 259.312 319.123 258.734 320.264 258.734C321.873 258.734 322.912 259.781 322.912 261.391V267H321.553V261.703C321.553 260.594 320.935 259.938 319.865 259.938C318.787 259.938 318.029 260.734 318.029 261.836V267H316.67V261.555C316.67 260.578 316.014 259.938 315.006 259.938C313.928 259.938 313.146 260.781 313.146 261.906V267H311.787ZM327.646 265.984C328.927 265.984 329.912 265.086 329.912 263.914V263.25L327.74 263.383C326.646 263.453 326.021 263.938 326.021 264.703C326.021 265.477 326.669 265.984 327.646 265.984ZM327.341 267.141C325.724 267.141 324.638 266.164 324.638 264.703C324.638 263.312 325.709 262.438 327.584 262.328L329.912 262.195V261.516C329.912 260.523 329.255 259.93 328.13 259.93C327.084 259.93 326.427 260.422 326.255 261.219H324.943C325.037 259.812 326.24 258.734 328.162 258.734C330.068 258.734 331.271 259.766 331.271 261.383V267H329.982V265.602H329.951C329.466 266.531 328.435 267.141 327.341 267.141ZM343.255 267.141C341.185 267.141 339.779 265.484 339.779 262.938C339.779 260.391 341.177 258.734 343.224 258.734C344.388 258.734 345.326 259.305 345.81 260.195H345.841V255.727H347.201V267H345.904V265.625H345.88C345.357 266.562 344.427 267.141 343.255 267.141ZM343.513 259.93C342.076 259.93 341.169 261.102 341.169 262.938C341.169 264.781 342.076 265.945 343.513 265.945C344.911 265.945 345.849 264.758 345.849 262.938C345.849 261.125 344.911 259.93 343.513 259.93ZM352.614 259.914C351.341 259.914 350.45 260.891 350.364 262.242H354.778C354.747 260.883 353.896 259.914 352.614 259.914ZM354.747 264.672H356.083C355.849 266.094 354.474 267.141 352.7 267.141C350.372 267.141 348.958 265.523 348.958 262.969C348.958 260.445 350.396 258.734 352.638 258.734C354.833 258.734 356.185 260.328 356.185 262.789V263.305H350.356V263.383C350.356 264.938 351.271 265.961 352.731 265.961C353.763 265.961 354.521 265.438 354.747 264.672ZM357.88 267V258.875H359.161V260.172H359.192C359.645 259.297 360.512 258.734 361.77 258.734C363.551 258.734 364.583 259.883 364.583 261.727V267H363.223V261.969C363.223 260.656 362.606 259.938 361.356 259.938C360.075 259.938 359.239 260.844 359.239 262.219V267H357.88ZM369.942 265.867C371.356 265.867 372.301 264.695 372.301 262.906C372.301 261.117 371.356 259.93 369.942 259.93C368.543 259.93 367.629 261.086 367.629 262.906C367.629 264.727 368.543 265.867 369.942 265.867ZM369.989 270.062C368.2 270.062 366.786 269.055 366.559 267.672H367.957C368.223 268.414 369.028 268.906 370.043 268.906C371.45 268.906 372.301 268.094 372.301 266.883V265.602H372.27C371.77 266.484 370.809 267.062 369.668 267.062C367.598 267.062 366.239 265.43 366.239 262.906C366.239 260.359 367.598 258.734 369.7 258.734C370.848 258.734 371.801 259.297 372.34 260.242H372.364V258.875H373.661V266.836C373.661 268.773 372.231 270.062 369.989 270.062ZM378.434 265.984C379.715 265.984 380.699 265.086 380.699 263.914V263.25L378.527 263.383C377.434 263.453 376.809 263.938 376.809 264.703C376.809 265.477 377.457 265.984 378.434 265.984ZM378.129 267.141C376.512 267.141 375.426 266.164 375.426 264.703C375.426 263.312 376.496 262.438 378.371 262.328L380.699 262.195V261.516C380.699 260.523 380.043 259.93 378.918 259.93C377.871 259.93 377.215 260.422 377.043 261.219H375.73C375.824 259.812 377.027 258.734 378.949 258.734C380.855 258.734 382.059 259.766 382.059 261.383V267H380.77V265.602H380.738C380.254 266.531 379.223 267.141 378.129 267.141ZM384.105 267V258.875H385.386V260.172H385.418C385.871 259.297 386.738 258.734 387.996 258.734C389.777 258.734 390.808 259.883 390.808 261.727V267H389.449V261.969C389.449 260.656 388.832 259.938 387.582 259.938C386.301 259.938 385.465 260.844 385.465 262.219V267H384.105ZM399.722 267V258.875H401.003V260.172H401.035C401.418 259.312 402.246 258.734 403.339 258.734C404.449 258.734 405.269 259.297 405.621 260.281H405.652C406.105 259.312 407.058 258.734 408.199 258.734C409.808 258.734 410.847 259.781 410.847 261.391V267H409.488V261.703C409.488 260.594 408.871 259.938 407.8 259.938C406.722 259.938 405.964 260.734 405.964 261.836V267H404.605V261.555C404.605 260.578 403.949 259.938 402.941 259.938C401.863 259.938 401.082 260.781 401.082 261.906V267H399.722ZM416.159 259.914C414.886 259.914 413.995 260.891 413.909 262.242H418.323C418.292 260.883 417.441 259.914 416.159 259.914ZM418.292 264.672H419.628C419.394 266.094 418.019 267.141 416.245 267.141C413.917 267.141 412.503 265.523 412.503 262.969C412.503 260.445 413.941 258.734 416.183 258.734C418.378 258.734 419.73 260.328 419.73 262.789V263.305H413.902V263.383C413.902 264.938 414.816 265.961 416.277 265.961C417.308 265.961 418.066 265.438 418.292 264.672ZM421.425 267V258.875H422.706V260.172H422.737C423.19 259.297 424.057 258.734 425.315 258.734C427.097 258.734 428.128 259.883 428.128 261.727V267H426.768V261.969C426.768 260.656 426.151 259.938 424.901 259.938C423.62 259.938 422.784 260.844 422.784 262.219V267H421.425ZM430.854 270.039C430.69 270.039 430.417 270.023 430.268 269.992V268.852C430.417 268.883 430.628 268.891 430.799 268.891C431.557 268.891 431.979 268.523 432.292 267.578L432.479 267.008L429.479 258.875H430.932L433.182 265.641H433.206L435.456 258.875H436.885L433.69 267.57C432.995 269.469 432.323 270.039 430.854 270.039ZM441.307 259.914C440.033 259.914 439.143 260.891 439.057 262.242H443.471C443.44 260.883 442.588 259.914 441.307 259.914ZM443.44 264.672H444.776C444.541 266.094 443.166 267.141 441.393 267.141C439.065 267.141 437.651 265.523 437.651 262.969C437.651 260.445 439.088 258.734 441.33 258.734C443.526 258.734 444.877 260.328 444.877 262.789V263.305H439.049V263.383C439.049 264.938 439.963 265.961 441.424 265.961C442.455 265.961 443.213 265.438 443.44 264.672ZM449.65 267.141C447.58 267.141 446.174 265.484 446.174 262.938C446.174 260.391 447.572 258.734 449.619 258.734C450.783 258.734 451.721 259.305 452.205 260.195H452.236V255.727H453.596V267H452.299V265.625H452.275C451.752 266.562 450.822 267.141 449.65 267.141ZM449.908 259.93C448.471 259.93 447.564 261.102 447.564 262.938C447.564 264.781 448.471 265.945 449.908 265.945C451.307 265.945 452.244 264.758 452.244 262.938C452.244 261.125 451.307 259.93 449.908 259.93ZM455.822 267V258.875H457.181V267H455.822ZM456.502 257.508C456.041 257.508 455.658 257.125 455.658 256.664C455.658 256.195 456.041 255.82 456.502 255.82C456.97 255.82 457.353 256.195 457.353 256.664C457.353 257.125 456.97 257.508 456.502 257.508ZM462.017 265.984C463.298 265.984 464.283 265.086 464.283 263.914V263.25L462.111 263.383C461.017 263.453 460.392 263.938 460.392 264.703C460.392 265.477 461.04 265.984 462.017 265.984ZM461.712 267.141C460.095 267.141 459.009 266.164 459.009 264.703C459.009 263.312 460.079 262.438 461.954 262.328L464.283 262.195V261.516C464.283 260.523 463.626 259.93 462.501 259.93C461.454 259.93 460.798 260.422 460.626 261.219H459.314C459.408 259.812 460.611 258.734 462.533 258.734C464.439 258.734 465.642 259.766 465.642 261.383V267H464.353V265.602H464.322C463.837 266.531 462.806 267.141 461.712 267.141ZM469.118 262.484L472.712 258.875H474.36L470.837 262.383L474.47 267H472.892L469.876 263.219L469.118 263.938V267H467.759V255.727H469.118V262.484ZM478.454 265.984C479.735 265.984 480.719 265.086 480.719 263.914V263.25L478.548 263.383C477.454 263.453 476.829 263.938 476.829 264.703C476.829 265.477 477.477 265.984 478.454 265.984ZM478.149 267.141C476.532 267.141 475.446 266.164 475.446 264.703C475.446 263.312 476.516 262.438 478.391 262.328L480.719 262.195V261.516C480.719 260.523 480.063 259.93 478.938 259.93C477.891 259.93 477.235 260.422 477.063 261.219H475.751C475.844 259.812 477.048 258.734 478.969 258.734C480.876 258.734 482.079 259.766 482.079 261.383V267H480.79V265.602H480.758C480.274 266.531 479.243 267.141 478.149 267.141ZM484.125 267V258.875H485.407V260.172H485.438C485.891 259.297 486.758 258.734 488.016 258.734C489.797 258.734 490.828 259.883 490.828 261.727V267H489.469V261.969C489.469 260.656 488.852 259.938 487.602 259.938C486.321 259.938 485.485 260.844 485.485 262.219V267H484.125ZM49.9531 287V275.727H51.3125V287H49.9531ZM56.1481 285.984C57.4294 285.984 58.4137 285.086 58.4137 283.914V283.25L56.2419 283.383C55.1481 283.453 54.5231 283.938 54.5231 284.703C54.5231 285.477 55.1716 285.984 56.1481 285.984ZM55.8434 287.141C54.2262 287.141 53.1403 286.164 53.1403 284.703C53.1403 283.312 54.2106 282.438 56.0856 282.328L58.4137 282.195V281.516C58.4137 280.523 57.7575 279.93 56.6325 279.93C55.5856 279.93 54.9294 280.422 54.7575 281.219H53.445C53.5387 279.812 54.7419 278.734 56.6637 278.734C58.57 278.734 59.7731 279.766 59.7731 281.383V287H58.4841V285.602H58.4528C57.9684 286.531 56.9372 287.141 55.8434 287.141ZM62.4916 290.039C62.3275 290.039 62.0541 290.023 61.9056 289.992V288.852C62.0541 288.883 62.265 288.891 62.4369 288.891C63.1947 288.891 63.6166 288.523 63.9291 287.578L64.1166 287.008L61.1166 278.875H62.5697L64.8197 285.641H64.8431L67.0931 278.875H68.5228L65.3275 287.57C64.6322 289.469 63.9603 290.039 62.4916 290.039ZM72.4444 285.984C73.7256 285.984 74.71 285.086 74.71 283.914V283.25L72.5381 283.383C71.4444 283.453 70.8194 283.938 70.8194 284.703C70.8194 285.477 71.4678 285.984 72.4444 285.984ZM72.1397 287.141C70.5225 287.141 69.4366 286.164 69.4366 284.703C69.4366 283.312 70.5069 282.438 72.3819 282.328L74.71 282.195V281.516C74.71 280.523 74.0537 279.93 72.9287 279.93C71.8819 279.93 71.2256 280.422 71.0537 281.219H69.7412C69.835 279.812 71.0381 278.734 72.96 278.734C74.8662 278.734 76.0694 279.766 76.0694 281.383V287H74.7803V285.602H74.7491C74.2647 286.531 73.2334 287.141 72.1397 287.141ZM78.1159 287V278.875H79.3972V280.172H79.4284C79.8816 279.297 80.7488 278.734 82.0066 278.734C83.7878 278.734 84.8191 279.883 84.8191 281.727V287H83.4597V281.969C83.4597 280.656 82.8425 279.938 81.5925 279.938C80.3113 279.938 79.4753 280.844 79.4753 282.219V287H78.1159ZM89.5531 285.984C90.8344 285.984 91.8187 285.086 91.8187 283.914V283.25L89.6469 283.383C88.5531 283.453 87.9281 283.938 87.9281 284.703C87.9281 285.477 88.5766 285.984 89.5531 285.984ZM89.2484 287.141C87.6312 287.141 86.5453 286.164 86.5453 284.703C86.5453 283.312 87.6156 282.438 89.4906 282.328L91.8187 282.195V281.516C91.8187 280.523 91.1625 279.93 90.0375 279.93C88.9906 279.93 88.3344 280.422 88.1625 281.219H86.85C86.9437 279.812 88.1469 278.734 90.0687 278.734C91.975 278.734 93.1781 279.766 93.1781 281.383V287H91.8891V285.602H91.8578C91.3734 286.531 90.3422 287.141 89.2484 287.141ZM95.2247 287V278.875H96.5059V280.172H96.5372C96.9903 279.297 97.8575 278.734 99.1153 278.734C100.897 278.734 101.928 279.883 101.928 281.727V287H100.568V281.969C100.568 280.656 99.9512 279.938 98.7012 279.938C97.42 279.938 96.5841 280.844 96.5841 282.219V287H95.2247ZM108.255 290.039C108.091 290.039 107.818 290.023 107.669 289.992V288.852C107.818 288.883 108.029 288.891 108.201 288.891C108.958 288.891 109.38 288.523 109.693 287.578L109.88 287.008L106.88 278.875H108.333L110.583 285.641H110.607L112.857 278.875H114.287L111.091 287.57C110.396 289.469 109.724 290.039 108.255 290.039ZM118.208 285.984C119.489 285.984 120.474 285.086 120.474 283.914V283.25L118.302 283.383C117.208 283.453 116.583 283.938 116.583 284.703C116.583 285.477 117.232 285.984 118.208 285.984ZM117.903 287.141C116.286 287.141 115.2 286.164 115.2 284.703C115.2 283.312 116.271 282.438 118.146 282.328L120.474 282.195V281.516C120.474 280.523 119.817 279.93 118.692 279.93C117.646 279.93 116.989 280.422 116.817 281.219H115.505C115.599 279.812 116.802 278.734 118.724 278.734C120.63 278.734 121.833 279.766 121.833 281.383V287H120.544V285.602H120.513C120.028 286.531 118.997 287.141 117.903 287.141ZM123.88 287V278.875H125.161V280.172H125.192C125.645 279.297 126.512 278.734 127.77 278.734C129.552 278.734 130.583 279.883 130.583 281.727V287H129.223V281.969C129.223 280.656 128.606 279.938 127.356 279.938C126.075 279.938 125.239 280.844 125.239 282.219V287H123.88ZM135.942 285.867C137.356 285.867 138.301 284.695 138.301 282.906C138.301 281.117 137.356 279.93 135.942 279.93C134.543 279.93 133.629 281.086 133.629 282.906C133.629 284.727 134.543 285.867 135.942 285.867ZM135.989 290.062C134.2 290.062 132.786 289.055 132.559 287.672H133.957C134.223 288.414 135.028 288.906 136.043 288.906C137.45 288.906 138.301 288.094 138.301 286.883V285.602H138.27C137.77 286.484 136.809 287.062 135.668 287.062C133.598 287.062 132.239 285.43 132.239 282.906C132.239 280.359 133.598 278.734 135.7 278.734C136.848 278.734 137.801 279.297 138.34 280.242H138.364V278.875H139.661V286.836C139.661 288.773 138.231 290.062 135.989 290.062ZM152.027 278.875V287H150.738V285.68H150.707C150.223 286.617 149.379 287.141 148.129 287.141C146.355 287.141 145.316 285.992 145.316 284.148V278.875H146.676V283.906C146.676 285.227 147.293 285.938 148.551 285.938C149.871 285.938 150.668 285.031 150.668 283.648V278.875H152.027ZM154.113 287V278.875H155.394V280.172H155.425C155.878 279.297 156.746 278.734 158.003 278.734C159.785 278.734 160.816 279.883 160.816 281.727V287H159.457V281.969C159.457 280.656 158.839 279.938 157.589 279.938C156.308 279.938 155.472 280.844 155.472 282.219V287H154.113ZM166.175 285.867C167.589 285.867 168.534 284.695 168.534 282.906C168.534 281.117 167.589 279.93 166.175 279.93C164.777 279.93 163.863 281.086 163.863 282.906C163.863 284.727 164.777 285.867 166.175 285.867ZM166.222 290.062C164.433 290.062 163.019 289.055 162.792 287.672H164.191C164.456 288.414 165.261 288.906 166.277 288.906C167.683 288.906 168.534 288.094 168.534 286.883V285.602H168.503C168.003 286.484 167.042 287.062 165.902 287.062C163.831 287.062 162.472 285.43 162.472 282.906C162.472 280.359 163.831 278.734 165.933 278.734C167.081 278.734 168.034 279.297 168.573 280.242H168.597V278.875H169.894V286.836C169.894 288.773 168.464 290.062 166.222 290.062ZM175.292 285.867C176.706 285.867 177.651 284.695 177.651 282.906C177.651 281.117 176.706 279.93 175.292 279.93C173.893 279.93 172.979 281.086 172.979 282.906C172.979 284.727 173.893 285.867 175.292 285.867ZM175.339 290.062C173.55 290.062 172.136 289.055 171.909 287.672H173.308C173.573 288.414 174.378 288.906 175.393 288.906C176.8 288.906 177.651 288.094 177.651 286.883V285.602H177.62C177.12 286.484 176.159 287.062 175.018 287.062C172.948 287.062 171.589 285.43 171.589 282.906C171.589 280.359 172.948 278.734 175.05 278.734C176.198 278.734 177.151 279.297 177.69 280.242H177.714V278.875H179.011V286.836C179.011 288.773 177.581 290.062 175.339 290.062ZM187.776 278.875V287H186.487V285.68H186.456C185.971 286.617 185.128 287.141 183.878 287.141C182.104 287.141 181.065 285.992 181.065 284.148V278.875H182.424V283.906C182.424 285.227 183.042 285.938 184.299 285.938C185.62 285.938 186.417 285.031 186.417 283.648V278.875H187.776ZM189.932 287V275.727H191.291V287H189.932ZM200.127 287.141C198.056 287.141 196.65 285.484 196.65 282.938C196.65 280.391 198.048 278.734 200.095 278.734C201.259 278.734 202.197 279.305 202.681 280.195H202.712V275.727H204.072V287H202.775V285.625H202.752C202.228 286.562 201.298 287.141 200.127 287.141ZM200.384 279.93C198.947 279.93 198.041 281.102 198.041 282.938C198.041 284.781 198.947 285.945 200.384 285.945C201.783 285.945 202.72 284.758 202.72 282.938C202.72 281.125 201.783 279.93 200.384 279.93ZM208.908 285.984C210.189 285.984 211.173 285.086 211.173 283.914V283.25L209.001 283.383C207.908 283.453 207.283 283.938 207.283 284.703C207.283 285.477 207.931 285.984 208.908 285.984ZM208.603 287.141C206.986 287.141 205.9 286.164 205.9 284.703C205.9 283.312 206.97 282.438 208.845 282.328L211.173 282.195V281.516C211.173 280.523 210.517 279.93 209.392 279.93C208.345 279.93 207.689 280.422 207.517 281.219H206.204C206.298 279.812 207.501 278.734 209.423 278.734C211.329 278.734 212.533 279.766 212.533 281.383V287H211.243V285.602H211.212C210.728 286.531 209.697 287.141 208.603 287.141ZM214.579 287V278.875H215.86V280.172H215.892C216.345 279.297 217.212 278.734 218.47 278.734C220.251 278.734 221.282 279.883 221.282 281.727V287H219.923V281.969C219.923 280.656 219.306 279.938 218.056 279.938C216.774 279.938 215.938 280.844 215.938 282.219V287H214.579ZM227.008 287V275.727H228.367V280.172H228.399C228.852 279.266 229.742 278.734 230.977 278.734C232.758 278.734 233.836 279.938 233.836 281.75V287H232.477V282C232.477 280.711 231.828 279.938 230.555 279.938C229.203 279.938 228.367 280.859 228.367 282.266V287H227.008ZM238.562 285.984C239.844 285.984 240.828 285.086 240.828 283.914V283.25L238.656 283.383C237.562 283.453 236.938 283.938 236.938 284.703C236.938 285.477 237.586 285.984 238.562 285.984ZM238.258 287.141C236.641 287.141 235.555 286.164 235.555 284.703C235.555 283.312 236.625 282.438 238.5 282.328L240.828 282.195V281.516C240.828 280.523 240.172 279.93 239.047 279.93C238 279.93 237.344 280.422 237.172 281.219H235.859C235.953 279.812 237.156 278.734 239.078 278.734C240.984 278.734 242.188 279.766 242.188 281.383V287H240.898V285.602H240.867C240.383 286.531 239.352 287.141 238.258 287.141ZM244.093 281.117C244.093 279.727 245.336 278.734 247.125 278.734C248.804 278.734 250.039 279.734 250.101 281.109H248.804C248.711 280.328 248.078 279.844 247.078 279.844C246.086 279.844 245.429 280.336 245.429 281.047C245.429 281.609 245.859 281.984 246.781 282.219L248.039 282.523C249.679 282.938 250.273 283.531 250.273 284.727C250.273 286.141 248.937 287.141 247.039 287.141C245.258 287.141 244.015 286.172 243.875 284.734H245.234C245.383 285.578 246.023 286.031 247.125 286.031C248.226 286.031 248.906 285.562 248.906 284.828C248.906 284.25 248.57 283.938 247.656 283.695L246.226 283.328C244.797 282.961 244.093 282.227 244.093 281.117ZM252.077 287V278.875H253.437V287H252.077ZM252.757 277.508C252.296 277.508 251.913 277.125 251.913 276.664C251.913 276.195 252.296 275.82 252.757 275.82C253.226 275.82 253.609 276.195 253.609 276.664C253.609 277.125 253.226 277.508 252.757 277.508ZM255.663 287V275.727H257.023V287H255.663ZM263.452 290.039C263.288 290.039 263.014 290.023 262.866 289.992V288.852C263.014 288.883 263.225 288.891 263.397 288.891C264.155 288.891 264.577 288.523 264.889 287.578L265.077 287.008L262.077 278.875H263.53L265.78 285.641H265.803L268.053 278.875H269.483L266.288 287.57C265.592 289.469 264.92 290.039 263.452 290.039ZM273.404 285.984C274.686 285.984 275.67 285.086 275.67 283.914V283.25L273.498 283.383C272.404 283.453 271.779 283.938 271.779 284.703C271.779 285.477 272.428 285.984 273.404 285.984ZM273.1 287.141C271.482 287.141 270.397 286.164 270.397 284.703C270.397 283.312 271.467 282.438 273.342 282.328L275.67 282.195V281.516C275.67 280.523 275.014 279.93 273.889 279.93C272.842 279.93 272.186 280.422 272.014 281.219H270.701C270.795 279.812 271.998 278.734 273.92 278.734C275.826 278.734 277.029 279.766 277.029 281.383V287H275.74V285.602H275.709C275.225 286.531 274.193 287.141 273.1 287.141ZM279.076 287V278.875H280.357V280.172H280.388C280.842 279.297 281.709 278.734 282.967 278.734C284.748 278.734 285.779 279.883 285.779 281.727V287H284.42V281.969C284.42 280.656 283.803 279.938 282.553 279.938C281.271 279.938 280.435 280.844 280.435 282.219V287H279.076ZM291.138 285.867C292.552 285.867 293.497 284.695 293.497 282.906C293.497 281.117 292.552 279.93 291.138 279.93C289.74 279.93 288.826 281.086 288.826 282.906C288.826 284.727 289.74 285.867 291.138 285.867ZM291.185 290.062C289.396 290.062 287.982 289.055 287.755 287.672H289.154C289.419 288.414 290.224 288.906 291.24 288.906C292.646 288.906 293.497 288.094 293.497 286.883V285.602H293.466C292.966 286.484 292.005 287.062 290.865 287.062C288.794 287.062 287.435 285.43 287.435 282.906C287.435 280.359 288.794 278.734 290.896 278.734C292.044 278.734 292.997 279.297 293.537 280.242H293.56V278.875H294.857V286.836C294.857 288.773 293.427 290.062 291.185 290.062ZM300.552 287V278.875H301.833V280.172H301.864C302.317 279.297 303.184 278.734 304.442 278.734C306.223 278.734 307.255 279.883 307.255 281.727V287H305.895V281.969C305.895 280.656 305.278 279.938 304.028 279.938C302.747 279.938 301.911 280.844 301.911 282.219V287H300.552ZM309.981 290.039C309.817 290.039 309.543 290.023 309.395 289.992V288.852C309.543 288.883 309.754 288.891 309.926 288.891C310.684 288.891 311.106 288.523 311.418 287.578L311.606 287.008L308.606 278.875H310.059L312.309 285.641H312.332L314.582 278.875H316.012L312.817 287.57C312.122 289.469 311.45 290.039 309.981 290.039ZM319.934 285.984C321.215 285.984 322.199 285.086 322.199 283.914V283.25L320.027 283.383C318.934 283.453 318.309 283.938 318.309 284.703C318.309 285.477 318.957 285.984 319.934 285.984ZM319.629 287.141C318.012 287.141 316.926 286.164 316.926 284.703C316.926 283.312 317.996 282.438 319.871 282.328L322.199 282.195V281.516C322.199 280.523 321.543 279.93 320.418 279.93C319.371 279.93 318.715 280.422 318.543 281.219H317.231C317.324 279.812 318.527 278.734 320.449 278.734C322.356 278.734 323.559 279.766 323.559 281.383V287H322.27V285.602H322.238C321.754 286.531 320.723 287.141 319.629 287.141ZM326.043 276.914H327.402V278.875H328.98V279.992H327.402V284.82C327.402 285.562 327.715 285.898 328.41 285.898C328.566 285.898 328.879 285.875 328.973 285.859V287C328.808 287.039 328.433 287.062 328.113 287.062C326.621 287.062 326.043 286.453 326.043 284.891V279.992H324.832V278.875H326.043V276.914ZM333.277 285.984C334.558 285.984 335.543 285.086 335.543 283.914V283.25L333.371 283.383C332.277 283.453 331.652 283.938 331.652 284.703C331.652 285.477 332.3 285.984 333.277 285.984ZM332.972 287.141C331.355 287.141 330.269 286.164 330.269 284.703C330.269 283.312 331.339 282.438 333.214 282.328L335.543 282.195V281.516C335.543 280.523 334.886 279.93 333.761 279.93C332.714 279.93 332.058 280.422 331.886 281.219H330.574C330.668 279.812 331.871 278.734 333.793 278.734C335.699 278.734 336.902 279.766 336.902 281.383V287H335.613V285.602H335.582C335.097 286.531 334.066 287.141 332.972 287.141ZM340.097 287.078C339.597 287.078 339.206 286.688 339.206 286.188C339.206 285.688 339.597 285.297 340.097 285.297C340.597 285.297 340.987 285.688 340.987 286.188C340.987 286.688 340.597 287.078 340.097 287.078Z" fill="white"/>
<g filter="url(#filter1_d_1294_9051)">
<rect x="230" y="46" width="80" height="80" rx="17" fill="#00674F"/>
</g>
<path d="M244.4 94H296.56" stroke="white" stroke-width="1.5" stroke-miterlimit="10" stroke-linecap="round" stroke-linejoin="round"/>
<path d="M244.4 98.6401H296.56" stroke="white" stroke-width="1.5" stroke-miterlimit="10" stroke-linecap="round" stroke-linejoin="round"/>
<path d="M262.48 78.3203V81.8403" stroke="white" stroke-width="1.5" stroke-miterlimit="10" stroke-linecap="round" stroke-linejoin="round"/>
<path d="M262.48 86.0005V89.5205" stroke="white" stroke-width="1.5" stroke-miterlimit="10" stroke-linecap="round" stroke-linejoin="round"/>
<path d="M268.08 83.9204H264.72" stroke="white" stroke-width="1.5" stroke-miterlimit="10" stroke-linecap="round" stroke-linejoin="round"/>
<path d="M260.4 83.9204H257.04" stroke="white" stroke-width="1.5" stroke-miterlimit="10" stroke-linecap="round" stroke-linejoin="round"/>
<path d="M288.08 78.3203V81.8403" stroke="white" stroke-width="1.5" stroke-miterlimit="10" stroke-linecap="round" stroke-linejoin="round"/>
<path d="M288.08 86.0005V89.5205" stroke="white" stroke-width="1.5" stroke-miterlimit="10" stroke-linecap="round" stroke-linejoin="round"/>
<path d="M293.68 83.9204H290.16" stroke="white" stroke-width="1.5" stroke-miterlimit="10" stroke-linecap="round" stroke-linejoin="round"/>
<path d="M286 83.9204H282.48" stroke="white" stroke-width="1.5" stroke-miterlimit="10" stroke-linecap="round" stroke-linejoin="round"/>
<path d="M275.601 73.2002V75.1202" stroke="white" stroke-width="1.5" stroke-miterlimit="10" stroke-linecap="round" stroke-linejoin="round"/>
<path d="M275.601 77.3604V79.2803" stroke="white" stroke-width="1.5" stroke-miterlimit="10" stroke-linecap="round" stroke-linejoin="round"/>
<path d="M278.641 76.2402H276.721" stroke="white" stroke-width="1.5" stroke-miterlimit="10" stroke-linecap="round" stroke-linejoin="round"/>
<path d="M274.481 76.2402H272.561" stroke="white" stroke-width="1.5" stroke-miterlimit="10" stroke-linecap="round" stroke-linejoin="round"/>
<path d="M250.16 73.2002V75.1202" stroke="white" stroke-width="1.5" stroke-miterlimit="10" stroke-linecap="round" stroke-linejoin="round"/>
<path d="M250.16 77.3604V79.2803" stroke="white" stroke-width="1.5" stroke-miterlimit="10" stroke-linecap="round" stroke-linejoin="round"/>
<path d="M253.2 76.2402H251.28" stroke="white" stroke-width="1.5" stroke-miterlimit="10" stroke-linecap="round" stroke-linejoin="round"/>
<path d="M249.04 76.2402H247.12" stroke="white" stroke-width="1.5" stroke-miterlimit="10" stroke-linecap="round" stroke-linejoin="round"/>
</g>
</g>
<defs>
<filter id="filter0_dd_1294_9051" x="0" y="0" width="540" height="376" filterUnits="userSpaceOnUse" color-interpolation-filters="sRGB">
<feFlood flood-opacity="0" result="BackgroundImageFix"/>
<feColorMatrix in="SourceAlpha" type="matrix" values="0 0 0 0 0 0 0 0 0 0 0 0 0 0 0 0 0 0 127 0" result="hardAlpha"/>
<feOffset dy="4"/>
<feGaussianBlur stdDeviation="2"/>
<feColorMatrix type="matrix" values="0 0 0 0 0 0 0 0 0 0 0 0 0 0 0 0 0 0 0.3 0"/>
<feBlend mode="normal" in2="BackgroundImageFix" result="effect1_dropShadow_1294_9051"/>
<feColorMatrix in="SourceAlpha" type="matrix" values="0 0 0 0 0 0 0 0 0 0 0 0 0 0 0 0 0 0 127 0" result="hardAlpha"/>
<feMorphology radius="6" operator="dilate" in="SourceAlpha" result="effect2_dropShadow_1294_9051"/>
<feOffset dy="8"/>
<feGaussianBlur stdDeviation="6"/>
<feColorMatrix type="matrix" values="0 0 0 0 0 0 0 0 0 0 0 0 0 0 0 0 0 0 0.15 0"/>
<feBlend mode="normal" in2="effect1_dropShadow_1294_9051" result="effect2_dropShadow_1294_9051"/>
<feBlend mode="normal" in="SourceGraphic" in2="effect2_dropShadow_1294_9051" result="shape"/>
</filter>
<filter id="filter1_d_1294_9051" x="222" y="40" width="96" height="96" filterUnits="userSpaceOnUse" color-interpolation-filters="sRGB">
<feFlood flood-opacity="0" result="BackgroundImageFix"/>
<feColorMatrix in="SourceAlpha" type="matrix" values="0 0 0 0 0 0 0 0 0 0 0 0 0 0 0 0 0 0 127 0" result="hardAlpha"/>
<feOffset dy="2"/>
<feGaussianBlur stdDeviation="4"/>
<feComposite in2="hardAlpha" operator="out"/>
<feColorMatrix type="matrix" values="0 0 0 0 0.0117647 0 0 0 0 0.0509804 0 0 0 0 0.270588 0 0 0 0.03 0"/>
<feBlend mode="normal" in2="BackgroundImageFix" result="effect1_dropShadow_1294_9051"/>
<feBlend mode="normal" in="SourceGraphic" in2="effect1_dropShadow_1294_9051" result="shape"/>
</filter>
<clipPath id="clip0_1294_9051">
<rect x="18" y="10" width="504" height="340" rx="10" fill="white"/>
</clipPath>
</defs>
</svg>
