<svg width="335" height="304" viewBox="0 0 335 304" fill="none" xmlns="http://www.w3.org/2000/svg">
<rect width="335" height="304" fill="white"/>
<line x1="54" y1="240.75" x2="304" y2="240.75" stroke="#DCDCDC" stroke-width="0.5"/>
<path d="M24.9616 236.273V245H24.1648V237.108H24.1136L22.0682 238.467V237.641L24.1307 236.273H24.9616ZM30.3224 245.119C29.7088 245.119 29.1847 244.943 28.75 244.591C28.3182 244.236 27.9858 243.723 27.7528 243.053C27.5227 242.382 27.4077 241.577 27.4077 240.636C27.4077 239.699 27.5227 238.896 27.7528 238.229C27.9858 237.558 28.3196 237.045 28.7543 236.69C29.1918 236.332 29.7145 236.153 30.3224 236.153C30.9304 236.153 31.4517 236.332 31.8864 236.69C32.3239 237.045 32.6577 237.558 32.8878 238.229C33.1207 238.896 33.2372 239.699 33.2372 240.636C33.2372 241.577 33.1207 242.382 32.8878 243.053C32.6577 243.723 32.3253 244.236 31.8906 244.591C31.4588 244.943 30.9361 245.119 30.3224 245.119ZM30.3224 244.403C30.9957 244.403 31.5213 244.075 31.8991 243.419C32.277 242.76 32.4659 241.832 32.4659 240.636C32.4659 239.841 32.3793 239.162 32.206 238.599C32.0355 238.034 31.7898 237.602 31.4688 237.304C31.1506 237.006 30.7685 236.857 30.3224 236.857C29.6548 236.857 29.1307 237.189 28.75 237.854C28.3693 238.516 28.179 239.443 28.179 240.636C28.179 241.432 28.2642 242.111 28.4347 242.673C28.608 243.236 28.8537 243.665 29.1719 243.96C29.4929 244.256 29.8764 244.403 30.3224 244.403Z" fill="#BDBDBD"/>
<line x1="54" y1="40.75" x2="304" y2="40.75" stroke="#DCDCDC" stroke-width="0.5"/>
<path d="M22.9247 36.1534C23.2884 36.1562 23.6406 36.2301 23.9815 36.375C24.3253 36.517 24.6349 36.7472 24.9105 37.0653C25.1861 37.3807 25.4048 37.8011 25.5668 38.3267C25.7287 38.8494 25.8097 39.4929 25.8097 40.2571C25.8097 40.9702 25.7472 41.6236 25.6222 42.2173C25.4972 42.8111 25.3097 43.3253 25.0597 43.7599C24.8125 44.1918 24.5 44.527 24.1222 44.7656C23.7472 45.0014 23.3082 45.1193 22.8054 45.1193C22.3366 45.1193 21.9205 45.0213 21.5568 44.8253C21.196 44.6293 20.9034 44.358 20.679 44.0114C20.4545 43.6619 20.3153 43.2585 20.2614 42.8011H21.0455C21.1222 43.267 21.3097 43.6506 21.608 43.9517C21.9091 44.2528 22.3082 44.4034 22.8054 44.4034C23.5185 44.4034 24.0724 44.071 24.4673 43.4062C24.8622 42.7415 25.0597 41.7955 25.0597 40.5682H25.0043C24.8679 40.8239 24.6889 41.0469 24.4673 41.2372C24.2486 41.4276 23.9986 41.5767 23.7173 41.6847C23.4361 41.7898 23.1392 41.8423 22.8267 41.8423C22.3409 41.8423 21.8963 41.7202 21.4929 41.4759C21.0895 41.2287 20.767 40.892 20.5256 40.4659C20.2841 40.0369 20.1634 39.5483 20.1634 39C20.1634 38.483 20.277 38.0085 20.5043 37.5767C20.7344 37.142 21.0554 36.7955 21.4673 36.5369C21.8821 36.2756 22.3679 36.1477 22.9247 36.1534ZM22.9247 36.8693C22.5469 36.8693 22.2074 36.9659 21.9062 37.1591C21.608 37.3494 21.3707 37.6065 21.1946 37.9304C21.0213 38.2514 20.9347 38.608 20.9347 39C20.9347 39.3949 21.0213 39.7543 21.1946 40.0781C21.3707 40.3991 21.608 40.6548 21.9062 40.8452C22.2074 41.0327 22.5469 41.1264 22.9247 41.1264C23.2145 41.1264 23.4844 41.0682 23.7344 40.9517C23.9844 40.8324 24.2003 40.6705 24.3821 40.4659C24.5668 40.2614 24.706 40.0298 24.7997 39.7713C24.8963 39.5099 24.9347 39.2358 24.9148 38.9489C24.8807 38.5511 24.7741 38.196 24.5952 37.8835C24.419 37.5682 24.1861 37.321 23.8963 37.142C23.6094 36.9602 23.2855 36.8693 22.9247 36.8693ZM30.3224 45.1193C29.7088 45.1193 29.1847 44.9432 28.75 44.5909C28.3182 44.2358 27.9858 43.723 27.7528 43.0526C27.5227 42.3821 27.4077 41.5767 27.4077 40.6364C27.4077 39.6989 27.5227 38.8963 27.7528 38.2287C27.9858 37.5582 28.3196 37.0455 28.7543 36.6903C29.1918 36.3324 29.7145 36.1534 30.3224 36.1534C30.9304 36.1534 31.4517 36.3324 31.8864 36.6903C32.3239 37.0455 32.6577 37.5582 32.8878 38.2287C33.1207 38.8963 33.2372 39.6989 33.2372 40.6364C33.2372 41.5767 33.1207 42.3821 32.8878 43.0526C32.6577 43.723 32.3253 44.2358 31.8906 44.5909C31.4588 44.9432 30.9361 45.1193 30.3224 45.1193ZM30.3224 44.4034C30.9957 44.4034 31.5213 44.0753 31.8991 43.419C32.277 42.7599 32.4659 41.8324 32.4659 40.6364C32.4659 39.8409 32.3793 39.1619 32.206 38.5994C32.0355 38.0341 31.7898 37.6023 31.4688 37.304C31.1506 37.0057 30.7685 36.8565 30.3224 36.8565C29.6548 36.8565 29.1307 37.1889 28.75 37.8537C28.3693 38.5156 28.179 39.4432 28.179 40.6364C28.179 41.4318 28.2642 42.1108 28.4347 42.6733C28.608 43.2358 28.8537 43.6648 29.1719 43.9602C29.4929 44.2557 29.8764 44.4034 30.3224 44.4034Z" fill="#BDBDBD"/>
<line x1="54" y1="65.75" x2="304" y2="65.75" stroke="#DCDCDC" stroke-width="0.5"/>
<path d="M22.962 70.1193C22.4052 70.1193 21.9094 70.0142 21.4748 69.804C21.0401 69.5937 20.6992 69.3068 20.4521 68.9432C20.2049 68.5767 20.0813 68.1634 20.0813 67.7031C20.0813 67.3423 20.1566 67.0057 20.3072 66.6932C20.4577 66.3778 20.6651 66.1136 20.9293 65.9006C21.1935 65.6847 21.4904 65.544 21.82 65.4787V65.4318C21.391 65.3068 21.0458 65.0611 20.7844 64.6946C20.5231 64.3253 20.3938 63.9062 20.3967 63.4375C20.3938 63.0028 20.5046 62.6136 20.729 62.2699C20.9535 61.9261 21.2589 61.6548 21.6452 61.456C22.0344 61.2543 22.4734 61.1534 22.962 61.1534C23.4478 61.1534 23.8839 61.2543 24.2702 61.456C24.6566 61.6548 24.962 61.9261 25.1864 62.2699C25.4137 62.6136 25.5288 63.0028 25.5316 63.4375C25.5288 63.9034 25.3967 64.3224 25.1353 64.6946C24.8739 65.0639 24.5302 65.3097 24.104 65.4318V65.4787C24.4336 65.5412 24.729 65.6804 24.9904 65.8963C25.2518 66.1122 25.4592 66.3778 25.6126 66.6932C25.766 67.0057 25.8427 67.3423 25.8427 67.7031C25.8427 68.1634 25.7177 68.5767 25.4677 68.9432C25.2205 69.3068 24.8796 69.5937 24.445 69.804C24.0131 70.0142 23.5188 70.1193 22.962 70.1193ZM22.962 69.4034C23.3768 69.4034 23.7404 69.3295 24.0529 69.1818C24.3683 69.0312 24.614 68.8253 24.7901 68.5639C24.9691 68.3026 25.0586 68.0028 25.0586 67.6648C25.0586 67.3153 24.9663 67.0043 24.7816 66.7315C24.5969 66.456 24.3469 66.2386 24.0316 66.0795C23.7163 65.9176 23.3597 65.8366 22.962 65.8366C22.5643 65.8366 22.2063 65.9176 21.8881 66.0795C21.5728 66.2386 21.3228 66.456 21.1381 66.7315C20.9563 67.0043 20.8654 67.3153 20.8654 67.6648C20.8654 68.0028 20.9521 68.3026 21.1254 68.5639C21.3015 68.8253 21.5472 69.0312 21.8626 69.1818C22.1808 69.3295 22.5472 69.4034 22.962 69.4034ZM22.962 65.1548C23.3029 65.1548 23.6083 65.0824 23.8782 64.9375C24.1481 64.7926 24.3612 64.5952 24.5174 64.3452C24.6765 64.0923 24.7575 63.8054 24.7603 63.4844C24.7575 63.1662 24.6779 62.8849 24.5217 62.6406C24.3654 62.3935 24.1523 62.2017 23.8825 62.0653C23.6154 61.9261 23.3086 61.8565 22.962 61.8565C22.6154 61.8565 22.3058 61.9261 22.033 62.0653C21.7631 62.2017 21.5501 62.3935 21.3938 62.6406C21.2404 62.8849 21.1651 63.1662 21.168 63.4844C21.1651 63.8054 21.2418 64.0923 21.3981 64.3452C21.5572 64.5952 21.7717 64.7926 22.0415 64.9375C22.3143 65.0824 22.6211 65.1548 22.962 65.1548ZM30.3224 70.1193C29.7088 70.1193 29.1847 69.9432 28.75 69.5909C28.3182 69.2358 27.9858 68.723 27.7528 68.0526C27.5227 67.3821 27.4077 66.5767 27.4077 65.6364C27.4077 64.6989 27.5227 63.8963 27.7528 63.2287C27.9858 62.5582 28.3196 62.0455 28.7543 61.6903C29.1918 61.3324 29.7145 61.1534 30.3224 61.1534C30.9304 61.1534 31.4517 61.3324 31.8864 61.6903C32.3239 62.0455 32.6577 62.5582 32.8878 63.2287C33.1207 63.8963 33.2372 64.6989 33.2372 65.6364C33.2372 66.5767 33.1207 67.3821 32.8878 68.0526C32.6577 68.723 32.3253 69.2358 31.8906 69.5909C31.4588 69.9432 30.9361 70.1193 30.3224 70.1193ZM30.3224 69.4034C30.9957 69.4034 31.5213 69.0753 31.8991 68.419C32.277 67.7599 32.4659 66.8324 32.4659 65.6364C32.4659 64.8409 32.3793 64.1619 32.206 63.5994C32.0355 63.0341 31.7898 62.6023 31.4688 62.304C31.1506 62.0057 30.7685 61.8565 30.3224 61.8565C29.6548 61.8565 29.1307 62.1889 28.75 62.8537C28.3693 63.5156 28.179 64.4432 28.179 65.6364C28.179 66.4318 28.2642 67.1108 28.4347 67.6733C28.608 68.2358 28.8537 68.6648 29.1719 68.9602C29.4929 69.2557 29.8764 69.4034 30.3224 69.4034Z" fill="#BDBDBD"/>
<line x1="54" y1="90.75" x2="304" y2="90.75" stroke="#DCDCDC" stroke-width="0.5"/>
<path d="M21.2894 95L25.2653 87.044V86.9886H20.6843V86.2727H26.1005V87.0227L22.1289 95H21.2894ZM30.3224 95.1193C29.7088 95.1193 29.1847 94.9432 28.75 94.5909C28.3182 94.2358 27.9858 93.723 27.7528 93.0526C27.5227 92.3821 27.4077 91.5767 27.4077 90.6364C27.4077 89.6989 27.5227 88.8963 27.7528 88.2287C27.9858 87.5582 28.3196 87.0455 28.7543 86.6903C29.1918 86.3324 29.7145 86.1534 30.3224 86.1534C30.9304 86.1534 31.4517 86.3324 31.8864 86.6903C32.3239 87.0455 32.6577 87.5582 32.8878 88.2287C33.1207 88.8963 33.2372 89.6989 33.2372 90.6364C33.2372 91.5767 33.1207 92.3821 32.8878 93.0526C32.6577 93.723 32.3253 94.2358 31.8906 94.5909C31.4588 94.9432 30.9361 95.1193 30.3224 95.1193ZM30.3224 94.4034C30.9957 94.4034 31.5213 94.0753 31.8991 93.419C32.277 92.7599 32.4659 91.8324 32.4659 90.6364C32.4659 89.8409 32.3793 89.1619 32.206 88.5994C32.0355 88.0341 31.7898 87.6023 31.4688 87.304C31.1506 87.0057 30.7685 86.8565 30.3224 86.8565C29.6548 86.8565 29.1307 87.1889 28.75 87.8537C28.3693 88.5156 28.179 89.4432 28.179 90.6364C28.179 91.4318 28.2642 92.1108 28.4347 92.6733C28.608 93.2358 28.8537 93.6648 29.1719 93.9602C29.4929 94.2557 29.8764 94.4034 30.3224 94.4034Z" fill="#BDBDBD"/>
<line x1="54" y1="115.75" x2="304" y2="115.75" stroke="#DCDCDC" stroke-width="0.5"/>
<path d="M23.0483 120.119C22.6875 120.116 22.3352 120.044 21.9915 119.902C21.6477 119.757 21.3381 119.526 21.0625 119.207C20.7869 118.886 20.5682 118.463 20.4062 117.938C20.2443 117.412 20.1634 116.766 20.1634 115.999C20.1634 115.288 20.2259 114.638 20.3509 114.047C20.4759 113.456 20.6634 112.945 20.9134 112.513C21.1634 112.081 21.4759 111.747 21.8509 111.511C22.2259 111.273 22.6648 111.153 23.1676 111.153C23.6392 111.153 24.0554 111.251 24.4162 111.447C24.777 111.641 25.0696 111.911 25.294 112.257C25.5185 112.604 25.6591 113.003 25.7159 113.455H24.9318C24.8523 112.994 24.6634 112.615 24.3651 112.317C24.0668 112.018 23.6676 111.869 23.1676 111.869C22.4517 111.869 21.8977 112.202 21.5057 112.866C21.1136 113.528 20.9162 114.469 20.9134 115.688H20.9688C21.108 115.429 21.2869 115.206 21.5057 115.018C21.7273 114.828 21.9787 114.68 22.2599 114.575C22.5412 114.467 22.8366 114.413 23.1463 114.413C23.6321 114.413 24.0767 114.537 24.4801 114.784C24.8835 115.028 25.206 115.365 25.4474 115.794C25.6889 116.22 25.8097 116.707 25.8097 117.256C25.8097 117.776 25.6946 118.254 25.4645 118.692C25.2372 119.129 24.9162 119.477 24.5014 119.736C24.0895 119.994 23.6051 120.122 23.0483 120.119ZM23.0483 119.403C23.429 119.403 23.7685 119.307 24.0668 119.114C24.3679 118.92 24.6051 118.662 24.7784 118.338C24.9517 118.011 25.0384 117.651 25.0384 117.256C25.0384 116.861 24.9517 116.503 24.7784 116.182C24.6051 115.861 24.3679 115.605 24.0668 115.415C23.7685 115.224 23.429 115.129 23.0483 115.129C22.7585 115.129 22.4886 115.189 22.2386 115.308C21.9886 115.425 21.7713 115.585 21.5866 115.79C21.4048 115.991 21.2656 116.223 21.169 116.484C21.0753 116.746 21.0398 117.02 21.0625 117.307C21.0938 117.707 21.1974 118.067 21.3736 118.385C21.5526 118.7 21.7855 118.949 22.0724 119.131C22.3622 119.312 22.6875 119.403 23.0483 119.403ZM30.3224 120.119C29.7088 120.119 29.1847 119.943 28.75 119.591C28.3182 119.236 27.9858 118.723 27.7528 118.053C27.5227 117.382 27.4077 116.577 27.4077 115.636C27.4077 114.699 27.5227 113.896 27.7528 113.229C27.9858 112.558 28.3196 112.045 28.7543 111.69C29.1918 111.332 29.7145 111.153 30.3224 111.153C30.9304 111.153 31.4517 111.332 31.8864 111.69C32.3239 112.045 32.6577 112.558 32.8878 113.229C33.1207 113.896 33.2372 114.699 33.2372 115.636C33.2372 116.577 33.1207 117.382 32.8878 118.053C32.6577 118.723 32.3253 119.236 31.8906 119.591C31.4588 119.943 30.9361 120.119 30.3224 120.119ZM30.3224 119.403C30.9957 119.403 31.5213 119.075 31.8991 118.419C32.277 117.76 32.4659 116.832 32.4659 115.636C32.4659 114.841 32.3793 114.162 32.206 113.599C32.0355 113.034 31.7898 112.602 31.4688 112.304C31.1506 112.006 30.7685 111.857 30.3224 111.857C29.6548 111.857 29.1307 112.189 28.75 112.854C28.3693 113.516 28.179 114.443 28.179 115.636C28.179 116.432 28.2642 117.111 28.4347 117.673C28.608 118.236 28.8537 118.665 29.1719 118.96C29.4929 119.256 29.8764 119.403 30.3224 119.403Z" fill="#BDBDBD"/>
<line x1="54" y1="140.75" x2="304" y2="140.75" stroke="#DCDCDC" stroke-width="0.5"/>
<path d="M23.0163 145.119C22.5305 145.119 22.0959 145.021 21.7124 144.825C21.3317 144.626 21.0277 144.354 20.8004 144.007C20.576 143.661 20.4567 143.264 20.4425 142.818H21.2138C21.2393 143.281 21.4212 143.662 21.7592 143.96C22.0973 144.256 22.5163 144.403 23.0163 144.403C23.4055 144.403 23.7521 144.311 24.0561 144.126C24.3601 143.939 24.5973 143.683 24.7678 143.359C24.9411 143.033 25.0277 142.665 25.0277 142.256C25.0249 141.83 24.9325 141.455 24.7507 141.131C24.5689 140.804 24.3217 140.548 24.0092 140.364C23.6996 140.179 23.3516 140.087 22.9652 140.087C22.6726 140.084 22.3857 140.132 22.1044 140.232C21.8232 140.331 21.5888 140.459 21.4013 140.615L20.6044 140.513L21.1286 136.273H25.4411V136.989H21.7976L21.4482 139.908H21.4908C21.6839 139.746 21.9183 139.614 22.1939 139.511C22.4723 139.409 22.7663 139.358 23.076 139.358C23.5902 139.358 24.0518 139.482 24.4609 139.729C24.8729 139.976 25.1982 140.317 25.4368 140.751C25.6783 141.183 25.799 141.68 25.799 142.243C25.799 142.794 25.6783 143.287 25.4368 143.722C25.1982 144.153 24.8686 144.494 24.4482 144.744C24.0305 144.994 23.5533 145.119 23.0163 145.119ZM30.3224 145.119C29.7088 145.119 29.1847 144.943 28.75 144.591C28.3182 144.236 27.9858 143.723 27.7528 143.053C27.5227 142.382 27.4077 141.577 27.4077 140.636C27.4077 139.699 27.5227 138.896 27.7528 138.229C27.9858 137.558 28.3196 137.045 28.7543 136.69C29.1918 136.332 29.7145 136.153 30.3224 136.153C30.9304 136.153 31.4517 136.332 31.8864 136.69C32.3239 137.045 32.6577 137.558 32.8878 138.229C33.1207 138.896 33.2372 139.699 33.2372 140.636C33.2372 141.577 33.1207 142.382 32.8878 143.053C32.6577 143.723 32.3253 144.236 31.8906 144.591C31.4588 144.943 30.9361 145.119 30.3224 145.119ZM30.3224 144.403C30.9957 144.403 31.5213 144.075 31.8991 143.419C32.277 142.76 32.4659 141.832 32.4659 140.636C32.4659 139.841 32.3793 139.162 32.206 138.599C32.0355 138.034 31.7898 137.602 31.4688 137.304C31.1506 137.006 30.7685 136.857 30.3224 136.857C29.6548 136.857 29.1307 137.189 28.75 137.854C28.3693 138.516 28.179 139.443 28.179 140.636C28.179 141.432 28.2642 142.111 28.4347 142.673C28.608 143.236 28.8537 143.665 29.1719 143.96C29.4929 144.256 29.8764 144.403 30.3224 144.403Z" fill="#BDBDBD"/>
<line x1="54" y1="165.75" x2="304" y2="165.75" stroke="#DCDCDC" stroke-width="0.5"/>
<path d="M19.8917 168.125V167.477L23.7823 161.273H24.2596V162.359H23.9059L20.7823 167.354V167.409H25.8832V168.125H19.8917ZM23.9656 170V167.92V167.622V161.273H24.7241V170H23.9656ZM30.3224 170.119C29.7088 170.119 29.1847 169.943 28.75 169.591C28.3182 169.236 27.9858 168.723 27.7528 168.053C27.5227 167.382 27.4077 166.577 27.4077 165.636C27.4077 164.699 27.5227 163.896 27.7528 163.229C27.9858 162.558 28.3196 162.045 28.7543 161.69C29.1918 161.332 29.7145 161.153 30.3224 161.153C30.9304 161.153 31.4517 161.332 31.8864 161.69C32.3239 162.045 32.6577 162.558 32.8878 163.229C33.1207 163.896 33.2372 164.699 33.2372 165.636C33.2372 166.577 33.1207 167.382 32.8878 168.053C32.6577 168.723 32.3253 169.236 31.8906 169.591C31.4588 169.943 30.9361 170.119 30.3224 170.119ZM30.3224 169.403C30.9957 169.403 31.5213 169.075 31.8991 168.419C32.277 167.76 32.4659 166.832 32.4659 165.636C32.4659 164.841 32.3793 164.162 32.206 163.599C32.0355 163.034 31.7898 162.602 31.4688 162.304C31.1506 162.006 30.7685 161.857 30.3224 161.857C29.6548 161.857 29.1307 162.189 28.75 162.854C28.3693 163.516 28.179 164.443 28.179 165.636C28.179 166.432 28.2642 167.111 28.4347 167.673C28.608 168.236 28.8537 168.665 29.1719 168.96C29.4929 169.256 29.8764 169.403 30.3224 169.403Z" fill="#BDBDBD"/>
<line x1="54" y1="190.75" x2="304" y2="190.75" stroke="#DCDCDC" stroke-width="0.5"/>
<path d="M22.8991 195.119C22.3622 195.119 21.8821 195.023 21.4588 194.83C21.0355 194.634 20.7003 194.362 20.4531 194.016C20.206 193.669 20.0753 193.27 20.0611 192.818H20.8665C20.8807 193.136 20.9787 193.415 21.1605 193.653C21.3423 193.889 21.5838 194.074 21.8849 194.207C22.1861 194.338 22.5213 194.403 22.8906 194.403C23.294 194.403 23.6491 194.328 23.956 194.178C24.2656 194.027 24.5071 193.821 24.6804 193.56C24.8565 193.295 24.9446 192.997 24.9446 192.665C24.9446 192.312 24.8551 192.001 24.6761 191.732C24.4972 191.462 24.2401 191.251 23.9048 191.101C23.5724 190.95 23.1747 190.875 22.7116 190.875H22.2003V190.159H22.7116C23.0895 190.159 23.4233 190.091 23.7131 189.955C24.0057 189.815 24.2358 189.621 24.4034 189.371C24.571 189.121 24.6548 188.827 24.6548 188.489C24.6548 188.168 24.5824 187.885 24.4375 187.641C24.2926 187.396 24.0881 187.205 23.8239 187.065C23.5625 186.926 23.2571 186.857 22.9077 186.857C22.5696 186.857 22.2599 186.922 21.9787 187.053C21.6974 187.183 21.4702 187.368 21.2969 187.607C21.1264 187.845 21.0355 188.128 21.0241 188.455H20.2528C20.2642 188 20.3892 187.601 20.6278 187.257C20.8693 186.911 21.1889 186.641 21.5866 186.447C21.9872 186.251 22.4304 186.153 22.9162 186.153C23.4304 186.153 23.875 186.259 24.25 186.469C24.625 186.679 24.9148 186.959 25.1193 187.308C25.3267 187.655 25.4304 188.037 25.4304 188.455C25.4304 188.952 25.2955 189.378 25.0256 189.733C24.7557 190.085 24.392 190.33 23.9347 190.466V190.521C24.4915 190.632 24.929 190.879 25.2472 191.263C25.5682 191.643 25.7287 192.111 25.7287 192.665C25.7287 193.131 25.6065 193.55 25.3622 193.922C25.1179 194.291 24.7827 194.584 24.3565 194.8C23.9332 195.013 23.4474 195.119 22.8991 195.119ZM30.3224 195.119C29.7088 195.119 29.1847 194.943 28.75 194.591C28.3182 194.236 27.9858 193.723 27.7528 193.053C27.5227 192.382 27.4077 191.577 27.4077 190.636C27.4077 189.699 27.5227 188.896 27.7528 188.229C27.9858 187.558 28.3196 187.045 28.7543 186.69C29.1918 186.332 29.7145 186.153 30.3224 186.153C30.9304 186.153 31.4517 186.332 31.8864 186.69C32.3239 187.045 32.6577 187.558 32.8878 188.229C33.1207 188.896 33.2372 189.699 33.2372 190.636C33.2372 191.577 33.1207 192.382 32.8878 193.053C32.6577 193.723 32.3253 194.236 31.8906 194.591C31.4588 194.943 30.9361 195.119 30.3224 195.119ZM30.3224 194.403C30.9957 194.403 31.5213 194.075 31.8991 193.419C32.277 192.76 32.4659 191.832 32.4659 190.636C32.4659 189.841 32.3793 189.162 32.206 188.599C32.0355 188.034 31.7898 187.602 31.4688 187.304C31.1506 187.006 30.7685 186.857 30.3224 186.857C29.6548 186.857 29.1307 187.189 28.75 187.854C28.3693 188.516 28.179 189.443 28.179 190.636C28.179 191.432 28.2642 192.111 28.4347 192.673C28.608 193.236 28.8537 193.665 29.1719 193.96C29.4929 194.256 29.8764 194.403 30.3224 194.403Z" fill="#BDBDBD"/>
<line x1="54" y1="215.75" x2="304" y2="215.75" stroke="#DCDCDC" stroke-width="0.5"/>
<path d="M20.288 220V219.416L23.1388 216.212C23.511 215.791 23.8107 215.432 24.038 215.134C24.2653 214.835 24.43 214.56 24.5323 214.307C24.6374 214.054 24.69 213.791 24.69 213.518C24.69 213.186 24.6119 212.896 24.4556 212.649C24.3022 212.399 24.0906 212.205 23.8207 212.065C23.5508 211.926 23.2468 211.857 22.9087 211.857C22.5508 211.857 22.2369 211.933 21.967 212.087C21.6999 212.24 21.4925 212.45 21.3448 212.717C21.1971 212.984 21.1232 213.291 21.1232 213.638H20.3604C20.3604 213.155 20.4712 212.727 20.6928 212.355C20.9173 211.98 21.2227 211.686 21.609 211.473C21.9982 211.26 22.4386 211.153 22.93 211.153C23.4158 211.153 23.8477 211.259 24.2255 211.469C24.6033 211.676 24.9002 211.959 25.1161 212.317C25.332 212.675 25.44 213.075 25.44 213.518C25.44 213.839 25.3832 214.151 25.2695 214.452C25.1587 214.753 24.967 215.088 24.6942 215.457C24.4215 215.827 24.0437 216.278 23.5607 216.812L21.396 219.229V219.284H25.7127V220H20.288ZM30.3224 220.119C29.7088 220.119 29.1847 219.943 28.75 219.591C28.3182 219.236 27.9858 218.723 27.7528 218.053C27.5227 217.382 27.4077 216.577 27.4077 215.636C27.4077 214.699 27.5227 213.896 27.7528 213.229C27.9858 212.558 28.3196 212.045 28.7543 211.69C29.1918 211.332 29.7145 211.153 30.3224 211.153C30.9304 211.153 31.4517 211.332 31.8864 211.69C32.3239 212.045 32.6577 212.558 32.8878 213.229C33.1207 213.896 33.2372 214.699 33.2372 215.636C33.2372 216.577 33.1207 217.382 32.8878 218.053C32.6577 218.723 32.3253 219.236 31.8906 219.591C31.4588 219.943 30.9361 220.119 30.3224 220.119ZM30.3224 219.403C30.9957 219.403 31.5213 219.075 31.8991 218.419C32.277 217.76 32.4659 216.832 32.4659 215.636C32.4659 214.841 32.3793 214.162 32.206 213.599C32.0355 213.034 31.7898 212.602 31.4688 212.304C31.1506 212.006 30.7685 211.857 30.3224 211.857C29.6548 211.857 29.1307 212.189 28.75 212.854C28.3693 213.516 28.179 214.443 28.179 215.636C28.179 216.432 28.2642 217.111 28.4347 217.673C28.608 218.236 28.8537 218.665 29.1719 218.96C29.4929 219.256 29.8764 219.403 30.3224 219.403Z" fill="#BDBDBD"/>
<path d="M127 59C127 57.3431 128.343 56 130 56H134C135.657 56 137 57.3431 137 59V265H127V59Z" fill="url(#paint0_linear_533_3771)"/>
<path d="M132 94C132 92.3431 133.343 91 135 91H139C140.657 91 142 92.3431 142 94V265H132V94Z" fill="url(#paint1_linear_533_3771)"/>
<path d="M137 251C137 249.343 138.343 248 140 248H144C145.657 248 147 249.343 147 251V265H137V251Z" fill="url(#paint2_linear_533_3771)"/>
<line x1="54" y1="265.75" x2="304" y2="265.75" stroke="#DCDCDC" stroke-width="0.5"/>
<path d="M30.3224 270.119C29.7088 270.119 29.1847 269.943 28.75 269.591C28.3182 269.236 27.9858 268.723 27.7528 268.053C27.5227 267.382 27.4077 266.577 27.4077 265.636C27.4077 264.699 27.5227 263.896 27.7528 263.229C27.9858 262.558 28.3196 262.045 28.7543 261.69C29.1918 261.332 29.7145 261.153 30.3224 261.153C30.9304 261.153 31.4517 261.332 31.8864 261.69C32.3239 262.045 32.6577 262.558 32.8878 263.229C33.1207 263.896 33.2372 264.699 33.2372 265.636C33.2372 266.577 33.1207 267.382 32.8878 268.053C32.6577 268.723 32.3253 269.236 31.8906 269.591C31.4588 269.943 30.9361 270.119 30.3224 270.119ZM30.3224 269.403C30.9957 269.403 31.5213 269.075 31.8991 268.419C32.277 267.76 32.4659 266.832 32.4659 265.636C32.4659 264.841 32.3793 264.162 32.206 263.599C32.0355 263.034 31.7898 262.602 31.4688 262.304C31.1506 262.006 30.7685 261.857 30.3224 261.857C29.6548 261.857 29.1307 262.189 28.75 262.854C28.3693 263.516 28.179 264.443 28.179 265.636C28.179 266.432 28.2642 267.111 28.4347 267.673C28.608 268.236 28.8537 268.665 29.1719 268.96C29.4929 269.256 29.8764 269.403 30.3224 269.403Z" fill="#BDBDBD"/>
<path d="M60.429 278.455C60.3807 277.969 60.1662 277.582 59.7855 277.295C59.4048 277.009 58.9261 276.865 58.3494 276.865C57.9432 276.865 57.5852 276.935 57.2756 277.074C56.9688 277.213 56.7273 277.406 56.5511 277.653C56.3778 277.898 56.2912 278.176 56.2912 278.489C56.2912 278.719 56.3409 278.92 56.4403 279.094C56.5398 279.267 56.6733 279.416 56.8409 279.541C57.0114 279.663 57.1989 279.768 57.4034 279.857C57.6108 279.945 57.8196 280.018 58.0298 280.078L58.9503 280.342C59.2287 280.419 59.5071 280.517 59.7855 280.636C60.0639 280.756 60.3182 280.906 60.5483 281.088C60.7813 281.267 60.9673 281.487 61.1065 281.749C61.2486 282.007 61.3196 282.318 61.3196 282.682C61.3196 283.148 61.1989 283.567 60.9574 283.939C60.7159 284.311 60.3693 284.607 59.9176 284.825C59.4659 285.041 58.9247 285.149 58.294 285.149C57.7003 285.149 57.1847 285.051 56.7472 284.855C56.3097 284.656 55.9659 284.382 55.7159 284.033C55.4659 283.683 55.3253 283.278 55.294 282.818H56.1122C56.1406 283.162 56.2543 283.453 56.4531 283.692C56.652 283.93 56.9105 284.112 57.2287 284.237C57.5469 284.359 57.902 284.42 58.294 284.42C58.7287 284.42 59.1151 284.348 59.4531 284.203C59.794 284.055 60.0611 283.851 60.2543 283.589C60.4503 283.325 60.5483 283.018 60.5483 282.669C60.5483 282.374 60.4716 282.126 60.3182 281.928C60.1648 281.726 59.9503 281.557 59.6747 281.42C59.402 281.284 59.0852 281.163 58.7244 281.058L57.6804 280.751C56.9957 280.547 56.4645 280.264 56.0866 279.903C55.7088 279.543 55.5199 279.082 55.5199 278.523C55.5199 278.054 55.6449 277.642 55.8949 277.287C56.1477 276.929 56.4886 276.651 56.9176 276.452C57.3494 276.25 57.8338 276.149 58.3707 276.149C58.9134 276.149 59.3935 276.249 59.8111 276.447C60.2287 276.646 60.5597 276.92 60.804 277.27C61.0511 277.616 61.1832 278.011 61.2003 278.455H60.429ZM65.7259 285.136C65.1151 285.136 64.5866 284.994 64.1406 284.71C63.6946 284.423 63.3494 284.027 63.1051 283.521C62.8636 283.013 62.7429 282.428 62.7429 281.766C62.7429 281.107 62.8636 280.521 63.1051 280.01C63.3494 279.496 63.6861 279.094 64.1151 278.804C64.5469 278.511 65.0455 278.365 65.6108 278.365C65.9659 278.365 66.3082 278.43 66.6378 278.561C66.9673 278.689 67.2628 278.886 67.5241 279.153C67.7884 279.418 67.9972 279.751 68.1506 280.155C68.304 280.555 68.3807 281.03 68.3807 281.578V281.953H63.267V281.284H67.6051C67.6051 280.864 67.5199 280.486 67.3494 280.151C67.1818 279.812 66.9474 279.545 66.6463 279.349C66.348 279.153 66.0028 279.055 65.6108 279.055C65.196 279.055 64.831 279.166 64.5156 279.388C64.2003 279.609 63.9531 279.902 63.7741 280.266C63.598 280.629 63.5085 281.027 63.5057 281.459V281.859C63.5057 282.379 63.5952 282.834 63.7741 283.223C63.956 283.609 64.2131 283.909 64.5455 284.122C64.8778 284.335 65.2713 284.442 65.7259 284.442C66.0355 284.442 66.3068 284.393 66.5398 284.297C66.7756 284.2 66.973 284.071 67.1321 283.909C67.294 283.744 67.4162 283.564 67.4986 283.368L68.2188 283.602C68.1193 283.878 67.956 284.132 67.7287 284.365C67.5043 284.598 67.223 284.786 66.8849 284.928C66.5497 285.067 66.1634 285.136 65.7259 285.136ZM70.8107 280.909V285H70.0522V278.455H70.7894V279.482H70.8576C71.011 279.146 71.2496 278.878 71.5735 278.676C71.9002 278.472 72.3036 278.369 72.7837 278.369C73.2241 278.369 73.6104 278.462 73.9428 278.646C74.2781 278.828 74.538 279.097 74.7227 279.452C74.9102 279.807 75.0039 280.243 75.0039 280.76V285H74.2454V280.807C74.2454 280.27 74.0948 279.845 73.7937 279.533C73.4954 279.22 73.0948 279.064 72.592 279.064C72.2482 279.064 71.9428 279.138 71.6758 279.286C71.4087 279.433 71.1971 279.646 71.0408 279.925C70.8874 280.2 70.8107 280.528 70.8107 280.909Z" fill="#BDBDBD"/>
<path d="M98.6126 278.455C98.5643 277.969 98.3498 277.582 97.9691 277.295C97.5884 277.009 97.1097 276.865 96.533 276.865C96.1268 276.865 95.7688 276.935 95.4592 277.074C95.1523 277.213 94.9109 277.406 94.7347 277.653C94.5614 277.898 94.4748 278.176 94.4748 278.489C94.4748 278.719 94.5245 278.92 94.6239 279.094C94.7234 279.267 94.8569 279.416 95.0245 279.541C95.195 279.663 95.3825 279.768 95.587 279.857C95.7944 279.945 96.0032 280.018 96.2134 280.078L97.1339 280.342C97.4123 280.419 97.6907 280.517 97.9691 280.636C98.2475 280.756 98.5018 280.906 98.7319 281.088C98.9648 281.267 99.1509 281.487 99.2901 281.749C99.4322 282.007 99.5032 282.318 99.5032 282.682C99.5032 283.148 99.3825 283.567 99.141 283.939C98.8995 284.311 98.5529 284.607 98.1012 284.825C97.6495 285.041 97.1083 285.149 96.4776 285.149C95.8839 285.149 95.3683 285.051 94.9308 284.855C94.4933 284.656 94.1495 284.382 93.8995 284.033C93.6495 283.683 93.5089 283.278 93.4776 282.818H94.2958C94.3242 283.162 94.4379 283.453 94.6367 283.692C94.8356 283.93 95.0941 284.112 95.4123 284.237C95.7305 284.359 96.0856 284.42 96.4776 284.42C96.9123 284.42 97.2987 284.348 97.6367 284.203C97.9776 284.055 98.2447 283.851 98.4379 283.589C98.6339 283.325 98.7319 283.018 98.7319 282.669C98.7319 282.374 98.6552 282.126 98.5018 281.928C98.3484 281.726 98.1339 281.557 97.8583 281.42C97.5856 281.284 97.2688 281.163 96.908 281.058L95.864 280.751C95.1793 280.547 94.6481 280.264 94.2702 279.903C93.8924 279.543 93.7035 279.082 93.7035 278.523C93.7035 278.054 93.8285 277.642 94.0785 277.287C94.3313 276.929 94.6722 276.651 95.1012 276.452C95.533 276.25 96.0174 276.149 96.5543 276.149C97.0969 276.149 97.5771 276.249 97.9947 276.447C98.4123 276.646 98.7433 276.92 98.9876 277.27C99.2347 277.616 99.3668 278.011 99.3839 278.455H98.6126ZM103.909 285.136C103.299 285.136 102.77 284.994 102.324 284.71C101.878 284.423 101.533 284.027 101.289 283.521C101.047 283.013 100.926 282.428 100.926 281.766C100.926 281.107 101.047 280.521 101.289 280.01C101.533 279.496 101.87 279.094 102.299 278.804C102.73 278.511 103.229 278.365 103.794 278.365C104.15 278.365 104.492 278.43 104.821 278.561C105.151 278.689 105.446 278.886 105.708 279.153C105.972 279.418 106.181 279.751 106.334 280.155C106.488 280.555 106.564 281.03 106.564 281.578V281.953H101.451V281.284H105.789C105.789 280.864 105.703 280.486 105.533 280.151C105.365 279.812 105.131 279.545 104.83 279.349C104.532 279.153 104.186 279.055 103.794 279.055C103.38 279.055 103.015 279.166 102.699 279.388C102.384 279.609 102.137 279.902 101.958 280.266C101.782 280.629 101.692 281.027 101.689 281.459V281.859C101.689 282.379 101.779 282.834 101.958 283.223C102.14 283.609 102.397 283.909 102.729 284.122C103.061 284.335 103.455 284.442 103.909 284.442C104.219 284.442 104.49 284.393 104.723 284.297C104.959 284.2 105.157 284.071 105.316 283.909C105.478 283.744 105.6 283.564 105.682 283.368L106.402 283.602C106.303 283.878 106.14 284.132 105.912 284.365C105.688 284.598 105.407 284.786 105.069 284.928C104.733 285.067 104.347 285.136 103.909 285.136ZM108.994 276.273V285H108.236V276.273H108.994Z" fill="#BDBDBD"/>
<path d="M127.55 285V276.273H130.366C130.986 276.273 131.503 276.385 131.918 276.609C132.335 276.831 132.649 277.139 132.859 277.534C133.072 277.926 133.179 278.376 133.179 278.885C133.179 279.393 133.072 279.842 132.859 280.232C132.649 280.621 132.337 280.925 131.922 281.143C131.507 281.362 130.993 281.472 130.379 281.472H127.98V280.743H130.358C130.813 280.743 131.19 280.668 131.491 280.517C131.795 280.366 132.021 280.152 132.169 279.874C132.32 279.595 132.395 279.266 132.395 278.885C132.395 278.504 132.32 278.172 132.169 277.888C132.018 277.601 131.791 277.379 131.487 277.223C131.186 277.067 130.805 276.989 130.345 276.989H128.347V285H127.55ZM131.398 281.062L133.545 285H132.625L130.499 281.062H131.398ZM136.79 285.149C136.396 285.149 136.035 285.072 135.708 284.919C135.381 284.763 135.121 284.538 134.928 284.246C134.735 283.95 134.638 283.592 134.638 283.172C134.638 282.848 134.7 282.575 134.822 282.354C134.944 282.132 135.117 281.95 135.342 281.808C135.566 281.666 135.832 281.554 136.138 281.472C136.445 281.389 136.783 281.325 137.153 281.28C137.519 281.234 137.829 281.195 138.082 281.161C138.337 281.126 138.532 281.072 138.665 280.999C138.799 280.925 138.866 280.805 138.866 280.641V280.487C138.866 280.041 138.732 279.69 138.465 279.435C138.201 279.176 137.82 279.047 137.323 279.047C136.852 279.047 136.467 279.151 136.168 279.358C135.873 279.565 135.665 279.81 135.546 280.091L134.826 279.831C134.974 279.473 135.178 279.187 135.44 278.974C135.701 278.759 135.994 278.604 136.317 278.51C136.641 278.413 136.969 278.365 137.302 278.365C137.552 278.365 137.812 278.398 138.082 278.463C138.354 278.528 138.607 278.642 138.84 278.804C139.073 278.963 139.262 279.186 139.407 279.473C139.552 279.757 139.624 280.118 139.624 280.555V285H138.866V283.964H138.819C138.728 284.158 138.593 284.345 138.414 284.527C138.235 284.709 138.011 284.858 137.741 284.974C137.471 285.091 137.154 285.149 136.79 285.149ZM136.893 284.455C137.296 284.455 137.646 284.365 137.941 284.186C138.237 284.007 138.464 283.77 138.623 283.474C138.785 283.176 138.866 282.848 138.866 282.49V281.544C138.809 281.598 138.714 281.646 138.58 281.689C138.45 281.732 138.298 281.77 138.124 281.804C137.954 281.835 137.783 281.862 137.613 281.885C137.442 281.908 137.289 281.928 137.153 281.945C136.783 281.99 136.468 282.061 136.207 282.158C135.945 282.254 135.745 282.388 135.606 282.558C135.467 282.726 135.397 282.942 135.397 283.206C135.397 283.604 135.539 283.912 135.823 284.131C136.107 284.347 136.464 284.455 136.893 284.455ZM141.8 285V276.273H142.562V279.703H142.631C142.716 279.507 142.838 279.305 142.997 279.098C143.159 278.891 143.371 278.717 143.632 278.578C143.896 278.436 144.229 278.365 144.629 278.365C145.166 278.365 145.638 278.507 146.044 278.791C146.45 279.072 146.767 279.467 146.994 279.976C147.222 280.482 147.335 281.071 147.335 281.744C147.335 282.42 147.222 283.013 146.994 283.521C146.77 284.03 146.455 284.426 146.048 284.71C145.645 284.994 145.176 285.136 144.642 285.136C144.244 285.136 143.912 285.065 143.645 284.923C143.381 284.781 143.168 284.607 143.006 284.399C142.844 284.189 142.719 283.984 142.631 283.786H142.537V285H141.8ZM142.55 281.732C142.55 282.26 142.628 282.729 142.784 283.138C142.943 283.544 143.17 283.864 143.466 284.097C143.764 284.327 144.125 284.442 144.548 284.442C144.983 284.442 145.351 284.322 145.652 284.084C145.953 283.842 146.182 283.517 146.338 283.108C146.494 282.699 146.572 282.24 146.572 281.732C146.572 281.229 146.494 280.776 146.338 280.372C146.185 279.969 145.957 279.649 145.656 279.413C145.355 279.175 144.986 279.055 144.548 279.055C144.122 279.055 143.76 279.17 143.462 279.401C143.166 279.628 142.94 279.943 142.784 280.347C142.628 280.747 142.55 281.209 142.55 281.732Z" fill="#BDBDBD"/>
<path d="M165.491 285V276.273H166.288V280.973H166.365L170.626 276.273H171.674L167.946 280.308L171.657 285H170.686L167.451 280.862L166.288 282.166V285H165.491ZM174.849 285.149C174.454 285.149 174.093 285.072 173.767 284.919C173.44 284.763 173.18 284.538 172.987 284.246C172.794 283.95 172.697 283.592 172.697 283.172C172.697 282.848 172.758 282.575 172.88 282.354C173.002 282.132 173.176 281.95 173.4 281.808C173.625 281.666 173.89 281.554 174.197 281.472C174.504 281.389 174.842 281.325 175.211 281.28C175.578 281.234 175.887 281.195 176.14 281.161C176.396 281.126 176.591 281.072 176.724 280.999C176.858 280.925 176.924 280.805 176.924 280.641V280.487C176.924 280.041 176.791 279.69 176.524 279.435C176.26 279.176 175.879 279.047 175.382 279.047C174.91 279.047 174.525 279.151 174.227 279.358C173.931 279.565 173.724 279.81 173.605 280.091L172.885 279.831C173.032 279.473 173.237 279.187 173.498 278.974C173.76 278.759 174.052 278.604 174.376 278.51C174.7 278.413 175.028 278.365 175.36 278.365C175.61 278.365 175.87 278.398 176.14 278.463C176.413 278.528 176.666 278.642 176.899 278.804C177.132 278.963 177.321 279.186 177.466 279.473C177.61 279.757 177.683 280.118 177.683 280.555V285H176.924V283.964H176.877C176.787 284.158 176.652 284.345 176.473 284.527C176.294 284.709 176.069 284.858 175.799 284.974C175.529 285.091 175.213 285.149 174.849 285.149ZM174.951 284.455C175.355 284.455 175.704 284.365 176 284.186C176.295 284.007 176.522 283.77 176.681 283.474C176.843 283.176 176.924 282.848 176.924 282.49V281.544C176.868 281.598 176.772 281.646 176.639 281.689C176.508 281.732 176.356 281.77 176.183 281.804C176.012 281.835 175.842 281.862 175.672 281.885C175.501 281.908 175.348 281.928 175.211 281.945C174.842 281.99 174.527 282.061 174.265 282.158C174.004 282.254 173.804 282.388 173.664 282.558C173.525 282.726 173.456 282.942 173.456 283.206C173.456 283.604 173.598 283.912 173.882 284.131C174.166 284.347 174.522 284.455 174.951 284.455ZM179.701 285V278.455H180.438V279.46H180.506C180.637 279.122 180.854 278.857 181.158 278.663C181.465 278.467 181.833 278.369 182.262 278.369C182.713 278.369 183.084 278.476 183.374 278.689C183.667 278.899 183.885 279.189 184.03 279.558H184.086C184.233 279.195 184.473 278.906 184.806 278.693C185.141 278.477 185.547 278.369 186.025 278.369C186.632 278.369 187.113 278.561 187.465 278.945C187.817 279.325 187.993 279.882 187.993 280.615V285H187.235V280.615C187.235 280.098 187.103 279.71 186.838 279.452C186.574 279.193 186.226 279.064 185.794 279.064C185.294 279.064 184.909 279.217 184.64 279.524C184.37 279.831 184.235 280.22 184.235 280.692V285H183.459V280.547C183.459 280.104 183.336 279.746 183.088 279.473C182.841 279.2 182.493 279.064 182.044 279.064C181.743 279.064 181.472 279.138 181.23 279.286C180.992 279.433 180.803 279.639 180.664 279.903C180.527 280.165 180.459 280.466 180.459 280.807V285H179.701Z" fill="#BDBDBD"/>
<path d="M209.817 276.273H210.614V282.567C210.612 283.135 210.509 283.609 210.308 283.99C210.106 284.368 209.827 284.651 209.472 284.838C209.117 285.026 208.71 285.119 208.249 285.119C207.798 285.119 207.394 285.036 207.039 284.868C206.684 284.7 206.404 284.464 206.2 284.161C205.998 283.857 205.897 283.5 205.897 283.091H206.681C206.681 283.349 206.749 283.578 206.886 283.777C207.022 283.973 207.208 284.126 207.444 284.237C207.683 284.348 207.951 284.403 208.249 284.403C208.559 284.403 208.83 284.338 209.063 284.207C209.299 284.077 209.484 283.876 209.617 283.607C209.751 283.334 209.817 282.987 209.817 282.567V276.273ZM216.934 282.499V278.455H217.692V285H216.934V283.913H216.874C216.721 284.249 216.478 284.528 216.146 284.753C215.813 284.974 215.407 285.085 214.927 285.085C214.509 285.085 214.138 284.994 213.815 284.812C213.491 284.628 213.237 284.358 213.052 284.003C212.867 283.648 212.775 283.212 212.775 282.695V278.455H213.533V282.648C213.533 283.159 213.684 283.571 213.985 283.884C214.286 284.193 214.673 284.348 215.144 284.348C215.44 284.348 215.724 284.277 215.996 284.135C216.269 283.993 216.494 283.786 216.67 283.513C216.846 283.237 216.934 282.899 216.934 282.499ZM219.701 285V278.455H220.438V279.46H220.506C220.637 279.122 220.854 278.857 221.158 278.663C221.465 278.467 221.833 278.369 222.262 278.369C222.713 278.369 223.084 278.476 223.374 278.689C223.667 278.899 223.885 279.189 224.03 279.558H224.086C224.233 279.195 224.473 278.906 224.806 278.693C225.141 278.477 225.547 278.369 226.025 278.369C226.632 278.369 227.113 278.561 227.465 278.945C227.817 279.325 227.993 279.882 227.993 280.615V285H227.235V280.615C227.235 280.098 227.103 279.71 226.838 279.452C226.574 279.193 226.226 279.064 225.794 279.064C225.294 279.064 224.909 279.217 224.64 279.524C224.37 279.831 224.235 280.22 224.235 280.692V285H223.459V280.547C223.459 280.104 223.336 279.746 223.088 279.473C222.841 279.2 222.493 279.064 222.044 279.064C221.743 279.064 221.472 279.138 221.23 279.286C220.992 279.433 220.803 279.639 220.664 279.903C220.527 280.165 220.459 280.466 220.459 280.807V285H219.701Z" fill="#BDBDBD"/>
<path d="M251.312 278.455C251.263 277.969 251.049 277.582 250.668 277.295C250.288 277.009 249.809 276.865 249.232 276.865C248.826 276.865 248.468 276.935 248.158 277.074C247.852 277.213 247.61 277.406 247.434 277.653C247.261 277.898 247.174 278.176 247.174 278.489C247.174 278.719 247.224 278.92 247.323 279.094C247.423 279.267 247.556 279.416 247.724 279.541C247.894 279.663 248.082 279.768 248.286 279.857C248.494 279.945 248.702 280.018 248.913 280.078L249.833 280.342C250.112 280.419 250.39 280.517 250.668 280.636C250.947 280.756 251.201 280.906 251.431 281.088C251.664 281.267 251.85 281.487 251.989 281.749C252.131 282.007 252.202 282.318 252.202 282.682C252.202 283.148 252.082 283.567 251.84 283.939C251.599 284.311 251.252 284.607 250.8 284.825C250.349 285.041 249.808 285.149 249.177 285.149C248.583 285.149 248.067 285.051 247.63 284.855C247.192 284.656 246.849 284.382 246.599 284.033C246.349 283.683 246.208 283.278 246.177 282.818H246.995C247.023 283.162 247.137 283.453 247.336 283.692C247.535 283.93 247.793 284.112 248.112 284.237C248.43 284.359 248.785 284.42 249.177 284.42C249.612 284.42 249.998 284.348 250.336 284.203C250.677 284.055 250.944 283.851 251.137 283.589C251.333 283.325 251.431 283.018 251.431 282.669C251.431 282.374 251.354 282.126 251.201 281.928C251.048 281.726 250.833 281.557 250.558 281.42C250.285 281.284 249.968 281.163 249.607 281.058L248.563 280.751C247.879 280.547 247.347 280.264 246.969 279.903C246.592 279.543 246.403 279.082 246.403 278.523C246.403 278.054 246.528 277.642 246.778 277.287C247.031 276.929 247.371 276.651 247.8 276.452C248.232 276.25 248.717 276.149 249.254 276.149C249.796 276.149 250.276 276.249 250.694 276.447C251.112 276.646 251.442 276.92 251.687 277.27C251.934 277.616 252.066 278.011 252.083 278.455H251.312ZM255.79 285.149C255.396 285.149 255.035 285.072 254.708 284.919C254.381 284.763 254.121 284.538 253.928 284.246C253.735 283.95 253.638 283.592 253.638 283.172C253.638 282.848 253.7 282.575 253.822 282.354C253.944 282.132 254.117 281.95 254.342 281.808C254.566 281.666 254.832 281.554 255.138 281.472C255.445 281.389 255.783 281.325 256.153 281.28C256.519 281.234 256.829 281.195 257.082 281.161C257.337 281.126 257.532 281.072 257.665 280.999C257.799 280.925 257.866 280.805 257.866 280.641V280.487C257.866 280.041 257.732 279.69 257.465 279.435C257.201 279.176 256.82 279.047 256.323 279.047C255.852 279.047 255.467 279.151 255.168 279.358C254.873 279.565 254.665 279.81 254.546 280.091L253.826 279.831C253.974 279.473 254.178 279.187 254.44 278.974C254.701 278.759 254.994 278.604 255.317 278.51C255.641 278.413 255.969 278.365 256.302 278.365C256.552 278.365 256.812 278.398 257.082 278.463C257.354 278.528 257.607 278.642 257.84 278.804C258.073 278.963 258.262 279.186 258.407 279.473C258.552 279.757 258.624 280.118 258.624 280.555V285H257.866V283.964H257.819C257.728 284.158 257.593 284.345 257.414 284.527C257.235 284.709 257.011 284.858 256.741 284.974C256.471 285.091 256.154 285.149 255.79 285.149ZM255.893 284.455C256.296 284.455 256.646 284.365 256.941 284.186C257.237 284.007 257.464 283.77 257.623 283.474C257.785 283.176 257.866 282.848 257.866 282.49V281.544C257.809 281.598 257.714 281.646 257.58 281.689C257.45 281.732 257.298 281.77 257.124 281.804C256.954 281.835 256.783 281.862 256.613 281.885C256.442 281.908 256.289 281.928 256.153 281.945C255.783 281.99 255.468 282.061 255.207 282.158C254.945 282.254 254.745 282.388 254.606 282.558C254.467 282.726 254.397 282.942 254.397 283.206C254.397 283.604 254.539 283.912 254.823 284.131C255.107 284.347 255.464 284.455 255.893 284.455ZM260.8 285V276.273H261.562V279.703H261.631C261.716 279.507 261.838 279.305 261.997 279.098C262.159 278.891 262.371 278.717 262.632 278.578C262.896 278.436 263.229 278.365 263.629 278.365C264.166 278.365 264.638 278.507 265.044 278.791C265.45 279.072 265.767 279.467 265.994 279.976C266.222 280.482 266.335 281.071 266.335 281.744C266.335 282.42 266.222 283.013 265.994 283.521C265.77 284.03 265.455 284.426 265.048 284.71C264.645 284.994 264.176 285.136 263.642 285.136C263.244 285.136 262.912 285.065 262.645 284.923C262.381 284.781 262.168 284.607 262.006 284.399C261.844 284.189 261.719 283.984 261.631 283.786H261.537V285H260.8ZM261.55 281.732C261.55 282.26 261.628 282.729 261.784 283.138C261.943 283.544 262.17 283.864 262.466 284.097C262.764 284.327 263.125 284.442 263.548 284.442C263.983 284.442 264.351 284.322 264.652 284.084C264.953 283.842 265.182 283.517 265.338 283.108C265.494 282.699 265.572 282.24 265.572 281.732C265.572 281.229 265.494 280.776 265.338 280.372C265.185 279.969 264.957 279.649 264.656 279.413C264.355 279.175 263.986 279.055 263.548 279.055C263.122 279.055 262.76 279.17 262.462 279.401C262.166 279.628 261.94 279.943 261.784 280.347C261.628 280.747 261.55 281.209 261.55 281.732Z" fill="#BDBDBD"/>
<path d="M284.862 276.273H285.783L288.949 283.875H289.026L292.192 276.273H293.112V285H292.362V277.956H292.294L289.349 285H288.625L285.68 277.956H285.612V285H284.862V276.273ZM295.283 285V278.455H296.046V285H295.283ZM295.671 277.33C295.515 277.33 295.381 277.277 295.271 277.172C295.16 277.064 295.104 276.935 295.104 276.784C295.104 276.634 295.16 276.506 295.271 276.401C295.381 276.293 295.515 276.239 295.671 276.239C295.827 276.239 295.961 276.293 296.072 276.401C296.183 276.506 296.238 276.634 296.238 276.784C296.238 276.935 296.183 277.064 296.072 277.172C295.961 277.277 295.827 277.33 295.671 277.33ZM298.811 280.909V285H298.052V278.455H298.789V279.482H298.858C299.011 279.146 299.25 278.878 299.574 278.676C299.9 278.472 300.304 278.369 300.784 278.369C301.224 278.369 301.61 278.462 301.943 278.646C302.278 278.828 302.538 279.097 302.723 279.452C302.91 279.807 303.004 280.243 303.004 280.76V285H302.245V280.807C302.245 280.27 302.095 279.845 301.794 279.533C301.495 279.22 301.095 279.064 300.592 279.064C300.248 279.064 299.943 279.138 299.676 279.286C299.409 279.433 299.197 279.646 299.041 279.925C298.887 280.2 298.811 280.528 298.811 280.909Z" fill="#BDBDBD"/>
<path d="M93.1665 142C93.1665 140.343 94.5096 139 96.1665 139H100.167C101.823 139 103.167 140.343 103.167 142V266H93.1665V142Z" fill="url(#paint3_linear_533_3771)"/>
<path d="M98.1665 106C98.1665 104.343 99.5096 103 101.167 103H105.167C106.823 103 108.167 104.343 108.167 106V266H98.1665V106Z" fill="url(#paint4_linear_533_3771)"/>
<path d="M103.167 266C103.167 265.448 103.614 265 104.167 265H112.167C112.719 265 113.167 265.448 113.167 266H103.167Z" fill="url(#paint5_linear_533_3771)"/>
<path d="M54 173C54 171.343 55.3431 170 57 170H61C62.6569 170 64 171.343 64 173V265H54V173Z" fill="url(#paint6_linear_533_3771)"/>
<path d="M59 198C59 196.343 60.3431 195 62 195H66C67.6569 195 69 196.343 69 198V265H59V198Z" fill="url(#paint7_linear_533_3771)"/>
<path d="M64 241C64 239.343 65.3431 238 67 238H71C72.6569 238 74 239.343 74 241V265H64V241Z" fill="url(#paint8_linear_533_3771)"/>
<path d="M210.667 59C210.667 57.3431 212.01 56 213.667 56H217.667C219.323 56 220.667 57.3431 220.667 59V265H210.667V59Z" fill="url(#paint9_linear_533_3771)"/>
<path d="M215.667 94C215.667 92.3431 217.01 91 218.667 91H222.667C224.323 91 225.667 92.3431 225.667 94V265H215.667V94Z" fill="url(#paint10_linear_533_3771)"/>
<path d="M220.667 251C220.667 249.343 222.01 248 223.667 248H227.667C229.323 248 230.667 249.343 230.667 251V265H220.667V251Z" fill="url(#paint11_linear_533_3771)"/>
<path d="M283 173C283 171.343 284.343 170 286 170H290C291.657 170 293 171.343 293 173V265H283V173Z" fill="url(#paint12_linear_533_3771)"/>
<path d="M288 198C288 196.343 289.343 195 291 195H295C296.657 195 298 196.343 298 198V265H288V198Z" fill="url(#paint13_linear_533_3771)"/>
<path d="M293 241C293 239.343 294.343 238 296 238H300C301.657 238 303 239.343 303 241V265H293V241Z" fill="url(#paint14_linear_533_3771)"/>
<path d="M246 174C246 172.343 247.343 171 249 171H253C254.657 171 256 172.343 256 174V266H246V174Z" fill="url(#paint15_linear_533_3771)"/>
<path d="M251 199C251 197.343 252.343 196 254 196H258C259.657 196 261 197.343 261 199V266H251V199Z" fill="url(#paint16_linear_533_3771)"/>
<path d="M256 242C256 240.343 257.343 239 259 239H263C264.657 239 266 240.343 266 242V266H256V242Z" fill="url(#paint17_linear_533_3771)"/>
<path d="M166 174C166 172.343 167.343 171 169 171H173C174.657 171 176 172.343 176 174V266H166V174Z" fill="url(#paint18_linear_533_3771)"/>
<path d="M171 199C171 197.343 172.343 196 174 196H178C179.657 196 181 197.343 181 199V266H171V199Z" fill="url(#paint19_linear_533_3771)"/>
<path d="M176 242C176 240.343 177.343 239 179 239H183C184.657 239 186 240.343 186 242V266H176V242Z" fill="url(#paint20_linear_533_3771)"/>
<defs>
<linearGradient id="paint0_linear_533_3771" x1="131.945" y1="56" x2="218.639" y2="218.929" gradientUnits="userSpaceOnUse">
<stop stop-color="#280594"/>
<stop offset="1" stop-color="#F8A39B"/>
</linearGradient>
<linearGradient id="paint1_linear_533_3771" x1="136.258" y1="265" x2="138.013" y2="91.0027" gradientUnits="userSpaceOnUse">
<stop stop-color="#FFC120"/>
<stop offset="1" stop-color="#F8A39B"/>
</linearGradient>
<linearGradient id="paint2_linear_533_3771" x1="142" y1="248" x2="142" y2="265" gradientUnits="userSpaceOnUse">
<stop stop-color="#FF708C"/>
<stop offset="1" stop-color="#A7B5FF"/>
</linearGradient>
<linearGradient id="paint3_linear_533_3771" x1="98.1119" y1="139" x2="135.298" y2="254.012" gradientUnits="userSpaceOnUse">
<stop stop-color="#280594"/>
<stop offset="1" stop-color="#F8A39B"/>
</linearGradient>
<linearGradient id="paint4_linear_533_3771" x1="102.425" y1="266" x2="103.965" y2="103.001" gradientUnits="userSpaceOnUse">
<stop stop-color="#FFC120"/>
<stop offset="1" stop-color="#F8A39B"/>
</linearGradient>
<linearGradient id="paint5_linear_533_3771" x1="108.167" y1="265" x2="108.167" y2="266" gradientUnits="userSpaceOnUse">
<stop stop-color="#FF708C"/>
<stop offset="1" stop-color="#A7B5FF"/>
</linearGradient>
<linearGradient id="paint6_linear_533_3771" x1="58.9454" y1="170" x2="80.6583" y2="259.775" gradientUnits="userSpaceOnUse">
<stop stop-color="#280594"/>
<stop offset="1" stop-color="#F8A39B"/>
</linearGradient>
<linearGradient id="paint7_linear_533_3771" x1="63.2581" y1="265" x2="63.5421" y2="194.995" gradientUnits="userSpaceOnUse">
<stop stop-color="#FFC120"/>
<stop offset="1" stop-color="#F8A39B"/>
</linearGradient>
<linearGradient id="paint8_linear_533_3771" x1="69" y1="238" x2="69" y2="265" gradientUnits="userSpaceOnUse">
<stop stop-color="#FF708C"/>
<stop offset="1" stop-color="#A7B5FF"/>
</linearGradient>
<linearGradient id="paint9_linear_533_3771" x1="215.612" y1="56" x2="302.305" y2="218.929" gradientUnits="userSpaceOnUse">
<stop stop-color="#280594"/>
<stop offset="1" stop-color="#F8A39B"/>
</linearGradient>
<linearGradient id="paint10_linear_533_3771" x1="219.925" y1="265" x2="221.679" y2="91.0027" gradientUnits="userSpaceOnUse">
<stop stop-color="#FFC120"/>
<stop offset="1" stop-color="#F8A39B"/>
</linearGradient>
<linearGradient id="paint11_linear_533_3771" x1="225.667" y1="248" x2="225.667" y2="265" gradientUnits="userSpaceOnUse">
<stop stop-color="#FF708C"/>
<stop offset="1" stop-color="#A7B5FF"/>
</linearGradient>
<linearGradient id="paint12_linear_533_3771" x1="287.945" y1="170" x2="309.658" y2="259.775" gradientUnits="userSpaceOnUse">
<stop stop-color="#280594"/>
<stop offset="1" stop-color="#F8A39B"/>
</linearGradient>
<linearGradient id="paint13_linear_533_3771" x1="292.258" y1="265" x2="292.542" y2="194.995" gradientUnits="userSpaceOnUse">
<stop stop-color="#FFC120"/>
<stop offset="1" stop-color="#F8A39B"/>
</linearGradient>
<linearGradient id="paint14_linear_533_3771" x1="298" y1="238" x2="298" y2="265" gradientUnits="userSpaceOnUse">
<stop stop-color="#FF708C"/>
<stop offset="1" stop-color="#A7B5FF"/>
</linearGradient>
<linearGradient id="paint15_linear_533_3771" x1="250.945" y1="171" x2="272.658" y2="260.775" gradientUnits="userSpaceOnUse">
<stop stop-color="#280594"/>
<stop offset="1" stop-color="#F8A39B"/>
</linearGradient>
<linearGradient id="paint16_linear_533_3771" x1="255.258" y1="266" x2="255.542" y2="195.995" gradientUnits="userSpaceOnUse">
<stop stop-color="#FFC120"/>
<stop offset="1" stop-color="#F8A39B"/>
</linearGradient>
<linearGradient id="paint17_linear_533_3771" x1="261" y1="239" x2="261" y2="266" gradientUnits="userSpaceOnUse">
<stop stop-color="#FF708C"/>
<stop offset="1" stop-color="#A7B5FF"/>
</linearGradient>
<linearGradient id="paint18_linear_533_3771" x1="170.945" y1="171" x2="192.658" y2="260.775" gradientUnits="userSpaceOnUse">
<stop stop-color="#280594"/>
<stop offset="1" stop-color="#F8A39B"/>
</linearGradient>
<linearGradient id="paint19_linear_533_3771" x1="175.258" y1="266" x2="175.542" y2="195.995" gradientUnits="userSpaceOnUse">
<stop stop-color="#FFC120"/>
<stop offset="1" stop-color="#F8A39B"/>
</linearGradient>
<linearGradient id="paint20_linear_533_3771" x1="181" y1="239" x2="181" y2="266" gradientUnits="userSpaceOnUse">
<stop stop-color="#FF708C"/>
<stop offset="1" stop-color="#A7B5FF"/>
</linearGradient>
</defs>
</svg>
