<svg width="66" height="26" viewBox="0 0 66 26" fill="none" xmlns="http://www.w3.org/2000/svg">
<g filter="url(#filter0_b_533_3163)">
<rect y="0.5" width="66" height="25" rx="12.5" fill="url(#paint0_linear_533_3163)"/>
<path d="M18.9247 17.6449C18.2514 17.642 17.6761 17.4645 17.1989 17.1122C16.7216 16.7599 16.3565 16.2472 16.1037 15.5739C15.8509 14.9006 15.7244 14.0895 15.7244 13.1406C15.7244 12.1946 15.8509 11.3864 16.1037 10.7159C16.3594 10.0455 16.7259 9.53409 17.2031 9.18182C17.6832 8.82955 18.2571 8.65341 18.9247 8.65341C19.5923 8.65341 20.1648 8.83097 20.642 9.18608C21.1193 9.53835 21.4844 10.0497 21.7372 10.7202C21.9929 11.3878 22.1207 12.1946 22.1207 13.1406C22.1207 14.0923 21.9943 14.9048 21.7415 15.5781C21.4886 16.2486 21.1236 16.7614 20.6463 17.1165C20.169 17.4688 19.5952 17.6449 18.9247 17.6449ZM18.9247 16.5071C19.5156 16.5071 19.9773 16.2188 20.3097 15.642C20.6449 15.0653 20.8125 14.2315 20.8125 13.1406C20.8125 12.4162 20.7358 11.804 20.5824 11.304C20.4318 10.8011 20.2145 10.4205 19.9304 10.1619C19.6491 9.90057 19.3139 9.76989 18.9247 9.76989C18.3366 9.76989 17.875 10.0597 17.5398 10.6392C17.2045 11.2187 17.0355 12.0526 17.0327 13.1406C17.0327 13.8679 17.108 14.483 17.2585 14.9858C17.4119 15.4858 17.6293 15.8651 17.9105 16.1236C18.1918 16.3793 18.5298 16.5071 18.9247 16.5071ZM26.9276 17.5V8.77273H30.0384C30.7173 8.77273 31.2798 8.89631 31.7259 9.14347C32.1719 9.39062 32.5057 9.72869 32.7273 10.1577C32.9489 10.5838 33.0597 11.0639 33.0597 11.598C33.0597 12.1349 32.9474 12.6179 32.723 13.0469C32.5014 13.473 32.1662 13.8111 31.7173 14.0611C31.2713 14.3082 30.7102 14.4318 30.0341 14.4318H27.8949V13.3153H29.9148C30.3438 13.3153 30.6918 13.2415 30.9588 13.0938C31.2259 12.9432 31.4219 12.7386 31.5469 12.4801C31.6719 12.2216 31.7344 11.9276 31.7344 11.598C31.7344 11.2685 31.6719 10.9759 31.5469 10.7202C31.4219 10.4645 31.2244 10.2642 30.9545 10.1193C30.6875 9.97443 30.3352 9.90199 29.8977 9.90199H28.2443V17.5H26.9276ZM37.1761 17.6321C36.5625 17.6321 36.027 17.4915 35.5696 17.2102C35.1122 16.929 34.7571 16.5355 34.5043 16.0298C34.2514 15.5241 34.125 14.9332 34.125 14.2571C34.125 13.5781 34.2514 12.9844 34.5043 12.4759C34.7571 11.9673 35.1122 11.5724 35.5696 11.2912C36.027 11.0099 36.5625 10.8693 37.1761 10.8693C37.7898 10.8693 38.3253 11.0099 38.7827 11.2912C39.2401 11.5724 39.5952 11.9673 39.848 12.4759C40.1009 12.9844 40.2273 13.5781 40.2273 14.2571C40.2273 14.9332 40.1009 15.5241 39.848 16.0298C39.5952 16.5355 39.2401 16.929 38.7827 17.2102C38.3253 17.4915 37.7898 17.6321 37.1761 17.6321ZM37.1804 16.5625C37.5781 16.5625 37.9077 16.4574 38.169 16.2472C38.4304 16.0369 38.6236 15.7571 38.7486 15.4077C38.8764 15.0582 38.9403 14.6733 38.9403 14.2528C38.9403 13.8352 38.8764 13.4517 38.7486 13.1023C38.6236 12.75 38.4304 12.4673 38.169 12.2543C37.9077 12.0412 37.5781 11.9347 37.1804 11.9347C36.7798 11.9347 36.4474 12.0412 36.1832 12.2543C35.9219 12.4673 35.7273 12.75 35.5994 13.1023C35.4744 13.4517 35.4119 13.8352 35.4119 14.2528C35.4119 14.6733 35.4744 15.0582 35.5994 15.4077C35.7273 15.7571 35.9219 16.0369 36.1832 16.2472C36.4474 16.4574 36.7798 16.5625 37.1804 16.5625ZM41.6495 17.5V10.9545H42.9237V17.5H41.6495ZM42.293 9.9446C42.0714 9.9446 41.881 9.87074 41.7219 9.72301C41.5657 9.57244 41.4876 9.39347 41.4876 9.18608C41.4876 8.97585 41.5657 8.79687 41.7219 8.64915C41.881 8.49858 42.0714 8.4233 42.293 8.4233C42.5146 8.4233 42.7035 8.49858 42.8597 8.64915C43.0188 8.79687 43.0984 8.97585 43.0984 9.18608C43.0984 9.39347 43.0188 9.57244 42.8597 9.72301C42.7035 9.87074 42.5146 9.9446 42.293 9.9446ZM45.9119 13.6136V17.5H44.6378V10.9545H45.8608V12.0199H45.9418C46.0923 11.6733 46.3281 11.3949 46.6491 11.1847C46.973 10.9744 47.3807 10.8693 47.8722 10.8693C48.3182 10.8693 48.7088 10.9631 49.044 11.1506C49.3793 11.3352 49.6392 11.6108 49.8239 11.9773C50.0085 12.3437 50.1009 12.7969 50.1009 13.3366V17.5H48.8267V13.4901C48.8267 13.0156 48.7031 12.6449 48.456 12.3778C48.2088 12.108 47.8693 11.973 47.4375 11.973C47.142 11.973 46.8793 12.0369 46.6491 12.1648C46.4219 12.2926 46.2415 12.4801 46.108 12.7273C45.9773 12.9716 45.9119 13.267 45.9119 13.6136Z" fill="white"/>
</g>
<defs>
<filter id="filter0_b_533_3163" x="-10" y="-9.5" width="86" height="45" filterUnits="userSpaceOnUse" color-interpolation-filters="sRGB">
<feFlood flood-opacity="0" result="BackgroundImageFix"/>
<feGaussianBlur in="BackgroundImageFix" stdDeviation="5"/>
<feComposite in2="SourceAlpha" operator="in" result="effect1_backgroundBlur_533_3163"/>
<feBlend mode="normal" in="SourceGraphic" in2="effect1_backgroundBlur_533_3163" result="shape"/>
</filter>
<linearGradient id="paint0_linear_533_3163" x1="66" y1="13.3193" x2="-0.000654038" y2="13.2425" gradientUnits="userSpaceOnUse">
<stop stop-color="#C2A353"/>
<stop offset="1" stop-color="#EAC564"/>
</linearGradient>
</defs>
</svg>
