<svg width="245" height="20" viewBox="0 0 245 20" fill="none" xmlns="http://www.w3.org/2000/svg">
<circle cx="5.5" cy="10" r="5" fill="url(#paint0_linear_533_3398)"/>
<path d="M21.0795 6.21023V5.27273H27.625V6.21023H24.8807V14H23.8239V6.21023H21.0795ZM32.354 11.3239V7.45455H33.3597V14H32.354V12.892H32.2859C32.1325 13.2244 31.8938 13.5071 31.57 13.7401C31.2461 13.9702 30.837 14.0852 30.3427 14.0852C29.9336 14.0852 29.57 13.9957 29.2518 13.8168C28.9336 13.6349 28.6836 13.3622 28.5018 12.9986C28.32 12.6321 28.229 12.1705 28.229 11.6136V7.45455H29.2347V11.5455C29.2347 12.0227 29.3683 12.4034 29.6353 12.6875C29.9052 12.9716 30.2489 13.1136 30.6665 13.1136C30.9165 13.1136 31.1708 13.0497 31.4293 12.9219C31.6907 12.794 31.9094 12.598 32.0856 12.3338C32.2646 12.0696 32.354 11.733 32.354 11.3239ZM36.2074 10.0625V14H35.2017V7.45455H36.1733V8.47727H36.2585C36.4119 8.14489 36.6449 7.87784 36.9574 7.67614C37.2699 7.47159 37.6733 7.36932 38.1676 7.36932C38.6108 7.36932 38.9986 7.46023 39.331 7.64205C39.6634 7.82102 39.9219 8.09375 40.1065 8.46023C40.2912 8.82386 40.3835 9.28409 40.3835 9.84091V14H39.3778V9.90909C39.3778 9.39489 39.2443 8.99432 38.9773 8.70739C38.7102 8.41761 38.3438 8.27273 37.8778 8.27273C37.5568 8.27273 37.2699 8.34233 37.017 8.48153C36.767 8.62074 36.5696 8.82386 36.4247 9.09091C36.2798 9.35795 36.2074 9.68182 36.2074 10.0625ZM44.1474 14.1534C43.7326 14.1534 43.3562 14.0753 43.0181 13.919C42.68 13.7599 42.4116 13.5312 42.2127 13.233C42.0138 12.9318 41.9144 12.5682 41.9144 12.142C41.9144 11.767 41.9883 11.4631 42.136 11.2301C42.2837 10.9943 42.4812 10.8097 42.7283 10.6761C42.9755 10.5426 43.2482 10.4432 43.5465 10.3778C43.8477 10.3097 44.1502 10.2557 44.4542 10.2159C44.8519 10.1648 45.1744 10.1264 45.4215 10.1009C45.6715 10.0724 45.8533 10.0256 45.967 9.96023C46.0835 9.89489 46.1417 9.78125 46.1417 9.61932V9.58523C46.1417 9.16477 46.0266 8.83807 45.7965 8.60511C45.5692 8.37216 45.2241 8.25568 44.761 8.25568C44.2809 8.25568 43.9045 8.3608 43.6317 8.57102C43.359 8.78125 43.1673 9.00568 43.0565 9.24432L42.1019 8.90341C42.2724 8.50568 42.4996 8.19602 42.7837 7.97443C43.0707 7.75 43.3832 7.59375 43.7212 7.50568C44.0621 7.41477 44.3974 7.36932 44.7269 7.36932C44.9371 7.36932 45.1786 7.39489 45.4513 7.44602C45.7269 7.49432 45.9925 7.59517 46.2482 7.74858C46.5067 7.90199 46.7212 8.13352 46.8917 8.44318C47.0621 8.75284 47.1474 9.16761 47.1474 9.6875V14H46.1417V13.1136H46.0906C46.0224 13.2557 45.9087 13.4077 45.7496 13.5696C45.5906 13.7315 45.3789 13.8693 45.1147 13.983C44.8505 14.0966 44.5281 14.1534 44.1474 14.1534ZM44.3008 13.25C44.6985 13.25 45.0337 13.1719 45.3065 13.0156C45.582 12.8594 45.7894 12.6577 45.9286 12.4105C46.0707 12.1634 46.1417 11.9034 46.1417 11.6307V10.7102C46.0991 10.7614 46.0053 10.8082 45.8604 10.8509C45.7184 10.8906 45.5536 10.9261 45.3661 10.9574C45.1815 10.9858 45.0011 11.0114 44.8249 11.0341C44.6516 11.054 44.511 11.071 44.4031 11.0852C44.1417 11.1193 43.8974 11.1747 43.6701 11.2514C43.4457 11.3253 43.2638 11.4375 43.1246 11.5881C42.9883 11.7358 42.9201 11.9375 42.9201 12.1932C42.9201 12.5426 43.0494 12.8068 43.3079 12.9858C43.5692 13.1619 43.9002 13.25 44.3008 13.25ZM48.983 14V7.45455H49.9886V14H48.983ZM49.4943 6.36364C49.2983 6.36364 49.1293 6.29688 48.9872 6.16335C48.848 6.02983 48.7784 5.86932 48.7784 5.68182C48.7784 5.49432 48.848 5.33381 48.9872 5.20028C49.1293 5.06676 49.2983 5 49.4943 5C49.6903 5 49.858 5.06676 49.9972 5.20028C50.1392 5.33381 50.2102 5.49432 50.2102 5.68182C50.2102 5.86932 50.1392 6.02983 49.9972 6.16335C49.858 6.29688 49.6903 6.36364 49.4943 6.36364Z" fill="#454545"/>
<circle cx="76.5" cy="10" r="5" fill="url(#paint1_linear_533_3398)"/>
<path d="M92.5568 14V5.27273H93.6136V9.60227H93.7159L97.6364 5.27273H99.017L95.3523 9.21023L99.017 14H97.7386L94.7045 9.94318L93.6136 11.1705V14H92.5568ZM102.175 14.1534C101.76 14.1534 101.384 14.0753 101.045 13.919C100.707 13.7599 100.439 13.5312 100.24 13.233C100.041 12.9318 99.9418 12.5682 99.9418 12.142C99.9418 11.767 100.016 11.4631 100.163 11.2301C100.311 10.9943 100.509 10.8097 100.756 10.6761C101.003 10.5426 101.276 10.4432 101.574 10.3778C101.875 10.3097 102.178 10.2557 102.482 10.2159C102.879 10.1648 103.202 10.1264 103.449 10.1009C103.699 10.0724 103.881 10.0256 103.994 9.96023C104.111 9.89489 104.169 9.78125 104.169 9.61932V9.58523C104.169 9.16477 104.054 8.83807 103.824 8.60511C103.597 8.37216 103.251 8.25568 102.788 8.25568C102.308 8.25568 101.932 8.3608 101.659 8.57102C101.386 8.78125 101.195 9.00568 101.084 9.24432L100.129 8.90341C100.3 8.50568 100.527 8.19602 100.811 7.97443C101.098 7.75 101.411 7.59375 101.749 7.50568C102.089 7.41477 102.425 7.36932 102.754 7.36932C102.964 7.36932 103.206 7.39489 103.479 7.44602C103.754 7.49432 104.02 7.59517 104.276 7.74858C104.534 7.90199 104.749 8.13352 104.919 8.44318C105.089 8.75284 105.175 9.16761 105.175 9.6875V14H104.169V13.1136H104.118C104.05 13.2557 103.936 13.4077 103.777 13.5696C103.618 13.7315 103.406 13.8693 103.142 13.983C102.878 14.0966 102.555 14.1534 102.175 14.1534ZM102.328 13.25C102.726 13.25 103.061 13.1719 103.334 13.0156C103.609 12.8594 103.817 12.6577 103.956 12.4105C104.098 12.1634 104.169 11.9034 104.169 11.6307V10.7102C104.126 10.7614 104.033 10.8082 103.888 10.8509C103.746 10.8906 103.581 10.9261 103.393 10.9574C103.209 10.9858 103.028 11.0114 102.852 11.0341C102.679 11.054 102.538 11.071 102.43 11.0852C102.169 11.1193 101.925 11.1747 101.697 11.2514C101.473 11.3253 101.291 11.4375 101.152 11.5881C101.016 11.7358 100.947 11.9375 100.947 12.1932C100.947 12.5426 101.077 12.8068 101.335 12.9858C101.597 13.1619 101.928 13.25 102.328 13.25ZM107.01 14V7.45455H107.982V8.44318H108.05C108.169 8.11932 108.385 7.85653 108.698 7.65483C109.01 7.45312 109.363 7.35227 109.755 7.35227C109.828 7.35227 109.921 7.35369 110.032 7.35653C110.142 7.35937 110.226 7.36364 110.283 7.36932V8.39205C110.249 8.38352 110.171 8.37074 110.049 8.35369C109.929 8.33381 109.803 8.32386 109.669 8.32386C109.351 8.32386 109.067 8.39062 108.817 8.52415C108.57 8.65483 108.374 8.83665 108.229 9.0696C108.087 9.29972 108.016 9.5625 108.016 9.85795V14H107.01ZM114.732 7.45455V8.30682H111.34V7.45455H114.732ZM112.328 5.88636H113.334V12.125C113.334 12.4091 113.375 12.6222 113.458 12.7642C113.543 12.9034 113.651 12.9972 113.782 13.0455C113.915 13.0909 114.056 13.1136 114.203 13.1136C114.314 13.1136 114.405 13.108 114.476 13.0966C114.547 13.0824 114.604 13.071 114.647 13.0625L114.851 13.9659C114.783 13.9915 114.688 14.017 114.566 14.0426C114.444 14.071 114.289 14.0852 114.101 14.0852C113.817 14.0852 113.539 14.0241 113.266 13.902C112.996 13.7798 112.772 13.5938 112.593 13.3438C112.417 13.0938 112.328 12.7784 112.328 12.3977V5.88636ZM120.37 11.3239V7.45455H121.375V14H120.37V12.892H120.301C120.148 13.2244 119.909 13.5071 119.586 13.7401C119.262 13.9702 118.853 14.0852 118.358 14.0852C117.949 14.0852 117.586 13.9957 117.267 13.8168C116.949 13.6349 116.699 13.3622 116.517 12.9986C116.336 12.6321 116.245 12.1705 116.245 11.6136V7.45455H117.25V11.5455C117.25 12.0227 117.384 12.4034 117.651 12.6875C117.921 12.9716 118.265 13.1136 118.682 13.1136C118.932 13.1136 119.186 13.0497 119.445 12.9219C119.706 12.794 119.925 12.598 120.101 12.3338C120.28 12.0696 120.37 11.733 120.37 11.3239ZM129.422 14H126.729V5.27273H129.541C130.388 5.27273 131.112 5.44744 131.714 5.79688C132.317 6.14347 132.778 6.64205 133.099 7.29261C133.42 7.94034 133.581 8.71591 133.581 9.61932C133.581 10.5284 133.419 11.3111 133.095 11.9673C132.771 12.6207 132.3 13.1236 131.68 13.4759C131.061 13.8253 130.308 14 129.422 14ZM127.786 13.0625H129.354C130.075 13.0625 130.673 12.9233 131.148 12.6449C131.622 12.3665 131.976 11.9702 132.209 11.456C132.442 10.9418 132.558 10.3295 132.558 9.61932C132.558 8.91477 132.443 8.30824 132.213 7.79972C131.983 7.28835 131.639 6.89631 131.182 6.62358C130.724 6.34801 130.155 6.21023 129.473 6.21023H127.786V13.0625ZM137.962 14.1364C137.331 14.1364 136.787 13.9972 136.33 13.7188C135.875 13.4375 135.524 13.0455 135.277 12.5426C135.033 12.0369 134.911 11.4489 134.911 10.7784C134.911 10.108 135.033 9.51705 135.277 9.00568C135.524 8.49148 135.868 8.09091 136.308 7.80398C136.751 7.5142 137.268 7.36932 137.859 7.36932C138.2 7.36932 138.537 7.42614 138.869 7.53977C139.202 7.65341 139.504 7.83807 139.777 8.09375C140.05 8.34659 140.267 8.68182 140.429 9.09943C140.591 9.51705 140.672 10.0312 140.672 10.642V11.0682H135.626V10.1989H139.649C139.649 9.82955 139.575 9.5 139.428 9.21023C139.283 8.92045 139.075 8.69176 138.805 8.52415C138.538 8.35653 138.223 8.27273 137.859 8.27273C137.459 8.27273 137.112 8.37216 136.82 8.57102C136.53 8.76705 136.307 9.02273 136.151 9.33807C135.994 9.65341 135.916 9.99148 135.916 10.3523V10.9318C135.916 11.4261 136.001 11.8452 136.172 12.1889C136.345 12.5298 136.585 12.7898 136.892 12.9688C137.199 13.1449 137.555 13.233 137.962 13.233C138.226 13.233 138.464 13.196 138.678 13.1222C138.893 13.0455 139.08 12.9318 139.236 12.7812C139.392 12.6278 139.513 12.4375 139.598 12.2102L140.57 12.483C140.467 12.8125 140.295 13.1023 140.054 13.3523C139.813 13.5994 139.514 13.7926 139.159 13.9318C138.804 14.0682 138.405 14.1364 137.962 14.1364ZM142.338 14V5.27273H143.344V8.49432H143.429C143.503 8.38068 143.605 8.2358 143.736 8.05966C143.869 7.88068 144.06 7.72159 144.307 7.58239C144.557 7.44034 144.895 7.36932 145.321 7.36932C145.872 7.36932 146.358 7.5071 146.778 7.78267C147.199 8.05824 147.527 8.44886 147.763 8.95455C147.999 9.46023 148.116 10.0568 148.116 10.7443C148.116 11.4375 147.999 12.0384 147.763 12.5469C147.527 13.0526 147.2 13.4446 146.783 13.723C146.365 13.9986 145.884 14.1364 145.338 14.1364C144.918 14.1364 144.581 14.0668 144.328 13.9276C144.075 13.7855 143.881 13.625 143.744 13.446C143.608 13.2642 143.503 13.1136 143.429 12.9943H143.31V14H142.338ZM143.327 10.7273C143.327 11.2216 143.399 11.6577 143.544 12.0355C143.689 12.4105 143.901 12.7045 144.179 12.9176C144.457 13.1278 144.798 13.233 145.202 13.233C145.622 13.233 145.973 13.1222 146.254 12.9006C146.538 12.6761 146.751 12.375 146.893 11.9972C147.038 11.6165 147.111 11.1932 147.111 10.7273C147.111 10.267 147.04 9.85227 146.898 9.48295C146.759 9.1108 146.547 8.81676 146.263 8.60085C145.982 8.3821 145.628 8.27273 145.202 8.27273C144.793 8.27273 144.449 8.37642 144.17 8.58381C143.892 8.78835 143.682 9.07528 143.54 9.4446C143.398 9.81108 143.327 10.2386 143.327 10.7273ZM149.655 14V7.45455H150.661V14H149.655ZM150.166 6.36364C149.97 6.36364 149.801 6.29688 149.659 6.16335C149.52 6.02983 149.45 5.86932 149.45 5.68182C149.45 5.49432 149.52 5.33381 149.659 5.20028C149.801 5.06676 149.97 5 150.166 5C150.362 5 150.53 5.06676 150.669 5.20028C150.811 5.33381 150.882 5.49432 150.882 5.68182C150.882 5.86932 150.811 6.02983 150.669 6.16335C150.53 6.29688 150.362 6.36364 150.166 6.36364ZM155.349 7.45455V8.30682H151.957V7.45455H155.349ZM152.946 5.88636H153.951V12.125C153.951 12.4091 153.993 12.6222 154.075 12.7642C154.16 12.9034 154.268 12.9972 154.399 13.0455C154.532 13.0909 154.673 13.1136 154.821 13.1136C154.931 13.1136 155.022 13.108 155.093 13.0966C155.164 13.0824 155.221 13.071 155.264 13.0625L155.468 13.9659C155.4 13.9915 155.305 14.017 155.183 14.0426C155.061 14.071 154.906 14.0852 154.718 14.0852C154.434 14.0852 154.156 14.0241 153.883 13.902C153.613 13.7798 153.389 13.5938 153.21 13.3438C153.034 13.0938 152.946 12.7784 152.946 12.3977V5.88636Z" fill="#454545"/>
<circle cx="181.5" cy="10" r="5" fill="url(#paint2_linear_533_3398)"/>
<path d="M197.08 6.21023V5.27273H203.625V6.21023H200.881V14H199.824V6.21023H197.08ZM204.44 14V7.45455H205.412V8.44318H205.48C205.599 8.11932 205.815 7.85653 206.127 7.65483C206.44 7.45312 206.792 7.35227 207.184 7.35227C207.258 7.35227 207.35 7.35369 207.461 7.35653C207.572 7.35937 207.656 7.36364 207.713 7.36932V8.39205C207.679 8.38352 207.6 8.37074 207.478 8.35369C207.359 8.33381 207.233 8.32386 207.099 8.32386C206.781 8.32386 206.497 8.39062 206.247 8.52415C206 8.65483 205.804 8.83665 205.659 9.0696C205.517 9.29972 205.446 9.5625 205.446 9.85795V14H204.44ZM210.831 14.1534C210.416 14.1534 210.04 14.0753 209.702 13.919C209.364 13.7599 209.095 13.5312 208.896 13.233C208.697 12.9318 208.598 12.5682 208.598 12.142C208.598 11.767 208.672 11.4631 208.82 11.2301C208.967 10.9943 209.165 10.8097 209.412 10.6761C209.659 10.5426 209.932 10.4432 210.23 10.3778C210.531 10.3097 210.834 10.2557 211.138 10.2159C211.536 10.1648 211.858 10.1264 212.105 10.1009C212.355 10.0724 212.537 10.0256 212.651 9.96023C212.767 9.89489 212.825 9.78125 212.825 9.61932V9.58523C212.825 9.16477 212.71 8.83807 212.48 8.60511C212.253 8.37216 211.908 8.25568 211.445 8.25568C210.964 8.25568 210.588 8.3608 210.315 8.57102C210.043 8.78125 209.851 9.00568 209.74 9.24432L208.786 8.90341C208.956 8.50568 209.183 8.19602 209.467 7.97443C209.754 7.75 210.067 7.59375 210.405 7.50568C210.746 7.41477 211.081 7.36932 211.411 7.36932C211.621 7.36932 211.862 7.39489 212.135 7.44602C212.411 7.49432 212.676 7.59517 212.932 7.74858C213.19 7.90199 213.405 8.13352 213.575 8.44318C213.746 8.75284 213.831 9.16761 213.831 9.6875V14H212.825V13.1136H212.774C212.706 13.2557 212.592 13.4077 212.433 13.5696C212.274 13.7315 212.063 13.8693 211.798 13.983C211.534 14.0966 211.212 14.1534 210.831 14.1534ZM210.984 13.25C211.382 13.25 211.717 13.1719 211.99 13.0156C212.266 12.8594 212.473 12.6577 212.612 12.4105C212.754 12.1634 212.825 11.9034 212.825 11.6307V10.7102C212.783 10.7614 212.689 10.8082 212.544 10.8509C212.402 10.8906 212.237 10.9261 212.05 10.9574C211.865 10.9858 211.685 11.0114 211.509 11.0341C211.335 11.054 211.195 11.071 211.087 11.0852C210.825 11.1193 210.581 11.1747 210.354 11.2514C210.129 11.3253 209.947 11.4375 209.808 11.5881C209.672 11.7358 209.604 11.9375 209.604 12.1932C209.604 12.5426 209.733 12.8068 209.991 12.9858C210.253 13.1619 210.584 13.25 210.984 13.25ZM216.672 10.0625V14H215.667V7.45455H216.638V8.47727H216.723C216.877 8.14489 217.11 7.87784 217.422 7.67614C217.735 7.47159 218.138 7.36932 218.632 7.36932C219.076 7.36932 219.463 7.46023 219.796 7.64205C220.128 7.82102 220.387 8.09375 220.571 8.46023C220.756 8.82386 220.848 9.28409 220.848 9.84091V14H219.843V9.90909C219.843 9.39489 219.709 8.99432 219.442 8.70739C219.175 8.41761 218.809 8.27273 218.343 8.27273C218.022 8.27273 217.735 8.34233 217.482 8.48153C217.232 8.62074 217.034 8.82386 216.89 9.09091C216.745 9.35795 216.672 9.68182 216.672 10.0625ZM227.322 8.92045L226.419 9.17614C226.362 9.02557 226.278 8.87926 226.168 8.73722C226.06 8.59233 225.912 8.47301 225.724 8.37926C225.537 8.28551 225.297 8.23864 225.004 8.23864C224.604 8.23864 224.27 8.33097 224.003 8.51562C223.739 8.69744 223.607 8.92898 223.607 9.21023C223.607 9.46023 223.697 9.65767 223.879 9.80256C224.061 9.94744 224.345 10.0682 224.732 10.1648L225.703 10.4034C226.288 10.5455 226.724 10.7628 227.011 11.0554C227.298 11.3452 227.442 11.7187 227.442 12.1761C227.442 12.5511 227.334 12.8864 227.118 13.1818C226.905 13.4773 226.607 13.7102 226.223 13.8807C225.839 14.0511 225.393 14.1364 224.885 14.1364C224.217 14.1364 223.665 13.9915 223.227 13.7017C222.79 13.4119 222.513 12.9886 222.396 12.4318L223.351 12.1932C223.442 12.5455 223.614 12.8097 223.866 12.9858C224.122 13.1619 224.456 13.25 224.868 13.25C225.337 13.25 225.709 13.1506 225.984 12.9517C226.263 12.75 226.402 12.5085 226.402 12.2273C226.402 12 226.322 11.8097 226.163 11.6562C226.004 11.5 225.76 11.3835 225.43 11.3068L224.339 11.0511C223.74 10.9091 223.3 10.6889 223.018 10.3906C222.74 10.0895 222.601 9.71307 222.601 9.26136C222.601 8.89205 222.705 8.56534 222.912 8.28125C223.122 7.99716 223.408 7.77415 223.768 7.61222C224.132 7.45028 224.544 7.36932 225.004 7.36932C225.652 7.36932 226.161 7.51136 226.53 7.79545C226.902 8.07955 227.166 8.45455 227.322 8.92045ZM231.87 7.45455V8.30682H228.342V7.45455H231.87ZM229.399 14V6.55114C229.399 6.17614 229.487 5.86364 229.663 5.61364C229.839 5.36364 230.068 5.17614 230.349 5.05114C230.63 4.92614 230.927 4.86364 231.24 4.86364C231.487 4.86364 231.689 4.88352 231.845 4.9233C232.001 4.96307 232.118 5 232.194 5.03409L231.904 5.90341C231.853 5.88636 231.782 5.86506 231.691 5.83949C231.603 5.81392 231.487 5.80114 231.342 5.80114C231.01 5.80114 230.77 5.88494 230.622 6.05256C230.477 6.22017 230.404 6.46591 230.404 6.78977V14H229.399ZM235.755 14.1364C235.124 14.1364 234.58 13.9972 234.123 13.7188C233.668 13.4375 233.317 13.0455 233.07 12.5426C232.826 12.0369 232.703 11.4489 232.703 10.7784C232.703 10.108 232.826 9.51705 233.07 9.00568C233.317 8.49148 233.661 8.09091 234.101 7.80398C234.544 7.5142 235.061 7.36932 235.652 7.36932C235.993 7.36932 236.33 7.42614 236.662 7.53977C236.995 7.65341 237.297 7.83807 237.57 8.09375C237.843 8.34659 238.06 8.68182 238.222 9.09943C238.384 9.51705 238.465 10.0312 238.465 10.642V11.0682H233.419V10.1989H237.442C237.442 9.82955 237.368 9.5 237.221 9.21023C237.076 8.92045 236.868 8.69176 236.598 8.52415C236.331 8.35653 236.016 8.27273 235.652 8.27273C235.252 8.27273 234.905 8.37216 234.613 8.57102C234.323 8.76705 234.1 9.02273 233.944 9.33807C233.787 9.65341 233.709 9.99148 233.709 10.3523V10.9318C233.709 11.4261 233.794 11.8452 233.965 12.1889C234.138 12.5298 234.378 12.7898 234.685 12.9688C234.992 13.1449 235.348 13.233 235.755 13.233C236.019 13.233 236.257 13.196 236.471 13.1222C236.686 13.0455 236.873 12.9318 237.029 12.7812C237.185 12.6278 237.306 12.4375 237.391 12.2102L238.363 12.483C238.26 12.8125 238.088 13.1023 237.847 13.3523C237.605 13.5994 237.307 13.7926 236.952 13.9318C236.597 14.0682 236.198 14.1364 235.755 14.1364ZM239.995 14V7.45455H240.966V8.44318H241.034C241.154 8.11932 241.37 7.85653 241.682 7.65483C241.995 7.45312 242.347 7.35227 242.739 7.35227C242.813 7.35227 242.905 7.35369 243.016 7.35653C243.127 7.35937 243.211 7.36364 243.267 7.36932V8.39205C243.233 8.38352 243.155 8.37074 243.033 8.35369C242.914 8.33381 242.787 8.32386 242.654 8.32386C242.336 8.32386 242.051 8.39062 241.801 8.52415C241.554 8.65483 241.358 8.83665 241.213 9.0696C241.071 9.29972 241 9.5625 241 9.85795V14H239.995Z" fill="#454545"/>
<defs>
<linearGradient id="paint0_linear_533_3398" x1="5.44535" y1="5" x2="5.69985" y2="14.9963" gradientUnits="userSpaceOnUse">
<stop stop-color="#280594"/>
<stop offset="1" stop-color="#F8A39B"/>
</linearGradient>
<linearGradient id="paint1_linear_533_3398" x1="75.7581" y1="15" x2="75.7639" y2="4.99914" gradientUnits="userSpaceOnUse">
<stop stop-color="#FFC120"/>
<stop offset="1" stop-color="#F8A39B"/>
</linearGradient>
<linearGradient id="paint2_linear_533_3398" x1="181.5" y1="5" x2="181.5" y2="15" gradientUnits="userSpaceOnUse">
<stop stop-color="#FF708C"/>
<stop offset="1" stop-color="#A7B5FF"/>
</linearGradient>
</defs>
</svg>
