<svg width="321" height="20" viewBox="0 0 321 20" fill="none" xmlns="http://www.w3.org/2000/svg">
<circle cx="5.5" cy="10" r="5" fill="url(#paint0_linear_552_2702)"/>
<path d="M21.5568 14V5.27273H26.7898V6.21023H22.6136V9.15909H26.3977V10.0966H22.6136V14H21.5568ZM30.3896 14.1534C29.9748 14.1534 29.5984 14.0753 29.2603 13.919C28.9222 13.7599 28.6538 13.5312 28.4549 13.233C28.256 12.9318 28.1566 12.5682 28.1566 12.142C28.1566 11.767 28.2305 11.4631 28.3782 11.2301C28.5259 10.9943 28.7234 10.8097 28.9705 10.6761C29.2177 10.5426 29.4904 10.4432 29.7887 10.3778C30.0898 10.3097 30.3924 10.2557 30.6964 10.2159C31.0941 10.1648 31.4165 10.1264 31.6637 10.1009C31.9137 10.0724 32.0955 10.0256 32.2092 9.96023C32.3256 9.89489 32.3839 9.78125 32.3839 9.61932V9.58523C32.3839 9.16477 32.2688 8.83807 32.0387 8.60511C31.8114 8.37216 31.4663 8.25568 31.0032 8.25568C30.5231 8.25568 30.1467 8.3608 29.8739 8.57102C29.6012 8.78125 29.4094 9.00568 29.2987 9.24432L28.3441 8.90341C28.5146 8.50568 28.7418 8.19602 29.0259 7.97443C29.3129 7.75 29.6254 7.59375 29.9634 7.50568C30.3043 7.41477 30.6396 7.36932 30.9691 7.36932C31.1793 7.36932 31.4208 7.39489 31.6935 7.44602C31.9691 7.49432 32.2347 7.59517 32.4904 7.74858C32.7489 7.90199 32.9634 8.13352 33.1339 8.44318C33.3043 8.75284 33.3896 9.16761 33.3896 9.6875V14H32.3839V13.1136H32.3327C32.2646 13.2557 32.1509 13.4077 31.9918 13.5696C31.8327 13.7315 31.6211 13.8693 31.3569 13.983C31.0927 14.0966 30.7702 14.1534 30.3896 14.1534ZM30.543 13.25C30.9407 13.25 31.2759 13.1719 31.5487 13.0156C31.8242 12.8594 32.0316 12.6577 32.1708 12.4105C32.3129 12.1634 32.3839 11.9034 32.3839 11.6307V10.7102C32.3413 10.7614 32.2475 10.8082 32.1026 10.8509C31.9606 10.8906 31.7958 10.9261 31.6083 10.9574C31.4237 10.9858 31.2433 11.0114 31.0671 11.0341C30.8938 11.054 30.7532 11.071 30.6452 11.0852C30.3839 11.1193 30.1396 11.1747 29.9123 11.2514C29.6879 11.3253 29.506 11.4375 29.3668 11.5881C29.2305 11.7358 29.1623 11.9375 29.1623 12.1932C29.1623 12.5426 29.2915 12.8068 29.5501 12.9858C29.8114 13.1619 30.1424 13.25 30.543 13.25ZM37.8842 14.1364C37.2706 14.1364 36.7422 13.9915 36.299 13.7017C35.8558 13.4119 35.5149 13.0128 35.2763 12.5043C35.0376 11.9957 34.9183 11.4148 34.9183 10.7614C34.9183 10.0966 35.0405 9.50994 35.2848 9.00142C35.532 8.49006 35.8757 8.09091 36.3161 7.80398C36.7592 7.5142 37.2763 7.36932 37.8672 7.36932C38.3274 7.36932 38.7422 7.45455 39.1115 7.625C39.4808 7.79545 39.7834 8.03409 40.0192 8.34091C40.255 8.64773 40.4013 9.00568 40.4581 9.41477H39.4524C39.3757 9.11648 39.2053 8.85227 38.9411 8.62216C38.6797 8.3892 38.3274 8.27273 37.8842 8.27273C37.4922 8.27273 37.1484 8.375 36.853 8.57955C36.5604 8.78125 36.3317 9.06676 36.1669 9.43608C36.005 9.80256 35.924 10.233 35.924 10.7273C35.924 11.233 36.0036 11.6733 36.1626 12.0483C36.3246 12.4233 36.5518 12.7145 36.8445 12.9219C37.1399 13.1293 37.4865 13.233 37.8842 13.233C38.1456 13.233 38.3828 13.1875 38.5959 13.0966C38.8089 13.0057 38.9893 12.875 39.1371 12.7045C39.2848 12.5341 39.3899 12.3295 39.4524 12.0909H40.4581C40.4013 12.4773 40.2607 12.8253 40.0362 13.1349C39.8146 13.4418 39.5206 13.6861 39.1541 13.8679C38.7905 14.0469 38.3672 14.1364 37.8842 14.1364ZM41.9283 14V7.45455H42.9339V14H41.9283ZM42.4396 6.36364C42.2436 6.36364 42.0746 6.29688 41.9325 6.16335C41.7933 6.02983 41.7237 5.86932 41.7237 5.68182C41.7237 5.49432 41.7933 5.33381 41.9325 5.20028C42.0746 5.06676 42.2436 5 42.4396 5C42.6357 5 42.8033 5.06676 42.9425 5.20028C43.0845 5.33381 43.1555 5.49432 43.1555 5.68182C43.1555 5.86932 43.0845 6.02983 42.9425 6.16335C42.8033 6.29688 42.6357 6.36364 42.4396 6.36364ZM46.7021 14.1534C46.2873 14.1534 45.9109 14.0753 45.5728 13.919C45.2347 13.7599 44.9663 13.5312 44.7674 13.233C44.5685 12.9318 44.4691 12.5682 44.4691 12.142C44.4691 11.767 44.543 11.4631 44.6907 11.2301C44.8384 10.9943 45.0359 10.8097 45.283 10.6761C45.5302 10.5426 45.8029 10.4432 46.1012 10.3778C46.4023 10.3097 46.7049 10.2557 47.0089 10.2159C47.4066 10.1648 47.729 10.1264 47.9762 10.1009C48.2262 10.0724 48.408 10.0256 48.5217 9.96023C48.6381 9.89489 48.6964 9.78125 48.6964 9.61932V9.58523C48.6964 9.16477 48.5813 8.83807 48.3512 8.60511C48.1239 8.37216 47.7788 8.25568 47.3157 8.25568C46.8356 8.25568 46.4592 8.3608 46.1864 8.57102C45.9137 8.78125 45.7219 9.00568 45.6112 9.24432L44.6566 8.90341C44.8271 8.50568 45.0543 8.19602 45.3384 7.97443C45.6254 7.75 45.9379 7.59375 46.2759 7.50568C46.6168 7.41477 46.9521 7.36932 47.2816 7.36932C47.4918 7.36932 47.7333 7.39489 48.006 7.44602C48.2816 7.49432 48.5472 7.59517 48.8029 7.74858C49.0614 7.90199 49.2759 8.13352 49.4464 8.44318C49.6168 8.75284 49.7021 9.16761 49.7021 9.6875V14H48.6964V13.1136H48.6452C48.5771 13.2557 48.4634 13.4077 48.3043 13.5696C48.1452 13.7315 47.9336 13.8693 47.6694 13.983C47.4052 14.0966 47.0827 14.1534 46.7021 14.1534ZM46.8555 13.25C47.2532 13.25 47.5884 13.1719 47.8612 13.0156C48.1367 12.8594 48.3441 12.6577 48.4833 12.4105C48.6254 12.1634 48.6964 11.9034 48.6964 11.6307V10.7102C48.6538 10.7614 48.56 10.8082 48.4151 10.8509C48.2731 10.8906 48.1083 10.9261 47.9208 10.9574C47.7362 10.9858 47.5558 11.0114 47.3796 11.0341C47.2063 11.054 47.0657 11.071 46.9577 11.0852C46.6964 11.1193 46.4521 11.1747 46.2248 11.2514C46.0004 11.3253 45.8185 11.4375 45.6793 11.5881C45.543 11.7358 45.4748 11.9375 45.4748 12.1932C45.4748 12.5426 45.604 12.8068 45.8626 12.9858C46.1239 13.1619 46.4549 13.25 46.8555 13.25ZM52.5433 5.27273V14H51.5376V5.27273H52.5433ZM63.8626 8C63.7688 7.71307 63.6452 7.45597 63.4918 7.22869C63.3413 6.99858 63.1609 6.80256 62.9506 6.64062C62.7433 6.47869 62.5075 6.35511 62.2433 6.26989C61.979 6.18466 61.6893 6.14205 61.3739 6.14205C60.8569 6.14205 60.3867 6.27557 59.9634 6.54261C59.5401 6.80966 59.2035 7.20312 58.9535 7.72301C58.7035 8.2429 58.5785 8.88068 58.5785 9.63636C58.5785 10.392 58.7049 11.0298 58.9577 11.5497C59.2106 12.0696 59.5529 12.4631 59.9847 12.7301C60.4165 12.9972 60.9023 13.1307 61.4421 13.1307C61.9421 13.1307 62.3825 13.0241 62.7631 12.8111C63.1467 12.5952 63.445 12.2912 63.658 11.8991C63.8739 11.5043 63.9819 11.0398 63.9819 10.5057L64.3058 10.5739H61.6808V9.63636H65.0046V10.5739C65.0046 11.2926 64.8512 11.9176 64.5444 12.4489C64.2404 12.9801 63.82 13.392 63.283 13.6847C62.7489 13.9744 62.1353 14.1193 61.4421 14.1193C60.6694 14.1193 59.9904 13.9375 59.4052 13.5739C58.8228 13.2102 58.3683 12.6932 58.0415 12.0227C57.7177 11.3523 57.5558 10.5568 57.5558 9.63636C57.5558 8.94602 57.6481 8.32528 57.8327 7.77415C58.0202 7.22017 58.2844 6.74858 58.6254 6.35938C58.9663 5.97017 59.3697 5.67188 59.8356 5.46449C60.3015 5.2571 60.8143 5.15341 61.3739 5.15341C61.8342 5.15341 62.2631 5.22301 62.6609 5.36222C63.0614 5.49858 63.418 5.69318 63.7305 5.94602C64.0458 6.19602 64.3086 6.49574 64.5188 6.84517C64.729 7.19176 64.8739 7.5767 64.9535 8H63.8626ZM67.6839 5.27273V14H66.6783V5.27273H67.6839ZM72.185 14.1364C71.5941 14.1364 71.0756 13.9957 70.6296 13.7145C70.1864 13.4332 69.8398 13.0398 69.5898 12.5341C69.3427 12.0284 69.2191 11.4375 69.2191 10.7614C69.2191 10.0795 69.3427 9.48437 69.5898 8.97585C69.8398 8.46733 70.1864 8.07244 70.6296 7.79119C71.0756 7.50994 71.5941 7.36932 72.185 7.36932C72.7759 7.36932 73.293 7.50994 73.7362 7.79119C74.1822 8.07244 74.5288 8.46733 74.7759 8.97585C75.0259 9.48437 75.1509 10.0795 75.1509 10.7614C75.1509 11.4375 75.0259 12.0284 74.7759 12.5341C74.5288 13.0398 74.1822 13.4332 73.7362 13.7145C73.293 13.9957 72.7759 14.1364 72.185 14.1364ZM72.185 13.233C72.6339 13.233 73.0032 13.1179 73.293 12.8878C73.5827 12.6577 73.7972 12.3551 73.9364 11.9801C74.0756 11.6051 74.1452 11.1989 74.1452 10.7614C74.1452 10.3239 74.0756 9.91619 73.9364 9.53835C73.7972 9.16051 73.5827 8.85511 73.293 8.62216C73.0032 8.3892 72.6339 8.27273 72.185 8.27273C71.7362 8.27273 71.3668 8.3892 71.0771 8.62216C70.7873 8.85511 70.5728 9.16051 70.4336 9.53835C70.2944 9.91619 70.2248 10.3239 70.2248 10.7614C70.2248 11.1989 70.2944 11.6051 70.4336 11.9801C70.5728 12.3551 70.7873 12.6577 71.0771 12.8878C71.3668 13.1179 71.7362 13.233 72.185 13.233ZM77.9464 14L75.9521 7.45455H77.0089L78.4237 12.4659H78.4918L79.8896 7.45455H80.9634L82.3441 12.4489H82.4123L83.8271 7.45455H84.8839L82.8896 14H81.9009L80.4691 8.97159H80.3668L78.935 14H77.9464ZM90.0827 14H88.9748L92.1793 5.27273H93.2702L96.4748 14H95.3668L92.7589 6.65341H92.6907L90.0827 14ZM90.4918 10.5909H94.9577V11.5284H90.4918V10.5909ZM100.357 14.1364C99.7433 14.1364 99.2148 13.9915 98.7717 13.7017C98.3285 13.4119 97.9876 13.0128 97.7489 12.5043C97.5103 11.9957 97.391 11.4148 97.391 10.7614C97.391 10.0966 97.5131 9.50994 97.7575 9.00142C98.0046 8.49006 98.3484 8.09091 98.7887 7.80398C99.2319 7.5142 99.7489 7.36932 100.34 7.36932C100.8 7.36932 101.215 7.45455 101.584 7.625C101.953 7.79545 102.256 8.03409 102.492 8.34091C102.728 8.64773 102.874 9.00568 102.931 9.41477H101.925C101.848 9.11648 101.678 8.85227 101.414 8.62216C101.152 8.3892 100.8 8.27273 100.357 8.27273C99.9648 8.27273 99.6211 8.375 99.3256 8.57955C99.033 8.78125 98.8043 9.06676 98.6396 9.43608C98.4776 9.80256 98.3967 10.233 98.3967 10.7273C98.3967 11.233 98.4762 11.6733 98.6353 12.0483C98.7972 12.4233 99.0245 12.7145 99.3171 12.9219C99.6126 13.1293 99.9592 13.233 100.357 13.233C100.618 13.233 100.855 13.1875 101.069 13.0966C101.282 13.0057 101.462 12.875 101.61 12.7045C101.757 12.5341 101.863 12.3295 101.925 12.0909H102.931C102.874 12.4773 102.733 12.8253 102.509 13.1349C102.287 13.4418 101.993 13.6861 101.627 13.8679C101.263 14.0469 100.84 14.1364 100.357 14.1364ZM105.407 10.0625V14H104.401V7.45455H105.373V8.47727H105.458C105.611 8.14489 105.844 7.87784 106.157 7.67614C106.469 7.47159 106.873 7.36932 107.367 7.36932C107.81 7.36932 108.198 7.46023 108.53 7.64205C108.863 7.82102 109.121 8.09375 109.306 8.46023C109.49 8.82386 109.583 9.28409 109.583 9.84091V14H108.577V9.90909C108.577 9.39489 108.444 8.99432 108.176 8.70739C107.909 8.41761 107.543 8.27273 107.077 8.27273C106.756 8.27273 106.469 8.34233 106.216 8.48153C105.966 8.62074 105.769 8.82386 105.624 9.09091C105.479 9.35795 105.407 9.68182 105.407 10.0625ZM114.165 14.1364C113.534 14.1364 112.99 13.9972 112.533 13.7188C112.078 13.4375 111.727 13.0455 111.48 12.5426C111.236 12.0369 111.114 11.4489 111.114 10.7784C111.114 10.108 111.236 9.51705 111.48 9.00568C111.727 8.49148 112.071 8.09091 112.511 7.80398C112.955 7.5142 113.472 7.36932 114.062 7.36932C114.403 7.36932 114.74 7.42614 115.072 7.53977C115.405 7.65341 115.707 7.83807 115.98 8.09375C116.253 8.34659 116.47 8.68182 116.632 9.09943C116.794 9.51705 116.875 10.0312 116.875 10.642V11.0682H111.83V10.1989H115.852C115.852 9.82955 115.778 9.5 115.631 9.21023C115.486 8.92045 115.278 8.69176 115.009 8.52415C114.741 8.35653 114.426 8.27273 114.062 8.27273C113.662 8.27273 113.315 8.37216 113.023 8.57102C112.733 8.76705 112.51 9.02273 112.354 9.33807C112.197 9.65341 112.119 9.99148 112.119 10.3523V10.9318C112.119 11.4261 112.205 11.8452 112.375 12.1889C112.548 12.5298 112.788 12.7898 113.095 12.9688C113.402 13.1449 113.759 13.233 114.165 13.233C114.429 13.233 114.668 13.196 114.881 13.1222C115.097 13.0455 115.283 12.9318 115.439 12.7812C115.595 12.6278 115.716 12.4375 115.801 12.2102L116.773 12.483C116.67 12.8125 116.499 13.1023 116.257 13.3523C116.016 13.5994 115.717 13.7926 115.362 13.9318C115.007 14.0682 114.608 14.1364 114.165 14.1364Z" fill="#454545"/>
<circle cx="142.5" cy="10" r="5" fill="url(#paint1_linear_552_2702)"/>
<path d="M163.33 7.45455C163.278 7.02273 163.071 6.6875 162.707 6.44886C162.344 6.21023 161.898 6.09091 161.369 6.09091C160.983 6.09091 160.645 6.15341 160.355 6.27841C160.068 6.40341 159.844 6.57528 159.682 6.79403C159.523 7.01278 159.443 7.26136 159.443 7.53977C159.443 7.77273 159.499 7.97301 159.609 8.14062C159.723 8.3054 159.868 8.44318 160.044 8.55398C160.22 8.66193 160.405 8.75142 160.598 8.82244C160.791 8.89062 160.969 8.94602 161.131 8.98864L162.017 9.22727C162.244 9.28693 162.497 9.36932 162.776 9.47443C163.057 9.57955 163.325 9.72301 163.581 9.90483C163.839 10.0838 164.053 10.3139 164.22 10.5952C164.388 10.8764 164.472 11.2216 164.472 11.6307C164.472 12.1023 164.348 12.5284 164.101 12.9091C163.857 13.2898 163.499 13.5923 163.027 13.8168C162.558 14.0412 161.989 14.1534 161.318 14.1534C160.693 14.1534 160.152 14.0526 159.695 13.8509C159.24 13.6491 158.882 13.3679 158.621 13.0071C158.362 12.6463 158.216 12.2273 158.182 11.75H159.273C159.301 12.0795 159.412 12.3523 159.605 12.5682C159.801 12.7812 160.048 12.9403 160.347 13.0455C160.648 13.1477 160.972 13.1989 161.318 13.1989C161.722 13.1989 162.084 13.1335 162.405 13.0028C162.726 12.8693 162.98 12.6847 163.168 12.4489C163.355 12.2102 163.449 11.9318 163.449 11.6136C163.449 11.3239 163.368 11.0881 163.206 10.9062C163.044 10.7244 162.831 10.5767 162.567 10.4631C162.303 10.3494 162.017 10.25 161.71 10.1648L160.636 9.85795C159.955 9.66193 159.415 9.3821 159.017 9.01847C158.619 8.65483 158.42 8.17898 158.42 7.59091C158.42 7.10227 158.553 6.67614 158.817 6.3125C159.084 5.94602 159.442 5.66193 159.891 5.46023C160.342 5.25568 160.847 5.15341 161.403 5.15341C161.966 5.15341 162.466 5.25426 162.903 5.45597C163.341 5.65483 163.688 5.92756 163.943 6.27415C164.202 6.62074 164.338 7.0142 164.352 7.45455H163.33ZM170.198 11.3239V7.45455H171.203V14H170.198V12.892H170.13C169.976 13.2244 169.738 13.5071 169.414 13.7401C169.09 13.9702 168.681 14.0852 168.186 14.0852C167.777 14.0852 167.414 13.9957 167.096 13.8168C166.777 13.6349 166.527 13.3622 166.346 12.9986C166.164 12.6321 166.073 12.1705 166.073 11.6136V7.45455H167.078V11.5455C167.078 12.0227 167.212 12.4034 167.479 12.6875C167.749 12.9716 168.093 13.1136 168.51 13.1136C168.76 13.1136 169.015 13.0497 169.273 12.9219C169.534 12.794 169.753 12.598 169.929 12.3338C170.108 12.0696 170.198 11.733 170.198 11.3239ZM174.051 10.0625V14H173.045V7.45455H174.017V8.47727H174.102C174.256 8.14489 174.489 7.87784 174.801 7.67614C175.114 7.47159 175.517 7.36932 176.011 7.36932C176.455 7.36932 176.842 7.46023 177.175 7.64205C177.507 7.82102 177.766 8.09375 177.95 8.46023C178.135 8.82386 178.227 9.28409 178.227 9.84091V14H177.222V9.90909C177.222 9.39489 177.088 8.99432 176.821 8.70739C176.554 8.41761 176.188 8.27273 175.722 8.27273C175.401 8.27273 175.114 8.34233 174.861 8.48153C174.611 8.62074 174.413 8.82386 174.268 9.09091C174.124 9.35795 174.051 9.68182 174.051 10.0625ZM184.701 8.92045L183.798 9.17614C183.741 9.02557 183.657 8.87926 183.547 8.73722C183.439 8.59233 183.291 8.47301 183.103 8.37926C182.916 8.28551 182.676 8.23864 182.383 8.23864C181.983 8.23864 181.649 8.33097 181.382 8.51562C181.118 8.69744 180.985 8.92898 180.985 9.21023C180.985 9.46023 181.076 9.65767 181.258 9.80256C181.44 9.94744 181.724 10.0682 182.11 10.1648L183.082 10.4034C183.667 10.5455 184.103 10.7628 184.39 11.0554C184.677 11.3452 184.821 11.7187 184.821 12.1761C184.821 12.5511 184.713 12.8864 184.497 13.1818C184.284 13.4773 183.985 13.7102 183.602 13.8807C183.218 14.0511 182.772 14.1364 182.264 14.1364C181.596 14.1364 181.044 13.9915 180.606 13.7017C180.169 13.4119 179.892 12.9886 179.775 12.4318L180.73 12.1932C180.821 12.5455 180.993 12.8097 181.245 12.9858C181.501 13.1619 181.835 13.25 182.247 13.25C182.716 13.25 183.088 13.1506 183.363 12.9517C183.642 12.75 183.781 12.5085 183.781 12.2273C183.781 12 183.701 11.8097 183.542 11.6562C183.383 11.5 183.139 11.3835 182.809 11.3068L181.718 11.0511C181.119 10.9091 180.679 10.6889 180.397 10.3906C180.119 10.0895 179.98 9.71307 179.98 9.26136C179.98 8.89205 180.083 8.56534 180.291 8.28125C180.501 7.99716 180.787 7.77415 181.147 7.61222C181.511 7.45028 181.923 7.36932 182.383 7.36932C183.031 7.36932 183.539 7.51136 183.909 7.79545C184.281 8.07955 184.545 8.45455 184.701 8.92045ZM188.994 14.1364C188.38 14.1364 187.852 13.9915 187.408 13.7017C186.965 13.4119 186.624 13.0128 186.386 12.5043C186.147 11.9957 186.028 11.4148 186.028 10.7614C186.028 10.0966 186.15 9.50994 186.394 9.00142C186.641 8.49006 186.985 8.09091 187.425 7.80398C187.869 7.5142 188.386 7.36932 188.977 7.36932C189.437 7.36932 189.852 7.45455 190.221 7.625C190.59 7.79545 190.893 8.03409 191.129 8.34091C191.364 8.64773 191.511 9.00568 191.567 9.41477H190.562C190.485 9.11648 190.315 8.85227 190.05 8.62216C189.789 8.3892 189.437 8.27273 188.994 8.27273C188.602 8.27273 188.258 8.375 187.962 8.57955C187.67 8.78125 187.441 9.06676 187.276 9.43608C187.114 9.80256 187.033 10.233 187.033 10.7273C187.033 11.233 187.113 11.6733 187.272 12.0483C187.434 12.4233 187.661 12.7145 187.954 12.9219C188.249 13.1293 188.596 13.233 188.994 13.233C189.255 13.233 189.492 13.1875 189.705 13.0966C189.918 13.0057 190.099 12.875 190.246 12.7045C190.394 12.5341 190.499 12.3295 190.562 12.0909H191.567C191.511 12.4773 191.37 12.8253 191.146 13.1349C190.924 13.4418 190.63 13.6861 190.263 13.8679C189.9 14.0469 189.477 14.1364 188.994 14.1364ZM193.038 14V7.45455H194.009V8.44318H194.077C194.197 8.11932 194.413 7.85653 194.725 7.65483C195.038 7.45312 195.39 7.35227 195.782 7.35227C195.856 7.35227 195.948 7.35369 196.059 7.35653C196.17 7.35937 196.254 7.36364 196.31 7.36932V8.39205C196.276 8.38352 196.198 8.37074 196.076 8.35369C195.957 8.33381 195.83 8.32386 195.697 8.32386C195.379 8.32386 195.094 8.39062 194.844 8.52415C194.597 8.65483 194.401 8.83665 194.256 9.0696C194.114 9.29972 194.043 9.5625 194.043 9.85795V14H193.038ZM200.048 14.1364C199.417 14.1364 198.873 13.9972 198.415 13.7188C197.961 13.4375 197.61 13.0455 197.363 12.5426C197.119 12.0369 196.996 11.4489 196.996 10.7784C196.996 10.108 197.119 9.51705 197.363 9.00568C197.61 8.49148 197.954 8.09091 198.394 7.80398C198.837 7.5142 199.354 7.36932 199.945 7.36932C200.286 7.36932 200.623 7.42614 200.955 7.53977C201.288 7.65341 201.59 7.83807 201.863 8.09375C202.136 8.34659 202.353 8.68182 202.515 9.09943C202.677 9.51705 202.758 10.0312 202.758 10.642V11.0682H197.712V10.1989H201.735C201.735 9.82955 201.661 9.5 201.513 9.21023C201.369 8.92045 201.161 8.69176 200.891 8.52415C200.624 8.35653 200.309 8.27273 199.945 8.27273C199.545 8.27273 199.198 8.37216 198.906 8.57102C198.616 8.76705 198.393 9.02273 198.237 9.33807C198.08 9.65341 198.002 9.99148 198.002 10.3523V10.9318C198.002 11.4261 198.087 11.8452 198.258 12.1889C198.431 12.5298 198.671 12.7898 198.978 12.9688C199.285 13.1449 199.641 13.233 200.048 13.233C200.312 13.233 200.55 13.196 200.763 13.1222C200.979 13.0455 201.165 12.9318 201.322 12.7812C201.478 12.6278 201.599 12.4375 201.684 12.2102L202.656 12.483C202.553 12.8125 202.381 13.1023 202.14 13.3523C201.898 13.5994 201.6 13.7926 201.245 13.9318C200.89 14.0682 200.491 14.1364 200.048 14.1364ZM207.032 14.1364C206.401 14.1364 205.857 13.9972 205.4 13.7188C204.945 13.4375 204.594 13.0455 204.347 12.5426C204.103 12.0369 203.981 11.4489 203.981 10.7784C203.981 10.108 204.103 9.51705 204.347 9.00568C204.594 8.49148 204.938 8.09091 205.379 7.80398C205.822 7.5142 206.339 7.36932 206.93 7.36932C207.271 7.36932 207.607 7.42614 207.94 7.53977C208.272 7.65341 208.575 7.83807 208.847 8.09375C209.12 8.34659 209.337 8.68182 209.499 9.09943C209.661 9.51705 209.742 10.0312 209.742 10.642V11.0682H204.697V10.1989H208.719C208.719 9.82955 208.646 9.5 208.498 9.21023C208.353 8.92045 208.146 8.69176 207.876 8.52415C207.609 8.35653 207.293 8.27273 206.93 8.27273C206.529 8.27273 206.183 8.37216 205.89 8.57102C205.6 8.76705 205.377 9.02273 205.221 9.33807C205.065 9.65341 204.987 9.99148 204.987 10.3523V10.9318C204.987 11.4261 205.072 11.8452 205.242 12.1889C205.415 12.5298 205.656 12.7898 205.962 12.9688C206.269 13.1449 206.626 13.233 207.032 13.233C207.296 13.233 207.535 13.196 207.748 13.1222C207.964 13.0455 208.15 12.9318 208.306 12.7812C208.462 12.6278 208.583 12.4375 208.668 12.2102L209.64 12.483C209.538 12.8125 209.366 13.1023 209.124 13.3523C208.883 13.5994 208.585 13.7926 208.229 13.9318C207.874 14.0682 207.475 14.1364 207.032 14.1364ZM212.278 10.0625V14H211.272V7.45455H212.244V8.47727H212.329C212.482 8.14489 212.715 7.87784 213.028 7.67614C213.34 7.47159 213.744 7.36932 214.238 7.36932C214.681 7.36932 215.069 7.46023 215.401 7.64205C215.734 7.82102 215.992 8.09375 216.177 8.46023C216.362 8.82386 216.454 9.28409 216.454 9.84091V14H215.448V9.90909C215.448 9.39489 215.315 8.99432 215.048 8.70739C214.781 8.41761 214.414 8.27273 213.948 8.27273C213.627 8.27273 213.34 8.34233 213.087 8.48153C212.837 8.62074 212.64 8.82386 212.495 9.09091C212.35 9.35795 212.278 9.68182 212.278 10.0625Z" fill="#454545"/>
<circle cx="242.5" cy="10" r="5" fill="url(#paint2_linear_552_2702)"/>
<path d="M258.557 14V5.27273H263.79V6.21023H259.614V9.15909H263.398V10.0966H259.614V14H258.557ZM267.39 14.1534C266.975 14.1534 266.598 14.0753 266.26 13.919C265.922 13.7599 265.654 13.5312 265.455 13.233C265.256 12.9318 265.157 12.5682 265.157 12.142C265.157 11.767 265.23 11.4631 265.378 11.2301C265.526 10.9943 265.723 10.8097 265.971 10.6761C266.218 10.5426 266.49 10.4432 266.789 10.3778C267.09 10.3097 267.392 10.2557 267.696 10.2159C268.094 10.1648 268.417 10.1264 268.664 10.1009C268.914 10.0724 269.096 10.0256 269.209 9.96023C269.326 9.89489 269.384 9.78125 269.384 9.61932V9.58523C269.384 9.16477 269.269 8.83807 269.039 8.60511C268.811 8.37216 268.466 8.25568 268.003 8.25568C267.523 8.25568 267.147 8.3608 266.874 8.57102C266.601 8.78125 266.409 9.00568 266.299 9.24432L265.344 8.90341C265.515 8.50568 265.742 8.19602 266.026 7.97443C266.313 7.75 266.625 7.59375 266.963 7.50568C267.304 7.41477 267.64 7.36932 267.969 7.36932C268.179 7.36932 268.421 7.39489 268.694 7.44602C268.969 7.49432 269.235 7.59517 269.49 7.74858C269.749 7.90199 269.963 8.13352 270.134 8.44318C270.304 8.75284 270.39 9.16761 270.39 9.6875V14H269.384V13.1136H269.333C269.265 13.2557 269.151 13.4077 268.992 13.5696C268.833 13.7315 268.621 13.8693 268.357 13.983C268.093 14.0966 267.77 14.1534 267.39 14.1534ZM267.543 13.25C267.941 13.25 268.276 13.1719 268.549 13.0156C268.824 12.8594 269.032 12.6577 269.171 12.4105C269.313 12.1634 269.384 11.9034 269.384 11.6307V10.7102C269.341 10.7614 269.248 10.8082 269.103 10.8509C268.961 10.8906 268.796 10.9261 268.608 10.9574C268.424 10.9858 268.243 11.0114 268.067 11.0341C267.894 11.054 267.753 11.071 267.645 11.0852C267.384 11.1193 267.14 11.1747 266.912 11.2514C266.688 11.3253 266.506 11.4375 266.367 11.5881C266.23 11.7358 266.162 11.9375 266.162 12.1932C266.162 12.5426 266.292 12.8068 266.55 12.9858C266.811 13.1619 267.142 13.25 267.543 13.25ZM274.884 14.1364C274.271 14.1364 273.742 13.9915 273.299 13.7017C272.856 13.4119 272.515 13.0128 272.276 12.5043C272.038 11.9957 271.918 11.4148 271.918 10.7614C271.918 10.0966 272.04 9.50994 272.285 9.00142C272.532 8.49006 272.876 8.09091 273.316 7.80398C273.759 7.5142 274.276 7.36932 274.867 7.36932C275.327 7.36932 275.742 7.45455 276.112 7.625C276.481 7.79545 276.783 8.03409 277.019 8.34091C277.255 8.64773 277.401 9.00568 277.458 9.41477H276.452C276.376 9.11648 276.205 8.85227 275.941 8.62216C275.68 8.3892 275.327 8.27273 274.884 8.27273C274.492 8.27273 274.148 8.375 273.853 8.57955C273.56 8.78125 273.332 9.06676 273.167 9.43608C273.005 9.80256 272.924 10.233 272.924 10.7273C272.924 11.233 273.004 11.6733 273.163 12.0483C273.325 12.4233 273.552 12.7145 273.844 12.9219C274.14 13.1293 274.487 13.233 274.884 13.233C275.146 13.233 275.383 13.1875 275.596 13.0966C275.809 13.0057 275.989 12.875 276.137 12.7045C276.285 12.5341 276.39 12.3295 276.452 12.0909H277.458C277.401 12.4773 277.261 12.8253 277.036 13.1349C276.815 13.4418 276.521 13.6861 276.154 13.8679C275.79 14.0469 275.367 14.1364 274.884 14.1364ZM278.928 14V7.45455H279.934V14H278.928ZM279.44 6.36364C279.244 6.36364 279.075 6.29688 278.933 6.16335C278.793 6.02983 278.724 5.86932 278.724 5.68182C278.724 5.49432 278.793 5.33381 278.933 5.20028C279.075 5.06676 279.244 5 279.44 5C279.636 5 279.803 5.06676 279.942 5.20028C280.085 5.33381 280.156 5.49432 280.156 5.68182C280.156 5.86932 280.085 6.02983 279.942 6.16335C279.803 6.29688 279.636 6.36364 279.44 6.36364ZM283.702 14.1534C283.287 14.1534 282.911 14.0753 282.573 13.919C282.235 13.7599 281.966 13.5312 281.767 13.233C281.569 12.9318 281.469 12.5682 281.469 12.142C281.469 11.767 281.543 11.4631 281.691 11.2301C281.838 10.9943 282.036 10.8097 282.283 10.6761C282.53 10.5426 282.803 10.4432 283.101 10.3778C283.402 10.3097 283.705 10.2557 284.009 10.2159C284.407 10.1648 284.729 10.1264 284.976 10.1009C285.226 10.0724 285.408 10.0256 285.522 9.96023C285.638 9.89489 285.696 9.78125 285.696 9.61932V9.58523C285.696 9.16477 285.581 8.83807 285.351 8.60511C285.124 8.37216 284.779 8.25568 284.316 8.25568C283.836 8.25568 283.459 8.3608 283.186 8.57102C282.914 8.78125 282.722 9.00568 282.611 9.24432L281.657 8.90341C281.827 8.50568 282.054 8.19602 282.338 7.97443C282.625 7.75 282.938 7.59375 283.276 7.50568C283.617 7.41477 283.952 7.36932 284.282 7.36932C284.492 7.36932 284.733 7.39489 285.006 7.44602C285.282 7.49432 285.547 7.59517 285.803 7.74858C286.061 7.90199 286.276 8.13352 286.446 8.44318C286.617 8.75284 286.702 9.16761 286.702 9.6875V14H285.696V13.1136H285.645C285.577 13.2557 285.463 13.4077 285.304 13.5696C285.145 13.7315 284.934 13.8693 284.669 13.983C284.405 14.0966 284.083 14.1534 283.702 14.1534ZM283.855 13.25C284.253 13.25 284.588 13.1719 284.861 13.0156C285.137 12.8594 285.344 12.6577 285.483 12.4105C285.625 12.1634 285.696 11.9034 285.696 11.6307V10.7102C285.654 10.7614 285.56 10.8082 285.415 10.8509C285.273 10.8906 285.108 10.9261 284.921 10.9574C284.736 10.9858 284.556 11.0114 284.38 11.0341C284.206 11.054 284.066 11.071 283.958 11.0852C283.696 11.1193 283.452 11.1747 283.225 11.2514C283 11.3253 282.819 11.4375 282.679 11.5881C282.543 11.7358 282.475 11.9375 282.475 12.1932C282.475 12.5426 282.604 12.8068 282.863 12.9858C283.124 13.1619 283.455 13.25 283.855 13.25ZM289.543 5.27273V14H288.538V5.27273H289.543ZM300.863 8C300.769 7.71307 300.645 7.45597 300.492 7.22869C300.341 6.99858 300.161 6.80256 299.951 6.64062C299.743 6.47869 299.507 6.35511 299.243 6.26989C298.979 6.18466 298.689 6.14205 298.374 6.14205C297.857 6.14205 297.387 6.27557 296.963 6.54261C296.54 6.80966 296.203 7.20312 295.953 7.72301C295.703 8.2429 295.578 8.88068 295.578 9.63636C295.578 10.392 295.705 11.0298 295.958 11.5497C296.211 12.0696 296.553 12.4631 296.985 12.7301C297.417 12.9972 297.902 13.1307 298.442 13.1307C298.942 13.1307 299.382 13.0241 299.763 12.8111C300.147 12.5952 300.445 12.2912 300.658 11.8991C300.874 11.5043 300.982 11.0398 300.982 10.5057L301.306 10.5739H298.681V9.63636H302.005V10.5739C302.005 11.2926 301.851 11.9176 301.544 12.4489C301.24 12.9801 300.82 13.392 300.283 13.6847C299.749 13.9744 299.135 14.1193 298.442 14.1193C297.669 14.1193 296.99 13.9375 296.405 13.5739C295.823 13.2102 295.368 12.6932 295.042 12.0227C294.718 11.3523 294.556 10.5568 294.556 9.63636C294.556 8.94602 294.648 8.32528 294.833 7.77415C295.02 7.22017 295.284 6.74858 295.625 6.35938C295.966 5.97017 296.37 5.67188 296.836 5.46449C297.301 5.2571 297.814 5.15341 298.374 5.15341C298.834 5.15341 299.263 5.22301 299.661 5.36222C300.061 5.49858 300.418 5.69318 300.73 5.94602C301.046 6.19602 301.309 6.49574 301.519 6.84517C301.729 7.19176 301.874 7.5767 301.953 8H300.863ZM306.337 14.1364C305.746 14.1364 305.228 13.9957 304.782 13.7145C304.339 13.4332 303.992 13.0398 303.742 12.5341C303.495 12.0284 303.371 11.4375 303.371 10.7614C303.371 10.0795 303.495 9.48437 303.742 8.97585C303.992 8.46733 304.339 8.07244 304.782 7.79119C305.228 7.50994 305.746 7.36932 306.337 7.36932C306.928 7.36932 307.445 7.50994 307.888 7.79119C308.335 8.07244 308.681 8.46733 308.928 8.97585C309.178 9.48437 309.303 10.0795 309.303 10.7614C309.303 11.4375 309.178 12.0284 308.928 12.5341C308.681 13.0398 308.335 13.4332 307.888 13.7145C307.445 13.9957 306.928 14.1364 306.337 14.1364ZM306.337 13.233C306.786 13.233 307.156 13.1179 307.445 12.8878C307.735 12.6577 307.95 12.3551 308.089 11.9801C308.228 11.6051 308.298 11.1989 308.298 10.7614C308.298 10.3239 308.228 9.91619 308.089 9.53835C307.95 9.16051 307.735 8.85511 307.445 8.62216C307.156 8.3892 306.786 8.27273 306.337 8.27273C305.888 8.27273 305.519 8.3892 305.229 8.62216C304.94 8.85511 304.725 9.16051 304.586 9.53835C304.447 9.91619 304.377 10.3239 304.377 10.7614C304.377 11.1989 304.447 11.6051 304.586 11.9801C304.725 12.3551 304.94 12.6577 305.229 12.8878C305.519 13.1179 305.888 13.233 306.337 13.233ZM311.844 5.27273V14H310.838V5.27273H311.844ZM316.158 14.1364C315.612 14.1364 315.131 13.9986 314.713 13.723C314.295 13.4446 313.969 13.0526 313.733 12.5469C313.497 12.0384 313.379 11.4375 313.379 10.7443C313.379 10.0568 313.497 9.46023 313.733 8.95455C313.969 8.44886 314.297 8.05824 314.717 7.78267C315.138 7.5071 315.624 7.36932 316.175 7.36932C316.601 7.36932 316.938 7.44034 317.185 7.58239C317.435 7.72159 317.625 7.88068 317.756 8.05966C317.889 8.2358 317.993 8.38068 318.067 8.49432H318.152V5.27273H319.158V14H318.186V12.9943H318.067C317.993 13.1136 317.888 13.2642 317.751 13.446C317.615 13.625 317.42 13.7855 317.168 13.9276C316.915 14.0668 316.578 14.1364 316.158 14.1364ZM316.294 13.233C316.697 13.233 317.038 13.1278 317.317 12.9176C317.595 12.7045 317.807 12.4105 317.952 12.0355C318.097 11.6577 318.169 11.2216 318.169 10.7273C318.169 10.2386 318.098 9.81108 317.956 9.4446C317.814 9.07528 317.604 8.78835 317.325 8.58381C317.047 8.37642 316.703 8.27273 316.294 8.27273C315.868 8.27273 315.513 8.3821 315.229 8.60085C314.947 8.81676 314.736 9.1108 314.594 9.48295C314.455 9.85227 314.385 10.267 314.385 10.7273C314.385 11.1932 314.456 11.6165 314.598 11.9972C314.743 12.375 314.956 12.6761 315.237 12.9006C315.521 13.1222 315.874 13.233 316.294 13.233Z" fill="#454545"/>
<defs>
<linearGradient id="paint0_linear_552_2702" x1="5.44535" y1="5" x2="5.69985" y2="14.9963" gradientUnits="userSpaceOnUse">
<stop stop-color="#280594"/>
<stop offset="1" stop-color="#F8A39B"/>
</linearGradient>
<linearGradient id="paint1_linear_552_2702" x1="141.758" y1="15" x2="141.764" y2="4.99914" gradientUnits="userSpaceOnUse">
<stop stop-color="#FFC120"/>
<stop offset="1" stop-color="#F8A39B"/>
</linearGradient>
<linearGradient id="paint2_linear_552_2702" x1="242.5" y1="5" x2="242.5" y2="15" gradientUnits="userSpaceOnUse">
<stop stop-color="#FF708C"/>
<stop offset="1" stop-color="#A7B5FF"/>
</linearGradient>
</defs>
</svg>
