<svg width="335" height="304" viewBox="0 0 335 304" fill="none" xmlns="http://www.w3.org/2000/svg">
<rect width="335" height="304" fill="white"/>
<line x1="54" y1="40.75" x2="304" y2="40.75" stroke="#DCDCDC" stroke-width="0.5"/>
<path d="M17.8835 36.2727V45H17.0866V37.108H17.0355L14.9901 38.4673V37.6406L17.0526 36.2727H17.8835ZM23.2443 45.1193C22.6307 45.1193 22.1065 44.9432 21.6719 44.5909C21.2401 44.2358 20.9077 43.723 20.6747 43.0526C20.4446 42.3821 20.3295 41.5767 20.3295 40.6364C20.3295 39.6989 20.4446 38.8963 20.6747 38.2287C20.9077 37.5582 21.2415 37.0455 21.6761 36.6903C22.1136 36.3324 22.6364 36.1534 23.2443 36.1534C23.8523 36.1534 24.3736 36.3324 24.8082 36.6903C25.2457 37.0455 25.5795 37.5582 25.8097 38.2287C26.0426 38.8963 26.1591 39.6989 26.1591 40.6364C26.1591 41.5767 26.0426 42.3821 25.8097 43.0526C25.5795 43.723 25.2472 44.2358 24.8125 44.5909C24.3807 44.9432 23.858 45.1193 23.2443 45.1193ZM23.2443 44.4034C23.9176 44.4034 24.4432 44.0753 24.821 43.419C25.1989 42.7599 25.3878 41.8324 25.3878 40.6364C25.3878 39.8409 25.3011 39.1619 25.1278 38.5994C24.9574 38.0341 24.7116 37.6023 24.3906 37.304C24.0724 37.0057 23.6903 36.8565 23.2443 36.8565C22.5767 36.8565 22.0526 37.1889 21.6719 37.8537C21.2912 38.5156 21.1009 39.4432 21.1009 40.6364C21.1009 41.4318 21.1861 42.1108 21.3565 42.6733C21.5298 43.2358 21.7756 43.6648 22.0938 43.9602C22.4148 44.2557 22.7983 44.4034 23.2443 44.4034ZM27.9318 38.4545H28.6946V45.6349C28.6946 46.0071 28.625 46.3281 28.4858 46.598C28.3494 46.8707 28.1506 47.081 27.8892 47.2287C27.6278 47.3793 27.3125 47.4545 26.9432 47.4545C26.9148 47.4545 26.8864 47.4545 26.858 47.4545C26.8295 47.4545 26.7983 47.4531 26.7642 47.4503L26.7727 46.7386C26.8011 46.7386 26.8281 46.7386 26.8537 46.7386C26.8793 46.7386 26.9063 46.7386 26.9347 46.7386C27.2472 46.7386 27.4915 46.642 27.6676 46.4489C27.8438 46.2557 27.9318 45.9844 27.9318 45.6349V38.4545ZM28.3068 37.3295C28.1534 37.3295 28.0199 37.277 27.9062 37.1719C27.7955 37.0639 27.7401 36.9347 27.7401 36.7841C27.7401 36.6335 27.7955 36.5057 27.9062 36.4006C28.0199 36.2926 28.1534 36.2386 28.3068 36.2386C28.4631 36.2386 28.5966 36.2926 28.7074 36.4006C28.821 36.5057 28.8778 36.6335 28.8778 36.7841C28.8778 36.9347 28.821 37.0639 28.7074 37.1719C28.5966 37.277 28.4631 37.3295 28.3068 37.3295ZM33.2788 38.4545V39.1151H30.1552V38.4545H33.2788ZM31.131 36.8864H31.8938V43.2912C31.8938 43.5639 31.9407 43.7784 32.0344 43.9347C32.1282 44.0881 32.2504 44.1974 32.4009 44.2628C32.5515 44.3253 32.712 44.3565 32.8825 44.3565C32.9819 44.3565 33.0671 44.3509 33.1381 44.3395C33.2092 44.3253 33.2717 44.3111 33.3256 44.2969L33.4876 44.983C33.4137 45.0114 33.3228 45.0369 33.2148 45.0597C33.1069 45.0852 32.9734 45.098 32.8143 45.098C32.5359 45.098 32.2674 45.0369 32.0089 44.9148C31.7532 44.7926 31.543 44.6108 31.3782 44.3693C31.2134 44.1278 31.131 43.8281 31.131 43.4702V36.8864Z" fill="#BDBDBD"/>
<line x1="54" y1="65.75" x2="304" y2="65.75" stroke="#DCDCDC" stroke-width="0.5"/>
<path d="M23.206 61.1534C23.5696 61.1562 23.9219 61.2301 24.2628 61.375C24.6065 61.517 24.9162 61.7472 25.1918 62.0653C25.4673 62.3807 25.6861 62.8011 25.848 63.3267C26.0099 63.8494 26.0909 64.4929 26.0909 65.2571C26.0909 65.9702 26.0284 66.6236 25.9034 67.2173C25.7784 67.8111 25.5909 68.3253 25.3409 68.7599C25.0938 69.1918 24.7813 69.527 24.4034 69.7656C24.0284 70.0014 23.5895 70.1193 23.0866 70.1193C22.6179 70.1193 22.2017 70.0213 21.8381 69.8253C21.4773 69.6293 21.1847 69.358 20.9602 69.0114C20.7358 68.6619 20.5966 68.2585 20.5426 67.8011H21.3267C21.4034 68.267 21.5909 68.6506 21.8892 68.9517C22.1903 69.2528 22.5895 69.4034 23.0866 69.4034C23.7997 69.4034 24.3537 69.071 24.7486 68.4062C25.1435 67.7415 25.3409 66.7955 25.3409 65.5682H25.2855C25.1491 65.8239 24.9702 66.0469 24.7486 66.2372C24.5298 66.4276 24.2798 66.5767 23.9986 66.6847C23.7173 66.7898 23.4205 66.8423 23.108 66.8423C22.6222 66.8423 22.1776 66.7202 21.7741 66.4759C21.3707 66.2287 21.0483 65.892 20.8068 65.4659C20.5653 65.0369 20.4446 64.5483 20.4446 64C20.4446 63.483 20.5582 63.0085 20.7855 62.5767C21.0156 62.142 21.3366 61.7955 21.7486 61.5369C22.1634 61.2756 22.6491 61.1477 23.206 61.1534ZM23.206 61.8693C22.8281 61.8693 22.4886 61.9659 22.1875 62.1591C21.8892 62.3494 21.652 62.6065 21.4759 62.9304C21.3026 63.2514 21.2159 63.608 21.2159 64C21.2159 64.3949 21.3026 64.7543 21.4759 65.0781C21.652 65.3991 21.8892 65.6548 22.1875 65.8452C22.4886 66.0327 22.8281 66.1264 23.206 66.1264C23.4957 66.1264 23.7656 66.0682 24.0156 65.9517C24.2656 65.8324 24.4815 65.6705 24.6634 65.4659C24.848 65.2614 24.9872 65.0298 25.081 64.7713C25.1776 64.5099 25.2159 64.2358 25.196 63.9489C25.1619 63.5511 25.0554 63.196 24.8764 62.8835C24.7003 62.5682 24.4673 62.321 24.1776 62.142C23.8906 61.9602 23.5668 61.8693 23.206 61.8693ZM27.9318 63.4545H28.6946V70.6349C28.6946 71.0071 28.625 71.3281 28.4858 71.598C28.3494 71.8707 28.1506 72.081 27.8892 72.2287C27.6278 72.3793 27.3125 72.4545 26.9432 72.4545C26.9148 72.4545 26.8864 72.4545 26.858 72.4545C26.8295 72.4545 26.7983 72.4531 26.7642 72.4503L26.7727 71.7386C26.8011 71.7386 26.8281 71.7386 26.8537 71.7386C26.8793 71.7386 26.9063 71.7386 26.9347 71.7386C27.2472 71.7386 27.4915 71.642 27.6676 71.4489C27.8438 71.2557 27.9318 70.9844 27.9318 70.6349V63.4545ZM28.3068 62.3295C28.1534 62.3295 28.0199 62.277 27.9062 62.1719C27.7955 62.0639 27.7401 61.9347 27.7401 61.7841C27.7401 61.6335 27.7955 61.5057 27.9062 61.4006C28.0199 61.2926 28.1534 61.2386 28.3068 61.2386C28.4631 61.2386 28.5966 61.2926 28.7074 61.4006C28.821 61.5057 28.8778 61.6335 28.8778 61.7841C28.8778 61.9347 28.821 62.0639 28.7074 62.1719C28.5966 62.277 28.4631 62.3295 28.3068 62.3295ZM33.2788 63.4545V64.1151H30.1552V63.4545H33.2788ZM31.131 61.8864H31.8938V68.2912C31.8938 68.5639 31.9407 68.7784 32.0344 68.9347C32.1282 69.0881 32.2504 69.1974 32.4009 69.2628C32.5515 69.3253 32.712 69.3565 32.8825 69.3565C32.9819 69.3565 33.0671 69.3509 33.1381 69.3395C33.2092 69.3253 33.2717 69.3111 33.3256 69.2969L33.4876 69.983C33.4137 70.0114 33.3228 70.0369 33.2148 70.0597C33.1069 70.0852 32.9734 70.098 32.8143 70.098C32.5359 70.098 32.2674 70.0369 32.0089 69.9148C31.7532 69.7926 31.543 69.6108 31.3782 69.3693C31.2134 69.1278 31.131 68.8281 31.131 68.4702V61.8864Z" fill="#BDBDBD"/>
<line x1="54" y1="90.75" x2="304" y2="90.75" stroke="#DCDCDC" stroke-width="0.5"/>
<path d="M23.2433 95.1193C22.6864 95.1193 22.1907 95.0142 21.756 94.804C21.3214 94.5937 20.9805 94.3068 20.7333 93.9432C20.4862 93.5767 20.3626 93.1634 20.3626 92.7031C20.3626 92.3423 20.4379 92.0057 20.5884 91.6932C20.739 91.3778 20.9464 91.1136 21.2106 90.9006C21.4748 90.6847 21.7717 90.544 22.1012 90.4787V90.4318C21.6722 90.3068 21.3271 90.0611 21.0657 89.6946C20.8043 89.3253 20.6751 88.9062 20.6779 88.4375C20.6751 88.0028 20.7859 87.6136 21.0103 87.2699C21.2347 86.9261 21.5401 86.6548 21.9265 86.456C22.3157 86.2543 22.7546 86.1534 23.2433 86.1534C23.729 86.1534 24.1651 86.2543 24.5515 86.456C24.9379 86.6548 25.2433 86.9261 25.4677 87.2699C25.695 87.6136 25.81 88.0028 25.8129 88.4375C25.81 88.9034 25.6779 89.3224 25.4165 89.6946C25.1552 90.0639 24.8114 90.3097 24.3853 90.4318V90.4787C24.7148 90.5412 25.0103 90.6804 25.2717 90.8963C25.533 91.1122 25.7404 91.3778 25.8938 91.6932C26.0472 92.0057 26.1239 92.3423 26.1239 92.7031C26.1239 93.1634 25.9989 93.5767 25.7489 93.9432C25.5018 94.3068 25.1609 94.5937 24.7262 94.804C24.2944 95.0142 23.8001 95.1193 23.2433 95.1193ZM23.2433 94.4034C23.658 94.4034 24.0217 94.3295 24.3342 94.1818C24.6495 94.0312 24.8952 93.8253 25.0714 93.5639C25.2504 93.3026 25.3398 93.0028 25.3398 92.6648C25.3398 92.3153 25.2475 92.0043 25.0629 91.7315C24.8782 91.456 24.6282 91.2386 24.3129 91.0795C23.9975 90.9176 23.641 90.8366 23.2433 90.8366C22.8455 90.8366 22.4876 90.9176 22.1694 91.0795C21.854 91.2386 21.604 91.456 21.4194 91.7315C21.2376 92.0043 21.1467 92.3153 21.1467 92.6648C21.1467 93.0028 21.2333 93.3026 21.4066 93.5639C21.5827 93.8253 21.8285 94.0312 22.1438 94.1818C22.462 94.3295 22.8285 94.4034 23.2433 94.4034ZM23.2433 90.1548C23.5842 90.1548 23.8896 90.0824 24.1594 89.9375C24.4293 89.7926 24.6424 89.5952 24.7987 89.3452C24.9577 89.0923 25.0387 88.8054 25.0415 88.4844C25.0387 88.1662 24.9592 87.8849 24.8029 87.6406C24.6467 87.3935 24.4336 87.2017 24.1637 87.0653C23.8967 86.9261 23.5898 86.8565 23.2433 86.8565C22.8967 86.8565 22.587 86.9261 22.3143 87.0653C22.0444 87.2017 21.8313 87.3935 21.6751 87.6406C21.5217 87.8849 21.4464 88.1662 21.4492 88.4844C21.4464 88.8054 21.5231 89.0923 21.6793 89.3452C21.8384 89.5952 22.0529 89.7926 22.3228 89.9375C22.5955 90.0824 22.9023 90.1548 23.2433 90.1548ZM27.9318 88.4545H28.6946V95.6349C28.6946 96.0071 28.625 96.3281 28.4858 96.598C28.3494 96.8707 28.1506 97.081 27.8892 97.2287C27.6278 97.3793 27.3125 97.4545 26.9432 97.4545C26.9148 97.4545 26.8864 97.4545 26.858 97.4545C26.8295 97.4545 26.7983 97.4531 26.7642 97.4503L26.7727 96.7386C26.8011 96.7386 26.8281 96.7386 26.8537 96.7386C26.8793 96.7386 26.9063 96.7386 26.9347 96.7386C27.2472 96.7386 27.4915 96.642 27.6676 96.4489C27.8438 96.2557 27.9318 95.9844 27.9318 95.6349V88.4545ZM28.3068 87.3295C28.1534 87.3295 28.0199 87.277 27.9062 87.1719C27.7955 87.0639 27.7401 86.9347 27.7401 86.7841C27.7401 86.6335 27.7955 86.5057 27.9062 86.4006C28.0199 86.2926 28.1534 86.2386 28.3068 86.2386C28.4631 86.2386 28.5966 86.2926 28.7074 86.4006C28.821 86.5057 28.8778 86.6335 28.8778 86.7841C28.8778 86.9347 28.821 87.0639 28.7074 87.1719C28.5966 87.277 28.4631 87.3295 28.3068 87.3295ZM33.2788 88.4545V89.1151H30.1552V88.4545H33.2788ZM31.131 86.8864H31.8938V93.2912C31.8938 93.5639 31.9407 93.7784 32.0344 93.9347C32.1282 94.0881 32.2504 94.1974 32.4009 94.2628C32.5515 94.3253 32.712 94.3565 32.8825 94.3565C32.9819 94.3565 33.0671 94.3509 33.1381 94.3395C33.2092 94.3253 33.2717 94.3111 33.3256 94.2969L33.4876 94.983C33.4137 95.0114 33.3228 95.0369 33.2148 95.0597C33.1069 95.0852 32.9734 95.098 32.8143 95.098C32.5359 95.098 32.2674 95.0369 32.0089 94.9148C31.7532 94.7926 31.543 94.6108 31.3782 94.3693C31.2134 94.1278 31.131 93.8281 31.131 93.4702V86.8864Z" fill="#BDBDBD"/>
<line x1="54" y1="115.75" x2="304" y2="115.75" stroke="#DCDCDC" stroke-width="0.5"/>
<path d="M21.3832 120L25.359 112.044V111.989H20.7781V111.273H26.1942V112.023L22.2227 120H21.3832ZM27.9318 113.455H28.6946V120.635C28.6946 121.007 28.625 121.328 28.4858 121.598C28.3494 121.871 28.1506 122.081 27.8892 122.229C27.6278 122.379 27.3125 122.455 26.9432 122.455C26.9148 122.455 26.8864 122.455 26.858 122.455C26.8295 122.455 26.7983 122.453 26.7642 122.45L26.7727 121.739C26.8011 121.739 26.8281 121.739 26.8537 121.739C26.8793 121.739 26.9063 121.739 26.9347 121.739C27.2472 121.739 27.4915 121.642 27.6676 121.449C27.8438 121.256 27.9318 120.984 27.9318 120.635V113.455ZM28.3068 112.33C28.1534 112.33 28.0199 112.277 27.9062 112.172C27.7955 112.064 27.7401 111.935 27.7401 111.784C27.7401 111.634 27.7955 111.506 27.9062 111.401C28.0199 111.293 28.1534 111.239 28.3068 111.239C28.4631 111.239 28.5966 111.293 28.7074 111.401C28.821 111.506 28.8778 111.634 28.8778 111.784C28.8778 111.935 28.821 112.064 28.7074 112.172C28.5966 112.277 28.4631 112.33 28.3068 112.33ZM33.2788 113.455V114.115H30.1552V113.455H33.2788ZM31.131 111.886H31.8938V118.291C31.8938 118.564 31.9407 118.778 32.0344 118.935C32.1282 119.088 32.2504 119.197 32.4009 119.263C32.5515 119.325 32.712 119.357 32.8825 119.357C32.9819 119.357 33.0671 119.351 33.1381 119.339C33.2092 119.325 33.2717 119.311 33.3256 119.297L33.4876 119.983C33.4137 120.011 33.3228 120.037 33.2148 120.06C33.1069 120.085 32.9734 120.098 32.8143 120.098C32.5359 120.098 32.2674 120.037 32.0089 119.915C31.7532 119.793 31.543 119.611 31.3782 119.369C31.2134 119.128 31.131 118.828 31.131 118.47V111.886Z" fill="#BDBDBD"/>
<line x1="54" y1="140.75" x2="304" y2="140.75" stroke="#DCDCDC" stroke-width="0.5"/>
<path d="M23.3295 145.119C22.9688 145.116 22.6165 145.044 22.2727 144.902C21.929 144.757 21.6193 144.526 21.3438 144.207C21.0682 143.886 20.8494 143.463 20.6875 142.938C20.5256 142.412 20.4446 141.766 20.4446 140.999C20.4446 140.288 20.5071 139.638 20.6321 139.047C20.7571 138.456 20.9446 137.945 21.1946 137.513C21.4446 137.081 21.7571 136.747 22.1321 136.511C22.5071 136.273 22.946 136.153 23.4489 136.153C23.9205 136.153 24.3366 136.251 24.6974 136.447C25.0582 136.641 25.3509 136.911 25.5753 137.257C25.7997 137.604 25.9403 138.003 25.9972 138.455H25.2131C25.1335 137.994 24.9446 137.615 24.6463 137.317C24.348 137.018 23.9489 136.869 23.4489 136.869C22.733 136.869 22.179 137.202 21.7869 137.866C21.3949 138.528 21.1974 139.469 21.1946 140.688H21.25C21.3892 140.429 21.5682 140.206 21.7869 140.018C22.0085 139.828 22.2599 139.68 22.5412 139.575C22.8224 139.467 23.1179 139.413 23.4276 139.413C23.9134 139.413 24.358 139.537 24.7614 139.784C25.1648 140.028 25.4872 140.365 25.7287 140.794C25.9702 141.22 26.0909 141.707 26.0909 142.256C26.0909 142.776 25.9759 143.254 25.7457 143.692C25.5185 144.129 25.1974 144.477 24.7827 144.736C24.3707 144.994 23.8864 145.122 23.3295 145.119ZM23.3295 144.403C23.7102 144.403 24.0497 144.307 24.348 144.114C24.6491 143.92 24.8864 143.662 25.0597 143.338C25.233 143.011 25.3196 142.651 25.3196 142.256C25.3196 141.861 25.233 141.503 25.0597 141.182C24.8864 140.861 24.6491 140.605 24.348 140.415C24.0497 140.224 23.7102 140.129 23.3295 140.129C23.0398 140.129 22.7699 140.189 22.5199 140.308C22.2699 140.425 22.0526 140.585 21.8679 140.79C21.6861 140.991 21.5469 141.223 21.4503 141.484C21.3565 141.746 21.321 142.02 21.3438 142.307C21.375 142.707 21.4787 143.067 21.6548 143.385C21.8338 143.7 22.0668 143.949 22.3537 144.131C22.6435 144.312 22.9688 144.403 23.3295 144.403ZM27.9318 138.455H28.6946V145.635C28.6946 146.007 28.625 146.328 28.4858 146.598C28.3494 146.871 28.1506 147.081 27.8892 147.229C27.6278 147.379 27.3125 147.455 26.9432 147.455C26.9148 147.455 26.8864 147.455 26.858 147.455C26.8295 147.455 26.7983 147.453 26.7642 147.45L26.7727 146.739C26.8011 146.739 26.8281 146.739 26.8537 146.739C26.8793 146.739 26.9063 146.739 26.9347 146.739C27.2472 146.739 27.4915 146.642 27.6676 146.449C27.8438 146.256 27.9318 145.984 27.9318 145.635V138.455ZM28.3068 137.33C28.1534 137.33 28.0199 137.277 27.9062 137.172C27.7955 137.064 27.7401 136.935 27.7401 136.784C27.7401 136.634 27.7955 136.506 27.9062 136.401C28.0199 136.293 28.1534 136.239 28.3068 136.239C28.4631 136.239 28.5966 136.293 28.7074 136.401C28.821 136.506 28.8778 136.634 28.8778 136.784C28.8778 136.935 28.821 137.064 28.7074 137.172C28.5966 137.277 28.4631 137.33 28.3068 137.33ZM33.2788 138.455V139.115H30.1552V138.455H33.2788ZM31.131 136.886H31.8938V143.291C31.8938 143.564 31.9407 143.778 32.0344 143.935C32.1282 144.088 32.2504 144.197 32.4009 144.263C32.5515 144.325 32.712 144.357 32.8825 144.357C32.9819 144.357 33.0671 144.351 33.1381 144.339C33.2092 144.325 33.2717 144.311 33.3256 144.297L33.4876 144.983C33.4137 145.011 33.3228 145.037 33.2148 145.06C33.1069 145.085 32.9734 145.098 32.8143 145.098C32.5359 145.098 32.2674 145.037 32.0089 144.915C31.7532 144.793 31.543 144.611 31.3782 144.369C31.2134 144.128 31.131 143.828 31.131 143.47V136.886Z" fill="#BDBDBD"/>
<line x1="54" y1="165.75" x2="304" y2="165.75" stroke="#DCDCDC" stroke-width="0.5"/>
<path d="M23.2976 170.119C22.8118 170.119 22.3771 170.021 21.9936 169.825C21.6129 169.626 21.3089 169.354 21.0817 169.007C20.8572 168.661 20.7379 168.264 20.7237 167.818H21.495C21.5206 168.281 21.7024 168.662 22.0405 168.96C22.3786 169.256 22.7976 169.403 23.2976 169.403C23.6868 169.403 24.0334 169.311 24.3374 169.126C24.6413 168.939 24.8786 168.683 25.049 168.359C25.2223 168.033 25.3089 167.665 25.3089 167.256C25.3061 166.83 25.2138 166.455 25.032 166.131C24.8501 165.804 24.603 165.548 24.2905 165.364C23.9808 165.179 23.6328 165.087 23.2464 165.087C22.9538 165.084 22.6669 165.132 22.3857 165.232C22.1044 165.331 21.87 165.459 21.6825 165.615L20.8857 165.513L21.4098 161.273H25.7223V161.989H22.0788L21.7294 164.908H21.772C21.9652 164.746 22.1996 164.614 22.4751 164.511C22.7536 164.409 23.0476 164.358 23.3572 164.358C23.8714 164.358 24.3331 164.482 24.7422 164.729C25.1541 164.976 25.4794 165.317 25.718 165.751C25.9595 166.183 26.0803 166.68 26.0803 167.243C26.0803 167.794 25.9595 168.287 25.718 168.722C25.4794 169.153 25.1499 169.494 24.7294 169.744C24.3118 169.994 23.8345 170.119 23.2976 170.119ZM27.9318 163.455H28.6946V170.635C28.6946 171.007 28.625 171.328 28.4858 171.598C28.3494 171.871 28.1506 172.081 27.8892 172.229C27.6278 172.379 27.3125 172.455 26.9432 172.455C26.9148 172.455 26.8864 172.455 26.858 172.455C26.8295 172.455 26.7983 172.453 26.7642 172.45L26.7727 171.739C26.8011 171.739 26.8281 171.739 26.8537 171.739C26.8793 171.739 26.9063 171.739 26.9347 171.739C27.2472 171.739 27.4915 171.642 27.6676 171.449C27.8438 171.256 27.9318 170.984 27.9318 170.635V163.455ZM28.3068 162.33C28.1534 162.33 28.0199 162.277 27.9062 162.172C27.7955 162.064 27.7401 161.935 27.7401 161.784C27.7401 161.634 27.7955 161.506 27.9062 161.401C28.0199 161.293 28.1534 161.239 28.3068 161.239C28.4631 161.239 28.5966 161.293 28.7074 161.401C28.821 161.506 28.8778 161.634 28.8778 161.784C28.8778 161.935 28.821 162.064 28.7074 162.172C28.5966 162.277 28.4631 162.33 28.3068 162.33ZM33.2788 163.455V164.115H30.1552V163.455H33.2788ZM31.131 161.886H31.8938V168.291C31.8938 168.564 31.9407 168.778 32.0344 168.935C32.1282 169.088 32.2504 169.197 32.4009 169.263C32.5515 169.325 32.712 169.357 32.8825 169.357C32.9819 169.357 33.0671 169.351 33.1381 169.339C33.2092 169.325 33.2717 169.311 33.3256 169.297L33.4876 169.983C33.4137 170.011 33.3228 170.037 33.2148 170.06C33.1069 170.085 32.9734 170.098 32.8143 170.098C32.5359 170.098 32.2674 170.037 32.0089 169.915C31.7532 169.793 31.543 169.611 31.3782 169.369C31.2134 169.128 31.131 168.828 31.131 168.47V161.886Z" fill="#BDBDBD"/>
<line x1="54" y1="190.75" x2="304" y2="190.75" stroke="#DCDCDC" stroke-width="0.5"/>
<path d="M20.1729 193.125V192.477L24.0636 186.273H24.5408V187.359H24.1871L21.0636 192.354V192.409H26.1644V193.125H20.1729ZM24.2468 195V192.92V192.622V186.273H25.0053V195H24.2468ZM27.9318 188.455H28.6946V195.635C28.6946 196.007 28.625 196.328 28.4858 196.598C28.3494 196.871 28.1506 197.081 27.8892 197.229C27.6278 197.379 27.3125 197.455 26.9432 197.455C26.9148 197.455 26.8864 197.455 26.858 197.455C26.8295 197.455 26.7983 197.453 26.7642 197.45L26.7727 196.739C26.8011 196.739 26.8281 196.739 26.8537 196.739C26.8793 196.739 26.9063 196.739 26.9347 196.739C27.2472 196.739 27.4915 196.642 27.6676 196.449C27.8438 196.256 27.9318 195.984 27.9318 195.635V188.455ZM28.3068 187.33C28.1534 187.33 28.0199 187.277 27.9062 187.172C27.7955 187.064 27.7401 186.935 27.7401 186.784C27.7401 186.634 27.7955 186.506 27.9062 186.401C28.0199 186.293 28.1534 186.239 28.3068 186.239C28.4631 186.239 28.5966 186.293 28.7074 186.401C28.821 186.506 28.8778 186.634 28.8778 186.784C28.8778 186.935 28.821 187.064 28.7074 187.172C28.5966 187.277 28.4631 187.33 28.3068 187.33ZM33.2788 188.455V189.115H30.1552V188.455H33.2788ZM31.131 186.886H31.8938V193.291C31.8938 193.564 31.9407 193.778 32.0344 193.935C32.1282 194.088 32.2504 194.197 32.4009 194.263C32.5515 194.325 32.712 194.357 32.8825 194.357C32.9819 194.357 33.0671 194.351 33.1381 194.339C33.2092 194.325 33.2717 194.311 33.3256 194.297L33.4876 194.983C33.4137 195.011 33.3228 195.037 33.2148 195.06C33.1069 195.085 32.9734 195.098 32.8143 195.098C32.5359 195.098 32.2674 195.037 32.0089 194.915C31.7532 194.793 31.543 194.611 31.3782 194.369C31.2134 194.128 31.131 193.828 31.131 193.47V186.886Z" fill="#BDBDBD"/>
<line x1="54" y1="215.75" x2="304" y2="215.75" stroke="#DCDCDC" stroke-width="0.5"/>
<path d="M23.1804 220.119C22.6435 220.119 22.1634 220.023 21.7401 219.83C21.3168 219.634 20.9815 219.362 20.7344 219.016C20.4872 218.669 20.3565 218.27 20.3423 217.818H21.1477C21.1619 218.136 21.2599 218.415 21.4418 218.653C21.6236 218.889 21.8651 219.074 22.1662 219.207C22.4673 219.338 22.8026 219.403 23.1719 219.403C23.5753 219.403 23.9304 219.328 24.2372 219.178C24.5469 219.027 24.7884 218.821 24.9616 218.56C25.1378 218.295 25.2259 217.997 25.2259 217.665C25.2259 217.312 25.1364 217.001 24.9574 216.732C24.7784 216.462 24.5213 216.251 24.1861 216.101C23.8537 215.95 23.456 215.875 22.9929 215.875H22.4815V215.159H22.9929C23.3707 215.159 23.7045 215.091 23.9943 214.955C24.2869 214.815 24.517 214.621 24.6847 214.371C24.8523 214.121 24.9361 213.827 24.9361 213.489C24.9361 213.168 24.8636 212.885 24.7188 212.641C24.5739 212.396 24.3693 212.205 24.1051 212.065C23.8438 211.926 23.5384 211.857 23.1889 211.857C22.8509 211.857 22.5412 211.922 22.2599 212.053C21.9787 212.183 21.7514 212.368 21.5781 212.607C21.4077 212.845 21.3168 213.128 21.3054 213.455H20.5341C20.5455 213 20.6705 212.601 20.9091 212.257C21.1506 211.911 21.4702 211.641 21.8679 211.447C22.2685 211.251 22.7116 211.153 23.1974 211.153C23.7116 211.153 24.1562 211.259 24.5312 211.469C24.9062 211.679 25.196 211.959 25.4006 212.308C25.608 212.655 25.7116 213.037 25.7116 213.455C25.7116 213.952 25.5767 214.378 25.3068 214.733C25.0369 215.085 24.6733 215.33 24.2159 215.466V215.521C24.7727 215.632 25.2102 215.879 25.5284 216.263C25.8494 216.643 26.0099 217.111 26.0099 217.665C26.0099 218.131 25.8878 218.55 25.6435 218.922C25.3991 219.291 25.0639 219.584 24.6378 219.8C24.2145 220.013 23.7287 220.119 23.1804 220.119ZM27.9318 213.455H28.6946V220.635C28.6946 221.007 28.625 221.328 28.4858 221.598C28.3494 221.871 28.1506 222.081 27.8892 222.229C27.6278 222.379 27.3125 222.455 26.9432 222.455C26.9148 222.455 26.8864 222.455 26.858 222.455C26.8295 222.455 26.7983 222.453 26.7642 222.45L26.7727 221.739C26.8011 221.739 26.8281 221.739 26.8537 221.739C26.8793 221.739 26.9063 221.739 26.9347 221.739C27.2472 221.739 27.4915 221.642 27.6676 221.449C27.8438 221.256 27.9318 220.984 27.9318 220.635V213.455ZM28.3068 212.33C28.1534 212.33 28.0199 212.277 27.9062 212.172C27.7955 212.064 27.7401 211.935 27.7401 211.784C27.7401 211.634 27.7955 211.506 27.9062 211.401C28.0199 211.293 28.1534 211.239 28.3068 211.239C28.4631 211.239 28.5966 211.293 28.7074 211.401C28.821 211.506 28.8778 211.634 28.8778 211.784C28.8778 211.935 28.821 212.064 28.7074 212.172C28.5966 212.277 28.4631 212.33 28.3068 212.33ZM33.2788 213.455V214.115H30.1552V213.455H33.2788ZM31.131 211.886H31.8938V218.291C31.8938 218.564 31.9407 218.778 32.0344 218.935C32.1282 219.088 32.2504 219.197 32.4009 219.263C32.5515 219.325 32.712 219.357 32.8825 219.357C32.9819 219.357 33.0671 219.351 33.1381 219.339C33.2092 219.325 33.2717 219.311 33.3256 219.297L33.4876 219.983C33.4137 220.011 33.3228 220.037 33.2148 220.06C33.1069 220.085 32.9734 220.098 32.8143 220.098C32.5359 220.098 32.2674 220.037 32.0089 219.915C31.7532 219.793 31.543 219.611 31.3782 219.369C31.2134 219.128 31.131 218.828 31.131 218.47V211.886Z" fill="#BDBDBD"/>
<line x1="54" y1="240.75" x2="304" y2="240.75" stroke="#DCDCDC" stroke-width="0.5"/>
<path d="M20.5692 245V244.416L23.4201 241.212C23.7923 240.791 24.092 240.432 24.3192 240.134C24.5465 239.835 24.7113 239.56 24.8136 239.307C24.9187 239.054 24.9712 238.791 24.9712 238.518C24.9712 238.186 24.8931 237.896 24.7369 237.649C24.5835 237.399 24.3718 237.205 24.1019 237.065C23.832 236.926 23.5281 236.857 23.19 236.857C22.832 236.857 22.5181 236.933 22.2482 237.087C21.9812 237.24 21.7738 237.45 21.6261 237.717C21.4783 237.984 21.4045 238.291 21.4045 238.638H20.6417C20.6417 238.155 20.7525 237.727 20.9741 237.355C21.1985 236.98 21.5039 236.686 21.8903 236.473C22.2795 236.26 22.7198 236.153 23.2113 236.153C23.6971 236.153 24.1289 236.259 24.5067 236.469C24.8846 236.676 25.1815 236.959 25.3974 237.317C25.6133 237.675 25.7212 238.075 25.7212 238.518C25.7212 238.839 25.6644 239.151 25.5508 239.452C25.44 239.753 25.2482 240.088 24.9755 240.457C24.7028 240.827 24.3249 241.278 23.842 241.812L21.6772 244.229V244.284H25.994V245H20.5692ZM27.9318 238.455H28.6946V245.635C28.6946 246.007 28.625 246.328 28.4858 246.598C28.3494 246.871 28.1506 247.081 27.8892 247.229C27.6278 247.379 27.3125 247.455 26.9432 247.455C26.9148 247.455 26.8864 247.455 26.858 247.455C26.8295 247.455 26.7983 247.453 26.7642 247.45L26.7727 246.739C26.8011 246.739 26.8281 246.739 26.8537 246.739C26.8793 246.739 26.9063 246.739 26.9347 246.739C27.2472 246.739 27.4915 246.642 27.6676 246.449C27.8438 246.256 27.9318 245.984 27.9318 245.635V238.455ZM28.3068 237.33C28.1534 237.33 28.0199 237.277 27.9062 237.172C27.7955 237.064 27.7401 236.935 27.7401 236.784C27.7401 236.634 27.7955 236.506 27.9062 236.401C28.0199 236.293 28.1534 236.239 28.3068 236.239C28.4631 236.239 28.5966 236.293 28.7074 236.401C28.821 236.506 28.8778 236.634 28.8778 236.784C28.8778 236.935 28.821 237.064 28.7074 237.172C28.5966 237.277 28.4631 237.33 28.3068 237.33ZM33.2788 238.455V239.115H30.1552V238.455H33.2788ZM31.131 236.886H31.8938V243.291C31.8938 243.564 31.9407 243.778 32.0344 243.935C32.1282 244.088 32.2504 244.197 32.4009 244.263C32.5515 244.325 32.712 244.357 32.8825 244.357C32.9819 244.357 33.0671 244.351 33.1381 244.339C33.2092 244.325 33.2717 244.311 33.3256 244.297L33.4876 244.983C33.4137 245.011 33.3228 245.037 33.2148 245.06C33.1069 245.085 32.9734 245.098 32.8143 245.098C32.5359 245.098 32.2674 245.037 32.0089 244.915C31.7532 244.793 31.543 244.611 31.3782 244.369C31.2134 244.128 31.131 243.828 31.131 243.47V236.886Z" fill="#BDBDBD"/>
<line x1="54" y1="265.75" x2="304" y2="265.75" stroke="#DCDCDC" stroke-width="0.5"/>
<path d="M25.2429 261.273V270H24.446V262.108H24.3949L22.3494 263.467V262.641L24.4119 261.273H25.2429ZM27.9318 263.455H28.6946V270.635C28.6946 271.007 28.625 271.328 28.4858 271.598C28.3494 271.871 28.1506 272.081 27.8892 272.229C27.6278 272.379 27.3125 272.455 26.9432 272.455C26.9148 272.455 26.8864 272.455 26.858 272.455C26.8295 272.455 26.7983 272.453 26.7642 272.45L26.7727 271.739C26.8011 271.739 26.8281 271.739 26.8537 271.739C26.8793 271.739 26.9063 271.739 26.9347 271.739C27.2472 271.739 27.4915 271.642 27.6676 271.449C27.8438 271.256 27.9318 270.984 27.9318 270.635V263.455ZM28.3068 262.33C28.1534 262.33 28.0199 262.277 27.9062 262.172C27.7955 262.064 27.7401 261.935 27.7401 261.784C27.7401 261.634 27.7955 261.506 27.9062 261.401C28.0199 261.293 28.1534 261.239 28.3068 261.239C28.4631 261.239 28.5966 261.293 28.7074 261.401C28.821 261.506 28.8778 261.634 28.8778 261.784C28.8778 261.935 28.821 262.064 28.7074 262.172C28.5966 262.277 28.4631 262.33 28.3068 262.33ZM33.2788 263.455V264.115H30.1552V263.455H33.2788ZM31.131 261.886H31.8938V268.291C31.8938 268.564 31.9407 268.778 32.0344 268.935C32.1282 269.088 32.2504 269.197 32.4009 269.263C32.5515 269.325 32.712 269.357 32.8825 269.357C32.9819 269.357 33.0671 269.351 33.1381 269.339C33.2092 269.325 33.2717 269.311 33.3256 269.297L33.4876 269.983C33.4137 270.011 33.3228 270.037 33.2148 270.06C33.1069 270.085 32.9734 270.098 32.8143 270.098C32.5359 270.098 32.2674 270.037 32.0089 269.915C31.7532 269.793 31.543 269.611 31.3782 269.369C31.2134 269.128 31.131 268.828 31.131 268.47V261.886Z" fill="#BDBDBD"/>
<path d="M60.429 278.455C60.3807 277.969 60.1662 277.582 59.7855 277.295C59.4048 277.009 58.9261 276.865 58.3494 276.865C57.9432 276.865 57.5852 276.935 57.2756 277.074C56.9688 277.213 56.7273 277.406 56.5511 277.653C56.3778 277.898 56.2912 278.176 56.2912 278.489C56.2912 278.719 56.3409 278.92 56.4403 279.094C56.5398 279.267 56.6733 279.416 56.8409 279.541C57.0114 279.663 57.1989 279.768 57.4034 279.857C57.6108 279.945 57.8196 280.018 58.0298 280.078L58.9503 280.342C59.2287 280.419 59.5071 280.517 59.7855 280.636C60.0639 280.756 60.3182 280.906 60.5483 281.088C60.7813 281.267 60.9673 281.487 61.1065 281.749C61.2486 282.007 61.3196 282.318 61.3196 282.682C61.3196 283.148 61.1989 283.567 60.9574 283.939C60.7159 284.311 60.3693 284.607 59.9176 284.825C59.4659 285.041 58.9247 285.149 58.294 285.149C57.7003 285.149 57.1847 285.051 56.7472 284.855C56.3097 284.656 55.9659 284.382 55.7159 284.033C55.4659 283.683 55.3253 283.278 55.294 282.818H56.1122C56.1406 283.162 56.2543 283.453 56.4531 283.692C56.652 283.93 56.9105 284.112 57.2287 284.237C57.5469 284.359 57.902 284.42 58.294 284.42C58.7287 284.42 59.1151 284.348 59.4531 284.203C59.794 284.055 60.0611 283.851 60.2543 283.589C60.4503 283.325 60.5483 283.018 60.5483 282.669C60.5483 282.374 60.4716 282.126 60.3182 281.928C60.1648 281.726 59.9503 281.557 59.6747 281.42C59.402 281.284 59.0852 281.163 58.7244 281.058L57.6804 280.751C56.9957 280.547 56.4645 280.264 56.0866 279.903C55.7088 279.543 55.5199 279.082 55.5199 278.523C55.5199 278.054 55.6449 277.642 55.8949 277.287C56.1477 276.929 56.4886 276.651 56.9176 276.452C57.3494 276.25 57.8338 276.149 58.3707 276.149C58.9134 276.149 59.3935 276.249 59.8111 276.447C60.2287 276.646 60.5597 276.92 60.804 277.27C61.0511 277.616 61.1832 278.011 61.2003 278.455H60.429ZM65.7259 285.136C65.1151 285.136 64.5866 284.994 64.1406 284.71C63.6946 284.423 63.3494 284.027 63.1051 283.521C62.8636 283.013 62.7429 282.428 62.7429 281.766C62.7429 281.107 62.8636 280.521 63.1051 280.01C63.3494 279.496 63.6861 279.094 64.1151 278.804C64.5469 278.511 65.0455 278.365 65.6108 278.365C65.9659 278.365 66.3082 278.43 66.6378 278.561C66.9673 278.689 67.2628 278.886 67.5241 279.153C67.7884 279.418 67.9972 279.751 68.1506 280.155C68.304 280.555 68.3807 281.03 68.3807 281.578V281.953H63.267V281.284H67.6051C67.6051 280.864 67.5199 280.486 67.3494 280.151C67.1818 279.812 66.9474 279.545 66.6463 279.349C66.348 279.153 66.0028 279.055 65.6108 279.055C65.196 279.055 64.831 279.166 64.5156 279.388C64.2003 279.609 63.9531 279.902 63.7741 280.266C63.598 280.629 63.5085 281.027 63.5057 281.459V281.859C63.5057 282.379 63.5952 282.834 63.7741 283.223C63.956 283.609 64.2131 283.909 64.5455 284.122C64.8778 284.335 65.2713 284.442 65.7259 284.442C66.0355 284.442 66.3068 284.393 66.5398 284.297C66.7756 284.2 66.973 284.071 67.1321 283.909C67.294 283.744 67.4162 283.564 67.4986 283.368L68.2188 283.602C68.1193 283.878 67.956 284.132 67.7287 284.365C67.5043 284.598 67.223 284.786 66.8849 284.928C66.5497 285.067 66.1634 285.136 65.7259 285.136ZM70.8107 280.909V285H70.0522V278.455H70.7894V279.482H70.8576C71.011 279.146 71.2496 278.878 71.5735 278.676C71.9002 278.472 72.3036 278.369 72.7837 278.369C73.2241 278.369 73.6104 278.462 73.9428 278.646C74.2781 278.828 74.538 279.097 74.7227 279.452C74.9102 279.807 75.0039 280.243 75.0039 280.76V285H74.2454V280.807C74.2454 280.27 74.0948 279.845 73.7937 279.533C73.4954 279.22 73.0948 279.064 72.592 279.064C72.2482 279.064 71.9428 279.138 71.6758 279.286C71.4087 279.433 71.1971 279.646 71.0408 279.925C70.8874 280.2 70.8107 280.528 70.8107 280.909Z" fill="#BDBDBD"/>
<path d="M98.6126 278.455C98.5643 277.969 98.3498 277.582 97.9691 277.295C97.5884 277.009 97.1097 276.865 96.533 276.865C96.1268 276.865 95.7688 276.935 95.4592 277.074C95.1523 277.213 94.9109 277.406 94.7347 277.653C94.5614 277.898 94.4748 278.176 94.4748 278.489C94.4748 278.719 94.5245 278.92 94.6239 279.094C94.7234 279.267 94.8569 279.416 95.0245 279.541C95.195 279.663 95.3825 279.768 95.587 279.857C95.7944 279.945 96.0032 280.018 96.2134 280.078L97.1339 280.342C97.4123 280.419 97.6907 280.517 97.9691 280.636C98.2475 280.756 98.5018 280.906 98.7319 281.088C98.9648 281.267 99.1509 281.487 99.2901 281.749C99.4322 282.007 99.5032 282.318 99.5032 282.682C99.5032 283.148 99.3825 283.567 99.141 283.939C98.8995 284.311 98.5529 284.607 98.1012 284.825C97.6495 285.041 97.1083 285.149 96.4776 285.149C95.8839 285.149 95.3683 285.051 94.9308 284.855C94.4933 284.656 94.1495 284.382 93.8995 284.033C93.6495 283.683 93.5089 283.278 93.4776 282.818H94.2958C94.3242 283.162 94.4379 283.453 94.6367 283.692C94.8356 283.93 95.0941 284.112 95.4123 284.237C95.7305 284.359 96.0856 284.42 96.4776 284.42C96.9123 284.42 97.2987 284.348 97.6367 284.203C97.9776 284.055 98.2447 283.851 98.4379 283.589C98.6339 283.325 98.7319 283.018 98.7319 282.669C98.7319 282.374 98.6552 282.126 98.5018 281.928C98.3484 281.726 98.1339 281.557 97.8583 281.42C97.5856 281.284 97.2688 281.163 96.908 281.058L95.864 280.751C95.1793 280.547 94.6481 280.264 94.2702 279.903C93.8924 279.543 93.7035 279.082 93.7035 278.523C93.7035 278.054 93.8285 277.642 94.0785 277.287C94.3313 276.929 94.6722 276.651 95.1012 276.452C95.533 276.25 96.0174 276.149 96.5543 276.149C97.0969 276.149 97.5771 276.249 97.9947 276.447C98.4123 276.646 98.7433 276.92 98.9876 277.27C99.2347 277.616 99.3668 278.011 99.3839 278.455H98.6126ZM103.909 285.136C103.299 285.136 102.77 284.994 102.324 284.71C101.878 284.423 101.533 284.027 101.289 283.521C101.047 283.013 100.926 282.428 100.926 281.766C100.926 281.107 101.047 280.521 101.289 280.01C101.533 279.496 101.87 279.094 102.299 278.804C102.73 278.511 103.229 278.365 103.794 278.365C104.15 278.365 104.492 278.43 104.821 278.561C105.151 278.689 105.446 278.886 105.708 279.153C105.972 279.418 106.181 279.751 106.334 280.155C106.488 280.555 106.564 281.03 106.564 281.578V281.953H101.451V281.284H105.789C105.789 280.864 105.703 280.486 105.533 280.151C105.365 279.812 105.131 279.545 104.83 279.349C104.532 279.153 104.186 279.055 103.794 279.055C103.38 279.055 103.015 279.166 102.699 279.388C102.384 279.609 102.137 279.902 101.958 280.266C101.782 280.629 101.692 281.027 101.689 281.459V281.859C101.689 282.379 101.779 282.834 101.958 283.223C102.14 283.609 102.397 283.909 102.729 284.122C103.061 284.335 103.455 284.442 103.909 284.442C104.219 284.442 104.49 284.393 104.723 284.297C104.959 284.2 105.157 284.071 105.316 283.909C105.478 283.744 105.6 283.564 105.682 283.368L106.402 283.602C106.303 283.878 106.14 284.132 105.912 284.365C105.688 284.598 105.407 284.786 105.069 284.928C104.733 285.067 104.347 285.136 103.909 285.136ZM108.994 276.273V285H108.236V276.273H108.994Z" fill="#BDBDBD"/>
<path d="M127.55 285V276.273H130.366C130.986 276.273 131.503 276.385 131.918 276.609C132.335 276.831 132.649 277.139 132.859 277.534C133.072 277.926 133.179 278.376 133.179 278.885C133.179 279.393 133.072 279.842 132.859 280.232C132.649 280.621 132.337 280.925 131.922 281.143C131.507 281.362 130.993 281.472 130.379 281.472H127.98V280.743H130.358C130.813 280.743 131.19 280.668 131.491 280.517C131.795 280.366 132.021 280.152 132.169 279.874C132.32 279.595 132.395 279.266 132.395 278.885C132.395 278.504 132.32 278.172 132.169 277.888C132.018 277.601 131.791 277.379 131.487 277.223C131.186 277.067 130.805 276.989 130.345 276.989H128.347V285H127.55ZM131.398 281.062L133.545 285H132.625L130.499 281.062H131.398ZM136.79 285.149C136.396 285.149 136.035 285.072 135.708 284.919C135.381 284.763 135.121 284.538 134.928 284.246C134.735 283.95 134.638 283.592 134.638 283.172C134.638 282.848 134.7 282.575 134.822 282.354C134.944 282.132 135.117 281.95 135.342 281.808C135.566 281.666 135.832 281.554 136.138 281.472C136.445 281.389 136.783 281.325 137.153 281.28C137.519 281.234 137.829 281.195 138.082 281.161C138.337 281.126 138.532 281.072 138.665 280.999C138.799 280.925 138.866 280.805 138.866 280.641V280.487C138.866 280.041 138.732 279.69 138.465 279.435C138.201 279.176 137.82 279.047 137.323 279.047C136.852 279.047 136.467 279.151 136.168 279.358C135.873 279.565 135.665 279.81 135.546 280.091L134.826 279.831C134.974 279.473 135.178 279.187 135.44 278.974C135.701 278.759 135.994 278.604 136.317 278.51C136.641 278.413 136.969 278.365 137.302 278.365C137.552 278.365 137.812 278.398 138.082 278.463C138.354 278.528 138.607 278.642 138.84 278.804C139.073 278.963 139.262 279.186 139.407 279.473C139.552 279.757 139.624 280.118 139.624 280.555V285H138.866V283.964H138.819C138.728 284.158 138.593 284.345 138.414 284.527C138.235 284.709 138.011 284.858 137.741 284.974C137.471 285.091 137.154 285.149 136.79 285.149ZM136.893 284.455C137.296 284.455 137.646 284.365 137.941 284.186C138.237 284.007 138.464 283.77 138.623 283.474C138.785 283.176 138.866 282.848 138.866 282.49V281.544C138.809 281.598 138.714 281.646 138.58 281.689C138.45 281.732 138.298 281.77 138.124 281.804C137.954 281.835 137.783 281.862 137.613 281.885C137.442 281.908 137.289 281.928 137.153 281.945C136.783 281.99 136.468 282.061 136.207 282.158C135.945 282.254 135.745 282.388 135.606 282.558C135.467 282.726 135.397 282.942 135.397 283.206C135.397 283.604 135.539 283.912 135.823 284.131C136.107 284.347 136.464 284.455 136.893 284.455ZM141.8 285V276.273H142.562V279.703H142.631C142.716 279.507 142.838 279.305 142.997 279.098C143.159 278.891 143.371 278.717 143.632 278.578C143.896 278.436 144.229 278.365 144.629 278.365C145.166 278.365 145.638 278.507 146.044 278.791C146.45 279.072 146.767 279.467 146.994 279.976C147.222 280.482 147.335 281.071 147.335 281.744C147.335 282.42 147.222 283.013 146.994 283.521C146.77 284.03 146.455 284.426 146.048 284.71C145.645 284.994 145.176 285.136 144.642 285.136C144.244 285.136 143.912 285.065 143.645 284.923C143.381 284.781 143.168 284.607 143.006 284.399C142.844 284.189 142.719 283.984 142.631 283.786H142.537V285H141.8ZM142.55 281.732C142.55 282.26 142.628 282.729 142.784 283.138C142.943 283.544 143.17 283.864 143.466 284.097C143.764 284.327 144.125 284.442 144.548 284.442C144.983 284.442 145.351 284.322 145.652 284.084C145.953 283.842 146.182 283.517 146.338 283.108C146.494 282.699 146.572 282.24 146.572 281.732C146.572 281.229 146.494 280.776 146.338 280.372C146.185 279.969 145.957 279.649 145.656 279.413C145.355 279.175 144.986 279.055 144.548 279.055C144.122 279.055 143.76 279.17 143.462 279.401C143.166 279.628 142.94 279.943 142.784 280.347C142.628 280.747 142.55 281.209 142.55 281.732Z" fill="#BDBDBD"/>
<path d="M165.491 285V276.273H166.288V280.973H166.365L170.626 276.273H171.674L167.946 280.308L171.657 285H170.686L167.451 280.862L166.288 282.166V285H165.491ZM174.849 285.149C174.454 285.149 174.093 285.072 173.767 284.919C173.44 284.763 173.18 284.538 172.987 284.246C172.794 283.95 172.697 283.592 172.697 283.172C172.697 282.848 172.758 282.575 172.88 282.354C173.002 282.132 173.176 281.95 173.4 281.808C173.625 281.666 173.89 281.554 174.197 281.472C174.504 281.389 174.842 281.325 175.211 281.28C175.578 281.234 175.887 281.195 176.14 281.161C176.396 281.126 176.591 281.072 176.724 280.999C176.858 280.925 176.924 280.805 176.924 280.641V280.487C176.924 280.041 176.791 279.69 176.524 279.435C176.26 279.176 175.879 279.047 175.382 279.047C174.91 279.047 174.525 279.151 174.227 279.358C173.931 279.565 173.724 279.81 173.605 280.091L172.885 279.831C173.032 279.473 173.237 279.187 173.498 278.974C173.76 278.759 174.052 278.604 174.376 278.51C174.7 278.413 175.028 278.365 175.36 278.365C175.61 278.365 175.87 278.398 176.14 278.463C176.413 278.528 176.666 278.642 176.899 278.804C177.132 278.963 177.321 279.186 177.466 279.473C177.61 279.757 177.683 280.118 177.683 280.555V285H176.924V283.964H176.877C176.787 284.158 176.652 284.345 176.473 284.527C176.294 284.709 176.069 284.858 175.799 284.974C175.529 285.091 175.213 285.149 174.849 285.149ZM174.951 284.455C175.355 284.455 175.704 284.365 176 284.186C176.295 284.007 176.522 283.77 176.681 283.474C176.843 283.176 176.924 282.848 176.924 282.49V281.544C176.868 281.598 176.772 281.646 176.639 281.689C176.508 281.732 176.356 281.77 176.183 281.804C176.012 281.835 175.842 281.862 175.672 281.885C175.501 281.908 175.348 281.928 175.211 281.945C174.842 281.99 174.527 282.061 174.265 282.158C174.004 282.254 173.804 282.388 173.664 282.558C173.525 282.726 173.456 282.942 173.456 283.206C173.456 283.604 173.598 283.912 173.882 284.131C174.166 284.347 174.522 284.455 174.951 284.455ZM179.701 285V278.455H180.438V279.46H180.506C180.637 279.122 180.854 278.857 181.158 278.663C181.465 278.467 181.833 278.369 182.262 278.369C182.713 278.369 183.084 278.476 183.374 278.689C183.667 278.899 183.885 279.189 184.03 279.558H184.086C184.233 279.195 184.473 278.906 184.806 278.693C185.141 278.477 185.547 278.369 186.025 278.369C186.632 278.369 187.113 278.561 187.465 278.945C187.817 279.325 187.993 279.882 187.993 280.615V285H187.235V280.615C187.235 280.098 187.103 279.71 186.838 279.452C186.574 279.193 186.226 279.064 185.794 279.064C185.294 279.064 184.909 279.217 184.64 279.524C184.37 279.831 184.235 280.22 184.235 280.692V285H183.459V280.547C183.459 280.104 183.336 279.746 183.088 279.473C182.841 279.2 182.493 279.064 182.044 279.064C181.743 279.064 181.472 279.138 181.23 279.286C180.992 279.433 180.803 279.639 180.664 279.903C180.527 280.165 180.459 280.466 180.459 280.807V285H179.701Z" fill="#BDBDBD"/>
<path d="M209.817 276.273H210.614V282.567C210.612 283.135 210.509 283.609 210.308 283.99C210.106 284.368 209.827 284.651 209.472 284.838C209.117 285.026 208.71 285.119 208.249 285.119C207.798 285.119 207.394 285.036 207.039 284.868C206.684 284.7 206.404 284.464 206.2 284.161C205.998 283.857 205.897 283.5 205.897 283.091H206.681C206.681 283.349 206.749 283.578 206.886 283.777C207.022 283.973 207.208 284.126 207.444 284.237C207.683 284.348 207.951 284.403 208.249 284.403C208.559 284.403 208.83 284.338 209.063 284.207C209.299 284.077 209.484 283.876 209.617 283.607C209.751 283.334 209.817 282.987 209.817 282.567V276.273ZM216.934 282.499V278.455H217.692V285H216.934V283.913H216.874C216.721 284.249 216.478 284.528 216.146 284.753C215.813 284.974 215.407 285.085 214.927 285.085C214.509 285.085 214.138 284.994 213.815 284.812C213.491 284.628 213.237 284.358 213.052 284.003C212.867 283.648 212.775 283.212 212.775 282.695V278.455H213.533V282.648C213.533 283.159 213.684 283.571 213.985 283.884C214.286 284.193 214.673 284.348 215.144 284.348C215.44 284.348 215.724 284.277 215.996 284.135C216.269 283.993 216.494 283.786 216.67 283.513C216.846 283.237 216.934 282.899 216.934 282.499ZM219.701 285V278.455H220.438V279.46H220.506C220.637 279.122 220.854 278.857 221.158 278.663C221.465 278.467 221.833 278.369 222.262 278.369C222.713 278.369 223.084 278.476 223.374 278.689C223.667 278.899 223.885 279.189 224.03 279.558H224.086C224.233 279.195 224.473 278.906 224.806 278.693C225.141 278.477 225.547 278.369 226.025 278.369C226.632 278.369 227.113 278.561 227.465 278.945C227.817 279.325 227.993 279.882 227.993 280.615V285H227.235V280.615C227.235 280.098 227.103 279.71 226.838 279.452C226.574 279.193 226.226 279.064 225.794 279.064C225.294 279.064 224.909 279.217 224.64 279.524C224.37 279.831 224.235 280.22 224.235 280.692V285H223.459V280.547C223.459 280.104 223.336 279.746 223.088 279.473C222.841 279.2 222.493 279.064 222.044 279.064C221.743 279.064 221.472 279.138 221.23 279.286C220.992 279.433 220.803 279.639 220.664 279.903C220.527 280.165 220.459 280.466 220.459 280.807V285H219.701Z" fill="#BDBDBD"/>
<path d="M251.312 278.455C251.263 277.969 251.049 277.582 250.668 277.295C250.288 277.009 249.809 276.865 249.232 276.865C248.826 276.865 248.468 276.935 248.158 277.074C247.852 277.213 247.61 277.406 247.434 277.653C247.261 277.898 247.174 278.176 247.174 278.489C247.174 278.719 247.224 278.92 247.323 279.094C247.423 279.267 247.556 279.416 247.724 279.541C247.894 279.663 248.082 279.768 248.286 279.857C248.494 279.945 248.702 280.018 248.913 280.078L249.833 280.342C250.112 280.419 250.39 280.517 250.668 280.636C250.947 280.756 251.201 280.906 251.431 281.088C251.664 281.267 251.85 281.487 251.989 281.749C252.131 282.007 252.202 282.318 252.202 282.682C252.202 283.148 252.082 283.567 251.84 283.939C251.599 284.311 251.252 284.607 250.8 284.825C250.349 285.041 249.808 285.149 249.177 285.149C248.583 285.149 248.067 285.051 247.63 284.855C247.192 284.656 246.849 284.382 246.599 284.033C246.349 283.683 246.208 283.278 246.177 282.818H246.995C247.023 283.162 247.137 283.453 247.336 283.692C247.535 283.93 247.793 284.112 248.112 284.237C248.43 284.359 248.785 284.42 249.177 284.42C249.612 284.42 249.998 284.348 250.336 284.203C250.677 284.055 250.944 283.851 251.137 283.589C251.333 283.325 251.431 283.018 251.431 282.669C251.431 282.374 251.354 282.126 251.201 281.928C251.048 281.726 250.833 281.557 250.558 281.42C250.285 281.284 249.968 281.163 249.607 281.058L248.563 280.751C247.879 280.547 247.347 280.264 246.969 279.903C246.592 279.543 246.403 279.082 246.403 278.523C246.403 278.054 246.528 277.642 246.778 277.287C247.031 276.929 247.371 276.651 247.8 276.452C248.232 276.25 248.717 276.149 249.254 276.149C249.796 276.149 250.276 276.249 250.694 276.447C251.112 276.646 251.442 276.92 251.687 277.27C251.934 277.616 252.066 278.011 252.083 278.455H251.312ZM255.79 285.149C255.396 285.149 255.035 285.072 254.708 284.919C254.381 284.763 254.121 284.538 253.928 284.246C253.735 283.95 253.638 283.592 253.638 283.172C253.638 282.848 253.7 282.575 253.822 282.354C253.944 282.132 254.117 281.95 254.342 281.808C254.566 281.666 254.832 281.554 255.138 281.472C255.445 281.389 255.783 281.325 256.153 281.28C256.519 281.234 256.829 281.195 257.082 281.161C257.337 281.126 257.532 281.072 257.665 280.999C257.799 280.925 257.866 280.805 257.866 280.641V280.487C257.866 280.041 257.732 279.69 257.465 279.435C257.201 279.176 256.82 279.047 256.323 279.047C255.852 279.047 255.467 279.151 255.168 279.358C254.873 279.565 254.665 279.81 254.546 280.091L253.826 279.831C253.974 279.473 254.178 279.187 254.44 278.974C254.701 278.759 254.994 278.604 255.317 278.51C255.641 278.413 255.969 278.365 256.302 278.365C256.552 278.365 256.812 278.398 257.082 278.463C257.354 278.528 257.607 278.642 257.84 278.804C258.073 278.963 258.262 279.186 258.407 279.473C258.552 279.757 258.624 280.118 258.624 280.555V285H257.866V283.964H257.819C257.728 284.158 257.593 284.345 257.414 284.527C257.235 284.709 257.011 284.858 256.741 284.974C256.471 285.091 256.154 285.149 255.79 285.149ZM255.893 284.455C256.296 284.455 256.646 284.365 256.941 284.186C257.237 284.007 257.464 283.77 257.623 283.474C257.785 283.176 257.866 282.848 257.866 282.49V281.544C257.809 281.598 257.714 281.646 257.58 281.689C257.45 281.732 257.298 281.77 257.124 281.804C256.954 281.835 256.783 281.862 256.613 281.885C256.442 281.908 256.289 281.928 256.153 281.945C255.783 281.99 255.468 282.061 255.207 282.158C254.945 282.254 254.745 282.388 254.606 282.558C254.467 282.726 254.397 282.942 254.397 283.206C254.397 283.604 254.539 283.912 254.823 284.131C255.107 284.347 255.464 284.455 255.893 284.455ZM260.8 285V276.273H261.562V279.703H261.631C261.716 279.507 261.838 279.305 261.997 279.098C262.159 278.891 262.371 278.717 262.632 278.578C262.896 278.436 263.229 278.365 263.629 278.365C264.166 278.365 264.638 278.507 265.044 278.791C265.45 279.072 265.767 279.467 265.994 279.976C266.222 280.482 266.335 281.071 266.335 281.744C266.335 282.42 266.222 283.013 265.994 283.521C265.77 284.03 265.455 284.426 265.048 284.71C264.645 284.994 264.176 285.136 263.642 285.136C263.244 285.136 262.912 285.065 262.645 284.923C262.381 284.781 262.168 284.607 262.006 284.399C261.844 284.189 261.719 283.984 261.631 283.786H261.537V285H260.8ZM261.55 281.732C261.55 282.26 261.628 282.729 261.784 283.138C261.943 283.544 262.17 283.864 262.466 284.097C262.764 284.327 263.125 284.442 263.548 284.442C263.983 284.442 264.351 284.322 264.652 284.084C264.953 283.842 265.182 283.517 265.338 283.108C265.494 282.699 265.572 282.24 265.572 281.732C265.572 281.229 265.494 280.776 265.338 280.372C265.185 279.969 264.957 279.649 264.656 279.413C264.355 279.175 263.986 279.055 263.548 279.055C263.122 279.055 262.76 279.17 262.462 279.401C262.166 279.628 261.94 279.943 261.784 280.347C261.628 280.747 261.55 281.209 261.55 281.732Z" fill="#BDBDBD"/>
<path d="M284.862 276.273H285.783L288.949 283.875H289.026L292.192 276.273H293.112V285H292.362V277.956H292.294L289.349 285H288.625L285.68 277.956H285.612V285H284.862V276.273ZM295.283 285V278.455H296.046V285H295.283ZM295.671 277.33C295.515 277.33 295.381 277.277 295.271 277.172C295.16 277.064 295.104 276.935 295.104 276.784C295.104 276.634 295.16 276.506 295.271 276.401C295.381 276.293 295.515 276.239 295.671 276.239C295.827 276.239 295.961 276.293 296.072 276.401C296.183 276.506 296.238 276.634 296.238 276.784C296.238 276.935 296.183 277.064 296.072 277.172C295.961 277.277 295.827 277.33 295.671 277.33ZM298.811 280.909V285H298.052V278.455H298.789V279.482H298.858C299.011 279.146 299.25 278.878 299.574 278.676C299.9 278.472 300.304 278.369 300.784 278.369C301.224 278.369 301.61 278.462 301.943 278.646C302.278 278.828 302.538 279.097 302.723 279.452C302.91 279.807 303.004 280.243 303.004 280.76V285H302.245V280.807C302.245 280.27 302.095 279.845 301.794 279.533C301.495 279.22 301.095 279.064 300.592 279.064C300.248 279.064 299.943 279.138 299.676 279.286C299.409 279.433 299.197 279.646 299.041 279.925C298.887 280.2 298.811 280.528 298.811 280.909Z" fill="#BDBDBD"/>
<path d="M54 177.5C54 173.358 57.3579 170 61.5 170C65.6421 170 69 173.358 69 177.5V265H54V177.5Z" fill="url(#paint0_linear_220_2293)"/>
<path d="M93.1665 145.5C93.1665 141.358 96.5244 138 100.667 138C104.809 138 108.167 141.358 108.167 145.5V265H93.1665V145.5Z" fill="url(#paint1_linear_220_2293)"/>
<path d="M132.333 177.5C132.333 173.358 135.691 170 139.833 170C143.976 170 147.333 173.358 147.333 177.5V265H132.333V177.5Z" fill="url(#paint2_linear_220_2293)"/>
<path d="M171.5 109.5C171.5 105.358 174.858 102 179 102C183.142 102 186.5 105.358 186.5 109.5V265H171.5V109.5Z" fill="url(#paint3_linear_220_2293)"/>
<path d="M210.667 63.5C210.667 59.3579 214.024 56 218.167 56C222.309 56 225.667 59.3579 225.667 63.5V265H210.667V63.5Z" fill="url(#paint4_linear_220_2293)"/>
<path d="M249.833 145.5C249.833 141.358 253.191 138 257.333 138C261.476 138 264.833 141.358 264.833 145.5V265H249.833V145.5Z" fill="url(#paint5_linear_220_2293)"/>
<path d="M289 215.5C289 211.358 292.358 208 296.5 208C300.642 208 304 211.358 304 215.5V265H289V215.5Z" fill="url(#paint6_linear_220_2293)"/>
<defs>
<linearGradient id="paint0_linear_220_2293" x1="61.418" y1="170" x2="76.3518" y2="262.618" gradientUnits="userSpaceOnUse">
<stop stop-color="#280594"/>
<stop offset="1" stop-color="#F8A39B"/>
</linearGradient>
<linearGradient id="paint1_linear_220_2293" x1="100.585" y1="138" x2="126.752" y2="259.395" gradientUnits="userSpaceOnUse">
<stop stop-color="#280594"/>
<stop offset="1" stop-color="#F8A39B"/>
</linearGradient>
<linearGradient id="paint2_linear_220_2293" x1="139.752" y1="170" x2="154.685" y2="262.618" gradientUnits="userSpaceOnUse">
<stop stop-color="#280594"/>
<stop offset="1" stop-color="#F8A39B"/>
</linearGradient>
<linearGradient id="paint3_linear_220_2293" x1="178.918" y1="102" x2="220.818" y2="253.453" gradientUnits="userSpaceOnUse">
<stop stop-color="#280594"/>
<stop offset="1" stop-color="#F8A39B"/>
</linearGradient>
<linearGradient id="paint4_linear_220_2293" x1="218.085" y1="56" x2="283.955" y2="241.692" gradientUnits="userSpaceOnUse">
<stop stop-color="#280594"/>
<stop offset="1" stop-color="#F8A39B"/>
</linearGradient>
<linearGradient id="paint5_linear_220_2293" x1="257.252" y1="138" x2="283.419" y2="259.395" gradientUnits="userSpaceOnUse">
<stop stop-color="#280594"/>
<stop offset="1" stop-color="#F8A39B"/>
</linearGradient>
<linearGradient id="paint6_linear_220_2293" x1="296.418" y1="208" x2="301.883" y2="264.487" gradientUnits="userSpaceOnUse">
<stop stop-color="#280594"/>
<stop offset="1" stop-color="#F8A39B"/>
</linearGradient>
</defs>
</svg>
