<svg width="27" height="27" viewBox="0 0 27 27" fill="none" xmlns="http://www.w3.org/2000/svg">
<path d="M22.455 10.08C21.7012 9.24751 20.565 8.76376 18.99 8.59501V7.74001C18.99 6.19876 18.3375 4.71376 17.19 3.67876C16.0312 2.62126 14.5237 2.12626 12.96 2.27251C10.2712 2.53126 8.00996 5.13001 8.00996 7.94251V8.59501C6.43496 8.76376 5.29871 9.24751 4.54496 10.08C3.45371 11.295 3.48746 12.915 3.61121 14.04L4.39871 20.3063C4.63496 22.5 5.52371 24.75 10.3612 24.75H16.6387C21.4762 24.75 22.365 22.5 22.6012 20.3175L23.3887 14.0288C23.5125 12.915 23.535 11.295 22.455 10.08ZM13.1175 3.83626C14.2425 3.73501 15.3112 4.08376 16.1437 4.83751C16.965 5.58001 17.4262 6.63751 17.4262 7.74001V8.52751H9.57371V7.94251C9.57371 5.94001 11.2275 4.01626 13.1175 3.83626ZM9.47246 14.7938H9.46121C8.84246 14.7938 8.33621 14.2875 8.33621 13.6688C8.33621 13.05 8.84246 12.5438 9.46121 12.5438C10.0912 12.5438 10.5975 13.05 10.5975 13.6688C10.5975 14.2875 10.0912 14.7938 9.47246 14.7938ZM17.3475 14.7938H17.3362C16.7175 14.7938 16.2112 14.2875 16.2112 13.6688C16.2112 13.05 16.7175 12.5438 17.3362 12.5438C17.9662 12.5438 18.4725 13.05 18.4725 13.6688C18.4725 14.2875 17.9662 14.7938 17.3475 14.7938Z" fill="#2B463C"/>
</svg>
