<svg width="27" height="27" viewBox="0 0 27 27" fill="none" xmlns="http://www.w3.org/2000/svg">
<g id="vuesax/outline/bag-2">
<g id="bag-2">
<path id="Vector" d="M18.5625 9.7086C18.1012 9.7086 17.7188 9.3261 17.7188 8.86485V7.31235C17.7188 6.1311 17.2125 4.9836 16.335 4.18485C15.4463 3.37485 14.2988 3.0036 13.0838 3.1161C11.0588 3.30735 9.28125 5.37735 9.28125 7.53735V8.6286C9.28125 9.08985 8.89875 9.47235 8.4375 9.47235C7.97625 9.47235 7.59375 9.08985 7.59375 8.6286V7.5261C7.59375 4.49985 10.035 1.70985 12.9262 1.4286C14.6137 1.2711 16.2337 1.79985 17.4712 2.9361C18.6975 4.04985 19.4062 5.64735 19.4062 7.31235V8.86485C19.4062 9.3261 19.0238 9.7086 18.5625 9.7086Z" fill="#C2A353"/>
<path id="Vector_2" d="M16.8753 25.5938H10.1253C4.92778 25.5938 3.96028 23.175 3.71278 20.8238L2.86903 14.085C2.74528 12.87 2.70028 11.1262 3.88153 9.82125C4.89403 8.69625 6.57028 8.15625 9.00028 8.15625H18.0003C20.4415 8.15625 22.1178 8.7075 23.119 9.82125C24.289 11.1262 24.2553 12.87 24.1315 14.0625L23.2878 20.8238C23.0403 23.175 22.0728 25.5938 16.8753 25.5938ZM9.00028 9.84375C7.09903 9.84375 5.79403 10.215 5.13028 10.9575C4.57903 11.565 4.39903 12.4988 4.54528 13.8938L5.38903 20.6325C5.58028 22.4325 6.07528 23.9175 10.1253 23.9175H16.8753C20.9253 23.9175 21.4203 22.4438 21.6115 20.655L22.4553 13.8938C22.6015 12.5213 22.4215 11.5875 21.8703 10.9688C21.2065 10.215 19.9015 9.84375 18.0003 9.84375H9.00028Z" fill="#C2A353"/>
<path id="Vector_3" d="M17.3472 14.7939C16.7172 14.7939 16.2109 14.2877 16.2109 13.6689C16.2109 13.0502 16.7172 12.5439 17.3359 12.5439C17.9547 12.5439 18.4609 13.0502 18.4609 13.6689C18.4609 14.2877 17.9659 14.7939 17.3472 14.7939Z" fill="#C2A353"/>
<path id="Vector_4" d="M9.47219 14.7939C8.84219 14.7939 8.33594 14.2877 8.33594 13.6689C8.33594 13.0502 8.84219 12.5439 9.46094 12.5439C10.0797 12.5439 10.5859 13.0502 10.5859 13.6689C10.5859 14.2877 10.0909 14.7939 9.47219 14.7939Z" fill="#C2A353"/>
</g>
</g>
</svg>
