<svg width="13" height="14" viewBox="0 0 13 14" fill="none" xmlns="http://www.w3.org/2000/svg">
<g id="vuesax/bold/star">
<g id="star">
<path id="Vector" d="M7.22384 3.2487L7.95821 4.71745C8.05717 4.92057 8.32279 5.11328 8.54675 5.15495L9.87488 5.3737C10.7238 5.51432 10.9218 6.12891 10.3124 6.74349L9.27592 7.77995C9.10404 7.95182 9.00509 8.29037 9.06238 8.53516L9.35925 9.81641C9.59363 10.8268 9.05196 11.2227 8.16134 10.6914L6.91654 9.95182C6.69259 9.81641 6.31759 9.81641 6.09363 9.95182L4.84884 10.6914C3.95821 11.2174 3.41654 10.8268 3.65092 9.81641L3.9478 8.53516C3.99467 8.28516 3.89571 7.94662 3.72384 7.77474L2.68738 6.73828C2.078 6.12891 2.27592 5.51432 3.12488 5.36849L4.453 5.14974C4.67696 5.11328 4.94259 4.91537 5.04154 4.71224L5.77592 3.24349C6.17696 2.45182 6.82279 2.45182 7.22384 3.2487Z" fill="#E2B93B"/>
</g>
</g>
</svg>
