<svg width="14" height="15" viewBox="0 0 14 15" fill="none" xmlns="http://www.w3.org/2000/svg">
<path d="M11.66 14.2852H2.34004C1.05216 14.2852 0 13.233 0 11.9451V2.6252C0 1.33731 1.05216 0.285156 2.34004 0.285156H11.66C12.9478 0.285156 14 1.33731 14 2.6252V11.9451C14 13.2388 12.9536 14.2852 11.66 14.2852Z" fill="#E8EBE0"/>
<path d="M7.00261 10.8822C6.04244 10.8822 5.13977 10.5085 4.46133 9.83001C3.7829 9.15157 3.40918 8.24891 3.40918 7.28874C3.40918 6.32858 3.7829 5.42591 4.46133 4.74747C5.13977 4.06903 6.04244 3.69531 7.00261 3.69531C7.96277 3.69531 8.86544 4.06903 9.54388 4.74747C10.2223 5.42591 10.596 6.32858 10.596 7.28874C10.596 8.24891 10.2223 9.15157 9.54388 9.83001C8.85969 10.5085 7.96277 10.8822 7.00261 10.8822ZM7.00261 4.45999C5.4445 4.45999 4.17386 5.72488 4.17386 7.28874C4.17386 8.84685 5.43875 10.1175 7.00261 10.1175C8.56072 10.1175 9.83136 8.8526 9.83136 7.28874C9.82561 5.73063 8.56072 4.45999 7.00261 4.45999Z" fill="#00674F"/>
<path d="M11.2964 3.5762C11.6775 3.5762 11.9864 3.2673 11.9864 2.88624C11.9864 2.50519 11.6775 2.19629 11.2964 2.19629C10.9153 2.19629 10.6064 2.50519 10.6064 2.88624C10.6064 3.2673 10.9153 3.5762 11.2964 3.5762Z" fill="#00674F"/>
</svg>
