<svg width="15" height="16" viewBox="0 0 15 16" fill="none" xmlns="http://www.w3.org/2000/svg">
<path d="M3.38726 5.21777H0.25293V15.2129H3.38726V5.21777Z" fill="#E8EBE0"/>
<path d="M11.8657 5.00122C11.7502 4.98677 11.6274 4.97955 11.5046 4.97233C9.74968 4.90011 8.76028 5.94007 8.41362 6.38783C8.31974 6.5106 8.2764 6.58282 8.2764 6.58282V5.24676H5.2793V15.2419H8.2764H8.41362C8.41362 14.2236 8.41362 13.2126 8.41362 12.1943C8.41362 11.6454 8.41362 11.0965 8.41362 10.5477C8.41362 9.86881 8.36307 9.14661 8.7025 8.52553C8.99138 8.00555 9.51135 7.74556 10.0963 7.74556C11.8296 7.74556 11.8657 9.31272 11.8657 9.45716C11.8657 9.46438 11.8657 9.4716 11.8657 9.4716V15.2853H15V8.76385C15 6.53227 13.8662 5.21787 11.8657 5.00122Z" fill="#E8EBE0"/>
<path d="M1.81993 3.92502C2.82505 3.92502 3.63986 3.11021 3.63986 2.10509C3.63986 1.09997 2.82505 0.285156 1.81993 0.285156C0.814807 0.285156 0 1.09997 0 2.10509C0 3.11021 0.814807 3.92502 1.81993 3.92502Z" fill="#E8EBE0"/>
</svg>
