<svg width="12" height="15" viewBox="0 0 12 15" fill="none" xmlns="http://www.w3.org/2000/svg">
<path d="M8.84629 0.813453L8.51123 0.285156H6.48359V5.04328L6.47668 9.69091C6.48014 9.72544 6.48359 9.76342 6.48359 9.79795C6.48359 10.9616 5.53713 11.9111 4.3696 11.9111C3.20207 11.9111 2.25561 10.965 2.25561 9.79795C2.25561 8.63431 3.20207 7.68476 4.3696 7.68476C4.6114 7.68476 4.84629 7.72965 5.0639 7.80561V5.48525C4.83938 5.44727 4.60794 5.42655 4.3696 5.42655C1.962 5.43001 0 7.39126 0 9.8014C0 12.2115 1.962 14.1728 4.37306 14.1728C6.78411 14.1728 8.74611 12.2115 8.74611 9.8014V4.27328C9.62003 5.14687 10.7496 5.99974 12 6.27252V3.90036C10.6425 3.29955 9.29188 1.52475 8.84629 0.813453Z" fill="#E8EBE0"/>
</svg>
