<svg width="26" height="26" viewBox="0 0 26 26" fill="none" xmlns="http://www.w3.org/2000/svg">
<g id="Group 76">
<g id="Group">
<path id="Vector" d="M5.19971 13.5C5.79971 12.2 6.09971 11.7 6.69971 10.6" stroke="white" stroke-width="1.5" stroke-miterlimit="10" stroke-linecap="round" stroke-linejoin="round"/>
<path id="Vector_2" d="M8.49979 22.4999C5.89979 22.4999 3.7998 20.3999 3.7998 17.7999" stroke="white" stroke-width="1.5" stroke-miterlimit="10" stroke-linecap="round" stroke-linejoin="round"/>
</g>
<g id="Group_2">
<path id="Vector_3" d="M16.1 17.7C16.1 19 15.8 20.2 15.2 21.2C13.9 23.6 11.4 25.2 8.5 25.2C4.3 25.2 1 21.8 1 17.7C1 13.6 8.5 1.09998 8.5 1.09998C8.5 1.09998 11.3 5.69997 13.5 10.3C14.9 13.2 16.1 16.1 16.1 17.7Z" stroke="white" stroke-width="1.5" stroke-miterlimit="10" stroke-linecap="round" stroke-linejoin="round"/>
<path id="Vector_4" d="M24.9 15.5C24.9 19.1 22 22 18.4 22C17.2 22 16.1 21.7 15.2 21.2C15.8 20.2 16.1 19 16.1 17.7C16.1 16.1 14.9 13.2 13.5 10.2C15.4 5.9 18.4 1 18.4 1C18.4 1 24.9 11.9 24.9 15.5Z" stroke="white" stroke-width="1.5" stroke-miterlimit="10" stroke-linecap="round" stroke-linejoin="round"/>
<path id="Vector_5" d="M16.1001 10.9C16.6001 9.80002 16.9001 9.30002 17.4001 8.40002" stroke="white" stroke-width="1.5" stroke-miterlimit="10" stroke-linecap="round" stroke-linejoin="round"/>
</g>
</g>
</svg>
