<svg width="28" height="33" viewBox="0 0 28 33" fill="none" xmlns="http://www.w3.org/2000/svg">
<path d="M21.5 27.4L19.7 26.9L20.2 28.7C18.4 30.3 16.3 31.3 14 31.3C11.8 31.3 9.69999 30.3 7.79999 28.7L8.29999 26.9L6.5 27.4C3.2 23.8 1 18.2 1 13.9C1 11.3 1.80001 8.8 3.20001 6.7L6.39999 7.59999L5.5 4.2C7.8 2.2 10.8 1 14.1 1C17.4 1 20.4 2.2 22.7 4.2L21.8 7.59999L25 6.7C26.4 8.8 27.2 11.2 27.2 13.9C27 18.2 24.9 23.7 21.5 27.4Z" stroke="white" stroke-width="1.5" stroke-miterlimit="10" stroke-linecap="round" stroke-linejoin="round"/>
</svg>
