<svg width="28" height="33" viewBox="0 0 28 33" fill="none" xmlns="http://www.w3.org/2000/svg">
<g id="Group 72">
<path id="Vector" d="M21.5 27.4L19.7 26.9L20.2 28.7C18.4 30.3 16.3 31.3 14 31.3C11.8 31.3 9.69999 30.3 7.79999 28.7L8.29999 26.9L6.5 27.4C3.2 23.8 1 18.2 1 13.9C1 11.3 1.80001 8.8 3.20001 6.7L6.39999 7.59999L5.5 4.2C7.8 2.2 10.8 1 14.1 1C17.4 1 20.4 2.2 22.7 4.2L21.8 7.59999L25 6.7C26.4 8.8 27.2 11.2 27.2 13.9C27 18.2 24.9 23.7 21.5 27.4Z" stroke="white" stroke-width="1.5" stroke-miterlimit="10" stroke-linecap="round" stroke-linejoin="round"/>
<g id="Group">
<g id="Group_2">
<path id="Vector_2" d="M8.60001 17.7C10.4225 17.7 11.9 16.8045 11.9 15.7C11.9 14.5954 10.4225 13.7 8.60001 13.7C6.77747 13.7 5.29999 14.5954 5.29999 15.7C5.29999 16.8045 6.77747 17.7 8.60001 17.7Z" stroke="white" stroke-width="1.5" stroke-miterlimit="10" stroke-linecap="round" stroke-linejoin="round"/>
<path id="Vector_3" d="M19.5 17.7C21.3225 17.7 22.8 16.8045 22.8 15.7C22.8 14.5954 21.3225 13.7 19.5 13.7C17.6775 13.7 16.2 14.5954 16.2 15.7C16.2 16.8045 17.6775 17.7 19.5 17.7Z" stroke="white" stroke-width="1.5" stroke-miterlimit="10" stroke-linecap="round" stroke-linejoin="round"/>
</g>
<path id="Vector_4" d="M14 25.5999C15.6569 25.5999 17 25.0179 17 24.2999C17 23.5819 15.6569 22.9999 14 22.9999C12.3431 22.9999 11 23.5819 11 24.2999C11 25.0179 12.3431 25.5999 14 25.5999Z" stroke="white" stroke-width="1.5" stroke-miterlimit="10" stroke-linecap="round" stroke-linejoin="round"/>
</g>
</g>
</svg>
