<svg width="33" height="31" viewBox="0 0 33 31" fill="none" xmlns="http://www.w3.org/2000/svg">
<g id="Group 96">
<g id="Group">
<g id="Group_2">
<path id="Vector" d="M31.7836 19.1687C27.9925 19.1687 27.9925 17.3193 24.2939 17.3193C20.5028 17.3193 20.5028 19.1687 16.8041 19.1687C13.013 19.1687 13.013 17.3193 9.22188 17.3193C5.43076 17.3193 5.43076 19.1687 1.63965 19.1687" stroke="white" stroke-width="1.5" stroke-miterlimit="10" stroke-linecap="round" stroke-linejoin="round"/>
</g>
<g id="Group_3">
<path id="Vector_2" d="M31.7836 16.3947C27.9925 16.3947 27.9925 14.5454 24.2939 14.5454C20.5028 14.5454 20.5028 16.3947 16.8041 16.3947C13.013 16.3947 13.013 14.5454 9.22188 14.5454C5.43076 14.5454 5.43076 16.3947 1.63965 16.3947" stroke="white" stroke-width="1.5" stroke-miterlimit="10" stroke-linecap="round" stroke-linejoin="round"/>
</g>
</g>
<g id="Group_4">
<g id="Group_5">
<path id="Vector_3" d="M17.174 11.4939C15.8794 11.4939 14.8623 10.4768 14.8623 9.18225" stroke="white" stroke-width="1.5" stroke-miterlimit="10" stroke-linecap="round" stroke-linejoin="round"/>
<path id="Vector_4" d="M20.3177 9.73712C20.3177 10.3844 20.1328 10.9392 19.8554 11.4015C19.2081 12.6036 18.0061 13.3433 16.6191 13.3433C14.5848 13.3433 12.9204 11.6789 12.9204 9.64464C12.9204 7.61039 16.6191 1.6001 16.6191 1.6001C16.6191 1.6001 18.0061 3.81928 19.0232 6.03847C19.7629 7.51793 20.3177 8.90492 20.3177 9.73712Z" stroke="white" stroke-width="1.5" stroke-miterlimit="10" stroke-linecap="round" stroke-linejoin="round"/>
</g>
<g id="Group_6">
<g id="Group_7">
<path id="Vector_5" d="M5.61572 4.18909V11.6789" stroke="white" stroke-width="1.5" stroke-miterlimit="10" stroke-linecap="round" stroke-linejoin="round"/>
<path id="Vector_6" d="M7.55742 9.64453L5.61562 11.6788L3.67383 9.64453" stroke="white" stroke-width="1.5" stroke-miterlimit="10" stroke-linecap="round" stroke-linejoin="round"/>
</g>
<g id="Group_8">
<path id="Vector_7" d="M27.7153 4.18909V11.6789" stroke="white" stroke-width="1.5" stroke-miterlimit="10" stroke-linecap="round" stroke-linejoin="round"/>
<path id="Vector_8" d="M29.7495 9.64453L27.7152 11.6788L25.7734 9.64453" stroke="white" stroke-width="1.5" stroke-miterlimit="10" stroke-linecap="round" stroke-linejoin="round"/>
</g>
</g>
</g>
<g id="Group_9">
<g id="Group_10">
<path id="Vector_9" d="M24.9408 28.3229C24.9408 28.6003 24.8483 28.8777 24.7558 29.155C24.4785 29.7098 23.9237 30.0797 23.2764 30.0797C22.3517 30.0797 21.5195 29.34 21.5195 28.3229C21.5195 27.3982 23.2764 24.5317 23.2764 24.5317C23.2764 24.5317 23.9237 25.5489 24.386 26.6585C24.6634 27.3057 24.9408 27.953 24.9408 28.3229Z" stroke="white" stroke-width="1.5" stroke-miterlimit="10" stroke-linecap="round" stroke-linejoin="round"/>
<g id="Group_11">
<path id="Vector_10" d="M18.3758 25.5488C18.3758 25.8262 18.2834 26.1036 18.1909 26.381C17.9135 26.9358 17.3587 27.3057 16.7114 27.3057C15.7868 27.3057 14.9546 26.5659 14.9546 25.5488C14.9546 24.6241 16.7114 21.7577 16.7114 21.7577C16.7114 21.7577 17.3587 22.7748 17.821 23.8844C18.0984 24.5317 18.3758 25.1789 18.3758 25.5488Z" stroke="white" stroke-width="1.5" stroke-miterlimit="10" stroke-linecap="round" stroke-linejoin="round"/>
<path id="Vector_11" d="M31.4134 25.5488C31.4134 25.8262 31.321 26.1036 31.2285 26.381C30.9511 26.9358 30.3963 27.3057 29.7491 27.3057C28.8244 27.3057 27.9922 26.5659 27.9922 25.5488C27.9922 24.6241 29.7491 21.7577 29.7491 21.7577C29.7491 21.7577 30.3963 22.7748 30.8586 23.8844C31.136 24.5317 31.4134 25.1789 31.4134 25.5488Z" stroke="white" stroke-width="1.5" stroke-miterlimit="10" stroke-linecap="round" stroke-linejoin="round"/>
</g>
</g>
<g id="Group_12">
<path id="Vector_12" d="M11.9032 28.3227C11.9032 28.6001 11.8107 28.8775 11.7183 29.1549C11.4409 29.7097 10.886 30.0796 10.2388 30.0796C9.31412 30.0796 8.48193 29.3399 8.48193 28.3227C8.48193 27.3981 10.2388 24.5316 10.2388 24.5316C10.2388 24.5316 10.886 25.5487 11.3484 26.6583C11.6258 27.3056 11.9032 27.9529 11.9032 28.3227Z" stroke="white" stroke-width="1.5" stroke-miterlimit="10" stroke-linecap="round" stroke-linejoin="round"/>
<g id="Group_13">
<path id="Vector_13" d="M5.33824 25.5488C5.33824 25.8262 5.24578 26.1036 5.15331 26.381C4.87591 26.9358 4.32111 27.3057 3.67384 27.3057C2.74918 27.3057 1.91699 26.5659 1.91699 25.5488C1.91699 24.6241 3.67384 21.7577 3.67384 21.7577C3.67384 21.7577 4.32112 22.7748 4.78345 23.8844C5.06085 24.5317 5.33824 25.1789 5.33824 25.5488Z" stroke="white" stroke-width="1.5" stroke-miterlimit="10" stroke-linecap="round" stroke-linejoin="round"/>
</g>
</g>
</g>
</g>
</svg>
