<svg width="100" height="31" viewBox="0 0 100 31" fill="none" xmlns="http://www.w3.org/2000/svg">
<path d="M0 10.9805C0 5.45762 4.47715 0.980469 10 0.980469H50V30.9805H10C4.47715 30.9805 0 26.5033 0 20.9805V10.9805Z" fill="url(#paint0_linear_361_2323)"/>
<path d="M18.0627 20V11.2727H21.0115C21.6934 11.2727 22.253 11.3892 22.6905 11.6222C23.128 11.8523 23.4519 12.169 23.6621 12.5724C23.8723 12.9759 23.9775 13.4347 23.9775 13.9489C23.9775 14.4631 23.8723 14.919 23.6621 15.3168C23.4519 15.7145 23.1294 16.027 22.6948 16.2543C22.2601 16.4787 21.7047 16.5909 21.0286 16.5909H18.6422V15.6364H20.9945C21.4604 15.6364 21.8354 15.5682 22.1195 15.4318C22.4064 15.2955 22.6138 15.1023 22.7417 14.8523C22.8723 14.5994 22.9377 14.2983 22.9377 13.9489C22.9377 13.5994 22.8723 13.294 22.7417 13.0327C22.611 12.7713 22.4022 12.5696 22.1152 12.4276C21.8283 12.2827 21.449 12.2102 20.9775 12.2102H19.1195V20H18.0627ZM22.1706 16.0795L24.3184 20H23.0911L20.9775 16.0795H22.1706ZM25.6021 22.4545V13.4545H26.5737V14.4943H26.693C26.7669 14.3807 26.8691 14.2358 26.9998 14.0597C27.1333 13.8807 27.3237 13.7216 27.5708 13.5824C27.8208 13.4403 28.1589 13.3693 28.585 13.3693C29.1362 13.3693 29.622 13.5071 30.0424 13.7827C30.4629 14.0582 30.791 14.4489 31.0268 14.9545C31.2626 15.4602 31.3805 16.0568 31.3805 16.7443C31.3805 17.4375 31.2626 18.0384 31.0268 18.5469C30.791 19.0526 30.4643 19.4446 30.0467 19.723C29.6291 19.9986 29.1475 20.1364 28.6021 20.1364C28.1816 20.1364 27.845 20.0668 27.5922 19.9276C27.3393 19.7855 27.1447 19.625 27.0083 19.446C26.872 19.2642 26.7669 19.1136 26.693 18.9943H26.6078V22.4545H25.6021ZM26.5907 16.7273C26.5907 17.2216 26.6632 17.6577 26.8081 18.0355C26.9529 18.4105 27.1646 18.7045 27.443 18.9176C27.7214 19.1278 28.0623 19.233 28.4657 19.233C28.8862 19.233 29.237 19.1222 29.5183 18.9006C29.8024 18.6761 30.0154 18.375 30.1575 17.9972C30.3024 17.6165 30.3748 17.1932 30.3748 16.7273C30.3748 16.267 30.3038 15.8523 30.1618 15.483C30.0225 15.1108 29.8109 14.8168 29.5268 14.6009C29.2456 14.3821 28.8919 14.2727 28.4657 14.2727C28.0566 14.2727 27.7129 14.3764 27.4345 14.5838C27.1561 14.7884 26.9458 15.0753 26.8038 15.4446C26.6618 15.8111 26.5907 16.2386 26.5907 16.7273Z" fill="white"/>
<mask id="path-3-inside-1_361_2323" fill="white">
<path d="M50 0.980469H90C95.5228 0.980469 100 5.45762 100 10.9805V20.9805C100 26.5033 95.5228 30.9805 90 30.9805H50V0.980469Z"/>
</mask>
<path d="M50 0.980469H90C95.5228 0.980469 100 5.45762 100 10.9805V20.9805C100 26.5033 95.5228 30.9805 90 30.9805H50V0.980469Z" fill="#F6F6F6"/>
<path d="M50 0.980469H100H50ZM100 30.9805H50H100ZM49 30.9805V0.980469H51V30.9805H49ZM100 0.980469V30.9805V0.980469Z" fill="white" mask="url(#path-3-inside-1_361_2323)"/>
<path d="M75.4773 18.8441V18.3839C75.4773 18.0657 75.5426 17.7745 75.6733 17.5103C75.8068 17.2433 76 17.0302 76.2528 16.8711C76.5085 16.7092 76.8182 16.6282 77.1818 16.6282C77.5511 16.6282 77.8608 16.7092 78.1108 16.8711C78.3608 17.0302 78.5497 17.2433 78.6776 17.5103C78.8054 17.7745 78.8693 18.0657 78.8693 18.3839V18.8441C78.8693 19.1623 78.804 19.4549 78.6733 19.7219C78.5455 19.9862 78.3551 20.1992 78.1023 20.3612C77.8523 20.5202 77.5455 20.5998 77.1818 20.5998C76.8125 20.5998 76.5014 20.5202 76.2486 20.3612C75.9957 20.1992 75.804 19.9862 75.6733 19.7219C75.5426 19.4549 75.4773 19.1623 75.4773 18.8441ZM76.3466 18.3839V18.8441C76.3466 19.1083 76.4091 19.3455 76.5341 19.5558C76.6591 19.7631 76.875 19.8668 77.1818 19.8668C77.4801 19.8668 77.6903 19.7631 77.8125 19.5558C77.9375 19.3455 78 19.1083 78 18.8441V18.3839C78 18.1197 77.9403 17.8839 77.821 17.6765C77.7017 17.4663 77.4886 17.3612 77.1818 17.3612C76.8835 17.3612 76.669 17.4663 76.5384 17.6765C76.4105 17.8839 76.3466 18.1197 76.3466 18.3839ZM71.1307 13.8498V13.3896C71.1307 13.0714 71.196 12.7802 71.3267 12.516C71.4602 12.2489 71.6534 12.0359 71.9062 11.8768C72.1619 11.7148 72.4716 11.6339 72.8352 11.6339C73.2045 11.6339 73.5142 11.7148 73.7642 11.8768C74.0142 12.0359 74.2031 12.2489 74.331 12.516C74.4588 12.7802 74.5227 13.0714 74.5227 13.3896V13.8498C74.5227 14.168 74.4574 14.4606 74.3267 14.7276C74.1989 14.9918 74.0085 15.2049 73.7557 15.3668C73.5057 15.5259 73.1989 15.6055 72.8352 15.6055C72.4659 15.6055 72.1548 15.5259 71.902 15.3668C71.6491 15.2049 71.4574 14.9918 71.3267 14.7276C71.196 14.4606 71.1307 14.168 71.1307 13.8498ZM72 13.3896V13.8498C72 14.114 72.0625 14.3512 72.1875 14.5614C72.3125 14.7688 72.5284 14.8725 72.8352 14.8725C73.1335 14.8725 73.3438 14.7688 73.4659 14.5614C73.5909 14.3512 73.6534 14.114 73.6534 13.8498V13.3896C73.6534 13.1254 73.5938 12.8896 73.4744 12.6822C73.3551 12.4719 73.142 12.3668 72.8352 12.3668C72.5369 12.3668 72.3224 12.4719 72.1918 12.6822C72.0639 12.8896 72 13.1254 72 13.3896ZM71.4545 20.4805L77.4545 11.7532H78.4261L72.4261 20.4805H71.4545Z" fill="#BDBDBD"/>
<defs>
<linearGradient id="paint0_linear_361_2323" x1="50" y1="16.3636" x2="-0.000536183" y2="16.3269" gradientUnits="userSpaceOnUse">
<stop stop-color="#C2A353"/>
<stop offset="1" stop-color="#EAC564"/>
</linearGradient>
</defs>
</svg>
