<svg width="80" height="60" viewBox="0 0 80 60" fill="none"
    xmlns="http://www.w3.org/2000/svg">
    <g clip-path="url(#clip0_705_4346)">
        <path d="M0.928719 7.64307H15.2113C18.2789 7.64307 20.5022 8.64682 21.8812 10.6544C23.2602 12.6619 23.9497 14.7492 23.9497 16.9162C23.9497 19.2239 23.232 21.4003 21.7968 23.4453C20.3709 25.4905 18.3868 26.5129 15.8445 26.5129H0.928719V25.8515H3.10981V8.30441H0.928719V7.64307ZM14.8736 23.164V10.978C14.8736 9.87105 14.7704 9.1487 14.564 8.811C14.3576 8.47327 13.7572 8.30441 12.7629 8.30441H11.3276V25.8515H12.4814C13.4101 25.8515 14.0387 25.6781 14.367 25.3309C14.7047 24.984 14.8736 24.2614 14.8736 23.164Z" fill="#2B463C"/>
        <path d="M22.9647 31.5898C20.9666 31.7492 19.9675 33.5128 19.9675 36.8807V49.7983H15.4224L4.23553 34.3758V43.3676C4.23553 47.1949 5.40814 49.1181 7.75341 49.1368V49.7983H0.464363V49.1368C1.55256 49.0806 2.3218 48.5646 2.77208 47.5889C3.23175 46.6135 3.46158 45.544 3.46158 44.3806V33.3206L2.2233 31.5898H0.464363V30.9284H11.3838L19.2217 41.7353V37.1198C19.2217 35.253 18.959 33.8647 18.4337 32.9547C17.9083 32.0447 17.1156 31.5898 16.0556 31.5898H15.4224V30.9284H22.9647V31.5898Z" fill="#2B463C"/>
        <path d="M43.9301 24.7083C44.2723 24.7083 44.5695 24.8055 44.8217 25.0001C45.0739 25.1945 45.2 25.4216 45.2 25.6809C45.2 25.9691 45.0847 26.205 44.8542 26.3887C44.6236 26.5688 44.3265 26.6589 43.9627 26.6589C43.5878 26.6589 43.2745 26.5635 43.0222 26.3726C42.7703 26.178 42.6441 25.9403 42.6441 25.6593C42.6441 25.3962 42.7684 25.173 43.0169 24.9893C43.2692 24.8019 43.5735 24.7083 43.9301 24.7083Z" fill="#2B463C"/>
        <path d="M40.4385 24.6133C40.1854 26.0205 39.3494 26.7242 37.9311 26.7242C37.3176 26.7242 36.8025 26.6536 36.3859 26.513C35.9696 26.3779 35.6291 26.1639 35.3644 25.8714C35.1055 25.573 34.9197 25.2072 34.8071 24.7737C34.7002 24.3348 34.6467 23.3582 34.6467 21.844C34.6467 21.4107 34.5651 21.118 34.4018 20.966C34.2386 20.814 33.929 20.738 33.4732 20.738C33.1975 20.738 32.989 20.7437 32.8484 20.7549V26.1162H33.9882V26.513H26.5837V26.1162H27.9177V15.5879H26.5837V15.191H35.9806C37.4667 15.191 38.4263 15.4584 38.8597 15.9931C39.2987 16.5222 39.5184 17.147 39.5184 17.8674C39.5184 18.5204 39.3494 19.0832 39.0116 19.556C38.6741 20.0232 38.1927 20.3581 37.568 20.5607C38.3504 20.8422 38.8542 21.1574 39.0792 21.5063C39.3044 21.8553 39.4169 22.3366 39.4169 22.9501L39.3662 24.6808C39.3662 25.0017 39.4368 25.1622 39.5774 25.1622C39.6505 25.1622 39.7321 25.1002 39.8223 24.9764C39.9179 24.8468 39.9855 24.6893 40.0249 24.5035L40.4385 24.6133ZM34.6637 19.1508V16.7614C34.6637 16.283 34.5821 15.9678 34.4189 15.8158C34.2554 15.6638 33.9207 15.5879 33.4142 15.5879H32.8484V20.3581H33.144C33.7349 20.3581 34.1346 20.268 34.3428 20.0879C34.5568 19.9078 34.6637 19.5954 34.6637 19.1508Z" fill="#2B463C"/>
        <path d="M18.2493 55.3603C18.5807 55.4396 18.8341 55.5885 19.0094 55.8068C19.1847 56.0254 19.2723 56.2944 19.2723 56.6137C19.2723 57.0077 19.139 57.3151 18.8725 57.5359C18.6083 57.757 18.1892 57.8675 17.6153 57.8675H13.5555V57.6982H14.1679V53.206H13.5555V53.0368H17.6585C18.0259 53.0368 18.3045 53.0776 18.4942 53.1592C18.6864 53.2385 18.8376 53.3801 18.9481 53.5843C19.061 53.7861 19.1174 54.0058 19.1174 54.2435C19.1174 54.8561 18.8281 55.2233 18.2493 55.3457V55.3603ZM17.0533 54.8487V53.8472C17.0533 53.5832 17.0221 53.4103 16.9597 53.3284C16.8996 53.2468 16.7735 53.206 16.5814 53.206H16.2716V55.3531H16.5958C16.7759 55.3531 16.8972 55.3183 16.9597 55.2487C17.0221 55.1765 17.0533 55.0433 17.0533 54.8487ZM17.0533 57.2551V55.9726C17.0533 55.7757 17.0221 55.6496 16.9597 55.5945C16.8996 55.5369 16.7687 55.508 16.567 55.508H16.2716V57.6982H16.5958C16.7783 57.6982 16.8996 57.6706 16.9597 57.6152C17.0221 57.5601 17.0533 57.44 17.0533 57.2551ZM23.6337 56.3546H21.7135V56.9958C21.7135 57.1998 21.7256 57.345 21.7496 57.4315C21.7736 57.5179 21.8204 57.589 21.8901 57.6441C21.9597 57.6994 22.0462 57.7271 22.1494 57.7271C22.3656 57.7271 22.5913 57.6549 22.8266 57.5108C23.0644 57.3667 23.2745 57.171 23.4571 56.9236L23.5723 57.0497C23.1089 57.6597 22.5481 57.9648 21.8901 57.9648C21.3449 57.9648 20.8898 57.8195 20.5248 57.5288C20.1621 57.2358 19.9808 56.8745 19.9808 56.4445C19.9808 55.9834 20.1658 55.5979 20.5356 55.2881C20.9078 54.9759 21.3725 54.8199 21.9297 54.8199C22.3644 54.8199 22.739 54.958 23.0536 55.2341C23.3706 55.508 23.564 55.8813 23.6337 56.3546ZM22.3944 56.2068V55.3531C22.3944 55.0912 22.2863 54.9605 22.0702 54.9605C21.8324 54.9605 21.7135 55.0912 21.7135 55.3531V56.2068H22.3944ZM28.3984 57.2911C28.1798 57.7402 27.7798 57.9648 27.1986 57.9648C26.8816 57.9648 26.6151 57.8592 26.3991 57.6477C26.0627 57.8592 25.7266 57.9648 25.3904 57.9648C25.0421 57.9648 24.7539 57.8831 24.5259 57.7197C24.2999 57.5541 24.1872 57.3476 24.1872 57.1002C24.1872 56.8192 24.3062 56.5994 24.5439 56.4408C24.7816 56.2801 25.1082 56.1997 25.5237 56.1997C25.843 56.1997 26.1229 56.2393 26.3629 56.3184V55.6016C26.3629 55.4071 26.3389 55.275 26.291 55.2053C26.243 55.1334 26.1697 55.0792 26.0712 55.0433C25.9728 55.0073 25.8635 54.9893 25.7434 54.9893C25.5922 54.9893 25.4792 55.0073 25.4047 55.0433C25.6641 55.12 25.7939 55.2918 25.7939 55.5583C25.7939 55.736 25.7409 55.8778 25.6353 55.9834C25.5297 56.089 25.389 56.142 25.2138 56.142C25.0289 56.142 24.8788 56.0879 24.7636 55.9797C24.6506 55.8718 24.5944 55.7312 24.5944 55.5583C24.5944 55.3231 24.7082 55.1417 24.9365 55.0144C25.167 54.8846 25.4923 54.8199 25.9126 54.8199C26.3594 54.8199 26.7255 54.8512 27.0114 54.9137C27.2971 54.9759 27.5073 55.0552 27.6417 55.1514C27.7764 55.245 27.8688 55.3446 27.9191 55.4504C27.9696 55.5537 27.9949 55.7144 27.9949 55.9329V57.2911C27.9949 57.3656 27.9972 57.4147 28.0021 57.4389C28.0092 57.4629 28.0261 57.4748 28.0526 57.4748C28.098 57.4748 28.1701 57.3921 28.2686 57.2263L28.3984 57.2911ZM26.3629 57.5145V56.4805C26.2093 56.4205 26.0892 56.3906 26.0028 56.3906C25.9066 56.3906 25.8382 56.4146 25.7973 56.4625C25.7565 56.5107 25.7363 56.5898 25.7363 56.7004V57.3667C25.7363 57.5684 25.8093 57.6694 25.956 57.6694C26.0424 57.6694 26.178 57.6178 26.3629 57.5145ZM33.4368 57.8675H31.387V57.4857C30.9861 57.805 30.5729 57.9648 30.1478 57.9648C29.8836 57.9648 29.653 57.906 29.4561 57.7882C29.2618 57.668 29.1645 57.4483 29.1645 57.129V55.0181H28.7825V54.874H29.9894C30.2319 54.874 30.5033 54.8415 30.8035 54.7767V57.0785C30.8035 57.2443 30.818 57.3547 30.8468 57.4101C30.8756 57.4652 30.9247 57.4928 30.9944 57.4928C31.1241 57.4928 31.2549 57.4232 31.387 57.2839V55.0181H30.9727V54.874H32.2264C32.4954 54.874 32.7631 54.8415 33.0296 54.7767V57.7197H33.4368V57.8675ZM36.6236 56.8049C36.4724 57.266 36.2875 57.565 36.0689 57.7017C35.8527 57.8363 35.591 57.9034 35.2837 57.9034C34.604 57.9034 34.2642 57.6406 34.2642 57.1145V55.0181H33.9039V54.874C34.3193 54.8332 34.7108 54.6518 35.0783 54.3299C35.4481 54.0081 35.6689 53.6996 35.7411 53.4043H35.9032V54.874H36.3822V55.0181H35.9032V56.9812C35.9032 57.1518 35.9115 57.26 35.9283 57.3054C35.9477 57.351 35.9813 57.3739 36.0293 57.3739C36.1614 57.3739 36.2958 57.1698 36.4327 56.7615L36.6236 56.8049ZM40.776 55.0181C40.6365 55.0421 40.5213 55.0972 40.4302 55.1837C40.3389 55.2701 40.2405 55.419 40.1346 55.6305L38.5028 58.8544C38.2771 59.2987 38.0046 59.5209 37.6851 59.5209C37.481 59.5209 37.313 59.4562 37.1809 59.3264C37.0488 59.1968 36.9826 59.0322 36.9826 58.833C36.9826 58.6264 37.0476 58.4547 37.1772 58.3177C37.3093 58.1808 37.4739 58.1123 37.6708 58.1123C37.8485 58.1123 37.9998 58.1639 38.1247 58.2672C38.252 58.3731 38.3311 58.5171 38.3624 58.6995H38.3767L38.8198 57.8386L37.206 55.0181H37.0114V54.874H39.4107V55.0181H39.1009L39.7132 56.095C39.8598 55.8142 39.9426 55.6401 39.9617 55.5728C39.9834 55.5055 39.9942 55.449 39.9942 55.4034C39.9942 55.2761 39.9571 55.185 39.8826 55.1297C39.8105 55.0721 39.6952 55.035 39.5368 55.0181V54.874H40.776V55.0181ZM49.3976 57.8675H46.4401V57.6982H46.984L46.5266 56.3832H44.8514C44.8083 56.5275 44.7866 56.6654 44.7866 56.7975C44.7866 57.0522 44.8503 57.266 44.9775 57.4389C45.1071 57.6092 45.3353 57.6957 45.662 57.6982V57.8675H43.7814V57.6982C43.9232 57.6501 44.0662 57.5228 44.2103 57.3162C44.3567 57.1073 44.4768 56.8708 44.5704 56.6066L45.8564 53.0368H47.5064L49.1311 57.6982H49.3976V57.8675ZM46.4761 56.214L45.6943 53.9661H45.68L44.9054 56.214H46.4761ZM53.5029 56.3546H51.5829V56.9958C51.5829 57.1998 51.5949 57.345 51.6191 57.4315C51.6431 57.5179 51.6899 57.589 51.7595 57.6441C51.8292 57.6994 51.9156 57.7271 52.0189 57.7271C52.2349 57.7271 52.4609 57.6549 52.696 57.5108C52.9339 57.3667 53.144 57.171 53.3266 56.9236L53.4418 57.0497C52.9782 57.6597 52.4175 57.9648 51.7595 57.9648C51.2143 57.9648 50.7592 57.8195 50.3942 57.5288C50.0316 57.2358 49.8504 56.8745 49.8504 56.4445C49.8504 55.9834 50.0353 55.5979 50.4051 55.2881C50.7772 54.9759 51.242 54.8199 51.7992 54.8199C52.2338 54.8199 52.6084 54.958 52.9231 55.2341C53.2401 55.508 53.4333 55.8813 53.5029 56.3546ZM52.2637 56.2068V55.3531C52.2637 55.0912 52.1558 54.9605 51.9396 54.9605C51.7019 54.9605 51.5829 55.0912 51.5829 55.3531V56.2068H52.2637ZM56.9708 56.0231C56.918 55.6533 56.7523 55.3842 56.4738 55.2162C56.1953 55.0456 55.9154 54.9605 55.6343 54.9605C55.5527 54.9605 55.4868 54.9785 55.4363 55.0144C55.3858 55.0481 55.3607 55.0912 55.3607 55.1442C55.3607 55.2042 55.387 55.2558 55.44 55.2989C55.4928 55.3397 55.5733 55.3868 55.6814 55.4396C56.1351 55.6701 56.4461 55.8345 56.6142 55.9329C56.7825 56.0291 56.912 56.1178 57.0033 56.1997C57.0946 56.2788 57.1643 56.3797 57.2122 56.5022C57.2627 56.6246 57.2878 56.7555 57.2878 56.8948C57.2878 57.2192 57.1594 57.4783 56.9024 57.6729C56.6455 57.8675 56.2997 57.9648 55.8649 57.9648C55.3655 57.9648 54.9344 57.8483 54.5718 57.6152L54.0998 57.9864V56.6066H54.2548C54.2859 56.9476 54.436 57.2203 54.705 57.4243C54.9764 57.6261 55.309 57.7271 55.7028 57.7271C55.9191 57.7271 56.0272 57.6466 56.0272 57.4857C56.0272 57.4184 56.0044 57.3644 55.9587 57.3236C55.9154 57.2803 55.8375 57.2406 55.7245 57.2046C55.1313 57.0006 54.7158 56.7915 54.4782 56.5778C54.2405 56.3618 54.1215 56.1275 54.1215 55.8753C54.1215 55.544 54.2524 55.2715 54.5141 55.0575C54.7783 54.8415 55.1122 54.7334 55.5156 54.7334C55.8518 54.7334 56.2036 54.8344 56.5711 55.0361L57.1258 54.7083V56.0231H56.9708ZM60.536 56.8049C60.3848 57.266 60.1999 57.565 59.9813 57.7017C59.7651 57.8363 59.5034 57.9034 59.1958 57.9034C58.5164 57.9034 58.1766 57.6406 58.1766 57.1145V55.0181H57.8162V54.874C58.2317 54.8332 58.6232 54.6518 58.9907 54.3299C59.3605 54.0081 59.5813 53.6996 59.6535 53.4043H59.8156V54.874H60.2946V55.0181H59.8156V56.9812C59.8156 57.1518 59.8239 57.26 59.8407 57.3054C59.8601 57.351 59.8937 57.3739 59.9417 57.3739C60.0738 57.3739 60.2082 57.1698 60.3451 56.7615L60.536 56.8049ZM65.7439 57.8675H63.395V57.7197H63.6401V55.5871C63.6401 55.3326 63.5608 55.2053 63.4024 55.2053C63.2871 55.2053 63.1573 55.2618 63.0133 55.3748V57.7197H63.2655V57.8675H60.924V57.7197H61.3743V53.1846H60.924V53.0368H62.1344C62.468 53.0368 62.761 53.0068 63.0133 52.9467V55.1982C63.4239 54.946 63.8347 54.8199 64.2453 54.8199C64.5814 54.8199 64.8397 54.9088 65.0197 55.0866C65.2023 55.2641 65.2936 55.5249 65.2936 55.8682V57.7197H65.7439V57.8675ZM69.8458 56.3546H67.9258V56.9958C67.9258 57.1998 67.9377 57.345 67.9617 57.4315C67.9857 57.5179 68.0325 57.589 68.1021 57.6441C68.1718 57.6994 68.2582 57.7271 68.3615 57.7271C68.5778 57.7271 68.8035 57.6549 69.0388 57.5108C69.2765 57.3667 69.4866 57.171 69.6692 56.9236L69.7844 57.0497C69.321 57.6597 68.7601 57.9648 68.1021 57.9648C67.5571 57.9648 67.102 57.8195 66.7368 57.5288C66.3742 57.2358 66.193 56.8745 66.193 56.4445C66.193 55.9834 66.3779 55.5979 66.7477 55.2881C67.12 54.9759 67.5846 54.8199 68.1418 54.8199C68.5764 54.8199 68.951 54.958 69.2657 55.2341C69.5827 55.508 69.7761 55.8813 69.8458 56.3546ZM68.6066 56.2068V55.3531C68.6066 55.0912 68.4984 54.9605 68.2822 54.9605C68.0445 54.9605 67.9258 55.0912 67.9258 55.3531V56.2068H68.6066ZM73.0829 56.8049C72.9316 57.266 72.7467 57.565 72.5282 57.7017C72.3122 57.8363 72.0503 57.9034 71.7429 57.9034C71.0633 57.9034 70.7235 57.6406 70.7235 57.1145V55.0181H70.3633V54.874C70.7788 54.8332 71.1703 54.6518 71.5375 54.3299C71.9076 54.0081 72.1284 53.6996 72.2003 53.4043H72.3624V54.874H72.8417V55.0181H72.3624V56.9812C72.3624 57.1518 72.3709 57.26 72.3878 57.3054C72.4069 57.351 72.4406 57.3739 72.4885 57.3739C72.6206 57.3739 72.7553 57.1698 72.892 56.7615L73.0829 56.8049ZM74.9118 52.9467C75.1135 52.9467 75.2719 52.9971 75.3872 53.0979C75.5025 53.1966 75.5601 53.3333 75.5601 53.5087C75.5601 53.6865 75.4605 53.8449 75.2613 53.9841C75.0642 54.1234 74.8337 54.193 74.5697 54.193C74.3726 54.193 74.2142 54.145 74.0941 54.0491C73.9739 53.953 73.914 53.8269 73.914 53.6708C73.914 53.4739 74.0113 53.3045 74.2056 53.1629C74.4028 53.0188 74.6379 52.9467 74.9118 52.9467ZM76.0754 57.8675H73.4709V57.7197H73.9608V55.0181H73.4709V54.874H74.6884C74.996 54.874 75.2984 54.8415 75.5963 54.7767V57.7197H76.0754V57.8675ZM79.7953 57.2551C79.6201 57.5048 79.4195 57.6863 79.1938 57.799C78.9704 57.9094 78.6967 57.9648 78.3726 57.9648C77.8082 57.9648 77.3565 57.8241 77.0181 57.5433C76.6817 57.2623 76.5137 56.8913 76.5137 56.4302C76.5137 55.9643 76.6997 55.58 77.072 55.2775C77.4467 54.9725 77.9221 54.8199 78.4984 54.8199C78.8899 54.8199 79.1949 54.8955 79.4135 55.0469C79.6346 55.1982 79.745 55.4059 79.745 55.6701C79.745 55.8382 79.6908 55.9763 79.5829 56.0844C79.4748 56.19 79.3342 56.2428 79.1613 56.2428C78.9884 56.2428 78.8456 56.1912 78.7327 56.0879C78.6199 55.9846 78.5635 55.8525 78.5635 55.6916C78.5635 55.5332 78.6126 55.3988 78.711 55.2881C78.8094 55.1777 78.9284 55.1226 79.0677 55.1226C79.1373 55.1226 79.1986 55.1297 79.2514 55.1442L79.2659 55.1297C79.141 55.0264 78.9369 54.9748 78.6534 54.9748C78.4998 54.9748 78.394 55.0061 78.3364 55.0684C78.2813 55.1309 78.2536 55.245 78.2536 55.4107V57.1721C78.2536 57.3981 78.2824 57.5516 78.34 57.6332C78.3977 57.7151 78.5141 57.7559 78.6896 57.7559C78.8576 57.7559 79.028 57.7054 79.2009 57.6044C79.3764 57.5011 79.5313 57.357 79.6657 57.1721L79.7953 57.2551Z" fill="#2B463C"/>
        <path d="M62.7011 49.7983H55.6765V49.4015H56.504V44.0908H54.5199V49.4015H55.398V49.7983H48.2552V49.4015H49.5892V38.8731H48.2552V38.4763H55.398V38.8731H54.5199V43.7109H56.504V38.8731H55.6765V38.4763H62.7011V38.8731H61.3501V49.4015H62.7011V49.7983Z" fill="#2B463C"/>
        <path d="M45.9041 47.8057C45.2512 48.6389 44.5757 49.2383 43.8778 49.6042C43.1797 49.9643 42.3131 50.1443 41.2775 50.1443C39.4707 50.1443 37.9876 49.5843 36.8279 48.4643C35.674 47.3441 35.0972 45.8977 35.0972 44.1248C35.0972 42.3067 35.6629 40.8517 36.7942 39.7598C37.9311 38.6622 39.4114 38.1132 41.235 38.1132C42.4115 38.1132 43.3683 38.4173 44.1058 39.025L45.8365 38.1303V42.8159H45.4398C45.4398 41.9943 45.2314 41.2625 44.815 40.6209C44.3984 39.9793 43.9059 39.4896 43.3374 39.1518C42.7746 38.8141 42.2089 38.6453 41.6403 38.6453C41.3646 38.6453 41.1366 38.7129 40.9565 38.8477C40.7765 38.9773 40.6637 39.1491 40.6188 39.3628C40.5738 39.5767 40.5512 39.9032 40.5512 40.3422V47.8057C40.5512 48.453 40.6527 48.9201 40.8551 49.2074C41.0578 49.4887 41.3983 49.6295 41.8769 49.6295C43.2277 49.6295 44.4378 48.9314 45.5073 47.5357L45.9041 47.8057Z" fill="#2B463C"/>
        <path d="M32.833 49.7983H25.2258V49.4015H26.5344V38.8731H25.2258V38.4763H32.833V38.8731H31.4651V49.4015H32.833V49.7983Z" fill="#2B463C"/>
    </g>
    <defs>
        <clipPath id="clip0_705_4346">
            <rect width="80" height="59.7118" fill="white"/>
        </clipPath>
    </defs>
</svg>
