<svg width="375" height="359" viewBox="0 0 375 359" fill="none" xmlns="http://www.w3.org/2000/svg">
<path opacity="0.2" fill-rule="evenodd" clip-rule="evenodd" d="M-482 0L-414 40C-350 80 -214 160 -82 220C50 280 186 320 318 272C450 220 586 80 718 32C850 -20 986 20 1118 40C1250 60 1386 60 1450 60H1518V420H1450C1386 420 1250 420 1118 420C986 420 850 420 718 420C586 420 450 420 318 420C186 420 50 420 -82 420C-214 420 -350 420 -414 420H-482V0Z" fill="url(#paint0_linear_678_2575)"/>
<path opacity="0.2" fill-rule="evenodd" clip-rule="evenodd" d="M-342 210L-308 230C-276 250 -208 290 -142 320C-76 350 -8 370 58 346C124 320 192 250 258 226C324 200 392 220 458 230C524 240 592 240 624 240H658V420H624C592 420 524 420 458 420C392 420 324 420 258 420C192 420 124 420 58 420C-8 420 -76 420 -142 420C-208 420 -276 420 -308 420H-342V210Z" fill="url(#paint1_linear_678_2575)"/>
<defs>
<linearGradient id="paint0_linear_678_2575" x1="315.138" y1="445.611" x2="50.8617" y2="165.889" gradientUnits="userSpaceOnUse">
<stop stop-color="#C2A353"/>
<stop offset="1" stop-color="#00674F"/>
</linearGradient>
<linearGradient id="paint1_linear_678_2575" x1="263.5" y1="227.5" x2="131.5" y2="361.5" gradientUnits="userSpaceOnUse">
<stop stop-color="#C2A353"/>
<stop offset="1" stop-color="#00674F"/>
</linearGradient>
</defs>
</svg>
