<svg width="25" height="25" viewBox="0 0 25 25" fill="none" xmlns="http://www.w3.org/2000/svg">
<g id="vuesax/bold/setting-4">
<g id="setting-4">
<path id="Vector" d="M22.1881 7.89583H16.3757C15.9694 7.89583 15.6465 7.57292 15.6465 7.16667C15.6465 6.76042 15.9694 6.4375 16.3757 6.4375H22.1881C22.5944 6.4375 22.9173 6.76042 22.9173 7.16667C22.9173 7.57292 22.5944 7.89583 22.1881 7.89583Z" fill="#C2A353"/>
<path id="Vector_2" d="M6.68815 7.89583H2.81315C2.4069 7.89583 2.08398 7.57292 2.08398 7.16667C2.08398 6.76042 2.4069 6.4375 2.81315 6.4375H6.68815C7.0944 6.4375 7.41732 6.76042 7.41732 7.16667C7.41732 7.57292 7.08398 7.89583 6.68815 7.89583Z" fill="#C2A353"/>
<path id="Vector_3" d="M10.5619 11.2814C12.8343 11.2814 14.6764 9.43925 14.6764 7.16683C14.6764 4.89441 12.8343 3.05225 10.5619 3.05225C8.28943 3.05225 6.44727 4.89441 6.44727 7.16683C6.44727 9.43925 8.28943 11.2814 10.5619 11.2814Z" fill="#C2A353"/>
<path id="Vector_4" d="M22.1882 18.5521H18.3132C17.9069 18.5521 17.584 18.2292 17.584 17.8229C17.584 17.4167 17.9069 17.0938 18.3132 17.0938H22.1882C22.5944 17.0938 22.9173 17.4167 22.9173 17.8229C22.9173 18.2292 22.5944 18.5521 22.1882 18.5521Z" fill="#C2A353"/>
<path id="Vector_5" d="M8.62565 18.5521H2.81315C2.4069 18.5521 2.08398 18.2292 2.08398 17.8229C2.08398 17.4167 2.4069 17.0938 2.81315 17.0938H8.62565C9.0319 17.0938 9.35482 17.4167 9.35482 17.8229C9.35482 18.2292 9.02148 18.5521 8.62565 18.5521Z" fill="#C2A353"/>
<path id="Vector_6" d="M14.4368 21.9479C16.7093 21.9479 18.5514 20.1058 18.5514 17.8333C18.5514 15.5609 16.7093 13.7188 14.4368 13.7188C12.1644 13.7188 10.3223 15.5609 10.3223 17.8333C10.3223 20.1058 12.1644 21.9479 14.4368 21.9479Z" fill="#C2A353"/>
</g>
</g>
</svg>
