<svg width="30" height="30" viewBox="0 0 30 30" fill="none"
    xmlns="http://www.w3.org/2000/svg">
    <g id="vuesax/bold/play-circle">
        <g id="play-circle">
            <path id="Vector" d="M14.9629 2.5C8.06289 2.5 2.46289 8.1 2.46289 15C2.46289 21.9 8.06289 27.5 14.9629 27.5C21.8629 27.5 27.4629 21.9 27.4629 15C27.4629 8.1 21.8754 2.5 14.9629 2.5ZM18.7129 17.7875L15.0879 19.875C14.6379 20.1375 14.1379 20.2625 13.6504 20.2625C13.1504 20.2625 12.6629 20.1375 12.2129 19.875C11.3129 19.35 10.7754 18.425 10.7754 17.375V13.1875C10.7754 12.15 11.3129 11.2125 12.2129 10.6875C13.1129 10.1625 14.1879 10.1625 15.1004 10.6875L18.7254 12.775C19.6254 13.3 20.1629 14.225 20.1629 15.275C20.1629 16.325 19.6254 17.2625 18.7129 17.7875Z" fill="black"/>
        </g>
    </g>
</svg>
