<svg width="1280" height="348" viewBox="0 0 1280 348" fill="none" xmlns="http://www.w3.org/2000/svg">
<g clip-path="url(#clip0_1285_1494)">
<rect width="1280" height="347" transform="translate(0 0.285156)" fill="url(#paint0_linear_1285_1494)"/>
<path opacity="0.2" fill-rule="evenodd" clip-rule="evenodd" d="M-700 -74.7148L-564 -34.7148C-436 5.28516 -164 85.2852 100 145.285C364 205.285 636 245.285 900 197.285C1164 145.285 1436 5.28516 1700 -42.7148C1964 -94.7148 2236 -54.7148 2500 -34.7148C2764 -14.7148 3036 -14.7148 3164 -14.7148H3300V345.285H3164C3036 345.285 2764 345.285 2500 345.285C2236 345.285 1964 345.285 1700 345.285C1436 345.285 1164 345.285 900 345.285C636 345.285 364 345.285 100 345.285C-164 345.285 -436 345.285 -564 345.285H-700V-74.7148Z" fill="#C2A353"/>
<path opacity="0.2" fill-rule="evenodd" clip-rule="evenodd" d="M-420 135.285L-352 155.285C-288 175.285 -152 215.285 -20 245.285C112 275.285 248 295.285 380 271.285C512 245.285 648 175.285 780 151.285C912 125.285 1048 145.285 1180 155.285C1312 165.285 1448 165.285 1512 165.285H1580V345.285H1512C1448 345.285 1312 345.285 1180 345.285C1048 345.285 912 345.285 780 345.285C648 345.285 512 345.285 380 345.285C248 345.285 112 345.285 -20 345.285C-152 345.285 -288 345.285 -352 345.285H-420V135.285Z" fill="#C2A353"/>
</g>
<defs>
<linearGradient id="paint0_linear_1285_1494" x1="1280" y1="340.949" x2="422.671" y2="-352.133" gradientUnits="userSpaceOnUse">
<stop stop-color="#00674F"/>
<stop offset="1" stop-color="#C2A353"/>
</linearGradient>
<clipPath id="clip0_1285_1494">
<rect width="1280" height="347" fill="white" transform="translate(0 0.285156)"/>
</clipPath>
</defs>
</svg>
