<svg width="15" height="16" viewBox="0 0 15 16" fill="none" xmlns="http://www.w3.org/2000/svg">
<path d="M6.90625 10.2236L5.75 11.3799C5.50625 11.6236 5.11875 11.6236 4.86875 11.3861C4.8 11.3174 4.73125 11.2549 4.6625 11.1861C4.01875 10.5361 3.4375 9.85488 2.91875 9.14238C2.40625 8.42988 1.99375 7.71738 1.69375 7.01113C1.4 6.29863 1.25 5.61738 1.25 4.96738C1.25 4.54238 1.325 4.13613 1.475 3.76113C1.625 3.37988 1.8625 3.02988 2.19375 2.71738C2.59375 2.32363 3.03125 2.12988 3.49375 2.12988C3.66875 2.12988 3.84375 2.16738 4 2.24238C4.1625 2.31738 4.30625 2.42988 4.41875 2.59238L5.86875 4.63613C5.98125 4.79238 6.0625 4.93613 6.11875 5.07363C6.175 5.20488 6.20625 5.33613 6.20625 5.45488C6.20625 5.60488 6.1625 5.75488 6.075 5.89863C5.99375 6.04238 5.875 6.19238 5.725 6.34238L5.25 6.83613C5.18125 6.90488 5.15 6.98613 5.15 7.08613C5.15 7.13613 5.15625 7.17988 5.16875 7.22988C5.1875 7.27988 5.20625 7.31738 5.21875 7.35488C5.33125 7.56113 5.525 7.82988 5.8 8.15488C6.08125 8.47988 6.38125 8.81113 6.70625 9.14238C6.76875 9.20488 6.8375 9.26738 6.9 9.32988C7.15 9.57363 7.15625 9.97363 6.90625 10.2236Z" fill="#E8EBE0"/>
<path d="M13.7313 12.3365C13.7313 12.5115 13.7 12.6928 13.6375 12.8678C13.6188 12.9178 13.6 12.9678 13.575 13.0178C13.4688 13.2428 13.3313 13.4553 13.15 13.6553C12.8438 13.9928 12.5063 14.2365 12.125 14.3928C12.1188 14.3928 12.1125 14.399 12.1063 14.399C11.7375 14.549 11.3375 14.6303 10.9063 14.6303C10.2688 14.6303 9.5875 14.4803 8.86875 14.174C8.15 13.8678 7.43125 13.4553 6.71875 12.9365C6.475 12.7553 6.23125 12.574 6 12.3803L8.04375 10.3365C8.21875 10.4678 8.375 10.5678 8.50625 10.6365C8.5375 10.649 8.575 10.6678 8.61875 10.6865C8.66875 10.7053 8.71875 10.7115 8.775 10.7115C8.88125 10.7115 8.9625 10.674 9.03125 10.6053L9.50625 10.1365C9.6625 9.98027 9.8125 9.86152 9.95625 9.78652C10.1 9.69902 10.2437 9.65527 10.4 9.65527C10.5187 9.65527 10.6438 9.68027 10.7812 9.73652C10.9188 9.79277 11.0625 9.87402 11.2188 9.98027L13.2875 11.449C13.45 11.5615 13.5625 11.6928 13.6313 11.849C13.6938 12.0053 13.7313 12.1615 13.7313 12.3365Z" fill="#E8EBE0"/>
</svg>
