<svg width="15" height="16" viewBox="0 0 15 16" fill="none" xmlns="http://www.w3.org/2000/svg">
<path d="M7.5 2.12988C4.05625 2.12988 1.25 4.93613 1.25 8.37988C1.25 11.8236 4.05625 14.6299 7.5 14.6299C10.9438 14.6299 13.75 11.8236 13.75 8.37988C13.75 4.93613 10.9438 2.12988 7.5 2.12988ZM10.2188 10.6111C10.1313 10.7611 9.975 10.8424 9.8125 10.8424C9.73125 10.8424 9.65 10.8236 9.575 10.7736L7.6375 9.61738C7.15625 9.32988 6.8 8.69863 6.8 8.14238V5.57988C6.8 5.32363 7.0125 5.11113 7.26875 5.11113C7.525 5.11113 7.7375 5.32363 7.7375 5.57988V8.14238C7.7375 8.36738 7.925 8.69863 8.11875 8.81113L10.0562 9.96738C10.2812 10.0986 10.3562 10.3861 10.2188 10.6111Z" fill="#E8EBE0"/>
</svg>
