<svg width="15" height="16" viewBox="0 0 15 16" fill="none" xmlns="http://www.w3.org/2000/svg">
<g id="vuesax/bold/sms">
<g id="sms">
<path id="Vector" d="M10.625 2.78223H4.375C2.5 2.78223 1.25 3.71973 1.25 5.90723V10.2822C1.25 12.4697 2.5 13.4072 4.375 13.4072H10.625C12.5 13.4072 13.75 12.4697 13.75 10.2822V5.90723C13.75 3.71973 12.5 2.78223 10.625 2.78223ZM10.9187 6.58848L8.9625 8.15098C8.55 8.48223 8.025 8.64473 7.5 8.64473C6.975 8.64473 6.44375 8.48223 6.0375 8.15098L4.08125 6.58848C3.88125 6.42598 3.85 6.12598 4.00625 5.92598C4.16875 5.72598 4.4625 5.68848 4.6625 5.85098L6.61875 7.41348C7.09375 7.79473 7.9 7.79473 8.375 7.41348L10.3313 5.85098C10.5312 5.68848 10.8313 5.71973 10.9875 5.92598C11.15 6.12598 11.1187 6.42598 10.9187 6.58848Z" fill="white"/>
</g>
</g>
</svg>
