<svg width="375" height="267" viewBox="0 0 375 267" fill="none" xmlns="http://www.w3.org/2000/svg">
<g clip-path="url(#clip0_1144_4022)">
<rect width="375" height="266" transform="translate(0 0.285156)" fill="url(#paint0_linear_1144_4022)"/>
<path opacity="0.2" fill-rule="evenodd" clip-rule="evenodd" d="M-471 -71.7148L-403 -31.7148C-339 8.28516 -203 88.2852 -71 148.285C61 208.285 197 248.285 329 200.285C461 148.285 597 8.28516 729 -39.7148C861 -91.7148 997 -51.7148 1129 -31.7148C1261 -11.7148 1397 -11.7148 1461 -11.7148H1529V348.285H1461C1397 348.285 1261 348.285 1129 348.285C997 348.285 861 348.285 729 348.285C597 348.285 461 348.285 329 348.285C197 348.285 61 348.285 -71 348.285C-203 348.285 -339 348.285 -403 348.285H-471V-71.7148Z" fill="#C2A353"/>
<path opacity="0.2" fill-rule="evenodd" clip-rule="evenodd" d="M-331 138.285L-297 158.285C-265 178.285 -197 218.285 -131 248.285C-65 278.285 3 298.285 69 274.285C135 248.285 203 178.285 269 154.285C335 128.285 403 148.285 469 158.285C535 168.285 603 168.285 635 168.285H669V348.285H635C603 348.285 535 348.285 469 348.285C403 348.285 335 348.285 269 348.285C203 348.285 135 348.285 69 348.285C3 348.285 -65 348.285 -131 348.285C-197 348.285 -265 348.285 -297 348.285H-331V138.285Z" fill="#C2A353"/>
</g>
<defs>
<linearGradient id="paint0_linear_1144_4022" x1="9.31706e-06" y1="-0.284679" x2="441" y2="360.715" gradientUnits="userSpaceOnUse">
<stop stop-color="#C2A353"/>
<stop offset="1" stop-color="#00674F"/>
</linearGradient>
<clipPath id="clip0_1144_4022">
<rect width="375" height="266" fill="white" transform="translate(0 0.285156)"/>
</clipPath>
</defs>
</svg>
