<svg width="15" height="16" viewBox="0 0 15 16" fill="none" xmlns="http://www.w3.org/2000/svg">
<g clip-path="url(#clip0_1086_5166)">
<path d="M12.8877 6.16113C12.2314 3.27363 9.71268 1.97363 7.50018 1.97363C7.50018 1.97363 7.50018 1.97363 7.49393 1.97363C5.28768 1.97363 2.76268 3.26738 2.10643 6.15488C1.37518 9.37988 3.35018 12.1111 5.13768 13.8299C5.80018 14.4674 6.65018 14.7861 7.50018 14.7861C8.35018 14.7861 9.20018 14.4674 9.85643 13.8299C11.6439 12.1111 13.6189 9.38613 12.8877 6.16113ZM7.50018 9.29238C6.41268 9.29238 5.53143 8.41113 5.53143 7.32363C5.53143 6.23613 6.41268 5.35488 7.50018 5.35488C8.58768 5.35488 9.46893 6.23613 9.46893 7.32363C9.46893 8.41113 8.58768 9.29238 7.50018 9.29238Z" fill="#E8EBE0"/>
</g>
<defs>
<clipPath id="clip0_1086_5166">
<rect width="15" height="15" fill="white" transform="translate(0 0.879883)"/>
</clipPath>
</defs>
</svg>
