<svg width="50" height="25" viewBox="0 0 50 25" fill="none" xmlns="http://www.w3.org/2000/svg">
<g filter="url(#filter0_b_260_2389)">
<rect width="50" height="25" rx="12.5" fill="url(#paint0_linear_260_2389)"/>
<path d="M18.5685 8.27273V17H17.2475V9.59375H17.1964L15.1083 10.9574V9.69602L17.2859 8.27273H18.5685ZM23.9677 17.1449C23.2944 17.142 22.7191 16.9645 22.2418 16.6122C21.7646 16.2599 21.3995 15.7472 21.1467 15.0739C20.8938 14.4006 20.7674 13.5895 20.7674 12.6406C20.7674 11.6946 20.8938 10.8864 21.1467 10.2159C21.4023 9.54545 21.7688 9.03409 22.2461 8.68182C22.7262 8.32955 23.3001 8.15341 23.9677 8.15341C24.6353 8.15341 25.2077 8.33097 25.685 8.68608C26.1623 9.03835 26.5273 9.54972 26.7802 10.2202C27.0359 10.8878 27.1637 11.6946 27.1637 12.6406C27.1637 13.5923 27.0373 14.4048 26.7844 15.0781C26.5316 15.7486 26.1665 16.2614 25.6893 16.6165C25.212 16.9688 24.6381 17.1449 23.9677 17.1449ZM23.9677 16.0071C24.5586 16.0071 25.0202 15.7188 25.3526 15.142C25.6879 14.5653 25.8555 13.7315 25.8555 12.6406C25.8555 11.9162 25.7788 11.304 25.6254 10.804C25.4748 10.3011 25.2575 9.92045 24.9734 9.66193C24.6921 9.40057 24.3569 9.26989 23.9677 9.26989C23.3796 9.26989 22.918 9.55966 22.5827 10.1392C22.2475 10.7187 22.0785 11.5526 22.0756 12.6406C22.0756 13.3679 22.1509 13.983 22.3015 14.4858C22.4549 14.9858 22.6722 15.3651 22.9535 15.6236C23.2347 15.8793 23.5728 16.0071 23.9677 16.0071ZM31.7138 17.1449C31.0405 17.142 30.4652 16.9645 29.9879 16.6122C29.5107 16.2599 29.1456 15.7472 28.8928 15.0739C28.6399 14.4006 28.5135 13.5895 28.5135 12.6406C28.5135 11.6946 28.6399 10.8864 28.8928 10.2159C29.1484 9.54545 29.5149 9.03409 29.9922 8.68182C30.4723 8.32955 31.0462 8.15341 31.7138 8.15341C32.3814 8.15341 32.9538 8.33097 33.4311 8.68608C33.9084 9.03835 34.2734 9.54972 34.5263 10.2202C34.782 10.8878 34.9098 11.6946 34.9098 12.6406C34.9098 13.5923 34.7834 14.4048 34.5305 15.0781C34.2777 15.7486 33.9126 16.2614 33.4354 16.6165C32.9581 16.9688 32.3842 17.1449 31.7138 17.1449ZM31.7138 16.0071C32.3047 16.0071 32.7663 15.7188 33.0987 15.142C33.4339 14.5653 33.6016 13.7315 33.6016 12.6406C33.6016 11.9162 33.5249 11.304 33.3714 10.804C33.2209 10.3011 33.0036 9.92045 32.7195 9.66193C32.4382 9.40057 32.103 9.26989 31.7138 9.26989C31.1257 9.26989 30.6641 9.55966 30.3288 10.1392C29.9936 10.7187 29.8246 11.5526 29.8217 12.6406C29.8217 13.3679 29.897 13.983 30.0476 14.4858C30.201 14.9858 30.4183 15.3651 30.6996 15.6236C30.9808 15.8793 31.3189 16.0071 31.7138 16.0071Z" fill="white"/>
</g>
<defs>
<filter id="filter0_b_260_2389" x="-10" y="-10" width="70" height="45" filterUnits="userSpaceOnUse" color-interpolation-filters="sRGB">
<feFlood flood-opacity="0" result="BackgroundImageFix"/>
<feGaussianBlur in="BackgroundImageFix" stdDeviation="5"/>
<feComposite in2="SourceAlpha" operator="in" result="effect1_backgroundBlur_260_2389"/>
<feBlend mode="normal" in="SourceGraphic" in2="effect1_backgroundBlur_260_2389" result="shape"/>
</filter>
<linearGradient id="paint0_linear_260_2389" x1="50" y1="12.8193" x2="-0.000524316" y2="12.7752" gradientUnits="userSpaceOnUse">
<stop stop-color="#C2A353"/>
<stop offset="1" stop-color="#EAC564"/>
</linearGradient>
</defs>
</svg>
