<svg width="50" height="25" viewBox="0 0 50 25" fill="none" xmlns="http://www.w3.org/2000/svg">
<g filter="url(#filter0_b_260_2383)">
<rect width="50" height="25" rx="12.5" fill="url(#paint0_linear_260_2383)"/>
<path d="M25.0048 17.1449C24.3315 17.142 23.7562 16.9645 23.2789 16.6122C22.8017 16.2599 22.4366 15.7472 22.1838 15.0739C21.9309 14.4006 21.8045 13.5895 21.8045 12.6406C21.8045 11.6946 21.9309 10.8864 22.1838 10.2159C22.4395 9.54545 22.8059 9.03409 23.2832 8.68182C23.7633 8.32955 24.3372 8.15341 25.0048 8.15341C25.6724 8.15341 26.2449 8.33097 26.7221 8.68608C27.1994 9.03835 27.5645 9.54972 27.8173 10.2202C28.073 10.8878 28.2008 11.6946 28.2008 12.6406C28.2008 13.5923 28.0744 14.4048 27.8216 15.0781C27.5687 15.7486 27.2037 16.2614 26.7264 16.6165C26.2491 16.9688 25.6752 17.1449 25.0048 17.1449ZM25.0048 16.0071C25.5957 16.0071 26.0574 15.7188 26.3897 15.142C26.725 14.5653 26.8926 13.7315 26.8926 12.6406C26.8926 11.9162 26.8159 11.304 26.6625 10.804C26.5119 10.3011 26.2946 9.92045 26.0105 9.66193C25.7292 9.40057 25.394 9.26989 25.0048 9.26989C24.4167 9.26989 23.9551 9.55966 23.6199 10.1392C23.2846 10.7187 23.1156 11.5526 23.1127 12.6406C23.1127 13.3679 23.188 13.983 23.3386 14.4858C23.492 14.9858 23.7093 15.3651 23.9906 15.6236C24.2718 15.8793 24.6099 16.0071 25.0048 16.0071Z" fill="white"/>
</g>
<defs>
<filter id="filter0_b_260_2383" x="-10" y="-10" width="70" height="45" filterUnits="userSpaceOnUse" color-interpolation-filters="sRGB">
<feFlood flood-opacity="0" result="BackgroundImageFix"/>
<feGaussianBlur in="BackgroundImageFix" stdDeviation="5"/>
<feComposite in2="SourceAlpha" operator="in" result="effect1_backgroundBlur_260_2383"/>
<feBlend mode="normal" in="SourceGraphic" in2="effect1_backgroundBlur_260_2383" result="shape"/>
</filter>
<linearGradient id="paint0_linear_260_2383" x1="50" y1="12.8193" x2="-0.000524316" y2="12.7752" gradientUnits="userSpaceOnUse">
<stop stop-color="#C2A353"/>
<stop offset="1" stop-color="#EAC564"/>
</linearGradient>
</defs>
</svg>
